<?xml version="1.0" encoding="UTF-8"?>
<svg xmlns="http://www.w3.org/2000/svg" xmlns:xlink="http://www.w3.org/1999/xlink" version="1.2" >
<font id="Avenir Next Condensed Bold">
<font-face  font-family="Avenir Next Condensed" units-per-em="1000" ascent="1000" descent="-366" font-style="normal" font-weight="700" font-stretch="condensed" cap-height="708" x-height="523" underline-position="-75" underline-thickness="50" />
<missing-glyph  horiz-adv-x="512" d="M222 117 L222 184 L278 184 L278 117 L222 117 Z M225 234 L223 251 Q223 307 236 332 Q243 345 254 359.5 Q265 374 282 391 Q298 406 308 417.5 Q318 429 323 438.5 Q328 448 330 456.5 Q332 465 332 474 Q332 510 309.5 534.5 Q287 559 256 559 Q225 559 202.5 537 Q180 515 174 464 L124 472 Q131 544 168 576.5 Q205 609 259 609 Q313 609 348 573.5 Q383 538 383 478 Q383 446 370.5 419.5 Q358 393 320 358 Q283 325 277 306 Q271 286 271 234 L225 234 Z M462 50 L462 667 L50 667 L50 50 L462 50 Z M512 718 L512 0 L0 0 L0 718 L512 718 Z " />
<glyph glyph-name=".null" horiz-adv-x="200" d="" />
<glyph glyph-name="nonmarkingreturn" unicode="&#xd;" d="" />
<glyph glyph-name="space" unicode="&#x20;" horiz-adv-x="200" d="" />
<glyph glyph-name="exclam" unicode="&#x21;" horiz-adv-x="328" d="M87 241 L87 708 L242 708 L242 241 L87 241 Z M249 81 Q249 43 225.5 17 Q202 -9 164 -9 Q127 -9 103.5 17 Q80 43 80 81 Q80 118 103.5 145 Q127 172 164 172 Q202 172 225.5 145 Q249 118 249 81 Z " />
<glyph glyph-name="quotedbl" unicode="&#x22;" horiz-adv-x="393" d="M221 440 L221 708 L323 708 L323 440 L221 440 Z M69 440 L69 708 L172 708 L172 440 L69 440 Z " />
<glyph glyph-name="numbersign" unicode="&#x23;" horiz-adv-x="429" d="M327 407 L318 302 L369 302 L369 203 L308 203 L288 0 L205 0 L225 203 L175 203 L155 0 L71 0 L91 203 L30 203 L30 302 L101 302 L112 407 L50 407 L50 506 L121 506 L140 708 L224 708 L205 506 L255 506 L275 708 L358 708 L338 506 L398 506 L398 407 L327 407 Z M194 407 L185 302 L235 302 L245 407 L194 407 Z " />
<glyph glyph-name="dollar" unicode="&#x24;" horiz-adv-x="525" d="M230 786 L292 786 L292 711 Q343 709 384 691 Q425 673 453 643 L374 531 Q357 551 334 562 Q311 573 286 573 Q260 573 240 557 Q220 541 220 503 Q220 487 225 475.5 Q230 464 240.5 454 Q251 444 266.5 434.5 Q282 425 303 415 Q326 404 351.5 388.5 Q377 373 398 349.5 Q419 326 432.5 294 Q446 262 446 218 Q446 172 433.5 135.5 Q421 99 399.5 72 Q378 45 348.5 28 Q319 11 286 4 L286 -82 L224 -82 L224 -1 Q167 1 120 23.5 Q73 46 44 75 L122 190 Q144 167 173 153 Q202 139 231 139 Q259 139 278 157.5 Q297 176 297 208 Q297 241 274 261 Q251 281 207 302 Q180 316 155.5 332.5 Q131 349 112.5 371.5 Q94 394 83.5 424.5 Q73 455 73 497 Q73 543 86 579 Q99 615 120.5 640.5 Q142 666 170.5 682 Q199 698 230 705 L230 786 Z " />
<glyph glyph-name="percent" unicode="&#x25;" horiz-adv-x="694" d="M673 172 Q673 131 663 97 Q653 63 634.5 38 Q616 13 589.5 -1 Q563 -15 529 -15 Q496 -15 469.5 -1 Q443 13 424.5 38 Q406 63 396 97 Q386 131 386 172 Q386 213 396 247.5 Q406 282 424.5 307 Q443 332 469.5 346 Q496 360 529 360 Q563 360 589.5 346 Q616 332 634.5 307 Q653 282 663 247.5 Q673 213 673 172 Z M576 173 Q576 214 565 242 Q554 270 529 270 Q506 270 494.5 242 Q483 214 483 173 Q483 132 494.5 104 Q506 76 529 76 Q554 76 565 104 Q576 132 576 173 Z M310 531 Q310 490 300 456 Q290 422 271.5 397 Q253 372 226.5 358 Q200 344 166 344 Q133 344 106.5 358 Q80 372 61.5 397 Q43 422 33 456 Q23 490 23 531 Q23 572 33 606.5 Q43 641 61.5 666.5 Q80 692 106.5 706 Q133 720 166 720 Q200 720 226.5 706 Q253 692 271.5 666.5 Q290 641 300 606.5 Q310 572 310 531 Z M214 532 Q214 574 202.5 601.5 Q191 629 166 629 Q143 629 131.5 601.5 Q120 574 120 532 Q120 492 131.5 463.5 Q143 435 166 435 Q191 435 202.5 463.5 Q214 492 214 532 Z M236 -21 L161 6 L464 738 L538 709 L236 -21 Z " />
<glyph glyph-name="ampersand" unicode="&#x26;" horiz-adv-x="607" d="M424 0 L383 59 Q363 28 324.5 6.5 Q286 -15 231 -15 Q138 -15 84 40 Q30 95 30 198 Q30 270 63 318.5 Q96 367 147 394 Q123 426 109.5 462.5 Q96 499 96 542 Q96 585 110.5 619.5 Q125 654 150.5 678 Q176 702 210.5 715 Q245 728 285 728 Q323 728 355 716.5 Q387 705 410.5 682.5 Q434 660 447 627.5 Q460 595 460 553 Q460 519 449.5 491.5 Q439 464 421 441 Q403 418 379.5 399.5 Q356 381 331 365 L390 283 L439 388 L590 388 L476 175 L602 0 L424 0 Z M330 544 Q330 573 319 592.5 Q308 612 286 612 Q263 612 250 591 Q237 570 237 542 Q237 492 271 450 Q294 465 312 488.5 Q330 512 330 544 Z M216 295 Q202 287 188 264.5 Q174 242 174 208 Q174 166 193 141.5 Q212 117 244 117 Q270 117 285 132.5 Q300 148 307 164 L216 295 Z " />
<glyph glyph-name="quotesingle" unicode="&#x27;" horiz-adv-x="240" d="M69 440 L69 708 L171 708 L171 440 L69 440 Z " />
<glyph glyph-name="parenleft" unicode="&#x28;" horiz-adv-x="282" d="M144 -175 Q115 -126 92.5 -70.5 Q70 -15 55 44.5 Q40 104 32 166 Q24 228 24 288 Q24 348 32 410 Q40 472 55 531.5 Q70 591 92.5 646.5 Q115 702 144 751 L241 707 Q190 617 162.5 508.5 Q135 400 135 288 Q135 176 162.5 67.5 Q190 -41 241 -131 L144 -175 Z " />
<glyph glyph-name="parenright" unicode="&#x29;" horiz-adv-x="282" d="M258 288 Q258 228 250 166 Q242 104 227 44.5 Q212 -15 189.5 -70.5 Q167 -126 138 -175 L41 -131 Q92 -41 119.5 67.5 Q147 176 147 288 Q147 400 119.5 508.5 Q92 617 41 707 L138 751 Q167 702 189.5 646.5 Q212 591 227 531.5 Q242 472 250 410 Q258 348 258 288 Z " />
<glyph glyph-name="asterisk" unicode="&#x2a;" horiz-adv-x="474" d="M327 481 L403 376 L314 311 L237 419 L162 315 L73 379 L151 482 L28 523 L64 623 L184 581 L184 708 L294 708 L294 581 L415 620 L448 519 L327 481 Z " />
<glyph glyph-name="plus" unicode="&#x2b;" horiz-adv-x="666" d="M399 240 L399 31 L269 31 L269 240 L56 240 L56 366 L268 366 L268 575 L398 575 L398 366 L611 366 L611 240 L399 240 Z " />
<glyph glyph-name="comma" unicode="&#x2c;" horiz-adv-x="270" d="M143 -118 L27 -118 L87 167 L224 167 L143 -118 Z " />
<glyph glyph-name="hyphen" unicode="&#x2d;" horiz-adv-x="248" d="M28 217 L28 336 L220 336 L220 217 L28 217 Z " />
<glyph glyph-name="period" unicode="&#x2e;" horiz-adv-x="270" d="M220 81 Q220 43 196 17 Q172 -9 135 -9 Q97 -9 73.5 17 Q50 43 50 81 Q50 118 73.5 145 Q97 172 135 172 Q172 172 196 145 Q220 118 220 81 Z " />
<glyph glyph-name="slash" unicode="&#x2f;" horiz-adv-x="292" d="M89 -38 L5 -20 L200 758 L283 739 L89 -38 Z " />
<glyph glyph-name="zero" unicode="0" horiz-adv-x="525" d="M495 354 Q495 294 485.5 229 Q476 164 450.5 109.5 Q425 55 379.5 20 Q334 -15 262 -15 Q190 -15 144.5 20 Q99 55 73.5 109.5 Q48 164 39 229 Q30 294 30 354 Q30 414 39 479 Q48 544 73.5 598.5 Q99 653 144.5 688 Q190 723 262 723 Q334 723 379.5 688 Q425 653 450.5 598.5 Q476 544 485.5 479 Q495 414 495 354 Z M335 354 Q335 389 332.5 429 Q330 469 322 503 Q314 537 300 559.5 Q286 582 262 582 Q238 582 224 559.5 Q210 537 202 503 Q194 469 191.5 429 Q189 389 189 354 Q189 318 191.5 278 Q194 238 202 204.5 Q210 171 224 148.5 Q238 126 262 126 Q286 126 300 148.5 Q314 171 322 204.5 Q330 238 332.5 278 Q335 318 335 354 Z " />
<glyph glyph-name="one" unicode="1" horiz-adv-x="525" d="M223 0 L223 522 L117 442 L46 566 L240 708 L380 708 L380 0 L223 0 Z " />
<glyph glyph-name="two" unicode="2" horiz-adv-x="525" d="M475 513 Q475 478 466 448 Q457 418 442 391 Q427 364 408 339 Q389 314 369 291 L237 138 L466 138 L466 0 L47 0 L47 142 L262 389 Q288 419 303 450.5 Q318 482 318 511 Q318 542 303.5 564 Q289 586 258 586 Q229 586 210 562.5 Q191 539 187 494 L37 508 Q49 616 110.5 669.5 Q172 723 263 723 Q312 723 351 708 Q390 693 417.5 666 Q445 639 460 600 Q475 561 475 513 Z " />
<glyph glyph-name="three" unicode="3" horiz-adv-x="525" d="M480 207 Q480 153 462.5 112 Q445 71 415 42.5 Q385 14 344.5 -0.5 Q304 -15 257 -15 Q170 -15 108 29.5 Q46 74 26 165 L167 201 Q175 166 195 144 Q215 122 250 122 Q269 122 283 130 Q297 138 306.5 151 Q316 164 320.5 180.5 Q325 197 325 214 Q325 260 298.5 282 Q272 304 228 304 L192 304 L192 422 L232 422 Q272 422 293.5 445.5 Q315 469 315 511 Q315 538 299.5 562 Q284 586 250 586 Q221 586 205 567 Q189 548 181 519 L44 553 Q56 599 78.5 631 Q101 663 129.5 683.5 Q158 704 192 713.5 Q226 723 261 723 Q300 723 336.5 711 Q373 699 402 675 Q431 651 448.5 615 Q466 579 466 531 Q466 469 439.5 426.5 Q413 384 369 370 L369 367 Q420 353 450 309 Q480 265 480 207 Z " />
<glyph glyph-name="four" unicode="4" horiz-adv-x="525" d="M424 142 L424 0 L282 0 L282 142 L23 142 L23 278 L230 708 L424 708 L424 274 L496 274 L496 142 L424 142 Z M285 552 L283 552 L162 274 L285 274 L285 552 Z " />
<glyph glyph-name="five" unicode="5" horiz-adv-x="525" d="M476 235 Q476 172 458.5 125.5 Q441 79 410.5 47.5 Q380 16 339 0.5 Q298 -15 252 -15 Q171 -15 111 30 Q51 75 32 166 L169 209 Q177 174 196.5 149 Q216 124 248 124 Q285 124 303.5 154.5 Q322 185 322 230 Q322 285 291.5 311 Q261 337 218 337 Q187 337 146.5 327.5 Q106 318 77 306 L92 708 L451 708 L451 569 L226 569 L221 447 Q233 452 248.5 455 Q264 458 275 458 Q323 458 360.5 442 Q398 426 423.5 397 Q449 368 462.5 327 Q476 286 476 235 Z " />
<glyph glyph-name="six" unicode="6" horiz-adv-x="525" d="M310 472 Q357 472 391.5 454 Q426 436 449 405 Q472 374 483.5 331.5 Q495 289 495 240 Q495 179 478 131.5 Q461 84 430 51.5 Q399 19 357 2 Q315 -15 265 -15 Q214 -15 171 1.5 Q128 18 97 50.5 Q66 83 48.5 130 Q31 177 31 237 Q31 302 48 354 Q65 406 91 454 L226 708 L409 708 L272 466 L273 465 Q278 468 289.5 470 Q301 472 310 472 Z M341 242 Q341 294 320.5 326.5 Q300 359 264 359 Q230 359 207.5 326 Q185 293 185 242 Q185 191 207 158 Q229 125 263 125 Q298 125 319.5 158 Q341 191 341 242 Z " />
<glyph glyph-name="seven" unicode="7" horiz-adv-x="525" d="M255 0 L81 0 L290 567 L47 567 L47 708 L464 708 L464 588 L255 0 Z " />
<glyph glyph-name="eight" unicode="8" horiz-adv-x="525" d="M496 199 Q496 153 479.5 114 Q463 75 433 46.5 Q403 18 360 1.5 Q317 -15 263 -15 Q210 -15 167.5 1.5 Q125 18 95.5 46.5 Q66 75 50 114 Q34 153 34 199 Q34 235 43.5 263.5 Q53 292 68.5 314 Q84 336 104 350 Q124 364 145 372 L145 374 Q98 393 73 432.5 Q48 472 48 529 Q48 566 61.5 601 Q75 636 101.5 663 Q128 690 168.5 706.5 Q209 723 263 723 Q317 723 358 706.5 Q399 690 426.5 663 Q454 636 468 601 Q482 566 482 529 Q482 472 457 432.5 Q432 393 386 374 L386 372 Q407 364 427 349.5 Q447 335 462.5 313.5 Q478 292 487 263.5 Q496 235 496 199 Z M329 518 Q329 557 312 582.5 Q295 608 263 608 Q231 608 214.5 582.5 Q198 557 198 518 Q198 482 215.5 454 Q233 426 263 426 Q294 426 311.5 454 Q329 482 329 518 Z M335 208 Q335 253 315 281.5 Q295 310 263 310 Q231 310 211 281.5 Q191 253 191 208 Q191 164 210 135.5 Q229 107 263 107 Q298 107 316.5 135.5 Q335 164 335 208 Z " />
<glyph glyph-name="nine" unicode="9" horiz-adv-x="525" d="M217 245 Q170 245 135 263 Q100 281 76.5 311.5 Q53 342 41.5 384 Q30 426 30 474 Q30 535 48 581.5 Q66 628 97.5 659.5 Q129 691 171.5 707 Q214 723 263 723 Q312 723 354.5 706.5 Q397 690 428 658.5 Q459 627 476.5 580.5 Q494 534 494 474 Q494 409 477 357 Q460 305 434 257 L299 0 L116 0 L255 251 L254 252 Q249 249 237.5 247 Q226 245 217 245 Z M184 472 Q184 420 204.5 388.5 Q225 357 261 357 Q295 357 317.5 389 Q340 421 340 472 Q340 523 318 554.5 Q296 586 262 586 Q227 586 205.5 554.5 Q184 523 184 472 Z " />
<glyph glyph-name="colon" unicode="&#x3a;" horiz-adv-x="300" d="M233 436 Q233 398 209.5 373 Q186 348 150 348 Q114 348 91 373 Q68 398 68 436 Q68 471 91 497 Q114 523 150 523 Q186 523 209.5 497 Q233 471 233 436 Z M233 85 Q233 47 209.5 22 Q186 -3 150 -3 Q114 -3 91 22 Q68 47 68 85 Q68 103 74 119 Q80 135 91 147 Q102 159 117 166 Q132 173 150 173 Q168 173 183 166 Q198 159 209.5 147 Q221 135 227 119 Q233 103 233 85 Z " />
<glyph glyph-name="semicolon" unicode="&#x3b;" horiz-adv-x="300" d="M233 436 Q233 398 209.5 373 Q186 348 150 348 Q114 348 91 373 Q68 398 68 436 Q68 471 91 497 Q114 523 150 523 Q186 523 209.5 497 Q233 471 233 436 Z M149 -118 L35 -118 L94 167 L230 167 L149 -118 Z " />
<glyph glyph-name="less" unicode="&#x3c;" horiz-adv-x="666" d="M79 251 L79 354 L587 568 L587 432 L281 301 L587 174 L587 37 L79 251 Z " />
<glyph glyph-name="equal" unicode="&#x3d;" horiz-adv-x="666" d="M68 335 L68 458 L598 458 L598 335 L68 335 Z M68 150 L68 273 L598 273 L598 150 L68 150 Z " />
<glyph glyph-name="greater" unicode="&#x3e;" horiz-adv-x="666" d="M79 37 L79 174 L385 301 L79 432 L79 568 L587 354 L587 251 L79 37 Z " />
<glyph glyph-name="question" unicode="&#x3f;" horiz-adv-x="428" d="M280 238 L148 238 L148 280 Q148 333 166 367.5 Q184 402 217 433 L234 451 Q248 466 258.5 482.5 Q269 499 269 520 Q269 552 256 570.5 Q243 589 214 589 Q197 589 185 581 Q173 573 165.5 561 Q158 549 153.5 535 Q149 521 148 509 L17 532 Q22 571 36.5 606 Q51 641 76.5 668 Q102 695 138 711 Q174 727 223 727 Q311 727 363.5 676 Q416 625 416 531 Q416 499 409 474 Q402 449 390 428 Q378 407 361 388.5 Q344 370 323 352 Q297 329 288.5 309.5 Q280 290 280 266 L280 238 Z M306 81 Q306 43 282.5 17 Q259 -9 221 -9 Q183 -9 159.5 17 Q136 43 136 81 Q136 118 159.5 145 Q183 172 221 172 Q259 172 282.5 145 Q306 118 306 81 Z " />
<glyph glyph-name="at" unicode="&#x40;" horiz-adv-x="640" d="M606 403 Q606 351 595 306.5 Q584 262 564 229.5 Q544 197 515 178.5 Q486 160 450 160 Q418 160 398 177 Q378 194 376 232 L374 232 Q363 203 340.5 181.5 Q318 160 283 160 Q257 160 236.5 173 Q216 186 202 209 Q188 232 180.5 263 Q173 294 173 329 Q173 372 182.5 413.5 Q192 455 210 487.5 Q228 520 254.5 540 Q281 560 315 560 Q347 560 364.5 541.5 Q382 523 387 500 L389 500 L396 534 L478 534 L455 400 Q450 365 446 336.5 Q442 308 442 294 Q442 279 446.5 267 Q451 255 467 255 Q491 255 510.5 292 Q530 329 530 401 Q530 518 476.5 583.5 Q423 649 329 649 Q281 649 242 625.5 Q203 602 175.5 562 Q148 522 133 468.5 Q118 415 118 354 Q118 290 133 236.5 Q148 183 176.5 144 Q205 105 246 83.5 Q287 62 339 62 Q389 62 434.5 82 Q480 102 514 137 L558 70 Q512 25 455.5 3.5 Q399 -18 331 -18 Q260 -18 204.5 9.5 Q149 37 111 86.5 Q73 136 53 204 Q33 272 33 353 Q33 432 54 500.5 Q75 569 113.5 619 Q152 669 206.5 697.5 Q261 726 329 726 Q393 726 444.5 705 Q496 684 532 643 Q568 602 587 541.5 Q606 481 606 403 Z M368 392 Q368 424 359.5 446 Q351 468 328 468 Q314 468 302.5 455.5 Q291 443 283 423.5 Q275 404 271 379 Q267 354 267 329 Q267 297 276.5 276 Q286 255 309 255 Q324 255 335 269 Q346 283 353.5 304 Q361 325 364.5 348.5 Q368 372 368 392 Z " />
<glyph glyph-name="A" unicode="A" horiz-adv-x="543" d="M377 0 L348 129 L189 129 L160 0 L0 0 L172 708 L373 708 L544 0 L377 0 Z M271 554 L267 554 L207 253 L328 253 L271 554 Z " />
<glyph glyph-name="B" unicode="B" horiz-adv-x="544" d="M508 202 Q508 145 489.5 106.5 Q471 68 441 44.5 Q411 21 373.5 10.5 Q336 0 298 0 L63 0 L63 708 L275 708 Q308 708 345 701 Q382 694 412.5 674.5 Q443 655 463.5 619 Q484 583 484 526 Q484 463 458.5 425.5 Q433 388 396 371 L396 369 Q416 364 436 351 Q456 338 472 317.5 Q488 297 498 268 Q508 239 508 202 Z M343 500 Q343 541 320 558 Q297 575 266 575 L212 575 L212 422 L267 422 Q296 422 319.5 440 Q343 458 343 500 Z M356 217 Q356 241 348.5 257.5 Q341 274 328.5 284.5 Q316 295 300.5 300 Q285 305 270 305 L212 305 L212 133 L272 133 Q307 133 331.5 154 Q356 175 356 217 Z " />
<glyph glyph-name="C" unicode="C" horiz-adv-x="512" d="M505 77 Q476 36 429 8.5 Q382 -19 309 -19 Q247 -19 196.5 8.5 Q146 36 110 85.5 Q74 135 54 203.5 Q34 272 34 354 Q34 437 54 506 Q74 575 110 624 Q146 673 196.5 700 Q247 727 309 727 Q380 727 427.5 701.5 Q475 676 504 638 L418 522 Q400 546 377.5 560 Q355 574 321 574 Q289 574 265.5 557 Q242 540 225.5 510.5 Q209 481 201 440.5 Q193 400 193 354 Q193 308 201 268 Q209 228 225.5 198 Q242 168 266 151 Q290 134 322 134 Q354 134 378 150 Q402 166 416 188 L505 77 L505 77 Z " />
<glyph glyph-name="D" unicode="D" horiz-adv-x="590" d="M556 352 Q556 272 538.5 207 Q521 142 485 96 Q449 50 393.5 25 Q338 0 262 0 L63 0 L63 708 L262 708 Q338 708 393.5 683 Q449 658 485 611.5 Q521 565 538.5 499.5 Q556 434 556 352 Z M395 352 Q395 459 358.5 513.5 Q322 568 264 568 L225 568 L225 140 L264 140 Q322 140 358.5 194.5 Q395 249 395 352 Z " />
<glyph glyph-name="E" unicode="E" horiz-adv-x="448" d="M63 0 L63 708 L405 708 L405 567 L216 567 L216 428 L390 428 L390 296 L216 296 L216 143 L417 143 L417 0 L63 0 Z " />
<glyph glyph-name="F" unicode="F" horiz-adv-x="432" d="M224 563 L224 419 L393 419 L393 282 L225 282 L225 0 L63 0 L63 708 L408 708 L408 563 L224 563 Z " />
<glyph glyph-name="G" unicode="G" horiz-adv-x="560" d="M513 42 Q479 16 431 0 Q383 -16 318 -16 Q251 -16 198.5 11 Q146 38 109.5 86.5 Q73 135 53.5 203 Q34 271 34 354 Q34 437 53.5 505.5 Q73 574 109 623.5 Q145 673 195.5 700 Q246 727 308 727 Q380 727 428.5 702.5 Q477 678 505 641 L418 524 Q382 574 320 574 Q287 574 263 556.5 Q239 539 223 509 Q207 479 199.5 439 Q192 399 192 354 Q192 309 199 269 Q206 229 221.5 199 Q237 169 260.5 151 Q284 133 317 133 Q353 133 373 148 L373 280 L297 280 L297 419 L513 419 L513 42 L513 42 Z " />
<glyph glyph-name="H" unicode="H" horiz-adv-x="609" d="M387 0 L387 296 L222 296 L222 0 L63 0 L63 708 L222 708 L222 439 L387 439 L387 708 L546 708 L546 0 L387 0 Z " />
<glyph glyph-name="I" unicode="I" horiz-adv-x="287" d="M63 0 L63 708 L224 708 L224 0 L63 0 Z " />
<glyph glyph-name="J" unicode="J" horiz-adv-x="445" d="M385 223 Q385 112 335.5 48 Q286 -16 180 -16 Q106 -16 54 26 Q2 68 -14 137 L116 195 Q122 171 135.5 153 Q149 135 172 135 Q205 135 215.5 162 Q226 189 226 237 L226 708 L385 708 L385 223 L385 223 Z " />
<glyph glyph-name="K" unicode="K" horiz-adv-x="568" d="M378 0 L227 329 L224 329 L224 0 L63 0 L63 708 L224 708 L224 413 L227 413 L373 708 L552 708 L370 384 L563 0 L378 0 Z " />
<glyph glyph-name="L" unicode="L" horiz-adv-x="423" d="M63 0 L63 708 L225 708 L225 148 L414 148 L414 0 L63 0 Z " />
<glyph glyph-name="M" unicode="M" horiz-adv-x="771" d="M551 0 L557 486 L553 486 L434 0 L321 0 L206 486 L203 486 L208 0 L63 0 L63 708 L265 708 L379 252 L383 252 L494 708 L708 708 L708 0 L551 0 Z " />
<glyph glyph-name="N" unicode="N" horiz-adv-x="603" d="M369 0 L205 431 L202 431 L206 0 L63 0 L63 708 L239 708 L402 271 L405 271 L402 708 L540 708 L540 0 L369 0 Z " />
<glyph glyph-name="O" unicode="O" horiz-adv-x="612" d="M578 356 Q578 272 559 202.5 Q540 133 505 84 Q470 35 419.5 8 Q369 -19 306 -19 Q243 -19 192.5 8 Q142 35 107 84 Q72 133 53 202.5 Q34 272 34 356 Q34 440 52.5 508.5 Q71 577 106 625.5 Q141 674 191.5 700.5 Q242 727 306 727 Q369 727 419.5 700.5 Q470 674 505 625.5 Q540 577 559 508.5 Q578 440 578 356 Z M414 356 Q414 402 407 441.5 Q400 481 386.5 510 Q373 539 353 555.5 Q333 572 306 572 Q279 572 258.5 555.5 Q238 539 224.5 510 Q211 481 204.5 441.5 Q198 402 198 356 Q198 310 204.5 270 Q211 230 224.5 201 Q238 172 258.5 155 Q279 138 306 138 Q333 138 353 155 Q373 172 386.5 201 Q400 230 407 270 Q414 310 414 356 Z " />
<glyph glyph-name="P" unicode="P" horiz-adv-x="522" d="M500 486 Q500 427 482 384 Q464 341 434 313 Q404 285 366 271.5 Q328 258 289 258 L220 258 L220 0 L63 0 L63 708 L283 708 Q321 708 359.5 697 Q398 686 429.5 660.5 Q461 635 480.5 592 Q500 549 500 486 Z M350 483 Q350 531 327 552 Q304 573 271 573 L220 573 L220 388 L271 388 Q304 388 327 412.5 Q350 437 350 483 Z " />
<glyph glyph-name="Q" unicode="Q" horiz-adv-x="620" d="M301 0 Q238 0 188.5 24.5 Q139 49 104.5 95 Q70 141 52 207.5 Q34 274 34 358 Q34 442 53 510 Q72 578 107.5 626 Q143 674 193.5 700.5 Q244 727 306 727 Q369 727 419 700.5 Q469 674 504 626.5 Q539 579 557.5 512.5 Q576 446 576 365 Q576 329 569.5 293.5 Q563 258 552.5 227 Q542 196 528 173 Q514 150 499 138 L499 134 L612 138 L612 0 L301 0 Z M415 358 Q415 403 408 442 Q401 481 387.5 509.5 Q374 538 353.5 554 Q333 570 307 570 Q280 570 259.5 554 Q239 538 225.5 509.5 Q212 481 205 442.5 Q198 404 198 358 Q198 313 205 274 Q212 235 225.5 206.5 Q239 178 259.5 161.5 Q280 145 307 145 Q334 145 354.5 162 Q375 179 388.5 208 Q402 237 408.5 275.5 Q415 314 415 358 Z " />
<glyph glyph-name="R" unicode="R" horiz-adv-x="541" d="M359 0 L264 282 L217 282 L217 0 L63 0 L63 708 L290 708 Q393 708 450 654.5 Q507 601 507 495 Q507 456 498 425 Q489 394 474.5 372 Q460 350 442 336 Q424 322 407 316 L528 0 L359 0 Z M349 486 Q349 513 341.5 530 Q334 547 322 557 Q310 567 295.5 570.5 Q281 574 267 574 L217 574 L217 395 L264 395 Q298 395 323.5 416.5 Q349 438 349 486 Z " />
<glyph glyph-name="S" unicode="S" horiz-adv-x="461" d="M356 538 Q338 559 314 570.5 Q290 582 264 582 Q237 582 215.5 565 Q194 548 194 509 Q194 476 216 457.5 Q238 439 281 417 Q305 405 331.5 388.5 Q358 372 380 348 Q402 324 416.5 290.5 Q431 257 431 211 Q431 154 413 110.5 Q395 67 364.5 38.5 Q334 10 294 -4.5 Q254 -19 211 -19 Q147 -19 94.5 5 Q42 29 10 61 L92 181 Q115 157 145 142.5 Q175 128 206 128 Q235 128 255 147 Q275 166 275 200 Q275 235 251 255.5 Q227 276 181 299 Q152 313 126.5 330 Q101 347 81.5 371 Q62 395 51 427 Q40 459 40 503 Q40 562 59.5 604.5 Q79 647 110.5 674 Q142 701 180.5 714 Q219 727 258 727 Q316 727 362 708 Q408 689 439 656 L356 538 Z " />
<glyph glyph-name="T" unicode="T" horiz-adv-x="415" d="M286 572 L286 0 L129 0 L129 572 L-1 572 L-1 708 L416 708 L416 572 L286 572 Z " />
<glyph glyph-name="U" unicode="U" horiz-adv-x="581" d="M530 262 Q530 203 516.5 152 Q503 101 474 63 Q445 25 399 3 Q353 -19 288 -19 Q223 -19 178 3 Q133 25 104.5 63 Q76 101 63.5 152 Q51 203 51 262 L51 708 L212 708 L212 276 Q212 246 215.5 220 Q219 194 228 175.5 Q237 157 252 146 Q267 135 291 135 Q315 135 330 146 Q345 157 354 175.5 Q363 194 366.5 220 Q370 246 370 276 L370 708 L530 708 L530 262 L530 262 Z " />
<glyph glyph-name="V" unicode="V" horiz-adv-x="546" d="M373 0 L170 0 L-1 708 L180 708 L276 190 L278 190 L373 708 L547 708 L373 0 Z " />
<glyph glyph-name="W" unicode="W" horiz-adv-x="799" d="M657 0 L487 0 L400 475 L398 475 L312 0 L142 0 L9 708 L172 708 L245 215 L249 215 L326 708 L481 708 L561 215 L564 215 L636 708 L791 708 L657 0 Z " />
<glyph glyph-name="X" unicode="X" horiz-adv-x="540" d="M365 0 L267 234 L170 0 L3 0 L177 371 L17 708 L184 708 L271 493 L359 708 L523 708 L362 372 L538 0 L365 0 Z " />
<glyph glyph-name="Y" unicode="Y" horiz-adv-x="492" d="M324 255 L324 0 L167 0 L167 255 L-12 708 L161 708 L246 415 L248 415 L334 708 L504 708 L324 255 Z " />
<glyph glyph-name="Z" unicode="Z" horiz-adv-x="458" d="M24 0 L24 130 L241 567 L42 567 L42 708 L424 708 L424 581 L208 145 L424 145 L424 0 L24 0 Z " />
<glyph glyph-name="bracketleft" unicode="&#x5b;" horiz-adv-x="282" d="M36 -156 L36 732 L232 732 L232 633 L154 633 L154 -57 L232 -57 L232 -156 L36 -156 Z " />
<glyph glyph-name="backslash" unicode="&#x5c;" horiz-adv-x="292" d="M88 758 L283 -20 L199 -38 L5 739 L88 758 Z " />
<glyph glyph-name="bracketright" unicode="&#x5d;" horiz-adv-x="282" d="M50 -156 L50 -57 L128 -57 L128 633 L50 633 L50 732 L245 732 L245 -156 L50 -156 Z " />
<glyph glyph-name="asciicircum" unicode="&#x5e;" horiz-adv-x="690" d="M468 343 L344 556 L221 343 L73 343 L286 708 L404 708 L616 343 L468 343 Z " />
<glyph glyph-name="underscore" unicode="&#x5f;" horiz-adv-x="500" d="M0 -164 L0 -75 L500 -75 L500 -164 L0 -164 Z " />
<glyph glyph-name="grave" unicode="&#x60;" horiz-adv-x="274" d="M130 723 L220 579 L112 579 L0 723 L130 723 Z " />
<glyph glyph-name="a" unicode="a" horiz-adv-x="465" d="M274 228 L246 228 Q229 228 213 225 Q197 222 185 213.5 Q173 205 166 191.5 Q159 178 159 157 Q159 126 172.5 111.5 Q186 97 205 97 Q223 97 236.5 106 Q250 115 258 129.5 Q266 144 270 162.5 Q274 181 274 199 L274 228 Z M279 65 Q269 30 239.5 8.5 Q210 -13 163 -13 Q140 -13 116 -5 Q92 3 72 21.5 Q52 40 39 70.5 Q26 101 26 146 Q26 200 45.5 235 Q65 270 96.5 291 Q128 312 168 320.5 Q208 329 249 329 L269 329 L269 337 Q269 375 251.5 392 Q234 409 205 409 Q176 409 152.5 396 Q129 383 112 363 L43 459 Q75 497 122.5 518 Q170 539 217 539 Q270 539 307 523 Q344 507 367 476 Q390 445 400 400.5 Q410 356 410 298 L410 0 L281 0 L281 65 L279 65 Z " />
<glyph glyph-name="b" unicode="b" horiz-adv-x="528" d="M62 756 L218 756 L218 470 L221 470 Q230 499 258.5 519 Q287 539 325 539 Q367 539 399.5 518.5 Q432 498 454 462 Q476 426 487 376.5 Q498 327 498 269 Q498 210 486.5 158 Q475 106 453 67.5 Q431 29 398.5 6.5 Q366 -16 325 -16 Q277 -16 252 7.5 Q227 31 215 63 L213 63 L213 0 L62 0 L62 756 Z M210 262 Q210 233 214 207 Q218 181 226.5 161.5 Q235 142 247.5 131 Q260 120 277 120 Q295 120 307.5 131 Q320 142 328.5 161.5 Q337 181 340.5 207 Q344 233 344 262 Q344 292 340.5 317.5 Q337 343 328.5 362.5 Q320 382 307.5 393 Q295 404 277 404 Q260 404 247.5 393 Q235 382 226.5 362.5 Q218 343 214 317.5 Q210 292 210 262 Z " />
<glyph glyph-name="c" unicode="c" horiz-adv-x="361" d="M365 40 Q344 14 311 -1 Q278 -16 235 -16 Q185 -16 147 4.5 Q109 25 83 62 Q57 99 43.5 150 Q30 201 30 262 Q30 323 44 373.5 Q58 424 84 461 Q110 498 148.5 518.5 Q187 539 237 539 Q281 539 313 523 Q345 507 363 487 L300 365 Q291 379 278 387 Q265 395 249 395 Q220 395 200.5 360 Q181 325 181 262 Q181 199 200 164.5 Q219 130 252 130 Q269 130 281.5 138.5 Q294 147 302 161 L365 40 L365 40 Z " />
<glyph glyph-name="d" unicode="d" horiz-adv-x="528" d="M315 0 L315 63 L313 63 Q302 31 276.5 7.5 Q251 -16 203 -16 Q162 -16 129.5 6.5 Q97 29 75 67.5 Q53 106 41.5 158 Q30 210 30 269 Q30 327 41 376.5 Q52 426 74 462 Q96 498 128.5 518.5 Q161 539 203 539 Q242 539 270.5 519 Q299 499 308 470 L311 470 L311 756 L466 756 L466 0 L315 0 Z M318 262 Q318 292 314 317.5 Q310 343 301.5 362.5 Q293 382 280.5 393 Q268 404 251 404 Q233 404 220.5 393 Q208 382 200 362.5 Q192 343 188 317.5 Q184 292 184 262 Q184 233 188 207 Q192 181 200 161.5 Q208 142 220.5 131 Q233 120 251 120 Q268 120 280.5 131 Q293 142 301.5 161.5 Q310 181 314 207 Q318 233 318 262 Z " />
<glyph glyph-name="e" unicode="e" horiz-adv-x="473" d="M182 222 Q182 200 187.5 180.5 Q193 161 202 146.5 Q211 132 224 123.5 Q237 115 253 115 Q279 115 295 132 Q311 149 320 172 L435 107 Q409 49 362.5 15 Q316 -19 247 -19 Q201 -19 161.5 -1 Q122 17 92.5 52.5 Q63 88 46.5 140 Q30 192 30 260 Q30 324 45.5 376.5 Q61 429 89.5 465.5 Q118 502 157 522 Q196 542 243 542 Q297 542 335 521 Q373 500 397.5 463.5 Q422 427 433 376.5 Q444 326 444 266 L444 222 L182 222 Z M300 324 Q300 366 287 394 Q274 422 244 422 Q228 422 216.5 412.5 Q205 403 197 388.5 Q189 374 185 356.5 Q181 339 181 324 L300 324 Z " />
<glyph glyph-name="f" unicode="f" horiz-adv-x="299" d="M308 646 Q293 651 276 651 Q243 651 231.5 625.5 Q220 600 220 566 L220 523 L300 523 L300 401 L221 401 L221 0 L68 0 L68 401 L6 401 L6 523 L68 523 L68 567 Q68 610 77 648.5 Q86 687 107 716.5 Q128 746 163 763.5 Q198 781 250 781 Q264 781 283 779 Q302 777 316 773 L308 646 Z " />
<glyph glyph-name="g" unicode="g" horiz-adv-x="527" d="M465 523 L465 37 Q465 -97 409 -168.5 Q353 -240 231 -240 Q176 -240 124 -220.5 Q72 -201 38 -172 L111 -56 Q134 -76 161.5 -89 Q189 -102 221 -102 Q270 -102 291.5 -68 Q313 -34 313 17 L313 60 L311 60 Q300 34 271 13.5 Q242 -7 204 -7 Q161 -7 128.5 13.5 Q96 34 74 70.5 Q52 107 41 156.5 Q30 206 30 263 Q30 323 41.5 373.5 Q53 424 75.5 460.5 Q98 497 130 518 Q162 539 204 539 Q249 539 274.5 517 Q300 495 312 461 L315 461 L315 523 L465 523 Z M318 262 Q318 292 314 317.5 Q310 343 301.5 362.5 Q293 382 280.5 393 Q268 404 251 404 Q233 404 220.5 393 Q208 382 200 362.5 Q192 343 188 317.5 Q184 292 184 262 Q184 233 188 207 Q192 181 200 161.5 Q208 142 220.5 131 Q233 120 251 120 Q268 120 280.5 131 Q293 142 301.5 161.5 Q310 181 314 207 Q318 233 318 262 Z " />
<glyph glyph-name="h" unicode="h" horiz-adv-x="538" d="M217 0 L60 0 L60 756 L217 756 L217 453 L220 453 Q232 488 263.5 515 Q295 542 343 542 Q388 542 415.5 523.5 Q443 505 458 474 Q473 443 478 403 Q483 363 483 320 L483 0 L326 0 L326 321 Q326 354 316.5 379 Q307 404 278 404 Q249 404 233 377.5 Q217 351 217 308 L217 0 Z " />
<glyph glyph-name="i" unicode="i" horiz-adv-x="276" d="M59 0 L59 523 L217 523 L217 0 L59 0 Z M224 665 Q224 627 200 600.5 Q176 574 138 574 Q100 574 76 600.5 Q52 627 52 665 Q52 684 58.5 700.5 Q65 717 76 729.5 Q87 742 103 749.5 Q119 757 138 757 Q157 757 173 749.5 Q189 742 200 729.5 Q211 717 217.5 700.5 Q224 684 224 665 Z " />
<glyph glyph-name="j" unicode="j" horiz-adv-x="277" d="M218 -35 Q218 -77 210 -114.5 Q202 -152 182 -179.5 Q162 -207 128 -223.5 Q94 -240 43 -240 Q25 -240 6.5 -238.5 Q-12 -237 -27 -234 L-19 -97 Q-6 -102 9 -102 Q41 -102 50 -80 Q59 -58 59 -21 L59 523 L218 523 L218 -35 Z M225 665 Q225 627 201 600.5 Q177 574 139 574 Q101 574 77 600.5 Q53 627 53 665 Q53 684 59.5 700.5 Q66 717 77 729.5 Q88 742 104 749.5 Q120 757 139 757 Q158 757 174 749.5 Q190 742 201 729.5 Q212 717 218.5 700.5 Q225 684 225 665 Z " />
<glyph glyph-name="k" unicode="k" horiz-adv-x="500" d="M322 0 L220 240 L218 240 L218 0 L62 0 L62 756 L218 756 L218 312 L220 312 L316 523 L500 523 L368 283 L503 0 L322 0 Z " />
<glyph glyph-name="l" unicode="l" horiz-adv-x="284" d="M62 0 L62 756 L222 756 L222 0 L62 0 Z " />
<glyph glyph-name="m" unicode="m" horiz-adv-x="796" d="M215 523 L215 449 L217 449 Q227 487 259 514.5 Q291 542 341 542 Q397 542 424.5 515 Q452 488 463 449 L465 449 Q472 467 483.5 483.5 Q495 500 511.5 513 Q528 526 549.5 534 Q571 542 598 542 Q643 542 671 523.5 Q699 505 714 474 Q729 443 734.5 403 Q740 363 740 320 L740 0 L585 0 L585 321 Q585 354 575 379 Q565 404 537 404 Q508 404 492.5 377.5 Q477 351 477 308 L477 0 L323 0 L323 321 Q323 354 313.5 379 Q304 404 276 404 Q247 404 231.5 377.5 Q216 351 216 308 L216 0 L62 0 L62 523 L215 523 Z " />
<glyph glyph-name="n" unicode="n" horiz-adv-x="540" d="M215 523 L215 449 L217 449 Q230 487 263 514.5 Q296 542 345 542 Q390 542 417 523.5 Q444 505 459 474 Q474 443 479 403 Q484 363 484 320 L484 0 L327 0 L327 321 Q327 354 317.5 379 Q308 404 280 404 Q251 404 235 377.5 Q219 351 219 308 L219 0 L62 0 L62 523 L215 523 Z " />
<glyph glyph-name="o" unicode="o" horiz-adv-x="495" d="M465 261 Q465 200 450 148.5 Q435 97 407.5 60 Q380 23 339.5 2 Q299 -19 248 -19 Q197 -19 157 2 Q117 23 88.5 60 Q60 97 45 148.5 Q30 200 30 261 Q30 322 45 374 Q60 426 88 463 Q116 500 156.5 521 Q197 542 248 542 Q299 542 339.5 521 Q380 500 407.5 463 Q435 426 450 374 Q465 322 465 261 Z M315 262 Q315 292 311 317.5 Q307 343 299 362.5 Q291 382 278.5 393 Q266 404 248 404 Q231 404 218.5 393 Q206 382 198 362.5 Q190 343 186 317.5 Q182 292 182 262 Q182 232 186 206.5 Q190 181 198 161.5 Q206 142 218.5 131 Q231 120 248 120 Q266 120 278.5 131 Q291 142 299 161.5 Q307 181 311 206.5 Q315 232 315 262 Z " />
<glyph glyph-name="p" unicode="p" horiz-adv-x="528" d="M213 523 L213 461 L216 461 Q230 495 255.5 517 Q281 539 325 539 Q367 539 399.5 518 Q432 497 453.5 460.5 Q475 424 486.5 374.5 Q498 325 498 267 Q498 208 486.5 156 Q475 104 453.5 66 Q432 28 399.5 6 Q367 -16 325 -16 Q280 -16 254 6 Q228 28 218 56 L216 56 L216 -240 L62 -240 L62 523 L213 523 Z M210 262 Q210 233 214 207 Q218 181 226.5 161.5 Q235 142 247.5 131 Q260 120 277 120 Q295 120 307.5 131 Q320 142 328.5 161.5 Q337 181 340.5 207 Q344 233 344 262 Q344 292 340.5 317.5 Q337 343 328.5 362.5 Q320 382 307.5 393 Q295 404 277 404 Q260 404 247.5 393 Q235 382 226.5 362.5 Q218 343 214 317.5 Q210 292 210 262 Z " />
<glyph glyph-name="q" unicode="q" horiz-adv-x="528" d="M466 -240 L312 -240 L312 56 L310 56 Q300 28 274 6 Q248 -16 203 -16 Q161 -16 129 6 Q97 28 75 66 Q53 104 41.5 156 Q30 208 30 267 Q30 325 41.5 374.5 Q53 424 74.5 460.5 Q96 497 128.5 518 Q161 539 203 539 Q247 539 272.5 517 Q298 495 312 461 L315 461 L315 523 L466 523 L466 -240 Z M318 262 Q318 292 314 317.5 Q310 343 301.5 362.5 Q293 382 280.5 393 Q268 404 251 404 Q233 404 220.5 393 Q208 382 200 362.5 Q192 343 188 317.5 Q184 292 184 262 Q184 233 188 207 Q192 181 200 161.5 Q208 142 220.5 131 Q233 120 251 120 Q268 120 280.5 131 Q293 142 301.5 161.5 Q310 181 314 207 Q318 233 318 262 Z " />
<glyph glyph-name="r" unicode="r" horiz-adv-x="344" d="M62 523 L215 523 L215 435 L216 435 Q244 539 321 539 Q329 539 334 538.5 Q339 538 346 536 L336 379 Q328 381 320.5 382.5 Q313 384 302 384 Q282 384 267 373.5 Q252 363 241.5 346 Q231 329 225.5 306 Q220 283 220 259 L220 0 L62 0 L62 523 Z " />
<glyph glyph-name="s" unicode="s" horiz-adv-x="400" d="M307 376 Q289 394 268 405 Q247 416 222 416 Q203 416 189.5 404 Q176 392 176 371 Q176 351 190.5 341.5 Q205 332 245 320 Q268 313 291 301 Q314 289 332 270 Q350 251 361.5 224.5 Q373 198 373 162 Q373 114 356 80 Q339 46 313 25 Q287 4 254.5 -6 Q222 -16 192 -16 Q140 -16 91.5 3 Q43 22 8 56 L86 156 Q107 134 131.5 120 Q156 106 185 106 Q207 106 219.5 119 Q232 132 232 153 Q232 178 212 189.5 Q192 201 152 214 Q131 221 110 231.5 Q89 242 72.5 260 Q56 278 45.5 303.5 Q35 329 35 366 Q35 410 51 442.5 Q67 475 92.5 496.5 Q118 518 149.5 528.5 Q181 539 213 539 Q261 539 305 522 Q349 505 383 475 L307 376 Z " />
<glyph glyph-name="t" unicode="t" horiz-adv-x="315" d="M305 4 Q292 -3 268 -8 Q244 -13 220 -13 Q141 -13 105 29.5 Q69 72 69 157 L69 401 L6 401 L6 523 L68 523 L68 649 L220 649 L220 523 L310 523 L310 401 L220 401 L220 193 Q220 155 232 137.5 Q244 120 270 120 Q291 120 305 127 L305 4 L305 4 Z " />
<glyph glyph-name="u" unicode="u" horiz-adv-x="540" d="M325 0 L325 74 L323 74 Q310 36 277 8.5 Q244 -19 195 -19 Q150 -19 123 -0.5 Q96 18 81 49 Q66 80 61 120 Q56 160 56 203 L56 523 L213 523 L213 203 Q213 186 215 171 Q217 156 222 145 Q227 134 236.5 127 Q246 120 260 120 Q289 120 305 146.5 Q321 173 321 216 L321 523 L478 523 L478 0 L325 0 Z " />
<glyph glyph-name="v" unicode="v" horiz-adv-x="470" d="M330 0 L139 0 L3 523 L168 523 L238 165 L242 165 L308 523 L467 523 L330 0 Z " />
<glyph glyph-name="w" unicode="w" horiz-adv-x="692" d="M568 0 L409 0 L343 300 L341 300 L276 0 L122 0 L6 523 L166 523 L217 196 L219 196 L279 523 L413 523 L475 196 L477 196 L528 523 L686 523 L568 0 Z " />
<glyph glyph-name="x" unicode="x" horiz-adv-x="468" d="M124 274 L8 523 L175 523 L234 362 L296 523 L462 523 L342 273 L470 0 L299 0 L234 166 L171 0 L-2 0 L124 274 Z " />
<glyph glyph-name="y" unicode="y" horiz-adv-x="476" d="M325 -18 Q313 -63 297.5 -103 Q282 -143 258 -173.5 Q234 -204 199 -222 Q164 -240 113 -240 Q90 -240 66.5 -237 Q43 -234 25 -230 L46 -88 Q55 -92 67 -94 Q79 -96 88 -96 Q118 -96 131.5 -80 Q145 -64 151 -42 L159 -13 L3 523 L168 523 L243 174 L245 174 L314 523 L473 523 L325 -18 Z " />
<glyph glyph-name="z" unicode="z" horiz-adv-x="399" d="M27 0 L27 129 L202 391 L37 391 L37 523 L371 523 L371 399 L195 132 L373 132 L373 0 L27 0 Z " />
<glyph glyph-name="braceleft" unicode="&#x7b;" horiz-adv-x="282" d="M171 -156 Q138 -156 115.5 -144 Q93 -132 78.5 -110.5 Q64 -89 57.5 -60 Q51 -31 51 3 L51 151 Q51 201 37 217 Q23 233 0 233 L0 343 Q23 343 37 359 Q51 375 51 425 L51 573 Q51 607 57.5 636 Q64 665 78.5 686.5 Q93 708 115.5 720 Q138 732 171 732 L235 732 L235 633 L206 633 Q180 633 171 611.5 Q162 590 162 561 L162 403 Q162 373 155.5 352 Q149 331 140 317.5 Q131 304 120 297.5 Q109 291 100 289 L100 287 Q109 285 120 278.5 Q131 272 140 258.5 Q149 245 155.5 224 Q162 203 162 173 L162 15 Q162 -14 171 -35.5 Q180 -57 206 -57 L235 -57 L235 -156 L171 -156 Z " />
<glyph glyph-name="bar" unicode="&#x7c;" horiz-adv-x="241" d="M56 -250 L55 750 L186 750 L186 -250 L56 -250 Z " />
<glyph glyph-name="braceright" unicode="&#x7d;" horiz-adv-x="282" d="M282 233 Q259 233 245 217 Q231 201 231 151 L231 3 Q231 -31 224.5 -60 Q218 -89 203.5 -110.5 Q189 -132 166.5 -144 Q144 -156 111 -156 L46 -156 L46 -57 L76 -57 Q102 -57 111 -35.5 Q120 -14 120 15 L120 173 Q120 203 126 224 Q132 245 141.5 258.5 Q151 272 162 278.5 Q173 285 182 287 L182 289 Q173 291 162 297.5 Q151 304 141.5 317.5 Q132 331 126 352 Q120 373 120 403 L120 561 Q120 590 111 611.5 Q102 633 76 633 L46 633 L46 732 L111 732 Q144 732 166.5 720 Q189 708 203.5 686.5 Q218 665 224.5 636 Q231 607 231 573 L231 425 Q231 375 245 359 Q259 343 282 343 L282 233 L282 233 Z " />
<glyph glyph-name="asciitilde" unicode="&#x7e;" horiz-adv-x="666" d="M593 285 Q582 266 568.5 248 Q555 230 538.5 216 Q522 202 501 193.5 Q480 185 454 185 Q422 185 397.5 194 Q373 203 342 223 Q312 242 287.5 251.5 Q263 261 235 261 Q206 261 186 241.5 Q166 222 151 191 L85 295 Q108 340 141.5 367 Q175 394 222 394 Q254 394 283 384.5 Q312 375 342 357 Q376 337 400 327 Q424 317 441 317 Q469 317 489.5 339 Q510 361 528 388 L593 287 L593 285 Z " />
<glyph glyph-name="uni00A0" unicode="&#xa0;" horiz-adv-x="200" d="" />
<glyph glyph-name="exclamdown" unicode="&#xa1;" horiz-adv-x="328" d="M242 -172 L87 -172 L87 295 L242 295 L242 -172 Z M249 455 Q249 418 225.5 391 Q202 364 164 364 Q127 364 103.5 391 Q80 418 80 455 Q80 493 103.5 519 Q127 545 164 545 Q202 545 225.5 519 Q249 493 249 455 Z " />
<glyph glyph-name="cent" unicode="&#xa2;" horiz-adv-x="525" d="M327 530 Q361 525 386 511.5 Q411 498 426 481 L363 361 Q354 375 341 383 Q328 391 312 391 Q283 391 263.5 357.5 Q244 324 244 262 Q244 201 263 167.5 Q282 134 315 134 Q332 134 344.5 142.5 Q357 151 365 165 L428 46 Q411 26 385 12 Q359 -2 327 -7 L327 -63 L263 -63 L263 -6 Q221 1 190 23 Q159 45 137 80 Q115 115 104 161.5 Q93 208 93 262 Q93 315 104 360.5 Q115 406 137 441 Q159 476 190.5 498.5 Q222 521 263 529 L263 583 L327 583 L327 530 L327 530 Z " />
<glyph glyph-name="sterling" unicode="&#xa3;" horiz-adv-x="529" d="M397 426 L397 309 L284 309 L284 140 L459 140 L459 0 L52 0 L52 140 L128 140 L128 309 L55 309 L55 426 L128 426 L128 489 Q128 529 139 571.5 Q150 614 175.5 648.5 Q201 683 241.5 705.5 Q282 728 341 728 Q392 728 430 713 Q468 698 489 679 L416 560 Q408 569 393.5 575 Q379 581 359 581 Q337 581 322.5 572 Q308 563 299.5 548 Q291 533 287.5 514 Q284 495 284 475 L284 426 L397 426 Z " />
<glyph glyph-name="currency" unicode="&#xa4;" horiz-adv-x="525" d="M435 416 Q450 387 456.5 356 Q463 325 463 289 Q463 256 455.5 219.5 Q448 183 434 157 L500 76 L434 -7 L366 76 Q324 44 263 44 Q238 44 210 53.5 Q182 63 160 78 L91 -7 L24 75 L94 160 Q80 187 72.5 221.5 Q65 256 65 289 Q65 363 91 415 L25 496 L91 576 L158 496 Q181 512 207.5 522 Q234 532 263 532 Q291 532 319 522.5 Q347 513 369 498 L433 576 L501 496 L435 416 Z M263 412 Q226 412 207 376 Q188 340 188 289 Q188 238 207 201.5 Q226 165 263 165 Q301 165 320.5 201.5 Q340 238 340 289 Q340 340 320.5 376 Q301 412 263 412 Z " />
<glyph glyph-name="yen" unicode="&#xa5;" horiz-adv-x="529" d="M471 428 L471 323 L338 323 L338 247 L471 247 L471 142 L338 142 L338 0 L181 0 L181 142 L52 142 L52 247 L181 247 L181 323 L52 323 L52 428 L133 428 L12 708 L175 708 L264 441 L352 708 L512 708 L393 428 L471 428 Z " />
<glyph glyph-name="brokenbar" unicode="&#xa6;" horiz-adv-x="241" d="M55 313 L55 675 L186 675 L186 313 L55 313 Z M55 -175 L55 187 L186 187 L186 -175 L55 -175 Z " />
<glyph glyph-name="section" unicode="&#xa7;" horiz-adv-x="516" d="M338 270 Q338 299 317.5 314.5 Q297 330 268 344 L215 368 Q201 363 188 349.5 Q175 336 175 312 Q175 282 195.5 267.5 Q216 253 245 240 L297 216 Q313 220 325.5 233.5 Q338 247 338 270 Z M174 126 Q111 151 80 188.5 Q49 226 49 294 Q49 320 56 342 Q63 364 74.5 380.5 Q86 397 99.5 409 Q113 421 126 428 Q101 447 88.5 473.5 Q76 500 76 541 Q76 579 90.5 612.5 Q105 646 131 671.5 Q157 697 193.5 712 Q230 727 275 727 Q346 727 389.5 704 Q433 681 460 644 L368 558 Q354 579 330.5 591 Q307 603 280 603 Q255 603 235.5 590 Q216 577 216 545 Q216 531 221.5 521.5 Q227 512 237.5 504 Q248 496 264.5 488.5 Q281 481 304 471 L335 457 Q398 428 432.5 389 Q467 350 467 282 Q467 234 444 201.5 Q421 169 389 155 Q414 138 428.5 108.5 Q443 79 443 44 Q443 -10 424 -46.5 Q405 -83 375.5 -105.5 Q346 -128 309.5 -138 Q273 -148 238 -148 Q178 -148 122.5 -127.5 Q67 -107 31 -65 L115 36 Q138 8 169.5 -8 Q201 -24 236 -24 Q261 -24 281 -11 Q301 2 301 31 Q301 45 296 55.5 Q291 66 280.5 75 Q270 84 253 92.5 Q236 101 212 111 L174 126 Z " />
<glyph glyph-name="dieresis" unicode="&#xa8;" horiz-adv-x="274" d="M119 666 Q119 631 98 607.5 Q77 584 45 584 Q12 584 -8.5 607.5 Q-29 631 -29 666 Q-29 700 -8.5 724 Q12 748 45 748 Q77 748 98 724 Q119 700 119 666 Z M303 666 Q303 631 282 607.5 Q261 584 229 584 Q196 584 175.5 607.5 Q155 631 155 666 Q155 700 175.5 724 Q196 748 229 748 Q261 748 282 724 Q303 700 303 666 Z " />
<glyph glyph-name="copyright" unicode="&#xa9;" horiz-adv-x="640" d="M445 189 Q427 161 400 143.5 Q373 126 335 126 Q297 126 267 142.5 Q237 159 215.5 189.5 Q194 220 182.5 262.5 Q171 305 171 357 Q171 409 182.5 452 Q194 495 215 525.5 Q236 556 266 572.5 Q296 589 332 589 Q369 589 398 573 Q427 557 444 530 L389 451 Q372 484 339 484 Q311 484 294.5 448 Q278 412 278 357 Q278 303 294.5 267 Q311 231 339 231 Q357 231 368 241 Q379 251 387 266 L445 189 Z M320 -20 Q257 -20 204.5 6 Q152 32 114.5 81 Q77 130 56.5 199.5 Q36 269 36 355 Q36 441 56.5 510.5 Q77 580 114.5 628.5 Q152 677 204.5 703.5 Q257 730 320 730 Q383 730 435 703.5 Q487 677 524.5 628.5 Q562 580 583 510.5 Q604 441 604 355 Q604 269 583 199.5 Q562 130 524.5 81 Q487 32 435 6 Q383 -20 320 -20 Z M320 686 Q266 686 223 661 Q180 636 150 592 Q120 548 104 487.5 Q88 427 88 355 Q88 283 104 222.5 Q120 162 150 118 Q180 74 223 49 Q266 24 320 24 Q374 24 417 49 Q460 74 490 118 Q520 162 536 222.5 Q552 283 552 355 Q552 427 536 487.5 Q520 548 490 592 Q460 636 417 661 Q374 686 320 686 Z " />
<glyph glyph-name="ordfeminine" unicode="&#xaa;" horiz-adv-x="320" d="M193 396 L193 431 L191 431 Q185 413 167 400 Q149 387 120 387 Q105 387 89.5 392.5 Q74 398 62 409.5 Q50 421 42.5 439 Q35 457 35 482 Q35 514 46 535.5 Q57 557 75 569.5 Q93 582 116.5 587.5 Q140 593 165 593 L181 593 L181 600 Q181 623 171 630 Q161 637 144 637 Q131 637 115.5 630 Q100 623 89 613 L47 677 Q68 698 97 709.5 Q126 721 154 721 Q218 721 244 681.5 Q270 642 270 573 L270 396 L193 396 Z M182 529 L167 529 Q147 529 133 520.5 Q119 512 119 487 Q119 471 127 462.5 Q135 454 146 454 Q166 454 174 472 Q182 490 182 512 L182 529 Z " />
<glyph glyph-name="guillemotleft" unicode="&#xab;" horiz-adv-x="416" d="M145 31 L36 262 L145 493 L225 451 L137 262 L225 73 L145 31 Z M300 31 L191 262 L300 493 L380 451 L292 262 L380 73 L300 31 Z " />
<glyph glyph-name="logicalnot" unicode="&#xac;" horiz-adv-x="666" d="M476 145 L476 328 L51 328 L51 451 L606 451 L606 145 L476 145 Z " />
<glyph glyph-name="uni00AD" unicode="&#xad;" horiz-adv-x="248" d="M28 217 L28 336 L220 336 L220 217 L28 217 Z " />
<glyph glyph-name="registered" unicode="&#xae;" horiz-adv-x="480" d="M245 518 Q254 518 260 527 Q266 536 266 550 Q266 561 259.5 567 Q253 573 245 573 L229 573 L229 518 L245 518 Z M271 371 L238 464 L229 464 L229 371 L158 371 L158 637 L248 637 Q264 637 279.5 633 Q295 629 307.5 619 Q320 609 327.5 592.5 Q335 576 335 551 Q335 525 327.5 505 Q320 485 302 477 L346 371 L271 371 Z M240 274 Q202 274 171 289.5 Q140 305 117.5 334.5 Q95 364 82.5 405.5 Q70 447 70 499 Q70 551 82.5 592.5 Q95 634 117.5 663 Q140 692 171 708 Q202 724 240 724 Q278 724 309 708 Q340 692 362.5 663 Q385 634 397.5 592.5 Q410 551 410 499 Q410 447 397.5 405.5 Q385 364 362.5 334.5 Q340 305 309 289.5 Q278 274 240 274 Z M240 698 Q208 698 182 683 Q156 668 138 641.5 Q120 615 110.5 578.5 Q101 542 101 499 Q101 456 110.5 419.5 Q120 383 138 356.5 Q156 330 182 315 Q208 300 240 300 Q272 300 298 315 Q324 330 342 356.5 Q360 383 369.5 419.5 Q379 456 379 499 Q379 542 369.5 578.5 Q360 615 342 641.5 Q324 668 298 683 Q272 698 240 698 Z " />
<glyph glyph-name="macron" unicode="&#xaf;" horiz-adv-x="274" d="M-10 613 L-10 690 L284 690 L284 613 L-10 613 Z " />
<glyph glyph-name="degree" unicode="&#xb0;" horiz-adv-x="320" d="M288 560 Q288 527 279.5 496 Q271 465 254.5 441 Q238 417 214 402.5 Q190 388 160 388 Q130 388 106 402.5 Q82 417 65.5 441 Q49 465 40.5 496 Q32 527 32 560 Q32 593 40.5 623.5 Q49 654 65.5 677.5 Q82 701 106 715 Q130 729 160 729 Q190 729 214 715 Q238 701 254.5 677.5 Q271 654 279.5 623.5 Q288 593 288 560 Z M219 560 Q219 603 203 632 Q187 661 160 661 Q132 661 116.5 632 Q101 603 101 560 Q101 515 116.5 485.5 Q132 456 160 456 Q187 456 203 485.5 Q219 515 219 560 Z " />
<glyph glyph-name="plusminus" unicode="&#xb1;" horiz-adv-x="666" d="M404 331 L404 199 L274 199 L274 331 L61 331 L61 458 L274 458 L274 590 L404 590 L404 458 L616 458 L616 331 L404 331 Z M61 31 L61 158 L616 158 L616 31 L61 31 Z " />
<glyph glyph-name="twosuperior" unicode="&#xb2;" horiz-adv-x="325" d="M306 585 Q306 542 285 510 Q264 478 238 449 L154 356 L301 356 L301 267 L33 267 L33 360 L169 514 Q185 533 194.5 549.5 Q204 566 204 584 Q204 602 195.5 615 Q187 628 167 628 Q150 628 137.5 614 Q125 600 123 572 L25 581 Q33 650 72 684 Q111 718 170 718 Q234 718 270 682.5 Q306 647 306 585 Z " />
<glyph glyph-name="threesuperior" unicode="&#xb3;" horiz-adv-x="325" d="M306 397 Q306 363 295 337 Q284 311 265 293 Q246 275 220.5 266 Q195 257 165 257 Q108 257 69 285.5 Q30 314 17 372 L110 395 Q115 375 128 360.5 Q141 346 162 346 Q185 346 196.5 362 Q208 378 208 400 Q208 429 191.5 442.5 Q175 456 147 456 L123 456 L123 534 L150 534 Q174 534 187.5 548 Q201 562 201 588 Q201 604 191.5 618 Q182 632 161 632 Q145 632 134 620.5 Q123 609 118 592 L28 615 Q36 644 51 664 Q66 684 84.5 697 Q103 710 124.5 715.5 Q146 721 167 721 Q192 721 215.5 713.5 Q239 706 257.5 691 Q276 676 287 653.5 Q298 631 298 601 Q298 562 280.5 535.5 Q263 509 235 500 L235 499 Q268 489 287 461 Q306 433 306 397 Z " />
<glyph glyph-name="acute" unicode="&#xb4;" horiz-adv-x="274" d="M162 579 L54 579 L144 723 L274 723 L162 579 Z " />
<glyph glyph-name="mu" unicode="&#xb5;" horiz-adv-x="666" d="M251 498 L251 250 Q251 233 253.5 211.5 Q256 190 264.5 171 Q273 152 288 139 Q303 126 328 126 Q353 126 370.5 135 Q388 144 398.5 159 Q409 174 414 194 Q419 214 419 237 L419 498 L581 498 L581 0 L426 0 L426 57 L425 57 Q410 31 384.5 12 Q359 -7 314 -7 Q296 -7 279 -2 Q262 3 251 13 L251 -226 L89 -226 L89 498 L251 498 Z " />
<glyph glyph-name="paragraph" unicode="&#xb6;" horiz-adv-x="618" d="M439 -129 L439 608 L354 608 L354 -129 L238 -129 L238 335 Q189 336 149.5 349.5 Q110 363 82 387 Q54 411 39 444 Q24 477 24 518 Q24 572 43 608.5 Q62 645 95 667 Q128 689 172.5 698.5 Q217 708 268 708 L555 708 L555 -129 L439 -129 Z " />
<glyph glyph-name="periodcentered" unicode="&#xb7;" horiz-adv-x="270" d="M220 269 Q220 231 196 205 Q172 179 135 179 Q97 179 73.5 205 Q50 231 50 269 Q50 306 73.5 333 Q97 360 135 360 Q172 360 196 333 Q220 306 220 269 Z " />
<glyph glyph-name="cedilla" unicode="&#xb8;" horiz-adv-x="274" d="M257 -139 Q257 -168 243.5 -187 Q230 -206 209.5 -217 Q189 -228 165 -232 Q141 -236 121 -236 Q95 -236 64.5 -230.5 Q34 -225 11 -214 L35 -152 Q52 -160 73.5 -164.5 Q95 -169 112 -169 Q129 -169 144.5 -162.5 Q160 -156 160 -137 Q160 -121 146 -115.5 Q132 -110 118 -110 Q108 -110 95.5 -112.5 Q83 -115 74 -119 L43 -91 L108 0 L192 0 L145 -61 Q151 -59 156.5 -59 Q162 -59 168 -59 Q183 -59 198.5 -62.5 Q214 -66 227 -75 Q240 -84 248.5 -99.5 Q257 -115 257 -139 Z " />
<glyph glyph-name="onesuperior" unicode="&#xb9;" horiz-adv-x="325" d="M141 265 L141 585 L74 536 L29 617 L149 708 L247 708 L247 265 L141 265 Z " />
<glyph glyph-name="ordmasculine" unicode="&#xba;" horiz-adv-x="320" d="M290 552 Q290 516 281 485 Q272 454 255.5 431.5 Q239 409 215 396.5 Q191 384 160 384 Q130 384 105.5 396.5 Q81 409 64 431.5 Q47 454 38 485 Q29 516 29 552 Q29 589 38 620 Q47 651 64 673.5 Q81 696 105 708.5 Q129 721 160 721 Q191 721 215 708.5 Q239 696 255.5 673.5 Q272 651 281 620 Q290 589 290 552 Z M197 553 Q197 586 188.5 609.5 Q180 633 160 633 Q140 633 131.5 609.5 Q123 586 123 553 Q123 520 131.5 496.5 Q140 473 160 473 Q180 473 188.5 496.5 Q197 520 197 553 Z " />
<glyph glyph-name="guillemotright" unicode="&#xbb;" horiz-adv-x="416" d="M279 262 L191 451 L271 493 L380 262 L271 31 L191 73 L279 262 Z M124 262 L36 451 L116 493 L225 262 L116 31 L36 73 L124 262 Z " />
<glyph glyph-name="onequarter" unicode="&#xbc;" horiz-adv-x="750" d="M675 88 L675 0 L582 0 L582 88 L412 88 L412 176 L543 444 L675 444 L675 174 L719 174 L719 88 L675 88 Z M584 348 L583 348 L503 174 L584 174 L584 348 Z M283 -19 L205 5 L475 737 L554 711 L283 -19 Z M141 265 L141 585 L74 536 L29 617 L149 708 L247 708 L247 265 L141 265 Z " />
<glyph glyph-name="onehalf" unicode="&#xbd;" horiz-adv-x="750" d="M727 318 Q727 275 706 243 Q685 211 659 182 L575 89 L722 89 L722 0 L454 0 L454 93 L590 247 Q606 266 615.5 282.5 Q625 299 625 317 Q625 335 616.5 348 Q608 361 588 361 Q571 361 558.5 347 Q546 333 544 305 L446 314 Q454 383 493 417 Q532 451 591 451 Q655 451 691 415.5 Q727 380 727 318 Z M283 -19 L205 5 L475 737 L554 711 L283 -19 Z M141 265 L141 585 L74 536 L29 617 L149 708 L247 708 L247 265 L141 265 Z " />
<glyph glyph-name="threequarters" unicode="&#xbe;" horiz-adv-x="750" d="M675 88 L675 0 L582 0 L582 88 L412 88 L412 176 L543 444 L675 444 L675 174 L719 174 L719 88 L675 88 Z M584 348 L583 348 L503 174 L584 174 L584 348 Z M306 397 Q306 363 295 337 Q284 311 265 293 Q246 275 220.5 266 Q195 257 165 257 Q108 257 69 285.5 Q30 314 17 372 L110 395 Q115 375 128 360.5 Q141 346 162 346 Q185 346 196.5 362 Q208 378 208 400 Q208 429 191.5 442.5 Q175 456 147 456 L123 456 L123 534 L150 534 Q174 534 187.5 548 Q201 562 201 588 Q201 604 191.5 618 Q182 632 161 632 Q145 632 134 620.5 Q123 609 118 592 L28 615 Q36 644 51 664 Q66 684 84.5 697 Q103 710 124.5 715.5 Q146 721 167 721 Q192 721 215.5 713.5 Q239 706 257.5 691 Q276 676 287 653.5 Q298 631 298 601 Q298 562 280.5 535.5 Q263 509 235 500 L235 499 Q268 489 287 461 Q306 433 306 397 Z M283 -19 L205 5 L475 737 L554 711 L283 -19 Z " />
<glyph glyph-name="questiondown" unicode="&#xbf;" horiz-adv-x="428" d="M148 298 L280 298 L280 256 Q280 203 262 168.5 Q244 134 211 103 L194 85 Q180 70 169.5 53.5 Q159 37 159 16 Q159 -16 172 -34.5 Q185 -53 214 -53 Q231 -53 243 -45 Q255 -37 262.5 -25 Q270 -13 274 1 Q278 15 280 27 L411 4 Q406 -35 391.5 -70 Q377 -105 351.5 -132 Q326 -159 290 -175 Q254 -191 205 -191 Q117 -191 64.5 -140 Q12 -89 12 5 Q12 37 19 62 Q26 87 38 108 Q50 129 67 147.5 Q84 166 105 184 Q131 207 139.5 226.5 Q148 246 148 270 L148 298 Z M122 455 Q122 493 145.5 519 Q169 545 207 545 Q245 545 268.5 519 Q292 493 292 455 Q292 418 268.5 391 Q245 364 207 364 Q169 364 145.5 391 Q122 418 122 455 Z " />
<glyph glyph-name="Agrave" unicode="&#xc0;" horiz-adv-x="543" d="M377 0 L348 129 L189 129 L160 0 L0 0 L172 708 L373 708 L544 0 L377 0 Z M271 554 L267 554 L207 253 L328 253 L271 554 Z M268 908 L358 764 L250 764 L138 908 L268 908 Z " />
<glyph glyph-name="Aacute" unicode="&#xc1;" horiz-adv-x="543" d="M377 0 L348 129 L189 129 L160 0 L0 0 L172 708 L373 708 L544 0 L377 0 Z M271 554 L267 554 L207 253 L328 253 L271 554 Z M294 764 L186 764 L276 908 L406 908 L294 764 Z " />
<glyph glyph-name="Acircumflex" unicode="&#xc2;" horiz-adv-x="543" d="M377 0 L348 129 L189 129 L160 0 L0 0 L172 708 L373 708 L544 0 L377 0 Z M271 554 L267 554 L207 253 L328 253 L271 554 Z M338 764 L271 849 L205 764 L98 764 L213 908 L332 908 L446 764 L338 764 Z " />
<glyph glyph-name="Atilde" unicode="&#xc3;" horiz-adv-x="543" d="M377 0 L348 129 L189 129 L160 0 L0 0 L172 708 L373 708 L544 0 L377 0 Z M271 554 L267 554 L207 253 L328 253 L271 554 Z M426 896 Q424 838 400.5 804 Q377 770 337 770 Q305 770 268 793 Q246 807 235.5 811 Q225 815 212 815 Q184 815 179 771 L121 771 Q124 826 147 861.5 Q170 897 210 897 Q229 897 244.5 891 Q260 885 280 873 Q302 860 313 855.5 Q324 851 337 851 Q352 851 359 861.5 Q366 872 369 896 L426 896 Z " />
<glyph glyph-name="Adieresis" unicode="&#xc4;" horiz-adv-x="543" d="M377 0 L348 129 L189 129 L160 0 L0 0 L172 708 L373 708 L544 0 L377 0 Z M271 554 L267 554 L207 253 L328 253 L271 554 Z M254 851 Q254 816 233 792.5 Q212 769 180 769 Q147 769 126.5 792.5 Q106 816 106 851 Q106 885 126.5 909 Q147 933 180 933 Q212 933 233 909 Q254 885 254 851 Z M438 851 Q438 816 417 792.5 Q396 769 364 769 Q331 769 310.5 792.5 Q290 816 290 851 Q290 885 310.5 909 Q331 933 364 933 Q396 933 417 909 Q438 885 438 851 Z " />
<glyph glyph-name="Aring" unicode="&#xc5;" horiz-adv-x="543" d="M377 0 L348 129 L189 129 L160 0 L0 0 L172 708 L373 708 L544 0 L377 0 Z M271 554 L267 554 L207 253 L328 253 L271 554 Z M371 855 Q371 808 343 777 Q315 746 269 746 Q223 746 196 777 Q169 808 169 855 Q169 902 196 933 Q223 964 269 964 Q315 964 343 933 Q371 902 371 855 Z M323 855 Q323 881 309 900.5 Q295 920 269 920 Q243 920 230 900.5 Q217 881 217 855 Q217 829 230 809.5 Q243 790 269 790 Q295 790 309 809.5 Q323 829 323 855 Z " />
<glyph glyph-name="AE" unicode="&#xc6;" horiz-adv-x="720" d="M347 0 L347 131 L204 131 L161 0 L-3 0 L243 708 L679 708 L679 567 L494 567 L494 428 L663 428 L663 296 L494 296 L494 143 L690 143 L690 0 L347 0 Z M347 571 L342 571 L241 257 L347 257 L347 571 Z " />
<glyph glyph-name="Ccedilla" unicode="&#xc7;" horiz-adv-x="512" d="M505 77 Q478 39 436.5 13 Q395 -13 331 -18 L298 -61 Q304 -59 309.5 -59 Q315 -59 321 -59 Q336 -59 351.5 -62.5 Q367 -66 380 -75 Q393 -84 401.5 -99.5 Q410 -115 410 -139 Q410 -168 396.5 -187 Q383 -206 362.5 -217 Q342 -228 318 -232 Q294 -236 274 -236 Q248 -236 217.5 -230.5 Q187 -225 164 -214 L188 -152 Q205 -160 226.5 -164.5 Q248 -169 265 -169 Q282 -169 297.5 -162.5 Q313 -156 313 -137 Q313 -121 299 -115.5 Q285 -110 271 -110 Q261 -110 248.5 -112.5 Q236 -115 227 -119 L196 -91 L252 -12 Q202 0 162 31.5 Q122 63 93.5 110.5 Q65 158 49.5 220 Q34 282 34 354 Q34 437 54 506 Q74 575 110 624 Q146 673 196.5 700 Q247 727 309 727 Q380 727 427.5 701.5 Q475 676 504 638 L418 522 Q400 546 377.5 560 Q355 574 321 574 Q289 574 265.5 557 Q242 540 225.5 510.5 Q209 481 201 440.5 Q193 400 193 354 Q193 308 201 268 Q209 228 225.5 198 Q242 168 266 151 Q290 134 322 134 Q354 134 378 150 Q402 166 416 188 L505 77 L505 77 Z " />
<glyph glyph-name="Egrave" unicode="&#xc8;" horiz-adv-x="448" d="M63 0 L63 708 L405 708 L405 567 L216 567 L216 428 L390 428 L390 296 L216 296 L216 143 L417 143 L417 0 L63 0 Z M206 908 L296 764 L188 764 L76 908 L206 908 Z " />
<glyph glyph-name="Eacute" unicode="&#xc9;" horiz-adv-x="448" d="M63 0 L63 708 L405 708 L405 567 L216 567 L216 428 L390 428 L390 296 L216 296 L216 143 L417 143 L417 0 L63 0 Z M272 764 L164 764 L254 908 L384 908 L272 764 Z " />
<glyph glyph-name="Ecircumflex" unicode="&#xca;" horiz-adv-x="448" d="M63 0 L63 708 L405 708 L405 567 L216 567 L216 428 L390 428 L390 296 L216 296 L216 143 L417 143 L417 0 L63 0 Z M301 764 L234 849 L168 764 L61 764 L176 908 L295 908 L409 764 L301 764 Z " />
<glyph glyph-name="Edieresis" unicode="&#xcb;" horiz-adv-x="448" d="M63 0 L63 708 L405 708 L405 567 L216 567 L216 428 L390 428 L390 296 L216 296 L216 143 L417 143 L417 0 L63 0 Z M217 851 Q217 816 196 792.5 Q175 769 143 769 Q110 769 89.5 792.5 Q69 816 69 851 Q69 885 89.5 909 Q110 933 143 933 Q175 933 196 909 Q217 885 217 851 Z M401 851 Q401 816 380 792.5 Q359 769 327 769 Q294 769 273.5 792.5 Q253 816 253 851 Q253 885 273.5 909 Q294 933 327 933 Q359 933 380 909 Q401 885 401 851 Z " />
<glyph glyph-name="Igrave" unicode="&#xcc;" horiz-adv-x="287" d="M63 0 L63 708 L224 708 L224 0 L63 0 Z M133 908 L223 764 L115 764 L3 908 L133 908 Z " />
<glyph glyph-name="Iacute" unicode="&#xcd;" horiz-adv-x="287" d="M63 0 L63 708 L224 708 L224 0 L63 0 Z M173 764 L65 764 L155 908 L285 908 L173 764 Z " />
<glyph glyph-name="Icircumflex" unicode="&#xce;" horiz-adv-x="287" d="M63 0 L63 708 L224 708 L224 0 L63 0 Z M210 764 L143 849 L77 764 L-30 764 L85 908 L204 908 L318 764 L210 764 Z " />
<glyph glyph-name="Idieresis" unicode="&#xcf;" horiz-adv-x="287" d="M63 0 L63 708 L224 708 L224 0 L63 0 Z M125 851 Q125 816 104 792.5 Q83 769 51 769 Q18 769 -2.5 792.5 Q-23 816 -23 851 Q-23 885 -2.5 909 Q18 933 51 933 Q83 933 104 909 Q125 885 125 851 Z M309 851 Q309 816 288 792.5 Q267 769 235 769 Q202 769 181.5 792.5 Q161 816 161 851 Q161 885 181.5 909 Q202 933 235 933 Q267 933 288 909 Q309 885 309 851 Z " />
<glyph glyph-name="Eth" unicode="&#xd0;" horiz-adv-x="595" d="M14 308 L14 413 L63 413 L63 708 L262 708 Q338 708 393.5 683 Q449 658 485 611.5 Q521 565 538.5 499.5 Q556 434 556 352 Q556 272 538.5 207 Q521 142 485 96 Q449 50 393.5 25 Q338 0 262 0 L63 0 L63 308 L14 308 Z M320 413 L320 308 L225 308 L225 140 L264 140 Q322 140 358.5 194.5 Q395 249 395 352 Q395 459 358.5 513.5 Q322 568 264 568 L225 568 L225 413 L320 413 Z " />
<glyph glyph-name="Ntilde" unicode="&#xd1;" horiz-adv-x="603" d="M369 0 L205 431 L202 431 L206 0 L63 0 L63 708 L239 708 L402 271 L405 271 L402 708 L540 708 L540 0 L369 0 Z M458 896 Q456 838 432.5 804 Q409 770 369 770 Q337 770 300 793 Q278 807 267.5 811 Q257 815 244 815 Q216 815 211 771 L153 771 Q156 826 179 861.5 Q202 897 242 897 Q261 897 276.5 891 Q292 885 312 873 Q334 860 345 855.5 Q356 851 369 851 Q384 851 391 861.5 Q398 872 401 896 L458 896 Z " />
<glyph glyph-name="Ograve" unicode="&#xd2;" horiz-adv-x="612" d="M578 356 Q578 272 559 202.5 Q540 133 505 84 Q470 35 419.5 8 Q369 -19 306 -19 Q243 -19 192.5 8 Q142 35 107 84 Q72 133 53 202.5 Q34 272 34 356 Q34 440 52.5 508.5 Q71 577 106 625.5 Q141 674 191.5 700.5 Q242 727 306 727 Q369 727 419.5 700.5 Q470 674 505 625.5 Q540 577 559 508.5 Q578 440 578 356 Z M414 356 Q414 402 407 441.5 Q400 481 386.5 510 Q373 539 353 555.5 Q333 572 306 572 Q279 572 258.5 555.5 Q238 539 224.5 510 Q211 481 204.5 441.5 Q198 402 198 356 Q198 310 204.5 270 Q211 230 224.5 201 Q238 172 258.5 155 Q279 138 306 138 Q333 138 353 155 Q373 172 386.5 201 Q400 230 407 270 Q414 310 414 356 Z M281 908 L371 764 L263 764 L151 908 L281 908 Z " />
<glyph glyph-name="Oacute" unicode="&#xd3;" horiz-adv-x="612" d="M578 356 Q578 272 559 202.5 Q540 133 505 84 Q470 35 419.5 8 Q369 -19 306 -19 Q243 -19 192.5 8 Q142 35 107 84 Q72 133 53 202.5 Q34 272 34 356 Q34 440 52.5 508.5 Q71 577 106 625.5 Q141 674 191.5 700.5 Q242 727 306 727 Q369 727 419.5 700.5 Q470 674 505 625.5 Q540 577 559 508.5 Q578 440 578 356 Z M414 356 Q414 402 407 441.5 Q400 481 386.5 510 Q373 539 353 555.5 Q333 572 306 572 Q279 572 258.5 555.5 Q238 539 224.5 510 Q211 481 204.5 441.5 Q198 402 198 356 Q198 310 204.5 270 Q211 230 224.5 201 Q238 172 258.5 155 Q279 138 306 138 Q333 138 353 155 Q373 172 386.5 201 Q400 230 407 270 Q414 310 414 356 Z M339 764 L231 764 L321 908 L451 908 L339 764 Z " />
<glyph glyph-name="Ocircumflex" unicode="&#xd4;" horiz-adv-x="612" d="M578 356 Q578 272 559 202.5 Q540 133 505 84 Q470 35 419.5 8 Q369 -19 306 -19 Q243 -19 192.5 8 Q142 35 107 84 Q72 133 53 202.5 Q34 272 34 356 Q34 440 52.5 508.5 Q71 577 106 625.5 Q141 674 191.5 700.5 Q242 727 306 727 Q369 727 419.5 700.5 Q470 674 505 625.5 Q540 577 559 508.5 Q578 440 578 356 Z M414 356 Q414 402 407 441.5 Q400 481 386.5 510 Q373 539 353 555.5 Q333 572 306 572 Q279 572 258.5 555.5 Q238 539 224.5 510 Q211 481 204.5 441.5 Q198 402 198 356 Q198 310 204.5 270 Q211 230 224.5 201 Q238 172 258.5 155 Q279 138 306 138 Q333 138 353 155 Q373 172 386.5 201 Q400 230 407 270 Q414 310 414 356 Z M372 764 L305 849 L239 764 L132 764 L247 908 L366 908 L480 764 L372 764 Z " />
<glyph glyph-name="Otilde" unicode="&#xd5;" horiz-adv-x="612" d="M578 356 Q578 272 559 202.5 Q540 133 505 84 Q470 35 419.5 8 Q369 -19 306 -19 Q243 -19 192.5 8 Q142 35 107 84 Q72 133 53 202.5 Q34 272 34 356 Q34 440 52.5 508.5 Q71 577 106 625.5 Q141 674 191.5 700.5 Q242 727 306 727 Q369 727 419.5 700.5 Q470 674 505 625.5 Q540 577 559 508.5 Q578 440 578 356 Z M414 356 Q414 402 407 441.5 Q400 481 386.5 510 Q373 539 353 555.5 Q333 572 306 572 Q279 572 258.5 555.5 Q238 539 224.5 510 Q211 481 204.5 441.5 Q198 402 198 356 Q198 310 204.5 270 Q211 230 224.5 201 Q238 172 258.5 155 Q279 138 306 138 Q333 138 353 155 Q373 172 386.5 201 Q400 230 407 270 Q414 310 414 356 Z M459 896 Q457 838 433.5 804 Q410 770 370 770 Q338 770 301 793 Q279 807 268.5 811 Q258 815 245 815 Q217 815 212 771 L154 771 Q157 826 180 861.5 Q203 897 243 897 Q262 897 277.5 891 Q293 885 313 873 Q335 860 346 855.5 Q357 851 370 851 Q385 851 392 861.5 Q399 872 402 896 L459 896 Z " />
<glyph glyph-name="Odieresis" unicode="&#xd6;" horiz-adv-x="612" d="M578 356 Q578 272 559 202.5 Q540 133 505 84 Q470 35 419.5 8 Q369 -19 306 -19 Q243 -19 192.5 8 Q142 35 107 84 Q72 133 53 202.5 Q34 272 34 356 Q34 440 52.5 508.5 Q71 577 106 625.5 Q141 674 191.5 700.5 Q242 727 306 727 Q369 727 419.5 700.5 Q470 674 505 625.5 Q540 577 559 508.5 Q578 440 578 356 Z M414 356 Q414 402 407 441.5 Q400 481 386.5 510 Q373 539 353 555.5 Q333 572 306 572 Q279 572 258.5 555.5 Q238 539 224.5 510 Q211 481 204.5 441.5 Q198 402 198 356 Q198 310 204.5 270 Q211 230 224.5 201 Q238 172 258.5 155 Q279 138 306 138 Q333 138 353 155 Q373 172 386.5 201 Q400 230 407 270 Q414 310 414 356 Z M288 851 Q288 816 267 792.5 Q246 769 214 769 Q181 769 160.5 792.5 Q140 816 140 851 Q140 885 160.5 909 Q181 933 214 933 Q246 933 267 909 Q288 885 288 851 Z M472 851 Q472 816 451 792.5 Q430 769 398 769 Q365 769 344.5 792.5 Q324 816 324 851 Q324 885 344.5 909 Q365 933 398 933 Q430 933 451 909 Q472 885 472 851 Z " />
<glyph glyph-name="multiply" unicode="&#xd7;" horiz-adv-x="666" d="M510 37 L333 210 L157 37 L64 126 L241 301 L63 475 L157 566 L334 393 L508 565 L599 478 L425 305 L604 130 L510 37 Z " />
<glyph glyph-name="Oslash" unicode="&#xd8;" horiz-adv-x="615" d="M578 356 Q578 272 559 202.5 Q540 133 505 84 Q470 35 419.5 8 Q369 -19 306 -19 Q267 -19 233 -8.5 Q199 2 170 21 L138 -48 L60 -12 L108 82 Q72 132 53 201 Q34 270 34 356 Q34 440 52.5 508.5 Q71 577 106 625.5 Q141 674 191.5 700.5 Q242 727 306 727 Q344 727 376.5 717 Q409 707 438 689 L472 761 L549 726 L501 631 Q538 582 558 512.5 Q578 443 578 356 Z M420 356 Q420 388 417 416.5 Q414 445 407 471 L245 154 Q272 127 306 127 Q334 127 355.5 144.5 Q377 162 391.5 193 Q406 224 413 266 Q420 308 420 356 Z M192 356 Q192 325 194.5 297 Q197 269 203 244 L362 559 Q338 583 306 583 Q277 583 255.5 565.5 Q234 548 220 517.5 Q206 487 199 445.5 Q192 404 192 356 Z " />
<glyph glyph-name="Ugrave" unicode="&#xd9;" horiz-adv-x="581" d="M530 262 Q530 203 516.5 152 Q503 101 474 63 Q445 25 399 3 Q353 -19 288 -19 Q223 -19 178 3 Q133 25 104.5 63 Q76 101 63.5 152 Q51 203 51 262 L51 708 L212 708 L212 276 Q212 246 215.5 220 Q219 194 228 175.5 Q237 157 252 146 Q267 135 291 135 Q315 135 330 146 Q345 157 354 175.5 Q363 194 366.5 220 Q370 246 370 276 L370 708 L530 708 L530 262 Z M278 908 L368 764 L260 764 L148 908 L278 908 Z " />
<glyph glyph-name="Uacute" unicode="&#xda;" horiz-adv-x="581" d="M530 262 Q530 203 516.5 152 Q503 101 474 63 Q445 25 399 3 Q353 -19 288 -19 Q223 -19 178 3 Q133 25 104.5 63 Q76 101 63.5 152 Q51 203 51 262 L51 708 L212 708 L212 276 Q212 246 215.5 220 Q219 194 228 175.5 Q237 157 252 146 Q267 135 291 135 Q315 135 330 146 Q345 157 354 175.5 Q363 194 366.5 220 Q370 246 370 276 L370 708 L530 708 L530 262 Z M331 764 L223 764 L313 908 L443 908 L331 764 Z " />
<glyph glyph-name="Ucircumflex" unicode="&#xdb;" horiz-adv-x="581" d="M530 262 Q530 203 516.5 152 Q503 101 474 63 Q445 25 399 3 Q353 -19 288 -19 Q223 -19 178 3 Q133 25 104.5 63 Q76 101 63.5 152 Q51 203 51 262 L51 708 L212 708 L212 276 Q212 246 215.5 220 Q219 194 228 175.5 Q237 157 252 146 Q267 135 291 135 Q315 135 330 146 Q345 157 354 175.5 Q363 194 366.5 220 Q370 246 370 276 L370 708 L530 708 L530 262 Z M358 764 L291 849 L225 764 L118 764 L233 908 L352 908 L466 764 L358 764 Z " />
<glyph glyph-name="Udieresis" unicode="&#xdc;" horiz-adv-x="581" d="M530 262 Q530 203 516.5 152 Q503 101 474 63 Q445 25 399 3 Q353 -19 288 -19 Q223 -19 178 3 Q133 25 104.5 63 Q76 101 63.5 152 Q51 203 51 262 L51 708 L212 708 L212 276 Q212 246 215.5 220 Q219 194 228 175.5 Q237 157 252 146 Q267 135 291 135 Q315 135 330 146 Q345 157 354 175.5 Q363 194 366.5 220 Q370 246 370 276 L370 708 L530 708 L530 262 Z M274 851 Q274 816 253 792.5 Q232 769 200 769 Q167 769 146.5 792.5 Q126 816 126 851 Q126 885 146.5 909 Q167 933 200 933 Q232 933 253 909 Q274 885 274 851 Z M458 851 Q458 816 437 792.5 Q416 769 384 769 Q351 769 330.5 792.5 Q310 816 310 851 Q310 885 330.5 909 Q351 933 384 933 Q416 933 437 909 Q458 885 458 851 Z " />
<glyph glyph-name="Yacute" unicode="&#xdd;" horiz-adv-x="492" d="M324 255 L324 0 L167 0 L167 255 L-12 708 L161 708 L246 415 L248 415 L334 708 L504 708 L324 255 Z M287 764 L179 764 L269 908 L399 908 L287 764 Z " />
<glyph glyph-name="Thorn" unicode="&#xde;" horiz-adv-x="544" d="M513 369 Q513 307 494.5 264.5 Q476 222 444.5 196 Q413 170 371 158 Q329 146 283 146 L220 146 L220 0 L63 0 L63 708 L220 708 L220 587 L286 587 Q335 587 376.5 575.5 Q418 564 448.5 538.5 Q479 513 496 471.5 Q513 430 513 369 Z M360 368 Q360 394 352.5 411 Q345 428 332.5 437.5 Q320 447 303 451 Q286 455 267 455 L220 455 L220 277 L264 277 Q284 277 301.5 282 Q319 287 332 297.5 Q345 308 352.5 325.5 Q360 343 360 368 Z " />
<glyph glyph-name="germandbls" unicode="&#xdf;" horiz-adv-x="528" d="M379 415 Q404 409 427.5 394 Q451 379 468 354.5 Q485 330 495.5 296 Q506 262 506 220 Q506 173 495.5 131 Q485 89 462 57.5 Q439 26 401 8 Q363 -10 309 -10 Q291 -10 274 -7 Q257 -4 246 -2 L246 123 Q254 120 262 119 Q270 118 278 118 Q321 118 340.5 148 Q360 178 360 229 Q360 287 334 316 Q308 345 268 345 L250 345 L250 470 L267 470 Q297 470 317 493.5 Q337 517 337 559 Q337 591 323 615 Q309 639 277 639 Q256 639 243.5 628.5 Q231 618 223.5 600 Q216 582 213.5 559 Q211 536 211 511 L211 0 L59 0 L59 507 Q59 562 71 610 Q83 658 109 693 Q135 728 177 748 Q219 768 279 768 Q328 768 364.5 753 Q401 738 426 712 Q451 686 463.5 650 Q476 614 476 571 Q476 539 468 513.5 Q460 488 446.5 468.5 Q433 449 415.5 435.5 Q398 422 379 416 L379 415 Z " />
<glyph glyph-name="agrave" unicode="&#xe0;" horiz-adv-x="465" d="M274 228 L246 228 Q229 228 213 225 Q197 222 185 213.5 Q173 205 166 191.5 Q159 178 159 157 Q159 126 172.5 111.5 Q186 97 205 97 Q223 97 236.5 106 Q250 115 258 129.5 Q266 144 270 162.5 Q274 181 274 199 L274 228 Z M279 65 Q269 30 239.5 8.5 Q210 -13 163 -13 Q140 -13 116 -5 Q92 3 72 21.5 Q52 40 39 70.5 Q26 101 26 146 Q26 200 45.5 235 Q65 270 96.5 291 Q128 312 168 320.5 Q208 329 249 329 L269 329 L269 337 Q269 375 251.5 392 Q234 409 205 409 Q176 409 152.5 396 Q129 383 112 363 L43 459 Q75 497 122.5 518 Q170 539 217 539 Q270 539 307 523 Q344 507 367 476 Q390 445 400 400.5 Q410 356 410 298 L410 0 L281 0 L281 65 L279 65 Z M220 723 L310 579 L202 579 L90 723 L220 723 Z " />
<glyph glyph-name="aacute" unicode="&#xe1;" horiz-adv-x="465" d="M274 228 L246 228 Q229 228 213 225 Q197 222 185 213.5 Q173 205 166 191.5 Q159 178 159 157 Q159 126 172.5 111.5 Q186 97 205 97 Q223 97 236.5 106 Q250 115 258 129.5 Q266 144 270 162.5 Q274 181 274 199 L274 228 Z M279 65 Q269 30 239.5 8.5 Q210 -13 163 -13 Q140 -13 116 -5 Q92 3 72 21.5 Q52 40 39 70.5 Q26 101 26 146 Q26 200 45.5 235 Q65 270 96.5 291 Q128 312 168 320.5 Q208 329 249 329 L269 329 L269 337 Q269 375 251.5 392 Q234 409 205 409 Q176 409 152.5 396 Q129 383 112 363 L43 459 Q75 497 122.5 518 Q170 539 217 539 Q270 539 307 523 Q344 507 367 476 Q390 445 400 400.5 Q410 356 410 298 L410 0 L281 0 L281 65 L279 65 Z M270 578 L162 578 L252 722 L382 722 L270 578 Z " />
<glyph glyph-name="acircumflex" unicode="&#xe2;" horiz-adv-x="465" d="M274 228 L246 228 Q229 228 213 225 Q197 222 185 213.5 Q173 205 166 191.5 Q159 178 159 157 Q159 126 172.5 111.5 Q186 97 205 97 Q223 97 236.5 106 Q250 115 258 129.5 Q266 144 270 162.5 Q274 181 274 199 L274 228 Z M279 65 Q269 30 239.5 8.5 Q210 -13 163 -13 Q140 -13 116 -5 Q92 3 72 21.5 Q52 40 39 70.5 Q26 101 26 146 Q26 200 45.5 235 Q65 270 96.5 291 Q128 312 168 320.5 Q208 329 249 329 L269 329 L269 337 Q269 375 251.5 392 Q234 409 205 409 Q176 409 152.5 396 Q129 383 112 363 L43 459 Q75 497 122.5 518 Q170 539 217 539 Q270 539 307 523 Q344 507 367 476 Q390 445 400 400.5 Q410 356 410 298 L410 0 L281 0 L281 65 L279 65 Z M292 579 L225 664 L159 579 L52 579 L167 723 L286 723 L400 579 L292 579 Z " />
<glyph glyph-name="atilde" unicode="&#xe3;" horiz-adv-x="465" d="M274 228 L246 228 Q229 228 213 225 Q197 222 185 213.5 Q173 205 166 191.5 Q159 178 159 157 Q159 126 172.5 111.5 Q186 97 205 97 Q223 97 236.5 106 Q250 115 258 129.5 Q266 144 270 162.5 Q274 181 274 199 L274 228 Z M279 65 Q269 30 239.5 8.5 Q210 -13 163 -13 Q140 -13 116 -5 Q92 3 72 21.5 Q52 40 39 70.5 Q26 101 26 146 Q26 200 45.5 235 Q65 270 96.5 291 Q128 312 168 320.5 Q208 329 249 329 L269 329 L269 337 Q269 375 251.5 392 Q234 409 205 409 Q176 409 152.5 396 Q129 383 112 363 L43 459 Q75 497 122.5 518 Q170 539 217 539 Q270 539 307 523 Q344 507 367 476 Q390 445 400 400.5 Q410 356 410 298 L410 0 L281 0 L281 65 L279 65 Z M380 711 Q378 653 354.5 619 Q331 585 291 585 Q259 585 222 608 Q200 622 189.5 626 Q179 630 166 630 Q138 630 133 586 L75 586 Q78 642 101 676 Q124 712 164 712 Q183 712 198.5 706 Q214 700 234 688 Q256 675 267 670.5 Q278 666 291 666 Q306 666 313 676.5 Q320 687 323 711 L380 711 Z " />
<glyph glyph-name="adieresis" unicode="&#xe4;" horiz-adv-x="465" d="M274 228 L246 228 Q229 228 213 225 Q197 222 185 213.5 Q173 205 166 191.5 Q159 178 159 157 Q159 126 172.5 111.5 Q186 97 205 97 Q223 97 236.5 106 Q250 115 258 129.5 Q266 144 270 162.5 Q274 181 274 199 L274 228 Z M279 65 Q269 30 239.5 8.5 Q210 -13 163 -13 Q140 -13 116 -5 Q92 3 72 21.5 Q52 40 39 70.5 Q26 101 26 146 Q26 200 45.5 235 Q65 270 96.5 291 Q128 312 168 320.5 Q208 329 249 329 L269 329 L269 337 Q269 375 251.5 392 Q234 409 205 409 Q176 409 152.5 396 Q129 383 112 363 L43 459 Q75 497 122.5 518 Q170 539 217 539 Q270 539 307 523 Q344 507 367 476 Q390 445 400 400.5 Q410 356 410 298 L410 0 L281 0 L281 65 L279 65 Z M208 666 Q208 631 187 607.5 Q166 584 134 584 Q101 584 80.5 607.5 Q60 631 60 666 Q60 700 80.5 724 Q101 748 134 748 Q166 748 187 724 Q208 700 208 666 Z M392 666 Q392 631 371 607.5 Q350 584 318 584 Q285 584 264.5 607.5 Q244 631 244 666 Q244 700 264.5 724 Q285 748 318 748 Q350 748 371 724 Q392 700 392 666 Z " />
<glyph glyph-name="aring" unicode="&#xe5;" horiz-adv-x="465" d="M274 228 L246 228 Q229 228 213 225 Q197 222 185 213.5 Q173 205 166 191.5 Q159 178 159 157 Q159 126 172.5 111.5 Q186 97 205 97 Q223 97 236.5 106 Q250 115 258 129.5 Q266 144 270 162.5 Q274 181 274 199 L274 228 Z M279 65 Q269 30 239.5 8.5 Q210 -13 163 -13 Q140 -13 116 -5 Q92 3 72 21.5 Q52 40 39 70.5 Q26 101 26 146 Q26 200 45.5 235 Q65 270 96.5 291 Q128 312 168 320.5 Q208 329 249 329 L269 329 L269 337 Q269 375 251.5 392 Q234 409 205 409 Q176 409 152.5 396 Q129 383 112 363 L43 459 Q75 497 122.5 518 Q170 539 217 539 Q270 539 307 523 Q344 507 367 476 Q390 445 400 400.5 Q410 356 410 298 L410 0 L281 0 L281 65 L279 65 Z M327 670 Q327 623 299 592 Q271 561 225 561 Q179 561 152 592 Q125 623 125 670 Q125 717 152 748 Q179 779 225 779 Q271 779 299 748 Q327 717 327 670 Z M279 670 Q279 696 265 715.5 Q251 735 225 735 Q199 735 186 715.5 Q173 696 173 670 Q173 644 186 624.5 Q199 605 225 605 Q251 605 265 624.5 Q279 644 279 670 Z " />
<glyph glyph-name="ae" unicode="&#xe6;" horiz-adv-x="702" d="M217 542 Q264 542 297.5 525 Q331 508 350 470 Q393 542 482 542 Q533 542 569 519.5 Q605 497 628.5 459.5 Q652 422 662.5 371.5 Q673 321 673 266 L673 222 L411 222 Q411 200 416.5 180.5 Q422 161 431 146.5 Q440 132 453 123.5 Q466 115 482 115 Q508 115 524 132 Q540 149 549 172 L664 107 Q638 49 592 15 Q546 -19 479 -19 Q433 -19 395 3 Q357 25 339 63 Q324 28 286.5 4.5 Q249 -19 189 -19 Q156 -19 126.5 -10.5 Q97 -2 74.5 17.5 Q52 37 39 68 Q26 99 26 144 Q26 198 45.5 232.5 Q65 267 96.5 287.5 Q128 308 168 316 Q208 324 249 324 L269 324 L269 340 Q269 378 251.5 395 Q234 412 205 412 Q176 412 152.5 399 Q129 386 112 366 L43 462 Q75 500 122.5 521 Q170 542 217 542 Z M274 222 L246 222 Q229 222 213 219.5 Q197 217 185 210.5 Q173 204 166 191 Q159 178 159 157 Q159 126 172.5 111.5 Q186 97 205 97 Q223 97 236.5 105.5 Q250 114 258 128 Q266 142 270 160.5 Q274 179 274 199 L274 222 Z M529 324 Q529 366 516 394 Q503 422 473 422 Q457 422 445.5 412.5 Q434 403 426 388.5 Q418 374 414 356.5 Q410 339 410 324 L529 324 Z " />
<glyph glyph-name="ccedilla" unicode="&#xe7;" horiz-adv-x="361" d="M365 40 Q332 1 277 -11 L239 -61 Q245 -59 250.5 -59 Q256 -59 262 -59 Q277 -59 292.5 -62.5 Q308 -66 321 -75 Q334 -84 342.5 -99.5 Q351 -115 351 -139 Q351 -168 337.5 -187 Q324 -206 303.5 -217 Q283 -228 259 -232 Q235 -236 215 -236 Q189 -236 158.5 -230.5 Q128 -225 105 -214 L129 -152 Q146 -160 167.5 -164.5 Q189 -169 206 -169 Q223 -169 238.5 -162.5 Q254 -156 254 -137 Q254 -121 240 -115.5 Q226 -110 212 -110 Q202 -110 189.5 -112.5 Q177 -115 168 -119 L137 -91 L193 -11 Q154 -3 123.5 20 Q93 43 72 79 Q51 115 40.5 161.5 Q30 208 30 262 Q30 323 44 373.5 Q58 424 84 461 Q110 498 148.5 518.5 Q187 539 237 539 Q281 539 313 523 Q345 507 363 487 L300 365 Q291 379 278 387 Q265 395 249 395 Q220 395 200.5 360 Q181 325 181 262 Q181 199 200 164.5 Q219 130 252 130 Q269 130 281.5 138.5 Q294 147 302 161 L365 40 L365 40 Z " />
<glyph glyph-name="egrave" unicode="&#xe8;" horiz-adv-x="473" d="M182 222 Q182 200 187.5 180.5 Q193 161 202 146.5 Q211 132 224 123.5 Q237 115 253 115 Q279 115 295 132 Q311 149 320 172 L435 107 Q409 49 362.5 15 Q316 -19 247 -19 Q201 -19 161.5 -1 Q122 17 92.5 52.5 Q63 88 46.5 140 Q30 192 30 260 Q30 324 45.5 376.5 Q61 429 89.5 465.5 Q118 502 157 522 Q196 542 243 542 Q297 542 335 521 Q373 500 397.5 463.5 Q422 427 433 376.5 Q444 326 444 266 L444 222 L182 222 Z M300 324 Q300 366 287 394 Q274 422 244 422 Q228 422 216.5 412.5 Q205 403 197 388.5 Q189 374 185 356.5 Q181 339 181 324 L300 324 Z M221 723 L311 579 L203 579 L91 723 L221 723 Z " />
<glyph glyph-name="eacute" unicode="&#xe9;" horiz-adv-x="473" d="M182 222 Q182 200 187.5 180.5 Q193 161 202 146.5 Q211 132 224 123.5 Q237 115 253 115 Q279 115 295 132 Q311 149 320 172 L435 107 Q409 49 362.5 15 Q316 -19 247 -19 Q201 -19 161.5 -1 Q122 17 92.5 52.5 Q63 88 46.5 140 Q30 192 30 260 Q30 324 45.5 376.5 Q61 429 89.5 465.5 Q118 502 157 522 Q196 542 243 542 Q297 542 335 521 Q373 500 397.5 463.5 Q422 427 433 376.5 Q444 326 444 266 L444 222 L182 222 Z M300 324 Q300 366 287 394 Q274 422 244 422 Q228 422 216.5 412.5 Q205 403 197 388.5 Q189 374 185 356.5 Q181 339 181 324 L300 324 Z M284 579 L176 579 L266 723 L396 723 L284 579 Z " />
<glyph glyph-name="ecircumflex" unicode="&#xea;" horiz-adv-x="473" d="M182 222 Q182 200 187.5 180.5 Q193 161 202 146.5 Q211 132 224 123.5 Q237 115 253 115 Q279 115 295 132 Q311 149 320 172 L435 107 Q409 49 362.5 15 Q316 -19 247 -19 Q201 -19 161.5 -1 Q122 17 92.5 52.5 Q63 88 46.5 140 Q30 192 30 260 Q30 324 45.5 376.5 Q61 429 89.5 465.5 Q118 502 157 522 Q196 542 243 542 Q297 542 335 521 Q373 500 397.5 463.5 Q422 427 433 376.5 Q444 326 444 266 L444 222 L182 222 Z M300 324 Q300 366 287 394 Q274 422 244 422 Q228 422 216.5 412.5 Q205 403 197 388.5 Q189 374 185 356.5 Q181 339 181 324 L300 324 Z M322 579 L255 664 L189 579 L82 579 L197 723 L316 723 L430 579 L322 579 Z " />
<glyph glyph-name="edieresis" unicode="&#xeb;" horiz-adv-x="473" d="M182 222 Q182 200 187.5 180.5 Q193 161 202 146.5 Q211 132 224 123.5 Q237 115 253 115 Q279 115 295 132 Q311 149 320 172 L435 107 Q409 49 362.5 15 Q316 -19 247 -19 Q201 -19 161.5 -1 Q122 17 92.5 52.5 Q63 88 46.5 140 Q30 192 30 260 Q30 324 45.5 376.5 Q61 429 89.5 465.5 Q118 502 157 522 Q196 542 243 542 Q297 542 335 521 Q373 500 397.5 463.5 Q422 427 433 376.5 Q444 326 444 266 L444 222 L182 222 Z M300 324 Q300 366 287 394 Q274 422 244 422 Q228 422 216.5 412.5 Q205 403 197 388.5 Q189 374 185 356.5 Q181 339 181 324 L300 324 Z M232 666 Q232 631 211 607.5 Q190 584 158 584 Q125 584 104.5 607.5 Q84 631 84 666 Q84 700 104.5 724 Q125 748 158 748 Q190 748 211 724 Q232 700 232 666 Z M416 666 Q416 631 395 607.5 Q374 584 342 584 Q309 584 288.5 607.5 Q268 631 268 666 Q268 700 288.5 724 Q309 748 342 748 Q374 748 395 724 Q416 700 416 666 Z " />
<glyph glyph-name="igrave" unicode="&#xec;" horiz-adv-x="276" d="M60 0 L60 523 L216 523 L216 0 L60 0 Z M124 723 L214 579 L106 579 L-6 723 L124 723 Z " />
<glyph glyph-name="iacute" unicode="&#xed;" horiz-adv-x="276" d="M60 0 L60 523 L216 523 L216 0 L60 0 Z M170 579 L62 579 L152 723 L282 723 L170 579 Z " />
<glyph glyph-name="icircumflex" unicode="&#xee;" horiz-adv-x="276" d="M60 0 L60 523 L216 523 L216 0 L60 0 Z M205 579 L138 664 L72 579 L-35 579 L80 723 L199 723 L313 579 L205 579 Z " />
<glyph glyph-name="idieresis" unicode="&#xef;" horiz-adv-x="276" d="M60 0 L60 523 L216 523 L216 0 L60 0 Z M122 666 Q122 631 101 607.5 Q80 584 48 584 Q15 584 -5.5 607.5 Q-26 631 -26 666 Q-26 700 -5.5 724 Q15 748 48 748 Q80 748 101 724 Q122 700 122 666 Z M306 666 Q306 631 285 607.5 Q264 584 232 584 Q199 584 178.5 607.5 Q158 631 158 666 Q158 700 178.5 724 Q199 748 232 748 Q264 748 285 724 Q306 700 306 666 Z " />
<glyph glyph-name="eth" unicode="&#xf0;" horiz-adv-x="489" d="M458 259 Q458 195 442 143.5 Q426 92 397.5 56 Q369 20 329.5 0.5 Q290 -19 244 -19 Q197 -19 157.5 0.5 Q118 20 89.5 56 Q61 92 45.5 144 Q30 196 30 261 Q30 319 45 367.5 Q60 416 86.5 450.5 Q113 485 150 504 Q187 523 231 523 Q246 523 255.5 519.5 Q265 516 273 511 L276 512 Q264 537 246 563 Q228 589 211 608 L111 559 L48 626 L151 674 Q139 687 118 703 Q97 719 74 736 L200 793 Q222 774 241 757.5 Q260 741 275 724 L365 767 L434 701 L328 653 Q386 578 422 477.5 Q458 377 458 259 Z M315 261 Q315 290 310.5 315.5 Q306 341 297 359.5 Q288 378 275 389 Q262 400 244 400 Q226 400 213 389 Q200 378 191.5 359.5 Q183 341 179 315.5 Q175 290 175 261 Q175 232 179 207 Q183 182 191.5 163 Q200 144 213 133 Q226 122 244 122 Q262 122 275.5 133 Q289 144 297.5 163 Q306 182 310.5 207 Q315 232 315 261 Z " />
<glyph glyph-name="ntilde" unicode="&#xf1;" horiz-adv-x="540" d="M215 523 L215 449 L217 449 Q230 487 263 514.5 Q296 542 345 542 Q390 542 417 523.5 Q444 505 459 474 Q474 443 479 403 Q484 363 484 320 L484 0 L327 0 L327 321 Q327 354 317.5 379 Q308 404 280 404 Q251 404 235 377.5 Q219 351 219 308 L219 0 L62 0 L62 523 L215 523 Z M423 703 Q421 645 397.5 611 Q374 577 334 577 Q302 577 265 600 Q243 614 232.5 618 Q222 622 209 622 Q181 622 176 578 L118 578 Q121 633 144 668.5 Q167 704 207 704 Q226 704 241.5 698 Q257 692 277 680 Q299 667 310 662.5 Q321 658 334 658 Q349 658 356 668.5 Q363 679 366 703 L423 703 Z " />
<glyph glyph-name="ograve" unicode="&#xf2;" horiz-adv-x="495" d="M465 261 Q465 200 450 148.5 Q435 97 407.5 60 Q380 23 339.5 2 Q299 -19 248 -19 Q197 -19 157 2 Q117 23 88.5 60 Q60 97 45 148.5 Q30 200 30 261 Q30 322 45 374 Q60 426 88 463 Q116 500 156.5 521 Q197 542 248 542 Q299 542 339.5 521 Q380 500 407.5 463 Q435 426 450 374 Q465 322 465 261 Z M315 262 Q315 292 311 317.5 Q307 343 299 362.5 Q291 382 278.5 393 Q266 404 248 404 Q231 404 218.5 393 Q206 382 198 362.5 Q190 343 186 317.5 Q182 292 182 262 Q182 232 186 206.5 Q190 181 198 161.5 Q206 142 218.5 131 Q231 120 248 120 Q266 120 278.5 131 Q291 142 299 161.5 Q307 181 311 206.5 Q315 232 315 262 Z M232 723 L322 579 L214 579 L102 723 L232 723 Z " />
<glyph glyph-name="oacute" unicode="&#xf3;" horiz-adv-x="495" d="M465 261 Q465 200 450 148.5 Q435 97 407.5 60 Q380 23 339.5 2 Q299 -19 248 -19 Q197 -19 157 2 Q117 23 88.5 60 Q60 97 45 148.5 Q30 200 30 261 Q30 322 45 374 Q60 426 88 463 Q116 500 156.5 521 Q197 542 248 542 Q299 542 339.5 521 Q380 500 407.5 463 Q435 426 450 374 Q465 322 465 261 Z M315 262 Q315 292 311 317.5 Q307 343 299 362.5 Q291 382 278.5 393 Q266 404 248 404 Q231 404 218.5 393 Q206 382 198 362.5 Q190 343 186 317.5 Q182 292 182 262 Q182 232 186 206.5 Q190 181 198 161.5 Q206 142 218.5 131 Q231 120 248 120 Q266 120 278.5 131 Q291 142 299 161.5 Q307 181 311 206.5 Q315 232 315 262 Z M284 579 L176 579 L266 723 L396 723 L284 579 Z " />
<glyph glyph-name="ocircumflex" unicode="&#xf4;" horiz-adv-x="495" d="M465 261 Q465 200 450 148.5 Q435 97 407.5 60 Q380 23 339.5 2 Q299 -19 248 -19 Q197 -19 157 2 Q117 23 88.5 60 Q60 97 45 148.5 Q30 200 30 261 Q30 322 45 374 Q60 426 88 463 Q116 500 156.5 521 Q197 542 248 542 Q299 542 339.5 521 Q380 500 407.5 463 Q435 426 450 374 Q465 322 465 261 Z M315 262 Q315 292 311 317.5 Q307 343 299 362.5 Q291 382 278.5 393 Q266 404 248 404 Q231 404 218.5 393 Q206 382 198 362.5 Q190 343 186 317.5 Q182 292 182 262 Q182 232 186 206.5 Q190 181 198 161.5 Q206 142 218.5 131 Q231 120 248 120 Q266 120 278.5 131 Q291 142 299 161.5 Q307 181 311 206.5 Q315 232 315 262 Z M314 579 L247 664 L181 579 L74 579 L189 723 L308 723 L422 579 L314 579 Z " />
<glyph glyph-name="otilde" unicode="&#xf5;" horiz-adv-x="495" d="M465 261 Q465 200 450 148.5 Q435 97 407.5 60 Q380 23 339.5 2 Q299 -19 248 -19 Q197 -19 157 2 Q117 23 88.5 60 Q60 97 45 148.5 Q30 200 30 261 Q30 322 45 374 Q60 426 88 463 Q116 500 156.5 521 Q197 542 248 542 Q299 542 339.5 521 Q380 500 407.5 463 Q435 426 450 374 Q465 322 465 261 Z M315 262 Q315 292 311 317.5 Q307 343 299 362.5 Q291 382 278.5 393 Q266 404 248 404 Q231 404 218.5 393 Q206 382 198 362.5 Q190 343 186 317.5 Q182 292 182 262 Q182 232 186 206.5 Q190 181 198 161.5 Q206 142 218.5 131 Q231 120 248 120 Q266 120 278.5 131 Q291 142 299 161.5 Q307 181 311 206.5 Q315 232 315 262 Z M401 711 Q399 653 375.5 619 Q352 585 312 585 Q280 585 243 608 Q221 622 210.5 626 Q200 630 187 630 Q159 630 154 586 L96 586 Q99 642 122 676 Q145 712 185 712 Q204 712 219.5 706 Q235 700 255 688 Q277 675 288 670.5 Q299 666 312 666 Q327 666 334 676.5 Q341 687 344 711 L401 711 Z " />
<glyph glyph-name="odieresis" unicode="&#xf6;" horiz-adv-x="495" d="M465 261 Q465 200 450 148.5 Q435 97 407.5 60 Q380 23 339.5 2 Q299 -19 248 -19 Q197 -19 157 2 Q117 23 88.5 60 Q60 97 45 148.5 Q30 200 30 261 Q30 322 45 374 Q60 426 88 463 Q116 500 156.5 521 Q197 542 248 542 Q299 542 339.5 521 Q380 500 407.5 463 Q435 426 450 374 Q465 322 465 261 Z M315 262 Q315 292 311 317.5 Q307 343 299 362.5 Q291 382 278.5 393 Q266 404 248 404 Q231 404 218.5 393 Q206 382 198 362.5 Q190 343 186 317.5 Q182 292 182 262 Q182 232 186 206.5 Q190 181 198 161.5 Q206 142 218.5 131 Q231 120 248 120 Q266 120 278.5 131 Q291 142 299 161.5 Q307 181 311 206.5 Q315 232 315 262 Z M230 666 Q230 631 209 607.5 Q188 584 156 584 Q123 584 102.5 607.5 Q82 631 82 666 Q82 700 102.5 724 Q123 748 156 748 Q188 748 209 724 Q230 700 230 666 Z M414 666 Q414 631 393 607.5 Q372 584 340 584 Q307 584 286.5 607.5 Q266 631 266 666 Q266 700 286.5 724 Q307 748 340 748 Q372 748 393 724 Q414 700 414 666 Z " />
<glyph glyph-name="divide" unicode="&#xf7;" horiz-adv-x="666" d="M246 489 Q246 506 253 521.5 Q260 537 272 548.5 Q284 560 299.5 566.5 Q315 573 333 573 Q351 573 366.5 566.5 Q382 560 393.5 548.5 Q405 537 412 521.5 Q419 506 419 489 Q419 471 412 455.5 Q405 440 393.5 428.5 Q382 417 366.5 410.5 Q351 404 333 404 Q315 404 299.5 410.5 Q284 417 272 428.5 Q260 440 253 455.5 Q246 471 246 489 Z M246 117 Q246 134 253 149.5 Q260 165 272 176.5 Q284 188 299.5 194.5 Q315 201 333 201 Q351 201 366.5 194.5 Q382 188 393.5 176.5 Q405 165 412 149.5 Q419 134 419 117 Q419 100 412 84.5 Q405 69 393.5 57.5 Q382 46 366.5 39 Q351 32 333 32 Q315 32 299.5 39 Q284 46 272 57.5 Q260 69 253 84.5 Q246 100 246 117 Z M79 240 L79 367 L586 367 L586 240 L79 240 Z " />
<glyph glyph-name="oslash" unicode="&#xf8;" horiz-adv-x="495" d="M400 472 Q432 434 448.5 380.5 Q465 327 465 261 Q465 200 450 148.5 Q435 97 407.5 60 Q380 23 339.5 2 Q299 -19 248 -19 Q191 -19 147 7 L121 -50 L54 -18 L91 56 Q62 94 46 146 Q30 198 30 261 Q30 322 45 374 Q60 426 88 463 Q116 500 156.5 521 Q197 542 248 542 Q302 542 343 519 L371 576 L437 545 L400 472 Z M326 262 Q326 300 320 333 L210 117 Q225 102 248 102 Q269 102 283.5 114.5 Q298 127 307.5 148.5 Q317 170 321.5 199.5 Q326 229 326 262 Z M172 262 Q172 245 173 230.5 Q174 216 176 202 L281 411 Q267 422 248 422 Q228 422 213.5 409.5 Q199 397 190 375.5 Q181 354 176.5 324.5 Q172 295 172 262 Z " />
<glyph glyph-name="ugrave" unicode="&#xf9;" horiz-adv-x="540" d="M325 0 L325 74 L323 74 Q310 36 277 8.5 Q244 -19 195 -19 Q150 -19 123 -0.5 Q96 18 81 49 Q66 80 61 120 Q56 160 56 203 L56 523 L213 523 L213 203 Q213 186 215 171 Q217 156 222 145 Q227 134 236.5 127 Q246 120 260 120 Q289 120 305 146.5 Q321 173 321 216 L321 523 L478 523 L478 0 L325 0 Z M254 723 L344 579 L236 579 L124 723 L254 723 Z " />
<glyph glyph-name="uacute" unicode="&#xfa;" horiz-adv-x="540" d="M325 0 L325 74 L323 74 Q310 36 277 8.5 Q244 -19 195 -19 Q150 -19 123 -0.5 Q96 18 81 49 Q66 80 61 120 Q56 160 56 203 L56 523 L213 523 L213 203 Q213 186 215 171 Q217 156 222 145 Q227 134 236.5 127 Q246 120 260 120 Q289 120 305 146.5 Q321 173 321 216 L321 523 L478 523 L478 0 L325 0 Z M304 579 L196 579 L286 723 L416 723 L304 579 Z " />
<glyph glyph-name="ucircumflex" unicode="&#xfb;" horiz-adv-x="540" d="M325 0 L325 74 L323 74 Q310 36 277 8.5 Q244 -19 195 -19 Q150 -19 123 -0.5 Q96 18 81 49 Q66 80 61 120 Q56 160 56 203 L56 523 L213 523 L213 203 Q213 186 215 171 Q217 156 222 145 Q227 134 236.5 127 Q246 120 260 120 Q289 120 305 146.5 Q321 173 321 216 L321 523 L478 523 L478 0 L325 0 Z M334 579 L267 664 L201 579 L94 579 L209 723 L328 723 L442 579 L334 579 Z " />
<glyph glyph-name="udieresis" unicode="&#xfc;" horiz-adv-x="540" d="M325 0 L325 74 L323 74 Q310 36 277 8.5 Q244 -19 195 -19 Q150 -19 123 -0.5 Q96 18 81 49 Q66 80 61 120 Q56 160 56 203 L56 523 L213 523 L213 203 Q213 186 215 171 Q217 156 222 145 Q227 134 236.5 127 Q246 120 260 120 Q289 120 305 146.5 Q321 173 321 216 L321 523 L478 523 L478 0 L325 0 Z M250 666 Q250 631 229 607.5 Q208 584 176 584 Q143 584 122.5 607.5 Q102 631 102 666 Q102 700 122.5 724 Q143 748 176 748 Q208 748 229 724 Q250 700 250 666 Z M434 666 Q434 631 413 607.5 Q392 584 360 584 Q327 584 306.5 607.5 Q286 631 286 666 Q286 700 306.5 724 Q327 748 360 748 Q392 748 413 724 Q434 700 434 666 Z " />
<glyph glyph-name="yacute" unicode="&#xfd;" horiz-adv-x="476" d="M325 -18 Q313 -63 297.5 -103 Q282 -143 258 -173.5 Q234 -204 199 -222 Q164 -240 113 -240 Q90 -240 66.5 -237 Q43 -234 25 -230 L46 -88 Q55 -92 67 -94 Q79 -96 88 -96 Q118 -96 131.5 -80 Q145 -64 151 -42 L159 -13 L3 523 L168 523 L243 174 L245 174 L314 523 L473 523 L325 -18 Z M279 579 L171 579 L261 723 L391 723 L279 579 Z " />
<glyph glyph-name="thorn" unicode="&#xfe;" horiz-adv-x="528" d="M213 762 L213 461 L216 461 Q230 495 255.5 517 Q281 539 325 539 Q367 539 399.5 518 Q432 497 453.5 460.5 Q475 424 486.5 374.5 Q498 325 498 267 Q498 208 486.5 156 Q475 104 453.5 66 Q432 28 399.5 6 Q367 -16 325 -16 Q280 -16 254 6 Q228 28 218 56 L216 56 L216 -240 L62 -240 L62 762 L213 762 Z M210 262 Q210 233 214 207 Q218 181 226.5 161.5 Q235 142 247.5 131 Q260 120 277 120 Q295 120 307.5 131 Q320 142 328.5 161.5 Q337 181 340.5 207 Q344 233 344 262 Q344 292 340.5 317.5 Q337 343 328.5 362.5 Q320 382 307.5 393 Q295 404 277 404 Q260 404 247.5 393 Q235 382 226.5 362.5 Q218 343 214 317.5 Q210 292 210 262 Z " />
<glyph glyph-name="ydieresis" unicode="&#xff;" horiz-adv-x="476" d="M325 -18 Q313 -63 297.5 -103 Q282 -143 258 -173.5 Q234 -204 199 -222 Q164 -240 113 -240 Q90 -240 66.5 -237 Q43 -234 25 -230 L46 -88 Q55 -92 67 -94 Q79 -96 88 -96 Q118 -96 131.5 -80 Q145 -64 151 -42 L159 -13 L3 523 L168 523 L243 174 L245 174 L314 523 L473 523 L325 -18 Z M226 666 Q226 631 205 607.5 Q184 584 152 584 Q119 584 98.5 607.5 Q78 631 78 666 Q78 700 98.5 724 Q119 748 152 748 Q184 748 205 724 Q226 700 226 666 Z M410 666 Q410 631 389 607.5 Q368 584 336 584 Q303 584 282.5 607.5 Q262 631 262 666 Q262 700 282.5 724 Q303 748 336 748 Q368 748 389 724 Q410 700 410 666 Z " />
<glyph glyph-name="Amacron" unicode="&#x100;" horiz-adv-x="543" d="M377 0 L348 129 L189 129 L160 0 L0 0 L172 708 L373 708 L544 0 L377 0 Z M271 554 L267 554 L207 253 L328 253 L271 554 Z M121 798 L121 875 L415 875 L415 798 L121 798 Z " />
<glyph glyph-name="amacron" unicode="&#x101;" horiz-adv-x="465" d="M274 228 L246 228 Q229 228 213 225 Q197 222 185 213.5 Q173 205 166 191.5 Q159 178 159 157 Q159 126 172.5 111.5 Q186 97 205 97 Q223 97 236.5 106 Q250 115 258 129.5 Q266 144 270 162.5 Q274 181 274 199 L274 228 Z M279 65 Q269 30 239.5 8.5 Q210 -13 163 -13 Q140 -13 116 -5 Q92 3 72 21.5 Q52 40 39 70.5 Q26 101 26 146 Q26 200 45.5 235 Q65 270 96.5 291 Q128 312 168 320.5 Q208 329 249 329 L269 329 L269 337 Q269 375 251.5 392 Q234 409 205 409 Q176 409 152.5 396 Q129 383 112 363 L43 459 Q75 497 122.5 518 Q170 539 217 539 Q270 539 307 523 Q344 507 367 476 Q390 445 400 400.5 Q410 356 410 298 L410 0 L281 0 L281 65 L279 65 Z M79 613 L79 690 L373 690 L373 613 L79 613 Z " />
<glyph glyph-name="Abreve" unicode="&#x102;" horiz-adv-x="543" d="M377 0 L348 129 L189 129 L160 0 L0 0 L172 708 L373 708 L544 0 L377 0 Z M271 554 L267 554 L207 253 L328 253 L271 554 Z M417 905 Q414 866 400.5 839 Q387 812 367 796 Q347 780 321 773 Q295 766 267 766 Q240 766 214.5 773 Q189 780 168.5 796 Q148 812 135 839 Q122 866 119 905 L197 905 Q201 873 222.5 861 Q244 849 267 849 Q292 849 313 861 Q334 873 339 905 L417 905 Z " />
<glyph glyph-name="abreve" unicode="&#x103;" horiz-adv-x="465" d="M274 228 L246 228 Q229 228 213 225 Q197 222 185 213.5 Q173 205 166 191.5 Q159 178 159 157 Q159 126 172.5 111.5 Q186 97 205 97 Q223 97 236.5 106 Q250 115 258 129.5 Q266 144 270 162.5 Q274 181 274 199 L274 228 Z M279 65 Q269 30 239.5 8.5 Q210 -13 163 -13 Q140 -13 116 -5 Q92 3 72 21.5 Q52 40 39 70.5 Q26 101 26 146 Q26 200 45.5 235 Q65 270 96.5 291 Q128 312 168 320.5 Q208 329 249 329 L269 329 L269 337 Q269 375 251.5 392 Q234 409 205 409 Q176 409 152.5 396 Q129 383 112 363 L43 459 Q75 497 122.5 518 Q170 539 217 539 Q270 539 307 523 Q344 507 367 476 Q390 445 400 400.5 Q410 356 410 298 L410 0 L281 0 L281 65 L279 65 Z M381 720 Q378 681 364.5 654 Q351 627 331 611 Q311 595 285 588 Q259 581 231 581 Q204 581 178.5 588 Q153 595 132.5 611 Q112 627 99 654 Q86 681 83 720 L161 720 Q165 688 186.5 676 Q208 664 231 664 Q256 664 277 676 Q298 688 303 720 L381 720 Z " />
<glyph glyph-name="Aogonek" unicode="&#x104;" horiz-adv-x="543" d="M496 -196 Q474 -213 445 -224.5 Q416 -236 385 -236 Q367 -236 348.5 -231.5 Q330 -227 315 -216.5 Q300 -206 290.5 -188.5 Q281 -171 281 -145 Q281 -122 290 -102 Q299 -82 313.5 -64 Q328 -46 345.5 -30 Q363 -14 381 0 L377 0 L348 129 L189 129 L160 0 L0 0 L172 708 L373 708 L544 0 L478 0 Q425 -45 403.5 -71.5 Q382 -98 382 -120 Q382 -151 411 -151 Q439 -151 465 -130 L496 -196 Z M271 554 L267 554 L207 253 L328 253 L271 554 Z " />
<glyph glyph-name="aogonek" unicode="&#x105;" horiz-adv-x="465" d="M279 65 Q269 30 239.5 8.5 Q210 -13 163 -13 Q140 -13 116 -5 Q92 3 72 21.5 Q52 40 39 70.5 Q26 101 26 146 Q26 200 45.5 235 Q65 270 96.5 291 Q128 312 168 320.5 Q208 329 249 329 L269 329 L269 337 Q269 375 251.5 392 Q234 409 205 409 Q176 409 152.5 396 Q129 383 112 363 L43 459 Q75 497 122.5 518 Q170 539 217 539 Q270 539 307 523 Q344 507 367 476 Q390 445 400 400.5 Q410 356 410 298 L410 0 L383 0 Q330 -44 309 -71 Q288 -98 288 -120 Q288 -151 317 -151 Q345 -151 371 -130 L402 -196 Q380 -213 351 -224.5 Q322 -236 291 -236 Q273 -236 254.5 -231.5 Q236 -227 221 -216.5 Q206 -206 196.5 -188.5 Q187 -171 187 -145 Q187 -122 196 -102 Q205 -82 219 -64 Q233 -46 250.5 -30 Q268 -14 286 0 L281 0 L281 65 L279 65 Z M274 228 L246 228 Q229 228 213 225 Q197 222 185 213.5 Q173 205 166 191.5 Q159 178 159 157 Q159 126 172.5 111.5 Q186 97 205 97 Q223 97 236.5 106 Q250 115 258 129.5 Q266 144 270 162.5 Q274 181 274 199 L274 228 Z " />
<glyph glyph-name="Cacute" unicode="&#x106;" horiz-adv-x="512" d="M505 77 Q476 36 429 8.5 Q382 -19 309 -19 Q247 -19 196.5 8.5 Q146 36 110 85.5 Q74 135 54 203.5 Q34 272 34 354 Q34 437 54 506 Q74 575 110 624 Q146 673 196.5 700 Q247 727 309 727 Q380 727 427.5 701.5 Q475 676 504 638 L418 522 Q400 546 377.5 560 Q355 574 321 574 Q289 574 265.5 557 Q242 540 225.5 510.5 Q209 481 201 440.5 Q193 400 193 354 Q193 308 201 268 Q209 228 225.5 198 Q242 168 266 151 Q290 134 322 134 Q354 134 378 150 Q402 166 416 188 L505 77 Z M335 764 L227 764 L317 908 L447 908 L335 764 Z " />
<glyph glyph-name="cacute" unicode="&#x107;" horiz-adv-x="361" d="M365 40 Q344 14 311 -1 Q278 -16 235 -16 Q185 -16 147 4.5 Q109 25 83 62 Q57 99 43.5 150 Q30 201 30 262 Q30 323 44 373.5 Q58 424 84 461 Q110 498 148.5 518.5 Q187 539 237 539 Q281 539 313 523 Q345 507 363 487 L300 365 Q291 379 278 387 Q265 395 249 395 Q220 395 200.5 360 Q181 325 181 262 Q181 199 200 164.5 Q219 130 252 130 Q269 130 281.5 138.5 Q294 147 302 161 L365 40 Z M263 579 L155 579 L245 723 L375 723 L263 579 Z " />
<glyph glyph-name="Ccircumflex" unicode="&#x108;" horiz-adv-x="512" d="M505 77 Q476 36 429 8.5 Q382 -19 309 -19 Q247 -19 196.5 8.5 Q146 36 110 85.5 Q74 135 54 203.5 Q34 272 34 354 Q34 437 54 506 Q74 575 110 624 Q146 673 196.5 700 Q247 727 309 727 Q380 727 427.5 701.5 Q475 676 504 638 L418 522 Q400 546 377.5 560 Q355 574 321 574 Q289 574 265.5 557 Q242 540 225.5 510.5 Q209 481 201 440.5 Q193 400 193 354 Q193 308 201 268 Q209 228 225.5 198 Q242 168 266 151 Q290 134 322 134 Q354 134 378 150 Q402 166 416 188 L505 77 Z M380 764 L313 849 L247 764 L140 764 L255 908 L374 908 L488 764 L380 764 Z " />
<glyph glyph-name="ccircumflex" unicode="&#x109;" horiz-adv-x="361" d="M365 40 Q344 14 311 -1 Q278 -16 235 -16 Q185 -16 147 4.5 Q109 25 83 62 Q57 99 43.5 150 Q30 201 30 262 Q30 323 44 373.5 Q58 424 84 461 Q110 498 148.5 518.5 Q187 539 237 539 Q281 539 313 523 Q345 507 363 487 L300 365 Q291 379 278 387 Q265 395 249 395 Q220 395 200.5 360 Q181 325 181 262 Q181 199 200 164.5 Q219 130 252 130 Q269 130 281.5 138.5 Q294 147 302 161 L365 40 Z M301 579 L234 664 L168 579 L61 579 L176 723 L295 723 L409 579 L301 579 Z " />
<glyph glyph-name="Cdotaccent" unicode="&#x10a;" horiz-adv-x="512" d="M505 77 Q476 36 429 8.5 Q382 -19 309 -19 Q247 -19 196.5 8.5 Q146 36 110 85.5 Q74 135 54 203.5 Q34 272 34 354 Q34 437 54 506 Q74 575 110 624 Q146 673 196.5 700 Q247 727 309 727 Q380 727 427.5 701.5 Q475 676 504 638 L418 522 Q400 546 377.5 560 Q355 574 321 574 Q289 574 265.5 557 Q242 540 225.5 510.5 Q209 481 201 440.5 Q193 400 193 354 Q193 308 201 268 Q209 228 225.5 198 Q242 168 266 151 Q290 134 322 134 Q354 134 378 150 Q402 166 416 188 L505 77 Z M398 850 Q398 812 374 785.5 Q350 759 312 759 Q274 759 250 785.5 Q226 812 226 850 Q226 869 232.5 885.5 Q239 902 250 914.5 Q261 927 277 934.5 Q293 942 312 942 Q331 942 347 934.5 Q363 927 374 914.5 Q385 902 391.5 885.5 Q398 869 398 850 Z " />
<glyph glyph-name="cdotaccent" unicode="&#x10b;" horiz-adv-x="361" d="M365 40 Q344 14 311 -1 Q278 -16 235 -16 Q185 -16 147 4.5 Q109 25 83 62 Q57 99 43.5 150 Q30 201 30 262 Q30 323 44 373.5 Q58 424 84 461 Q110 498 148.5 518.5 Q187 539 237 539 Q281 539 313 523 Q345 507 363 487 L300 365 Q291 379 278 387 Q265 395 249 395 Q220 395 200.5 360 Q181 325 181 262 Q181 199 200 164.5 Q219 130 252 130 Q269 130 281.5 138.5 Q294 147 302 161 L365 40 Z M322 665 Q322 627 298 600.5 Q274 574 236 574 Q198 574 174 600.5 Q150 627 150 665 Q150 684 156.5 700.5 Q163 717 174 729.5 Q185 742 201 749.5 Q217 757 236 757 Q255 757 271 749.5 Q287 742 298 729.5 Q309 717 315.5 700.5 Q322 684 322 665 Z " />
<glyph glyph-name="Ccaron" unicode="&#x10c;" horiz-adv-x="512" d="M505 77 Q476 36 429 8.5 Q382 -19 309 -19 Q247 -19 196.5 8.5 Q146 36 110 85.5 Q74 135 54 203.5 Q34 272 34 354 Q34 437 54 506 Q74 575 110 624 Q146 673 196.5 700 Q247 727 309 727 Q380 727 427.5 701.5 Q475 676 504 638 L418 522 Q400 546 377.5 560 Q355 574 321 574 Q289 574 265.5 557 Q242 540 225.5 510.5 Q209 481 201 440.5 Q193 400 193 354 Q193 308 201 268 Q209 228 225.5 198 Q242 168 266 151 Q290 134 322 134 Q354 134 378 150 Q402 166 416 188 L505 77 Z M246 908 L313 823 L379 908 L486 908 L371 764 L252 764 L138 908 L246 908 Z " />
<glyph glyph-name="ccaron" unicode="&#x10d;" horiz-adv-x="361" d="M365 40 Q344 14 311 -1 Q278 -16 235 -16 Q185 -16 147 4.5 Q109 25 83 62 Q57 99 43.5 150 Q30 201 30 262 Q30 323 44 373.5 Q58 424 84 461 Q110 498 148.5 518.5 Q187 539 237 539 Q281 539 313 523 Q345 507 363 487 L300 365 Q291 379 278 387 Q265 395 249 395 Q220 395 200.5 360 Q181 325 181 262 Q181 199 200 164.5 Q219 130 252 130 Q269 130 281.5 138.5 Q294 147 302 161 L365 40 Z M170 723 L237 638 L303 723 L410 723 L295 579 L176 579 L62 723 L170 723 Z " />
<glyph glyph-name="Dcaron" unicode="&#x10e;" horiz-adv-x="590" d="M556 352 Q556 272 538.5 207 Q521 142 485 96 Q449 50 393.5 25 Q338 0 262 0 L63 0 L63 708 L262 708 Q338 708 393.5 683 Q449 658 485 611.5 Q521 565 538.5 499.5 Q556 434 556 352 Z M395 352 Q395 459 358.5 513.5 Q322 568 264 568 L225 568 L225 140 L264 140 Q322 140 358.5 194.5 Q395 249 395 352 Z M207 908 L274 823 L340 908 L447 908 L332 764 L213 764 L99 908 L207 908 Z " />
<glyph glyph-name="dcaron" unicode="&#x10f;" horiz-adv-x="528" d="M315 0 L315 63 L313 63 Q302 31 276.5 7.5 Q251 -16 203 -16 Q162 -16 129.5 6.5 Q97 29 75 67.5 Q53 106 41.5 158 Q30 210 30 269 Q30 327 41 376.5 Q52 426 74 462 Q96 498 128.5 518.5 Q161 539 203 539 Q242 539 270.5 519 Q299 499 308 470 L311 470 L311 756 L466 756 L466 0 L315 0 Z M318 262 Q318 292 314 317.5 Q310 343 301.5 362.5 Q293 382 280.5 393 Q268 404 251 404 Q233 404 220.5 393 Q208 382 200 362.5 Q192 343 188 317.5 Q184 292 184 262 Q184 233 188 207 Q192 181 200 161.5 Q208 142 220.5 131 Q233 120 251 120 Q268 120 280.5 131 Q293 142 301.5 161.5 Q310 181 314 207 Q318 233 318 262 Z M607 521 L502 521 L552 708 L669 708 L607 521 Z " />
<glyph glyph-name="Dcroat" unicode="&#x110;" horiz-adv-x="595" d="M14 308 L14 413 L63 413 L63 708 L262 708 Q338 708 393.5 683 Q449 658 485 611.5 Q521 565 538.5 499.5 Q556 434 556 352 Q556 272 538.5 207 Q521 142 485 96 Q449 50 393.5 25 Q338 0 262 0 L63 0 L63 308 L14 308 Z M320 413 L320 308 L225 308 L225 140 L264 140 Q322 140 358.5 194.5 Q395 249 395 352 Q395 459 358.5 513.5 Q322 568 264 568 L225 568 L225 413 L320 413 Z " />
<glyph glyph-name="dcroat" unicode="&#x111;" horiz-adv-x="528" d="M315 0 L315 63 L313 63 Q302 31 276.5 7.5 Q251 -16 203 -16 Q162 -16 129.5 6.5 Q97 29 75 67.5 Q53 106 41.5 158 Q30 210 30 269 Q30 327 41 376.5 Q52 426 74 462 Q96 498 128.5 518.5 Q161 539 203 539 Q242 539 270.5 519 Q299 499 308 470 L311 470 L311 590 L211 590 L211 667 L311 667 L311 756 L466 756 L466 667 L505 667 L505 590 L466 590 L466 0 L315 0 Z M318 262 Q318 292 314 317.5 Q310 343 301.5 362.5 Q293 382 280.5 393 Q268 404 251 404 Q233 404 220.5 393 Q208 382 200 362.5 Q192 343 188 317.5 Q184 292 184 262 Q184 233 188 207 Q192 181 200 161.5 Q208 142 220.5 131 Q233 120 251 120 Q268 120 280.5 131 Q293 142 301.5 161.5 Q310 181 314 207 Q318 233 318 262 Z " />
<glyph glyph-name="Emacron" unicode="&#x112;" horiz-adv-x="448" d="M63 0 L63 708 L405 708 L405 567 L216 567 L216 428 L390 428 L390 296 L216 296 L216 143 L417 143 L417 0 L63 0 Z M84 798 L84 875 L378 875 L378 798 L84 798 Z " />
<glyph glyph-name="emacron" unicode="&#x113;" horiz-adv-x="473" d="M182 222 Q182 200 187.5 180.5 Q193 161 202 146.5 Q211 132 224 123.5 Q237 115 253 115 Q279 115 295 132 Q311 149 320 172 L435 107 Q409 49 362.5 15 Q316 -19 247 -19 Q201 -19 161.5 -1 Q122 17 92.5 52.5 Q63 88 46.5 140 Q30 192 30 260 Q30 324 45.5 376.5 Q61 429 89.5 465.5 Q118 502 157 522 Q196 542 243 542 Q297 542 335 521 Q373 500 397.5 463.5 Q422 427 433 376.5 Q444 326 444 266 L444 222 L182 222 Z M300 324 Q300 366 287 394 Q274 422 244 422 Q228 422 216.5 412.5 Q205 403 197 388.5 Q189 374 185 356.5 Q181 339 181 324 L300 324 Z M100 613 L100 690 L394 690 L394 613 L100 613 Z " />
<glyph glyph-name="Ebreve" unicode="&#x114;" horiz-adv-x="448" d="M63 0 L63 708 L405 708 L405 567 L216 567 L216 428 L390 428 L390 296 L216 296 L216 143 L417 143 L417 0 L63 0 Z M381 905 Q378 866 364.5 839 Q351 812 331 796 Q311 780 285 773 Q259 766 231 766 Q204 766 178.5 773 Q153 780 132.5 796 Q112 812 99 839 Q86 866 83 905 L161 905 Q165 873 186.5 861 Q208 849 231 849 Q256 849 277 861 Q298 873 303 905 L381 905 Z " />
<glyph glyph-name="ebreve" unicode="&#x115;" horiz-adv-x="473" d="M182 222 Q182 200 187.5 180.5 Q193 161 202 146.5 Q211 132 224 123.5 Q237 115 253 115 Q279 115 295 132 Q311 149 320 172 L435 107 Q409 49 362.5 15 Q316 -19 247 -19 Q201 -19 161.5 -1 Q122 17 92.5 52.5 Q63 88 46.5 140 Q30 192 30 260 Q30 324 45.5 376.5 Q61 429 89.5 465.5 Q118 502 157 522 Q196 542 243 542 Q297 542 335 521 Q373 500 397.5 463.5 Q422 427 433 376.5 Q444 326 444 266 L444 222 L182 222 Z M300 324 Q300 366 287 394 Q274 422 244 422 Q228 422 216.5 412.5 Q205 403 197 388.5 Q189 374 185 356.5 Q181 339 181 324 L300 324 Z M396 720 Q393 681 379.5 654 Q366 627 346 611 Q326 595 300 588 Q274 581 246 581 Q219 581 193.5 588 Q168 595 147.5 611 Q127 627 114 654 Q101 681 98 720 L176 720 Q180 688 201.5 676 Q223 664 246 664 Q271 664 292 676 Q313 688 318 720 L396 720 Z " />
<glyph glyph-name="Edotaccent" unicode="&#x116;" horiz-adv-x="448" d="M63 0 L63 708 L405 708 L405 567 L216 567 L216 428 L390 428 L390 296 L216 296 L216 143 L417 143 L417 0 L63 0 Z M321 850 Q321 812 297 785.5 Q273 759 235 759 Q197 759 173 785.5 Q149 812 149 850 Q149 869 155.5 885.5 Q162 902 173 914.5 Q184 927 200 934.5 Q216 942 235 942 Q254 942 270 934.5 Q286 927 297 914.5 Q308 902 314.5 885.5 Q321 869 321 850 Z " />
<glyph glyph-name="edotaccent" unicode="&#x117;" horiz-adv-x="473" d="M182 222 Q182 200 187.5 180.5 Q193 161 202 146.5 Q211 132 224 123.5 Q237 115 253 115 Q279 115 295 132 Q311 149 320 172 L435 107 Q409 49 362.5 15 Q316 -19 247 -19 Q201 -19 161.5 -1 Q122 17 92.5 52.5 Q63 88 46.5 140 Q30 192 30 260 Q30 324 45.5 376.5 Q61 429 89.5 465.5 Q118 502 157 522 Q196 542 243 542 Q297 542 335 521 Q373 500 397.5 463.5 Q422 427 433 376.5 Q444 326 444 266 L444 222 L182 222 Z M300 324 Q300 366 287 394 Q274 422 244 422 Q228 422 216.5 412.5 Q205 403 197 388.5 Q189 374 185 356.5 Q181 339 181 324 L300 324 Z M331 665 Q331 627 307 600.5 Q283 574 245 574 Q207 574 183 600.5 Q159 627 159 665 Q159 684 165.5 700.5 Q172 717 183 729.5 Q194 742 210 749.5 Q226 757 245 757 Q264 757 280 749.5 Q296 742 307 729.5 Q318 717 324.5 700.5 Q331 684 331 665 Z " />
<glyph glyph-name="Eogonek" unicode="&#x118;" horiz-adv-x="448" d="M414 -196 Q392 -213 363 -224.5 Q334 -236 303 -236 Q285 -236 266.5 -231.5 Q248 -227 233 -216.5 Q218 -206 208.5 -188.5 Q199 -171 199 -145 Q199 -122 208 -102 Q217 -82 231.5 -64 Q246 -46 263.5 -30 Q281 -14 299 0 L63 0 L63 708 L405 708 L405 567 L216 567 L216 428 L390 428 L390 296 L216 296 L216 143 L417 143 L417 0 L396 0 Q343 -45 321.5 -71.5 Q300 -98 300 -120 Q300 -151 329 -151 Q357 -151 383 -130 L414 -196 L414 -196 Z " />
<glyph glyph-name="eogonek" unicode="&#x119;" horiz-adv-x="473" d="M182 222 Q182 200 187.5 180.5 Q193 161 202 146.5 Q211 132 224 123.5 Q237 115 253 115 Q279 115 295 132 Q311 149 320 172 L435 107 Q415 63 384.5 33 Q354 3 310 -10 Q287 -30 271 -46 Q255 -62 245 -75 Q235 -88 230.5 -99 Q226 -110 226 -120 Q226 -151 255 -151 Q283 -151 309 -130 L340 -196 Q318 -213 289 -224.5 Q260 -236 229 -236 Q211 -236 192.5 -231.5 Q174 -227 159 -216.5 Q144 -206 134.5 -188.5 Q125 -171 125 -145 Q125 -105 149.5 -73 Q174 -41 206 -15 Q168 -8 135.5 13.5 Q103 35 79.5 69.5 Q56 104 43 152 Q30 200 30 260 Q30 324 45.5 376.5 Q61 429 89.5 465.5 Q118 502 157 522 Q196 542 243 542 Q297 542 335 521 Q373 500 397.5 463.5 Q422 427 433 376.5 Q444 326 444 266 L444 222 L182 222 Z M300 324 Q300 366 287 394 Q274 422 244 422 Q228 422 216.5 412.5 Q205 403 197 388.5 Q189 374 185 356.5 Q181 339 181 324 L300 324 Z " />
<glyph glyph-name="Ecaron" unicode="&#x11a;" horiz-adv-x="448" d="M63 0 L63 708 L405 708 L405 567 L216 567 L216 428 L390 428 L390 296 L216 296 L216 143 L417 143 L417 0 L63 0 Z M167 908 L234 823 L300 908 L407 908 L292 764 L173 764 L59 908 L167 908 Z " />
<glyph glyph-name="ecaron" unicode="&#x11b;" horiz-adv-x="473" d="M182 222 Q182 200 187.5 180.5 Q193 161 202 146.5 Q211 132 224 123.5 Q237 115 253 115 Q279 115 295 132 Q311 149 320 172 L435 107 Q409 49 362.5 15 Q316 -19 247 -19 Q201 -19 161.5 -1 Q122 17 92.5 52.5 Q63 88 46.5 140 Q30 192 30 260 Q30 324 45.5 376.5 Q61 429 89.5 465.5 Q118 502 157 522 Q196 542 243 542 Q297 542 335 521 Q373 500 397.5 463.5 Q422 427 433 376.5 Q444 326 444 266 L444 222 L182 222 Z M300 324 Q300 366 287 394 Q274 422 244 422 Q228 422 216.5 412.5 Q205 403 197 388.5 Q189 374 185 356.5 Q181 339 181 324 L300 324 Z M179 723 L246 638 L312 723 L419 723 L304 579 L185 579 L71 723 L179 723 Z " />
<glyph glyph-name="Gcircumflex" unicode="&#x11c;" horiz-adv-x="560" d="M513 42 Q479 16 431 0 Q383 -16 318 -16 Q251 -16 198.5 11 Q146 38 109.5 86.5 Q73 135 53.5 203 Q34 271 34 354 Q34 437 53.5 505.5 Q73 574 109 623.5 Q145 673 195.5 700 Q246 727 308 727 Q380 727 428.5 702.5 Q477 678 505 641 L418 524 Q382 574 320 574 Q287 574 263 556.5 Q239 539 223 509 Q207 479 199.5 439 Q192 399 192 354 Q192 309 199 269 Q206 229 221.5 199 Q237 169 260.5 151 Q284 133 317 133 Q353 133 373 148 L373 280 L297 280 L297 419 L513 419 L513 42 Z M381 764 L314 849 L248 764 L141 764 L256 908 L375 908 L489 764 L381 764 Z " />
<glyph glyph-name="gcircumflex" unicode="&#x11d;" horiz-adv-x="527" d="M465 523 L465 37 Q465 -97 409 -168.5 Q353 -240 231 -240 Q176 -240 124 -220.5 Q72 -201 38 -172 L111 -56 Q134 -76 161.5 -89 Q189 -102 221 -102 Q270 -102 291.5 -68 Q313 -34 313 17 L313 60 L311 60 Q300 34 271 13.5 Q242 -7 204 -7 Q161 -7 128.5 13.5 Q96 34 74 70.5 Q52 107 41 156.5 Q30 206 30 263 Q30 323 41.5 373.5 Q53 424 75.5 460.5 Q98 497 130 518 Q162 539 204 539 Q249 539 274.5 517 Q300 495 312 461 L315 461 L315 523 L465 523 Z M318 262 Q318 292 314 317.5 Q310 343 301.5 362.5 Q293 382 280.5 393 Q268 404 251 404 Q233 404 220.5 393 Q208 382 200 362.5 Q192 343 188 317.5 Q184 292 184 262 Q184 233 188 207 Q192 181 200 161.5 Q208 142 220.5 131 Q233 120 251 120 Q268 120 280.5 131 Q293 142 301.5 161.5 Q310 181 314 207 Q318 233 318 262 Z M329 579 L262 664 L196 579 L89 579 L204 723 L323 723 L437 579 L329 579 Z " />
<glyph glyph-name="Gbreve" unicode="&#x11e;" horiz-adv-x="560" d="M513 42 Q479 16 431 0 Q383 -16 318 -16 Q251 -16 198.5 11 Q146 38 109.5 86.5 Q73 135 53.5 203 Q34 271 34 354 Q34 437 53.5 505.5 Q73 574 109 623.5 Q145 673 195.5 700 Q246 727 308 727 Q380 727 428.5 702.5 Q477 678 505 641 L418 524 Q382 574 320 574 Q287 574 263 556.5 Q239 539 223 509 Q207 479 199.5 439 Q192 399 192 354 Q192 309 199 269 Q206 229 221.5 199 Q237 169 260.5 151 Q284 133 317 133 Q353 133 373 148 L373 280 L297 280 L297 419 L513 419 L513 42 Z M461 905 Q458 866 444.5 839 Q431 812 411 796 Q391 780 365 773 Q339 766 311 766 Q284 766 258.5 773 Q233 780 212.5 796 Q192 812 179 839 Q166 866 163 905 L241 905 Q245 873 266.5 861 Q288 849 311 849 Q336 849 357 861 Q378 873 383 905 L461 905 Z " />
<glyph glyph-name="gbreve" unicode="&#x11f;" horiz-adv-x="527" d="M465 523 L465 37 Q465 -97 409 -168.5 Q353 -240 231 -240 Q176 -240 124 -220.5 Q72 -201 38 -172 L111 -56 Q134 -76 161.5 -89 Q189 -102 221 -102 Q270 -102 291.5 -68 Q313 -34 313 17 L313 60 L311 60 Q300 34 271 13.5 Q242 -7 204 -7 Q161 -7 128.5 13.5 Q96 34 74 70.5 Q52 107 41 156.5 Q30 206 30 263 Q30 323 41.5 373.5 Q53 424 75.5 460.5 Q98 497 130 518 Q162 539 204 539 Q249 539 274.5 517 Q300 495 312 461 L315 461 L315 523 L465 523 Z M318 262 Q318 292 314 317.5 Q310 343 301.5 362.5 Q293 382 280.5 393 Q268 404 251 404 Q233 404 220.5 393 Q208 382 200 362.5 Q192 343 188 317.5 Q184 292 184 262 Q184 233 188 207 Q192 181 200 161.5 Q208 142 220.5 131 Q233 120 251 120 Q268 120 280.5 131 Q293 142 301.5 161.5 Q310 181 314 207 Q318 233 318 262 Z M416 720 Q413 681 399.5 654 Q386 627 366 611 Q346 595 320 588 Q294 581 266 581 Q239 581 213.5 588 Q188 595 167.5 611 Q147 627 134 654 Q121 681 118 720 L196 720 Q200 688 221.5 676 Q243 664 266 664 Q291 664 312 676 Q333 688 338 720 L416 720 Z " />
<glyph glyph-name="Gdotaccent" unicode="&#x120;" horiz-adv-x="560" d="M513 42 Q479 16 431 0 Q383 -16 318 -16 Q251 -16 198.5 11 Q146 38 109.5 86.5 Q73 135 53.5 203 Q34 271 34 354 Q34 437 53.5 505.5 Q73 574 109 623.5 Q145 673 195.5 700 Q246 727 308 727 Q380 727 428.5 702.5 Q477 678 505 641 L418 524 Q382 574 320 574 Q287 574 263 556.5 Q239 539 223 509 Q207 479 199.5 439 Q192 399 192 354 Q192 309 199 269 Q206 229 221.5 199 Q237 169 260.5 151 Q284 133 317 133 Q353 133 373 148 L373 280 L297 280 L297 419 L513 419 L513 42 Z M405 850 Q405 812 381 785.5 Q357 759 319 759 Q281 759 257 785.5 Q233 812 233 850 Q233 869 239.5 885.5 Q246 902 257 914.5 Q268 927 284 934.5 Q300 942 319 942 Q338 942 354 934.5 Q370 927 381 914.5 Q392 902 398.5 885.5 Q405 869 405 850 Z " />
<glyph glyph-name="gdotaccent" unicode="&#x121;" horiz-adv-x="527" d="M465 523 L465 37 Q465 -97 409 -168.5 Q353 -240 231 -240 Q176 -240 124 -220.5 Q72 -201 38 -172 L111 -56 Q134 -76 161.5 -89 Q189 -102 221 -102 Q270 -102 291.5 -68 Q313 -34 313 17 L313 60 L311 60 Q300 34 271 13.5 Q242 -7 204 -7 Q161 -7 128.5 13.5 Q96 34 74 70.5 Q52 107 41 156.5 Q30 206 30 263 Q30 323 41.5 373.5 Q53 424 75.5 460.5 Q98 497 130 518 Q162 539 204 539 Q249 539 274.5 517 Q300 495 312 461 L315 461 L315 523 L465 523 Z M318 262 Q318 292 314 317.5 Q310 343 301.5 362.5 Q293 382 280.5 393 Q268 404 251 404 Q233 404 220.5 393 Q208 382 200 362.5 Q192 343 188 317.5 Q184 292 184 262 Q184 233 188 207 Q192 181 200 161.5 Q208 142 220.5 131 Q233 120 251 120 Q268 120 280.5 131 Q293 142 301.5 161.5 Q310 181 314 207 Q318 233 318 262 Z M356 665 Q356 627 332 600.5 Q308 574 270 574 Q232 574 208 600.5 Q184 627 184 665 Q184 684 190.5 700.5 Q197 717 208 729.5 Q219 742 235 749.5 Q251 757 270 757 Q289 757 305 749.5 Q321 742 332 729.5 Q343 717 349.5 700.5 Q356 684 356 665 Z " />
<glyph glyph-name="Gcommaaccent" unicode="&#x122;" horiz-adv-x="560" d="M513 42 Q479 16 431 0 Q383 -16 318 -16 Q251 -16 198.5 11 Q146 38 109.5 86.5 Q73 135 53.5 203 Q34 271 34 354 Q34 437 53.5 505.5 Q73 574 109 623.5 Q145 673 195.5 700 Q246 727 308 727 Q380 727 428.5 702.5 Q477 678 505 641 L418 524 Q382 574 320 574 Q287 574 263 556.5 Q239 539 223 509 Q207 479 199.5 439 Q192 399 192 354 Q192 309 199 269 Q206 229 221.5 199 Q237 169 260.5 151 Q284 133 317 133 Q353 133 373 148 L373 280 L297 280 L297 419 L513 419 L513 42 Z M318 -232 L213 -232 L263 -45 L380 -45 L318 -232 Z " />
<glyph glyph-name="gcommaaccent" unicode="&#x123;" horiz-adv-x="527" d="M465 523 L465 37 Q465 -97 409 -168.5 Q353 -240 231 -240 Q176 -240 124 -220.5 Q72 -201 38 -172 L111 -56 Q134 -76 161.5 -89 Q189 -102 221 -102 Q270 -102 291.5 -68 Q313 -34 313 17 L313 60 L311 60 Q300 34 271 13.5 Q242 -7 204 -7 Q161 -7 128.5 13.5 Q96 34 74 70.5 Q52 107 41 156.5 Q30 206 30 263 Q30 323 41.5 373.5 Q53 424 75.5 460.5 Q98 497 130 518 Q162 539 204 539 Q249 539 274.5 517 Q300 495 312 461 L315 461 L315 523 L465 523 Z M318 262 Q318 292 314 317.5 Q310 343 301.5 362.5 Q293 382 280.5 393 Q268 404 251 404 Q233 404 220.5 393 Q208 382 200 362.5 Q192 343 188 317.5 Q184 292 184 262 Q184 233 188 207 Q192 181 200 161.5 Q208 142 220.5 131 Q233 120 251 120 Q268 120 280.5 131 Q293 142 301.5 161.5 Q310 181 314 207 Q318 233 318 262 Z M277 766 L382 766 L332 579 L215 579 L277 766 Z " />
<glyph glyph-name="Hcircumflex" unicode="&#x124;" horiz-adv-x="609" d="M387 0 L387 296 L222 296 L222 0 L63 0 L63 708 L222 708 L222 439 L387 439 L387 708 L546 708 L546 0 L387 0 Z M372 764 L305 849 L239 764 L132 764 L247 908 L366 908 L480 764 L372 764 Z " />
<glyph glyph-name="hcircumflex" unicode="&#x125;" horiz-adv-x="538" d="M217 0 L60 0 L60 756 L217 756 L217 453 L220 453 Q232 488 263.5 515 Q295 542 343 542 Q388 542 415.5 523.5 Q443 505 458 474 Q473 443 478 403 Q483 363 483 320 L483 0 L326 0 L326 321 Q326 354 316.5 379 Q307 404 278 404 Q249 404 233 377.5 Q217 351 217 308 L217 0 Z M336 796 L269 881 L203 796 L96 796 L211 940 L330 940 L444 796 L336 796 Z " />
<glyph glyph-name="Hbar" unicode="&#x126;" horiz-adv-x="609" d="M387 0 L387 296 L222 296 L222 0 L63 0 L63 708 L222 708 L222 593 L387 593 L387 708 L546 708 L546 0 L387 0 Z M387 439 L387 516 L222 516 L222 439 L387 439 Z " />
<glyph glyph-name="hbar" unicode="&#x127;" horiz-adv-x="538" d="M217 590 L217 453 L220 453 Q232 488 263.5 515 Q295 542 343 542 Q388 542 415.5 523.5 Q443 505 458 474 Q473 443 478 403 Q483 363 483 320 L483 0 L326 0 L326 320 Q326 353 316.5 378 Q307 403 278 403 Q249 403 233 376.5 Q217 350 217 307 L217 0 L60 0 L60 590 L23 590 L23 667 L60 667 L60 756 L217 756 L217 667 L317 667 L317 590 L217 590 Z " />
<glyph glyph-name="Itilde" unicode="&#x128;" horiz-adv-x="287" d="M63 0 L63 708 L224 708 L224 0 L63 0 Z M296 896 Q294 838 270.5 804 Q247 770 207 770 Q175 770 138 793 Q116 807 105.5 811 Q95 815 82 815 Q54 815 49 771 L-9 771 Q-6 826 17 861.5 Q40 897 80 897 Q99 897 114.5 891 Q130 885 150 873 Q172 860 183 855.5 Q194 851 207 851 Q222 851 229 861.5 Q236 872 239 896 L296 896 Z " />
<glyph glyph-name="itilde" unicode="&#x129;" horiz-adv-x="276" d="M60 0 L60 523 L216 523 L216 0 L60 0 Z M292 711 Q290 653 266.5 619 Q243 585 203 585 Q171 585 134 608 Q112 622 101.5 626 Q91 630 78 630 Q50 630 45 586 L-13 586 Q-10 642 13 676 Q36 712 76 712 Q95 712 110.5 706 Q126 700 146 688 Q168 675 179 670.5 Q190 666 203 666 Q218 666 225 676.5 Q232 687 235 711 L292 711 Z " />
<glyph glyph-name="Imacron" unicode="&#x12a;" horiz-adv-x="287" d="M63 0 L63 708 L224 708 L224 0 L63 0 Z M-4 798 L-4 875 L290 875 L290 798 L-4 798 Z " />
<glyph glyph-name="imacron" unicode="&#x12b;" horiz-adv-x="276" d="M60 0 L60 523 L216 523 L216 0 L60 0 Z M-9 613 L-9 690 L285 690 L285 613 L-9 613 Z " />
<glyph glyph-name="Iogonek" unicode="&#x12e;" horiz-adv-x="287" d="M236 -196 Q214 -213 185 -224.5 Q156 -236 125 -236 Q107 -236 88.5 -231.5 Q70 -227 55 -216.5 Q40 -206 30.5 -188.5 Q21 -171 21 -145 Q21 -122 30 -102 Q39 -82 53.5 -64 Q68 -46 85.5 -30 Q103 -14 121 0 L63 0 L63 708 L224 708 L224 0 L218 0 Q165 -45 143.5 -71.5 Q122 -98 122 -120 Q122 -151 151 -151 Q179 -151 205 -130 L236 -196 L236 -196 Z " />
<glyph glyph-name="iogonek" unicode="&#x12f;" horiz-adv-x="276" d="M230 -196 Q208 -213 179 -224.5 Q150 -236 119 -236 Q101 -236 82.5 -231.5 Q64 -227 49 -216.5 Q34 -206 24.5 -188.5 Q15 -171 15 -145 Q15 -122 24 -102 Q33 -82 47.5 -64 Q62 -46 79.5 -30 Q97 -14 115 0 L59 0 L59 523 L217 523 L217 0 L212 0 Q159 -45 137.5 -71.5 Q116 -98 116 -120 Q116 -151 145 -151 Q173 -151 199 -130 L230 -196 Z M224 665 Q224 627 200 600.5 Q176 574 138 574 Q100 574 76 600.5 Q52 627 52 665 Q52 684 58.5 700.5 Q65 717 76 729.5 Q87 742 103 749.5 Q119 757 138 757 Q157 757 173 749.5 Q189 742 200 729.5 Q211 717 217.5 700.5 Q224 684 224 665 Z " />
<glyph glyph-name="Idotaccent" unicode="&#x130;" horiz-adv-x="287" d="M63 0 L63 708 L224 708 L224 0 L63 0 Z M231 850 Q231 812 207 785.5 Q183 759 145 759 Q107 759 83 785.5 Q59 812 59 850 Q59 869 65.5 885.5 Q72 902 83 914.5 Q94 927 110 934.5 Q126 942 145 942 Q164 942 180 934.5 Q196 927 207 914.5 Q218 902 224.5 885.5 Q231 869 231 850 Z " />
<glyph glyph-name="dotlessi" unicode="&#x131;" horiz-adv-x="276" d="M60 0 L60 523 L216 523 L216 0 L60 0 Z " />
<glyph glyph-name="IJ" unicode="&#x132;" horiz-adv-x="733" d="M63 0 L63 708 L224 708 L224 0 L63 0 Z M673 223 Q673 112 623.5 48 Q574 -16 468 -16 Q394 -16 342 26 Q290 68 274 137 L404 195 Q410 171 423.5 153 Q437 135 460 135 Q493 135 503.5 162 Q514 189 514 237 L514 708 L673 708 L673 223 Z " />
<glyph glyph-name="ij" unicode="&#x133;" horiz-adv-x="543" d="M59 0 L59 523 L217 523 L217 0 L59 0 Z M224 665 Q224 627 200 600.5 Q176 574 138 574 Q100 574 76 600.5 Q52 627 52 665 Q52 684 58.5 700.5 Q65 717 76 729.5 Q87 742 103 749.5 Q119 757 138 757 Q157 757 173 749.5 Q189 742 200 729.5 Q211 717 217.5 700.5 Q224 684 224 665 Z M484 -35 Q484 -77 476 -114.5 Q468 -152 448 -179.5 Q428 -207 394 -223.5 Q360 -240 309 -240 Q291 -240 272.5 -238.5 Q254 -237 239 -234 L247 -97 Q260 -102 275 -102 Q307 -102 316 -80 Q325 -58 325 -21 L325 523 L484 523 L484 -35 Z M491 665 Q491 627 467 600.5 Q443 574 405 574 Q367 574 343 600.5 Q319 627 319 665 Q319 684 325.5 700.5 Q332 717 343 729.5 Q354 742 370 749.5 Q386 757 405 757 Q424 757 440 749.5 Q456 742 467 729.5 Q478 717 484.5 700.5 Q491 684 491 665 Z " />
<glyph glyph-name="Jcircumflex" unicode="&#x134;" horiz-adv-x="445" d="M385 223 Q385 112 335.5 48 Q286 -16 180 -16 Q106 -16 54 26 Q2 68 -14 137 L116 195 Q122 171 135.5 153 Q149 135 172 135 Q205 135 215.5 162 Q226 189 226 237 L226 708 L385 708 L385 223 Z M371 764 L304 849 L238 764 L131 764 L246 908 L365 908 L479 764 L371 764 Z " />
<glyph glyph-name="jcircumflex" unicode="&#x135;" horiz-adv-x="299" d="M218 -35 Q218 -77 210 -114.5 Q202 -152 182 -179.5 Q162 -207 128 -223.5 Q94 -240 43 -240 Q25 -240 6.5 -238.5 Q-12 -237 -27 -234 L-19 -97 Q-6 -102 9 -102 Q41 -102 50 -80 Q59 -58 59 -21 L59 523 L218 523 L218 -35 Z M205 579 L138 664 L72 579 L-35 579 L80 723 L199 723 L313 579 L205 579 Z " />
<glyph glyph-name="Kcommaaccent" unicode="&#x136;" horiz-adv-x="568" d="M378 0 L227 329 L224 329 L224 0 L63 0 L63 708 L224 708 L224 413 L227 413 L373 708 L552 708 L370 384 L563 0 L378 0 Z M307 -232 L202 -232 L252 -45 L369 -45 L307 -232 Z " />
<glyph glyph-name="kcommaaccent" unicode="&#x137;" horiz-adv-x="500" d="M322 0 L220 240 L218 240 L218 0 L62 0 L62 756 L218 756 L218 312 L220 312 L316 523 L500 523 L368 283 L503 0 L322 0 Z M277 -232 L172 -232 L222 -45 L339 -45 L277 -232 Z " />
<glyph glyph-name="Lacute" unicode="&#x139;" horiz-adv-x="423" d="M63 0 L63 708 L225 708 L225 148 L414 148 L414 0 L63 0 Z M194 764 L86 764 L176 908 L306 908 L194 764 Z " />
<glyph glyph-name="lacute" unicode="&#x13a;" horiz-adv-x="284" d="M62 0 L62 756 L222 756 L222 0 L62 0 Z M172 807 L64 807 L154 951 L284 951 L172 807 Z " />
<glyph glyph-name="Lcommaaccent" unicode="&#x13b;" horiz-adv-x="423" d="M63 0 L63 708 L225 708 L225 148 L414 148 L414 0 L63 0 Z M246 -232 L141 -232 L191 -45 L308 -45 L246 -232 Z " />
<glyph glyph-name="lcommaaccent" unicode="&#x13c;" horiz-adv-x="284" d="M62 0 L62 756 L222 756 L222 0 L62 0 Z M147 -232 L42 -232 L92 -45 L209 -45 L147 -232 Z " />
<glyph glyph-name="Lcaron" unicode="&#x13d;" horiz-adv-x="423" d="M63 0 L63 708 L225 708 L225 148 L414 148 L414 0 L63 0 Z M374 521 L269 521 L319 708 L436 708 L374 521 Z " />
<glyph glyph-name="lcaron" unicode="&#x13e;" horiz-adv-x="284" d="M62 0 L62 756 L222 756 L222 0 L62 0 Z M353 521 L248 521 L298 708 L415 708 L353 521 Z " />
<glyph glyph-name="Ldot" unicode="&#x13f;" horiz-adv-x="423" d="M63 0 L63 708 L225 708 L225 148 L414 148 L414 0 L63 0 Z M440 355 Q440 317 416 290.5 Q392 264 354 264 Q316 264 292 290.5 Q268 317 268 355 Q268 374 274.5 390.5 Q281 407 292 419.5 Q303 432 319 439.5 Q335 447 354 447 Q373 447 389 439.5 Q405 432 416 419.5 Q427 407 433.5 390.5 Q440 374 440 355 Z " />
<glyph glyph-name="ldot" unicode="&#x140;" horiz-adv-x="406" d="M62 0 L62 756 L222 756 L222 0 L62 0 Z M430 345 Q430 307 406 280.5 Q382 254 344 254 Q306 254 282 280.5 Q258 307 258 345 Q258 364 264.5 380.5 Q271 397 282 409.5 Q293 422 309 429.5 Q325 437 344 437 Q363 437 379 429.5 Q395 422 406 409.5 Q417 397 423.5 380.5 Q430 364 430 345 Z " />
<glyph glyph-name="Lslash" unicode="&#x141;" horiz-adv-x="424" d="M63 0 L63 200 L19 159 L19 300 L63 341 L63 708 L225 708 L225 458 L343 567 L343 426 L225 317 L225 148 L414 148 L414 0 L63 0 Z " />
<glyph glyph-name="lslash" unicode="&#x142;" horiz-adv-x="286" d="M222 383 L222 0 L62 0 L62 270 L21 234 L21 366 L62 402 L62 756 L222 756 L222 514 L267 555 L267 423 L222 383 Z " />
<glyph glyph-name="Nacute" unicode="&#x143;" horiz-adv-x="603" d="M369 0 L205 431 L202 431 L206 0 L63 0 L63 708 L239 708 L402 271 L405 271 L402 708 L540 708 L540 0 L369 0 Z M341 764 L233 764 L323 908 L453 908 L341 764 Z " />
<glyph glyph-name="nacute" unicode="&#x144;" horiz-adv-x="540" d="M215 523 L215 449 L217 449 Q230 487 263 514.5 Q296 542 345 542 Q390 542 417 523.5 Q444 505 459 474 Q474 443 479 403 Q484 363 484 320 L484 0 L327 0 L327 321 Q327 354 317.5 379 Q308 404 280 404 Q251 404 235 377.5 Q219 351 219 308 L219 0 L62 0 L62 523 L215 523 Z M294 579 L186 579 L276 723 L406 723 L294 579 Z " />
<glyph glyph-name="Ncommaaccent" unicode="&#x145;" horiz-adv-x="603" d="M369 0 L205 431 L202 431 L206 0 L63 0 L63 708 L239 708 L402 271 L405 271 L402 708 L540 708 L540 0 L369 0 Z M312 -232 L207 -232 L257 -45 L374 -45 L312 -232 Z " />
<glyph glyph-name="ncommaaccent" unicode="&#x146;" horiz-adv-x="540" d="M215 523 L215 449 L217 449 Q230 487 263 514.5 Q296 542 345 542 Q390 542 417 523.5 Q444 505 459 474 Q474 443 479 403 Q484 363 484 320 L484 0 L327 0 L327 321 Q327 354 317.5 379 Q308 404 280 404 Q251 404 235 377.5 Q219 351 219 308 L219 0 L62 0 L62 523 L215 523 Z M277 -232 L172 -232 L222 -45 L339 -45 L277 -232 Z " />
<glyph glyph-name="Ncaron" unicode="&#x147;" horiz-adv-x="603" d="M369 0 L205 431 L202 431 L206 0 L63 0 L63 708 L239 708 L402 271 L405 271 L402 708 L540 708 L540 0 L369 0 Z M235 908 L302 823 L368 908 L475 908 L360 764 L241 764 L127 908 L235 908 Z " />
<glyph glyph-name="ncaron" unicode="&#x148;" horiz-adv-x="540" d="M215 523 L215 449 L217 449 Q230 487 263 514.5 Q296 542 345 542 Q390 542 417 523.5 Q444 505 459 474 Q474 443 479 403 Q484 363 484 320 L484 0 L327 0 L327 321 Q327 354 317.5 379 Q308 404 280 404 Q251 404 235 377.5 Q219 351 219 308 L219 0 L62 0 L62 523 L215 523 Z M201 723 L268 638 L334 723 L441 723 L326 579 L207 579 L93 723 L201 723 Z " />
<glyph glyph-name="napostrophe" unicode="&#x149;" horiz-adv-x="614" d="M289 523 L289 449 L291 449 Q304 487 337 514.5 Q370 542 419 542 Q464 542 491 523.5 Q518 505 533 474 Q548 443 553 403 Q558 363 558 320 L558 0 L401 0 L401 321 Q401 354 391.5 379 Q382 404 354 404 Q325 404 309 377.5 Q293 351 293 308 L293 0 L136 0 L136 523 L289 523 Z M91 521 L-14 521 L36 708 L153 708 L91 521 Z " />
<glyph glyph-name="Omacron" unicode="&#x14c;" horiz-adv-x="612" d="M578 356 Q578 272 559 202.5 Q540 133 505 84 Q470 35 419.5 8 Q369 -19 306 -19 Q243 -19 192.5 8 Q142 35 107 84 Q72 133 53 202.5 Q34 272 34 356 Q34 440 52.5 508.5 Q71 577 106 625.5 Q141 674 191.5 700.5 Q242 727 306 727 Q369 727 419.5 700.5 Q470 674 505 625.5 Q540 577 559 508.5 Q578 440 578 356 Z M414 356 Q414 402 407 441.5 Q400 481 386.5 510 Q373 539 353 555.5 Q333 572 306 572 Q279 572 258.5 555.5 Q238 539 224.5 510 Q211 481 204.5 441.5 Q198 402 198 356 Q198 310 204.5 270 Q211 230 224.5 201 Q238 172 258.5 155 Q279 138 306 138 Q333 138 353 155 Q373 172 386.5 201 Q400 230 407 270 Q414 310 414 356 Z M159 798 L159 875 L453 875 L453 798 L159 798 Z " />
<glyph glyph-name="omacron" unicode="&#x14d;" horiz-adv-x="495" d="M465 261 Q465 200 450 148.5 Q435 97 407.5 60 Q380 23 339.5 2 Q299 -19 248 -19 Q197 -19 157 2 Q117 23 88.5 60 Q60 97 45 148.5 Q30 200 30 261 Q30 322 45 374 Q60 426 88 463 Q116 500 156.5 521 Q197 542 248 542 Q299 542 339.5 521 Q380 500 407.5 463 Q435 426 450 374 Q465 322 465 261 Z M315 262 Q315 292 311 317.5 Q307 343 299 362.5 Q291 382 278.5 393 Q266 404 248 404 Q231 404 218.5 393 Q206 382 198 362.5 Q190 343 186 317.5 Q182 292 182 262 Q182 232 186 206.5 Q190 181 198 161.5 Q206 142 218.5 131 Q231 120 248 120 Q266 120 278.5 131 Q291 142 299 161.5 Q307 181 311 206.5 Q315 232 315 262 Z M101 613 L101 690 L395 690 L395 613 L101 613 Z " />
<glyph glyph-name="Obreve" unicode="&#x14e;" horiz-adv-x="612" d="M578 356 Q578 272 559 202.5 Q540 133 505 84 Q470 35 419.5 8 Q369 -19 306 -19 Q243 -19 192.5 8 Q142 35 107 84 Q72 133 53 202.5 Q34 272 34 356 Q34 440 52.5 508.5 Q71 577 106 625.5 Q141 674 191.5 700.5 Q242 727 306 727 Q369 727 419.5 700.5 Q470 674 505 625.5 Q540 577 559 508.5 Q578 440 578 356 Z M414 356 Q414 402 407 441.5 Q400 481 386.5 510 Q373 539 353 555.5 Q333 572 306 572 Q279 572 258.5 555.5 Q238 539 224.5 510 Q211 481 204.5 441.5 Q198 402 198 356 Q198 310 204.5 270 Q211 230 224.5 201 Q238 172 258.5 155 Q279 138 306 138 Q333 138 353 155 Q373 172 386.5 201 Q400 230 407 270 Q414 310 414 356 Z M454 905 Q451 866 437.5 839 Q424 812 404 796 Q384 780 358 773 Q332 766 304 766 Q277 766 251.5 773 Q226 780 205.5 796 Q185 812 172 839 Q159 866 156 905 L234 905 Q238 873 259.5 861 Q281 849 304 849 Q329 849 350 861 Q371 873 376 905 L454 905 Z " />
<glyph glyph-name="obreve" unicode="&#x14f;" horiz-adv-x="495" d="M465 261 Q465 200 450 148.5 Q435 97 407.5 60 Q380 23 339.5 2 Q299 -19 248 -19 Q197 -19 157 2 Q117 23 88.5 60 Q60 97 45 148.5 Q30 200 30 261 Q30 322 45 374 Q60 426 88 463 Q116 500 156.5 521 Q197 542 248 542 Q299 542 339.5 521 Q380 500 407.5 463 Q435 426 450 374 Q465 322 465 261 Z M315 262 Q315 292 311 317.5 Q307 343 299 362.5 Q291 382 278.5 393 Q266 404 248 404 Q231 404 218.5 393 Q206 382 198 362.5 Q190 343 186 317.5 Q182 292 182 262 Q182 232 186 206.5 Q190 181 198 161.5 Q206 142 218.5 131 Q231 120 248 120 Q266 120 278.5 131 Q291 142 299 161.5 Q307 181 311 206.5 Q315 232 315 262 Z M397 720 Q394 681 380.5 654 Q367 627 347 611 Q327 595 301 588 Q275 581 247 581 Q220 581 194.5 588 Q169 595 148.5 611 Q128 627 115 654 Q102 681 99 720 L177 720 Q181 688 202.5 676 Q224 664 247 664 Q272 664 293 676 Q314 688 319 720 L397 720 Z " />
<glyph glyph-name="Ohungarumlaut" unicode="&#x150;" horiz-adv-x="612" d="M578 356 Q578 272 559 202.5 Q540 133 505 84 Q470 35 419.5 8 Q369 -19 306 -19 Q243 -19 192.5 8 Q142 35 107 84 Q72 133 53 202.5 Q34 272 34 356 Q34 440 52.5 508.5 Q71 577 106 625.5 Q141 674 191.5 700.5 Q242 727 306 727 Q369 727 419.5 700.5 Q470 674 505 625.5 Q540 577 559 508.5 Q578 440 578 356 Z M414 356 Q414 402 407 441.5 Q400 481 386.5 510 Q373 539 353 555.5 Q333 572 306 572 Q279 572 258.5 555.5 Q238 539 224.5 510 Q211 481 204.5 441.5 Q198 402 198 356 Q198 310 204.5 270 Q211 230 224.5 201 Q238 172 258.5 155 Q279 138 306 138 Q333 138 353 155 Q373 172 386.5 201 Q400 230 407 270 Q414 310 414 356 Z M281 764 L178 764 L268 908 L393 908 L281 764 Z M434 764 L331 764 L421 908 L546 908 L434 764 Z " />
<glyph glyph-name="ohungarumlaut" unicode="&#x151;" horiz-adv-x="495" d="M465 261 Q465 200 450 148.5 Q435 97 407.5 60 Q380 23 339.5 2 Q299 -19 248 -19 Q197 -19 157 2 Q117 23 88.5 60 Q60 97 45 148.5 Q30 200 30 261 Q30 322 45 374 Q60 426 88 463 Q116 500 156.5 521 Q197 542 248 542 Q299 542 339.5 521 Q380 500 407.5 463 Q435 426 450 374 Q465 322 465 261 Z M315 262 Q315 292 311 317.5 Q307 343 299 362.5 Q291 382 278.5 393 Q266 404 248 404 Q231 404 218.5 393 Q206 382 198 362.5 Q190 343 186 317.5 Q182 292 182 262 Q182 232 186 206.5 Q190 181 198 161.5 Q206 142 218.5 131 Q231 120 248 120 Q266 120 278.5 131 Q291 142 299 161.5 Q307 181 311 206.5 Q315 232 315 262 Z M225 579 L122 579 L212 723 L337 723 L225 579 Z M378 579 L275 579 L365 723 L490 723 L378 579 Z " />
<glyph glyph-name="OE" unicode="&#x152;" horiz-adv-x="726" d="M328 0 Q252 0 196.5 25 Q141 50 105 96.5 Q69 143 51.5 208.5 Q34 274 34 356 Q34 436 51.5 501 Q69 566 105 612 Q141 658 196.5 683 Q252 708 328 708 L684 708 L684 567 L499 567 L499 428 L668 428 L668 296 L499 296 L499 143 L695 143 L695 0 L328 0 Z M349 568 L326 568 Q268 568 231.5 513.5 Q195 459 195 356 Q195 249 231.5 194.5 Q268 140 326 140 L349 140 L349 568 Z " />
<glyph glyph-name="oe" unicode="&#x153;" horiz-adv-x="747" d="M525 542 Q579 542 616 519.5 Q653 497 676 459.5 Q699 422 709.5 371.5 Q720 321 720 266 L720 222 L458 222 Q458 200 463.5 180.5 Q469 161 478 146.5 Q487 132 500 123.5 Q513 115 529 115 Q555 115 571 132 Q587 149 596 172 L711 107 Q685 49 638.5 15 Q592 -19 523 -19 Q479 -19 442.5 2.5 Q406 24 386 63 Q367 23 329 2 Q291 -19 246 -19 Q195 -19 155 2 Q115 23 86.5 60 Q58 97 43 148.5 Q28 200 28 261 Q28 322 43 374 Q58 426 86 463 Q114 500 154.5 521 Q195 542 246 542 Q293 542 331 521.5 Q369 501 387 459 Q405 497 439.5 519.5 Q474 542 525 542 Z M314 262 Q314 292 310 317.5 Q306 343 298 362.5 Q290 382 277.5 393 Q265 404 247 404 Q230 404 217.5 393 Q205 382 197 362.5 Q189 343 185 317.5 Q181 292 181 262 Q181 232 185 206.5 Q189 181 197 161.5 Q205 142 217.5 131 Q230 120 247 120 Q265 120 277.5 131 Q290 142 298 161.5 Q306 181 310 206.5 Q314 232 314 262 Z M576 324 Q576 366 563 394 Q550 422 520 422 Q504 422 492.5 412.5 Q481 403 473 388.5 Q465 374 461 356.5 Q457 339 457 324 L576 324 Z " />
<glyph glyph-name="Racute" unicode="&#x154;" horiz-adv-x="541" d="M359 0 L264 282 L217 282 L217 0 L63 0 L63 708 L290 708 Q393 708 450 654.5 Q507 601 507 495 Q507 456 498 425 Q489 394 474.5 372 Q460 350 442 336 Q424 322 407 316 L528 0 L359 0 Z M349 486 Q349 513 341.5 530 Q334 547 322 557 Q310 567 295.5 570.5 Q281 574 267 574 L217 574 L217 395 L264 395 Q298 395 323.5 416.5 Q349 438 349 486 Z M300 764 L192 764 L282 908 L412 908 L300 764 Z " />
<glyph glyph-name="racute" unicode="&#x155;" horiz-adv-x="344" d="M62 523 L215 523 L215 435 L216 435 Q244 539 321 539 Q329 539 334 538.5 Q339 538 346 536 L336 379 Q328 381 320.5 382.5 Q313 384 302 384 Q282 384 267 373.5 Q252 363 241.5 346 Q231 329 225.5 306 Q220 283 220 259 L220 0 L62 0 L62 523 Z M218 579 L110 579 L200 723 L330 723 L218 579 Z " />
<glyph glyph-name="Rcommaaccent" unicode="&#x156;" horiz-adv-x="541" d="M359 0 L264 282 L217 282 L217 0 L63 0 L63 708 L290 708 Q393 708 450 654.5 Q507 601 507 495 Q507 456 498 425 Q489 394 474.5 372 Q460 350 442 336 Q424 322 407 316 L528 0 L359 0 Z M349 486 Q349 513 341.5 530 Q334 547 322 557 Q310 567 295.5 570.5 Q281 574 267 574 L217 574 L217 395 L264 395 Q298 395 323.5 416.5 Q349 438 349 486 Z M288 -232 L183 -232 L233 -45 L350 -45 L288 -232 Z " />
<glyph glyph-name="rcommaaccent" unicode="&#x157;" horiz-adv-x="344" d="M62 523 L215 523 L215 435 L216 435 Q244 539 321 539 Q329 539 334 538.5 Q339 538 346 536 L336 379 Q328 381 320.5 382.5 Q313 384 302 384 Q282 384 267 373.5 Q252 363 241.5 346 Q231 329 225.5 306 Q220 283 220 259 L220 0 L62 0 L62 523 Z M147 -232 L42 -232 L92 -45 L209 -45 L147 -232 Z " />
<glyph glyph-name="Rcaron" unicode="&#x158;" horiz-adv-x="541" d="M359 0 L264 282 L217 282 L217 0 L63 0 L63 708 L290 708 Q393 708 450 654.5 Q507 601 507 495 Q507 456 498 425 Q489 394 474.5 372 Q460 350 442 336 Q424 322 407 316 L528 0 L359 0 Z M349 486 Q349 513 341.5 530 Q334 547 322 557 Q310 567 295.5 570.5 Q281 574 267 574 L217 574 L217 395 L264 395 Q298 395 323.5 416.5 Q349 438 349 486 Z M202 908 L269 823 L335 908 L442 908 L327 764 L208 764 L94 908 L202 908 Z " />
<glyph glyph-name="rcaron" unicode="&#x159;" horiz-adv-x="344" d="M62 523 L215 523 L215 435 L216 435 Q244 539 321 539 Q329 539 334 538.5 Q339 538 346 536 L336 379 Q328 381 320.5 382.5 Q313 384 302 384 Q282 384 267 373.5 Q252 363 241.5 346 Q231 329 225.5 306 Q220 283 220 259 L220 0 L62 0 L62 523 Z M134 723 L201 638 L267 723 L374 723 L259 579 L140 579 L26 723 L134 723 Z " />
<glyph glyph-name="Sacute" unicode="&#x15a;" horiz-adv-x="461" d="M356 538 Q338 559 314 570.5 Q290 582 264 582 Q237 582 215.5 565 Q194 548 194 509 Q194 476 216 457.5 Q238 439 281 417 Q305 405 331.5 388.5 Q358 372 380 348 Q402 324 416.5 290.5 Q431 257 431 211 Q431 154 413 110.5 Q395 67 364.5 38.5 Q334 10 294 -4.5 Q254 -19 211 -19 Q147 -19 94.5 5 Q42 29 10 61 L92 181 Q115 157 145 142.5 Q175 128 206 128 Q235 128 255 147 Q275 166 275 200 Q275 235 251 255.5 Q227 276 181 299 Q152 313 126.5 330 Q101 347 81.5 371 Q62 395 51 427 Q40 459 40 503 Q40 562 59.5 604.5 Q79 647 110.5 674 Q142 701 180.5 714 Q219 727 258 727 Q316 727 362 708 Q408 689 439 656 L356 538 Z M274 764 L166 764 L256 908 L386 908 L274 764 Z " />
<glyph glyph-name="sacute" unicode="&#x15b;" horiz-adv-x="400" d="M307 376 Q289 394 268 405 Q247 416 222 416 Q203 416 189.5 404 Q176 392 176 371 Q176 351 190.5 341.5 Q205 332 245 320 Q268 313 291 301 Q314 289 332 270 Q350 251 361.5 224.5 Q373 198 373 162 Q373 114 356 80 Q339 46 313 25 Q287 4 254.5 -6 Q222 -16 192 -16 Q140 -16 91.5 3 Q43 22 8 56 L86 156 Q107 134 131.5 120 Q156 106 185 106 Q207 106 219.5 119 Q232 132 232 153 Q232 178 212 189.5 Q192 201 152 214 Q131 221 110 231.5 Q89 242 72.5 260 Q56 278 45.5 303.5 Q35 329 35 366 Q35 410 51 442.5 Q67 475 92.5 496.5 Q118 518 149.5 528.5 Q181 539 213 539 Q261 539 305 522 Q349 505 383 475 L307 376 Z M249 579 L141 579 L231 723 L361 723 L249 579 Z " />
<glyph glyph-name="Scircumflex" unicode="&#x15c;" horiz-adv-x="461" d="M356 538 Q338 559 314 570.5 Q290 582 264 582 Q237 582 215.5 565 Q194 548 194 509 Q194 476 216 457.5 Q238 439 281 417 Q305 405 331.5 388.5 Q358 372 380 348 Q402 324 416.5 290.5 Q431 257 431 211 Q431 154 413 110.5 Q395 67 364.5 38.5 Q334 10 294 -4.5 Q254 -19 211 -19 Q147 -19 94.5 5 Q42 29 10 61 L92 181 Q115 157 145 142.5 Q175 128 206 128 Q235 128 255 147 Q275 166 275 200 Q275 235 251 255.5 Q227 276 181 299 Q152 313 126.5 330 Q101 347 81.5 371 Q62 395 51 427 Q40 459 40 503 Q40 562 59.5 604.5 Q79 647 110.5 674 Q142 701 180.5 714 Q219 727 258 727 Q316 727 362 708 Q408 689 439 656 L356 538 Z M324 764 L257 849 L191 764 L84 764 L199 908 L318 908 L432 764 L324 764 Z " />
<glyph glyph-name="scircumflex" unicode="&#x15d;" horiz-adv-x="400" d="M307 376 Q289 394 268 405 Q247 416 222 416 Q203 416 189.5 404 Q176 392 176 371 Q176 351 190.5 341.5 Q205 332 245 320 Q268 313 291 301 Q314 289 332 270 Q350 251 361.5 224.5 Q373 198 373 162 Q373 114 356 80 Q339 46 313 25 Q287 4 254.5 -6 Q222 -16 192 -16 Q140 -16 91.5 3 Q43 22 8 56 L86 156 Q107 134 131.5 120 Q156 106 185 106 Q207 106 219.5 119 Q232 132 232 153 Q232 178 212 189.5 Q192 201 152 214 Q131 221 110 231.5 Q89 242 72.5 260 Q56 278 45.5 303.5 Q35 329 35 366 Q35 410 51 442.5 Q67 475 92.5 496.5 Q118 518 149.5 528.5 Q181 539 213 539 Q261 539 305 522 Q349 505 383 475 L307 376 Z M280 579 L213 664 L147 579 L40 579 L155 723 L274 723 L388 579 L280 579 Z " />
<glyph glyph-name="Scedilla" unicode="&#x15e;" horiz-adv-x="461" d="M356 538 Q338 559 314 570.5 Q290 582 264 582 Q237 582 215.5 565 Q194 548 194 509 Q194 476 216 457.5 Q238 439 281 417 Q305 405 331.5 388.5 Q358 372 380 348 Q402 324 416.5 290.5 Q431 257 431 211 Q431 164 419 127 Q407 90 386 62.5 Q365 35 337 17 Q309 -1 276 -10 L237 -61 Q243 -59 248.5 -59 Q254 -59 260 -59 Q275 -59 290.5 -62.5 Q306 -66 319 -75 Q332 -84 340.5 -99.5 Q349 -115 349 -139 Q349 -168 335.5 -187 Q322 -206 301.5 -217 Q281 -228 257 -232 Q233 -236 213 -236 Q187 -236 156.5 -230.5 Q126 -225 103 -214 L127 -152 Q144 -160 165.5 -164.5 Q187 -169 204 -169 Q221 -169 236.5 -162.5 Q252 -156 252 -137 Q252 -121 238 -115.5 Q224 -110 210 -110 Q200 -110 187.5 -112.5 Q175 -115 166 -119 L135 -91 L187 -18 Q130 -13 84.5 9.5 Q39 32 10 61 L92 181 Q115 157 145 142.5 Q175 128 206 128 Q235 128 255 147 Q275 166 275 200 Q275 235 251 255.5 Q227 276 181 299 Q152 313 126.5 330 Q101 347 81.5 371 Q62 395 51 427 Q40 459 40 503 Q40 562 59.5 604.5 Q79 647 110.5 674 Q142 701 180.5 714 Q219 727 258 727 Q316 727 362 708 Q408 689 439 656 L356 538 Z " />
<glyph glyph-name="scedilla" unicode="&#x15f;" horiz-adv-x="400" d="M307 376 Q289 394 268 405 Q247 416 222 416 Q203 416 189.5 404 Q176 392 176 371 Q176 351 190.5 341.5 Q205 332 245 320 Q268 313 291 301 Q314 289 332 270 Q350 251 361.5 224.5 Q373 198 373 162 Q373 126 363.5 98 Q354 70 337.5 49.5 Q321 29 299.5 15 Q278 1 254 -6 L212 -61 Q218 -59 223.5 -59 Q229 -59 235 -59 Q250 -59 265.5 -62.5 Q281 -66 294 -75 Q307 -84 315.5 -99.5 Q324 -115 324 -139 Q324 -168 310.5 -187 Q297 -206 276.5 -217 Q256 -228 232 -232 Q208 -236 188 -236 Q162 -236 131.5 -230.5 Q101 -225 78 -214 L102 -152 Q119 -160 140.5 -164.5 Q162 -169 179 -169 Q196 -169 211.5 -162.5 Q227 -156 227 -137 Q227 -121 213 -115.5 Q199 -110 185 -110 Q175 -110 162.5 -112.5 Q150 -115 141 -119 L110 -91 L164 -15 Q119 -10 78.5 8.5 Q38 27 8 56 L86 156 Q107 134 131.5 120 Q156 106 185 106 Q207 106 219.5 119 Q232 132 232 153 Q232 178 212 189.5 Q192 201 152 214 Q131 221 110 231.5 Q89 242 72.5 260 Q56 278 45.5 303.5 Q35 329 35 366 Q35 410 51 442.5 Q67 475 92.5 496.5 Q118 518 149.5 528.5 Q181 539 213 539 Q261 539 305 522 Q349 505 383 475 L307 376 Z " />
<glyph glyph-name="Scaron" unicode="&#x160;" horiz-adv-x="461" d="M356 538 Q338 559 314 570.5 Q290 582 264 582 Q237 582 215.5 565 Q194 548 194 509 Q194 476 216 457.5 Q238 439 281 417 Q305 405 331.5 388.5 Q358 372 380 348 Q402 324 416.5 290.5 Q431 257 431 211 Q431 154 413 110.5 Q395 67 364.5 38.5 Q334 10 294 -4.5 Q254 -19 211 -19 Q147 -19 94.5 5 Q42 29 10 61 L92 181 Q115 157 145 142.5 Q175 128 206 128 Q235 128 255 147 Q275 166 275 200 Q275 235 251 255.5 Q227 276 181 299 Q152 313 126.5 330 Q101 347 81.5 371 Q62 395 51 427 Q40 459 40 503 Q40 562 59.5 604.5 Q79 647 110.5 674 Q142 701 180.5 714 Q219 727 258 727 Q316 727 362 708 Q408 689 439 656 L356 538 Z M190 908 L257 823 L323 908 L430 908 L315 764 L196 764 L82 908 L190 908 Z " />
<glyph glyph-name="scaron" unicode="&#x161;" horiz-adv-x="400" d="M307 376 Q289 394 268 405 Q247 416 222 416 Q203 416 189.5 404 Q176 392 176 371 Q176 351 190.5 341.5 Q205 332 245 320 Q268 313 291 301 Q314 289 332 270 Q350 251 361.5 224.5 Q373 198 373 162 Q373 114 356 80 Q339 46 313 25 Q287 4 254.5 -6 Q222 -16 192 -16 Q140 -16 91.5 3 Q43 22 8 56 L86 156 Q107 134 131.5 120 Q156 106 185 106 Q207 106 219.5 119 Q232 132 232 153 Q232 178 212 189.5 Q192 201 152 214 Q131 221 110 231.5 Q89 242 72.5 260 Q56 278 45.5 303.5 Q35 329 35 366 Q35 410 51 442.5 Q67 475 92.5 496.5 Q118 518 149.5 528.5 Q181 539 213 539 Q261 539 305 522 Q349 505 383 475 L307 376 Z M149 723 L216 638 L282 723 L389 723 L274 579 L155 579 L41 723 L149 723 Z " />
<glyph glyph-name="Tcommaaccent" unicode="&#x162;" horiz-adv-x="415" d="M286 572 L286 0 L129 0 L129 572 L-1 572 L-1 708 L416 708 L416 572 L286 572 Z M213 -232 L108 -232 L158 -45 L275 -45 L213 -232 Z " />
<glyph glyph-name="tcommaaccent" unicode="&#x163;" horiz-adv-x="315" d="M305 4 Q292 -3 268 -8 Q244 -13 220 -13 Q141 -13 105 29.5 Q69 72 69 157 L69 401 L6 401 L6 523 L68 523 L68 649 L220 649 L220 523 L310 523 L310 401 L220 401 L220 193 Q220 155 232 137.5 Q244 120 270 120 Q291 120 305 127 L305 4 Z M190 -232 L85 -232 L135 -45 L252 -45 L190 -232 Z " />
<glyph glyph-name="Tcaron" unicode="&#x164;" horiz-adv-x="415" d="M286 572 L286 0 L129 0 L129 572 L-1 572 L-1 708 L416 708 L416 572 L286 572 Z M142 908 L209 823 L275 908 L382 908 L267 764 L148 764 L34 908 L142 908 Z " />
<glyph glyph-name="tcaron" unicode="&#x165;" horiz-adv-x="315" d="M305 4 Q292 -3 268 -8 Q244 -13 220 -13 Q141 -13 105 29.5 Q69 72 69 157 L69 401 L6 401 L6 523 L68 523 L68 649 L220 649 L220 523 L310 523 L310 401 L220 401 L220 193 Q220 155 232 137.5 Q244 120 270 120 Q291 120 305 127 L305 4 Z M362 554 L257 554 L307 741 L424 741 L362 554 Z " />
<glyph glyph-name="Tbar" unicode="&#x166;" horiz-adv-x="415" d="M286 393 L286 0 L129 0 L129 393 L59 393 L59 470 L129 470 L129 572 L-1 572 L-1 708 L416 708 L416 572 L286 572 L286 470 L353 470 L353 393 L286 393 Z " />
<glyph glyph-name="tbar" unicode="&#x167;" horiz-adv-x="315" d="M220 255 L220 193 Q220 155 232 137.5 Q244 120 270 120 Q290 120 304 127 L305 4 Q292 -3 268 -8 Q244 -13 220 -13 Q141 -13 105 29.5 Q69 72 69 157 L69 255 L21 255 L21 332 L69 332 L69 401 L6 401 L6 523 L68 523 L68 649 L220 649 L220 523 L310 523 L310 401 L220 401 L220 332 L281 332 L281 255 L220 255 Z " />
<glyph glyph-name="Utilde" unicode="&#x168;" horiz-adv-x="581" d="M530 262 Q530 203 516.5 152 Q503 101 474 63 Q445 25 399 3 Q353 -19 288 -19 Q223 -19 178 3 Q133 25 104.5 63 Q76 101 63.5 152 Q51 203 51 262 L51 708 L212 708 L212 276 Q212 246 215.5 220 Q219 194 228 175.5 Q237 157 252 146 Q267 135 291 135 Q315 135 330 146 Q345 157 354 175.5 Q363 194 366.5 220 Q370 246 370 276 L370 708 L530 708 L530 262 Z M444 896 Q442 838 418.5 804 Q395 770 355 770 Q323 770 286 793 Q264 807 253.5 811 Q243 815 230 815 Q202 815 197 771 L139 771 Q142 826 165 861.5 Q188 897 228 897 Q247 897 262.5 891 Q278 885 298 873 Q320 860 331 855.5 Q342 851 355 851 Q370 851 377 861.5 Q384 872 387 896 L444 896 Z " />
<glyph glyph-name="utilde" unicode="&#x169;" horiz-adv-x="540" d="M325 0 L325 74 L323 74 Q310 36 277 8.5 Q244 -19 195 -19 Q150 -19 123 -0.5 Q96 18 81 49 Q66 80 61 120 Q56 160 56 203 L56 523 L213 523 L213 203 Q213 186 215 171 Q217 156 222 145 Q227 134 236.5 127 Q246 120 260 120 Q289 120 305 146.5 Q321 173 321 216 L321 523 L478 523 L478 0 L325 0 Z M420 711 Q418 653 394.5 619 Q371 585 331 585 Q299 585 262 608 Q240 622 229.5 626 Q219 630 206 630 Q178 630 173 586 L115 586 Q118 642 141 676 Q164 712 204 712 Q223 712 238.5 706 Q254 700 274 688 Q296 675 307 670.5 Q318 666 331 666 Q346 666 353 676.5 Q360 687 363 711 L420 711 Z " />
<glyph glyph-name="Umacron" unicode="&#x16a;" horiz-adv-x="581" d="M530 262 Q530 203 516.5 152 Q503 101 474 63 Q445 25 399 3 Q353 -19 288 -19 Q223 -19 178 3 Q133 25 104.5 63 Q76 101 63.5 152 Q51 203 51 262 L51 708 L212 708 L212 276 Q212 246 215.5 220 Q219 194 228 175.5 Q237 157 252 146 Q267 135 291 135 Q315 135 330 146 Q345 157 354 175.5 Q363 194 366.5 220 Q370 246 370 276 L370 708 L530 708 L530 262 Z M145 798 L145 875 L439 875 L439 798 L145 798 Z " />
<glyph glyph-name="umacron" unicode="&#x16b;" horiz-adv-x="540" d="M325 0 L325 74 L323 74 Q310 36 277 8.5 Q244 -19 195 -19 Q150 -19 123 -0.5 Q96 18 81 49 Q66 80 61 120 Q56 160 56 203 L56 523 L213 523 L213 203 Q213 186 215 171 Q217 156 222 145 Q227 134 236.5 127 Q246 120 260 120 Q289 120 305 146.5 Q321 173 321 216 L321 523 L478 523 L478 0 L325 0 Z M120 613 L120 690 L414 690 L414 613 L120 613 Z " />
<glyph glyph-name="Ubreve" unicode="&#x16c;" horiz-adv-x="581" d="M530 262 Q530 203 516.5 152 Q503 101 474 63 Q445 25 399 3 Q353 -19 288 -19 Q223 -19 178 3 Q133 25 104.5 63 Q76 101 63.5 152 Q51 203 51 262 L51 708 L212 708 L212 276 Q212 246 215.5 220 Q219 194 228 175.5 Q237 157 252 146 Q267 135 291 135 Q315 135 330 146 Q345 157 354 175.5 Q363 194 366.5 220 Q370 246 370 276 L370 708 L530 708 L530 262 Z M439 905 Q436 866 422.5 839 Q409 812 389 796 Q369 780 343 773 Q317 766 289 766 Q262 766 236.5 773 Q211 780 190.5 796 Q170 812 157 839 Q144 866 141 905 L219 905 Q223 873 244.5 861 Q266 849 289 849 Q314 849 335 861 Q356 873 361 905 L439 905 Z " />
<glyph glyph-name="ubreve" unicode="&#x16d;" horiz-adv-x="540" d="M325 0 L325 74 L323 74 Q310 36 277 8.5 Q244 -19 195 -19 Q150 -19 123 -0.5 Q96 18 81 49 Q66 80 61 120 Q56 160 56 203 L56 523 L213 523 L213 203 Q213 186 215 171 Q217 156 222 145 Q227 134 236.5 127 Q246 120 260 120 Q289 120 305 146.5 Q321 173 321 216 L321 523 L478 523 L478 0 L325 0 Z M416 720 Q413 681 399.5 654 Q386 627 366 611 Q346 595 320 588 Q294 581 266 581 Q239 581 213.5 588 Q188 595 167.5 611 Q147 627 134 654 Q121 681 118 720 L196 720 Q200 688 221.5 676 Q243 664 266 664 Q291 664 312 676 Q333 688 338 720 L416 720 Z " />
<glyph glyph-name="Uring" unicode="&#x16e;" horiz-adv-x="581" d="M530 262 Q530 203 516.5 152 Q503 101 474 63 Q445 25 399 3 Q353 -19 288 -19 Q223 -19 178 3 Q133 25 104.5 63 Q76 101 63.5 152 Q51 203 51 262 L51 708 L212 708 L212 276 Q212 246 215.5 220 Q219 194 228 175.5 Q237 157 252 146 Q267 135 291 135 Q315 135 330 146 Q345 157 354 175.5 Q363 194 366.5 220 Q370 246 370 276 L370 708 L530 708 L530 262 Z M393 855 Q393 808 365 777 Q337 746 291 746 Q245 746 218 777 Q191 808 191 855 Q191 902 218 933 Q245 964 291 964 Q337 964 365 933 Q393 902 393 855 Z M345 855 Q345 881 331 900.5 Q317 920 291 920 Q265 920 252 900.5 Q239 881 239 855 Q239 829 252 809.5 Q265 790 291 790 Q317 790 331 809.5 Q345 829 345 855 Z " />
<glyph glyph-name="uring" unicode="&#x16f;" horiz-adv-x="540" d="M325 0 L325 74 L323 74 Q310 36 277 8.5 Q244 -19 195 -19 Q150 -19 123 -0.5 Q96 18 81 49 Q66 80 61 120 Q56 160 56 203 L56 523 L213 523 L213 203 Q213 186 215 171 Q217 156 222 145 Q227 134 236.5 127 Q246 120 260 120 Q289 120 305 146.5 Q321 173 321 216 L321 523 L478 523 L478 0 L325 0 Z M369 670 Q369 623 341 592 Q313 561 267 561 Q221 561 194 592 Q167 623 167 670 Q167 717 194 748 Q221 779 267 779 Q313 779 341 748 Q369 717 369 670 Z M321 670 Q321 696 307 715.5 Q293 735 267 735 Q241 735 228 715.5 Q215 696 215 670 Q215 644 228 624.5 Q241 605 267 605 Q293 605 307 624.5 Q321 644 321 670 Z " />
<glyph glyph-name="Uhungarumlaut" unicode="&#x170;" horiz-adv-x="581" d="M530 262 Q530 203 516.5 152 Q503 101 474 63 Q445 25 399 3 Q353 -19 288 -19 Q223 -19 178 3 Q133 25 104.5 63 Q76 101 63.5 152 Q51 203 51 262 L51 708 L212 708 L212 276 Q212 246 215.5 220 Q219 194 228 175.5 Q237 157 252 146 Q267 135 291 135 Q315 135 330 146 Q345 157 354 175.5 Q363 194 366.5 220 Q370 246 370 276 L370 708 L530 708 L530 262 Z M262 764 L159 764 L249 908 L374 908 L262 764 Z M415 764 L312 764 L402 908 L527 908 L415 764 Z " />
<glyph glyph-name="uhungarumlaut" unicode="&#x171;" horiz-adv-x="540" d="M325 0 L325 74 L323 74 Q310 36 277 8.5 Q244 -19 195 -19 Q150 -19 123 -0.5 Q96 18 81 49 Q66 80 61 120 Q56 160 56 203 L56 523 L213 523 L213 203 Q213 186 215 171 Q217 156 222 145 Q227 134 236.5 127 Q246 120 260 120 Q289 120 305 146.5 Q321 173 321 216 L321 523 L478 523 L478 0 L325 0 Z M240 579 L137 579 L227 723 L352 723 L240 579 Z M393 579 L290 579 L380 723 L505 723 L393 579 Z " />
<glyph glyph-name="Uogonek" unicode="&#x172;" horiz-adv-x="581" d="M397 -196 Q375 -213 346 -224.5 Q317 -236 286 -236 Q268 -236 249.5 -231.5 Q231 -227 216 -216.5 Q201 -206 191.5 -188.5 Q182 -171 182 -145 Q182 -106 206.5 -74.5 Q231 -43 261 -17 Q204 -13 164 10.5 Q124 34 99 71 Q74 108 62.5 157 Q51 206 51 262 L51 708 L212 708 L212 276 Q212 246 215.5 220 Q219 194 228 175.5 Q237 157 252 146 Q267 135 291 135 Q315 135 330 146 Q345 157 354 175.5 Q363 194 366.5 220 Q370 246 370 276 L370 708 L530 708 L530 262 Q530 214 521 171 Q512 128 492.5 92.5 Q473 57 443 31.5 Q413 6 371 -6 Q322 -48 302.5 -73 Q283 -98 283 -120 Q283 -151 312 -151 Q340 -151 366 -130 L397 -196 L397 -196 Z " />
<glyph glyph-name="uogonek" unicode="&#x173;" horiz-adv-x="541" d="M424 0 Q371 -45 349.5 -71.5 Q328 -98 328 -120 Q328 -151 357 -151 Q385 -151 411 -130 L442 -196 Q420 -213 391 -224.5 Q362 -236 331 -236 Q313 -236 294.5 -231.5 Q276 -227 261 -216.5 Q246 -206 236.5 -188.5 Q227 -171 227 -145 Q227 -122 236 -102 Q245 -82 259.5 -64 Q274 -46 291.5 -30 Q309 -14 327 0 L325 0 L325 74 L323 74 Q310 36 277 8.5 Q244 -19 195 -19 Q150 -19 123 -0.5 Q96 18 81 49 Q66 80 61 120 Q56 160 56 203 L56 523 L213 523 L213 203 Q213 186 215 171 Q217 156 222 145 Q227 134 236.5 127 Q246 120 260 120 Q289 120 305 146.5 Q321 173 321 216 L321 523 L478 523 L478 0 L424 0 Z " />
<glyph glyph-name="Wcircumflex" unicode="&#x174;" horiz-adv-x="799" d="M657 0 L487 0 L400 475 L398 475 L312 0 L142 0 L9 708 L172 708 L245 215 L249 215 L326 708 L481 708 L561 215 L564 215 L636 708 L791 708 L657 0 Z M469 764 L402 849 L336 764 L229 764 L344 908 L463 908 L577 764 L469 764 Z " />
<glyph glyph-name="wcircumflex" unicode="&#x175;" horiz-adv-x="692" d="M568 0 L409 0 L343 300 L341 300 L276 0 L122 0 L6 523 L166 523 L217 196 L219 196 L279 523 L413 523 L475 196 L477 196 L528 523 L686 523 L568 0 Z M412 579 L345 664 L279 579 L172 579 L287 723 L406 723 L520 579 L412 579 Z " />
<glyph glyph-name="Ycircumflex" unicode="&#x176;" horiz-adv-x="492" d="M324 255 L324 0 L167 0 L167 255 L-12 708 L161 708 L246 415 L248 415 L334 708 L504 708 L324 255 Z M313 764 L246 849 L180 764 L73 764 L188 908 L307 908 L421 764 L313 764 Z " />
<glyph glyph-name="ycircumflex" unicode="&#x177;" horiz-adv-x="476" d="M325 -18 Q313 -63 297.5 -103 Q282 -143 258 -173.5 Q234 -204 199 -222 Q164 -240 113 -240 Q90 -240 66.5 -237 Q43 -234 25 -230 L46 -88 Q55 -92 67 -94 Q79 -96 88 -96 Q118 -96 131.5 -80 Q145 -64 151 -42 L159 -13 L3 523 L168 523 L243 174 L245 174 L314 523 L473 523 L325 -18 Z M310 579 L243 664 L177 579 L70 579 L185 723 L304 723 L418 579 L310 579 Z " />
<glyph glyph-name="Ydieresis" unicode="&#x178;" horiz-adv-x="492" d="M324 255 L324 0 L167 0 L167 255 L-12 708 L161 708 L246 415 L248 415 L334 708 L504 708 L324 255 Z M230 851 Q230 816 209 792.5 Q188 769 156 769 Q123 769 102.5 792.5 Q82 816 82 851 Q82 885 102.5 909 Q123 933 156 933 Q188 933 209 909 Q230 885 230 851 Z M414 851 Q414 816 393 792.5 Q372 769 340 769 Q307 769 286.5 792.5 Q266 816 266 851 Q266 885 286.5 909 Q307 933 340 933 Q372 933 393 909 Q414 885 414 851 Z " />
<glyph glyph-name="Zacute" unicode="&#x179;" horiz-adv-x="458" d="M24 0 L24 130 L241 567 L42 567 L42 708 L424 708 L424 581 L208 145 L424 145 L424 0 L24 0 Z M265 764 L157 764 L247 908 L377 908 L265 764 Z " />
<glyph glyph-name="zacute" unicode="&#x17a;" horiz-adv-x="399" d="M27 0 L27 129 L202 391 L37 391 L37 523 L371 523 L371 399 L195 132 L373 132 L373 0 L27 0 Z M245 579 L137 579 L227 723 L357 723 L245 579 Z " />
<glyph glyph-name="Zdotaccent" unicode="&#x17b;" horiz-adv-x="458" d="M24 0 L24 130 L241 567 L42 567 L42 708 L424 708 L424 581 L208 145 L424 145 L424 0 L24 0 Z M320 850 Q320 812 296 785.5 Q272 759 234 759 Q196 759 172 785.5 Q148 812 148 850 Q148 869 154.5 885.5 Q161 902 172 914.5 Q183 927 199 934.5 Q215 942 234 942 Q253 942 269 934.5 Q285 927 296 914.5 Q307 902 313.5 885.5 Q320 869 320 850 Z " />
<glyph glyph-name="zdotaccent" unicode="&#x17c;" horiz-adv-x="399" d="M27 0 L27 129 L202 391 L37 391 L37 523 L371 523 L371 399 L195 132 L373 132 L373 0 L27 0 Z M291 665 Q291 627 267 600.5 Q243 574 205 574 Q167 574 143 600.5 Q119 627 119 665 Q119 684 125.5 700.5 Q132 717 143 729.5 Q154 742 170 749.5 Q186 757 205 757 Q224 757 240 749.5 Q256 742 267 729.5 Q278 717 284.5 700.5 Q291 684 291 665 Z " />
<glyph glyph-name="Zcaron" unicode="&#x17d;" horiz-adv-x="458" d="M24 0 L24 130 L241 567 L42 567 L42 708 L424 708 L424 581 L208 145 L424 145 L424 0 L24 0 Z M171 908 L238 823 L304 908 L411 908 L296 764 L177 764 L63 908 L171 908 Z " />
<glyph glyph-name="zcaron" unicode="&#x17e;" horiz-adv-x="399" d="M27 0 L27 129 L202 391 L37 391 L37 523 L371 523 L371 399 L195 132 L373 132 L373 0 L27 0 Z M141 723 L208 638 L274 723 L381 723 L266 579 L147 579 L33 723 L141 723 Z " />
<glyph glyph-name="florin" unicode="&#x192;" horiz-adv-x="529" d="M466 573 Q440 587 418 587 Q391 587 376.5 569.5 Q362 552 355 513 L342 440 L444 440 L444 326 L324 326 L274 32 Q267 -6 254 -37.5 Q241 -69 220 -92 Q199 -115 169 -127.5 Q139 -140 99 -140 Q76 -140 51.5 -137 Q27 -134 10 -127 L40 3 Q51 -4 69 -4 Q97 -4 108.5 18.5 Q120 41 126 79 L167 326 L76 326 L76 440 L179 440 L190 505 Q197 552 210 592.5 Q223 633 246 662.5 Q269 692 304.5 709 Q340 726 392 726 Q428 726 457.5 718 Q487 710 507 699 L466 573 Z " />
<glyph glyph-name="Scommaaccent" unicode="&#x218;" horiz-adv-x="461" d="M356 538 Q338 559 314 570.5 Q290 582 264 582 Q237 582 215.5 565 Q194 548 194 509 Q194 476 216 457.5 Q238 439 281 417 Q305 405 331.5 388.5 Q358 372 380 348 Q402 324 416.5 290.5 Q431 257 431 211 Q431 154 413 110.5 Q395 67 364.5 38.5 Q334 10 294 -4.5 Q254 -19 211 -19 Q147 -19 94.5 5 Q42 29 10 61 L92 181 Q115 157 145 142.5 Q175 128 206 128 Q235 128 255 147 Q275 166 275 200 Q275 235 251 255.5 Q227 276 181 299 Q152 313 126.5 330 Q101 347 81.5 371 Q62 395 51 427 Q40 459 40 503 Q40 562 59.5 604.5 Q79 647 110.5 674 Q142 701 180.5 714 Q219 727 258 727 Q316 727 362 708 Q408 689 439 656 L356 538 Z M218 -232 L113 -232 L163 -45 L280 -45 L218 -232 Z " />
<glyph glyph-name="scommaaccent" unicode="&#x219;" horiz-adv-x="400" d="M307 376 Q289 394 268 405 Q247 416 222 416 Q203 416 189.5 404 Q176 392 176 371 Q176 351 190.5 341.5 Q205 332 245 320 Q268 313 291 301 Q314 289 332 270 Q350 251 361.5 224.5 Q373 198 373 162 Q373 114 356 80 Q339 46 313 25 Q287 4 254.5 -6 Q222 -16 192 -16 Q140 -16 91.5 3 Q43 22 8 56 L86 156 Q107 134 131.5 120 Q156 106 185 106 Q207 106 219.5 119 Q232 132 232 153 Q232 178 212 189.5 Q192 201 152 214 Q131 221 110 231.5 Q89 242 72.5 260 Q56 278 45.5 303.5 Q35 329 35 366 Q35 410 51 442.5 Q67 475 92.5 496.5 Q118 518 149.5 528.5 Q181 539 213 539 Q261 539 305 522 Q349 505 383 475 L307 376 Z M195 -232 L90 -232 L140 -45 L257 -45 L195 -232 Z " />
<glyph glyph-name="uni021A" unicode="&#x21a;" horiz-adv-x="415" d="M286 572 L286 0 L129 0 L129 572 L-1 572 L-1 708 L416 708 L416 572 L286 572 Z M213 -232 L108 -232 L158 -45 L275 -45 L213 -232 Z " />
<glyph glyph-name="uni021B" unicode="&#x21b;" horiz-adv-x="315" d="M305 4 Q292 -3 268 -8 Q244 -13 220 -13 Q141 -13 105 29.5 Q69 72 69 157 L69 401 L6 401 L6 523 L68 523 L68 649 L220 649 L220 523 L310 523 L310 401 L220 401 L220 193 Q220 155 232 137.5 Q244 120 270 120 Q291 120 305 127 L305 4 Z M196 -232 L91 -232 L141 -45 L258 -45 L196 -232 Z " />
<glyph glyph-name="circumflex" unicode="&#x2c6;" horiz-adv-x="274" d="M203 579 L136 664 L70 579 L-37 579 L78 723 L197 723 L311 579 L203 579 Z " />
<glyph glyph-name="caron" unicode="&#x2c7;" horiz-adv-x="274" d="M71 723 L138 638 L204 723 L311 723 L196 579 L77 579 L-37 723 L71 723 Z " />
<glyph glyph-name="uni02C9" unicode="&#x2c9;" horiz-adv-x="274" d="M-10 798 L-10 875 L284 875 L284 798 L-10 798 Z " />
<glyph glyph-name="breve" unicode="&#x2d8;" horiz-adv-x="274" d="M286 720 Q283 681 269.5 654 Q256 627 236 611 Q216 595 190 588 Q164 581 136 581 Q109 581 83.5 588 Q58 595 37.5 611 Q17 627 4 654 Q-9 681 -12 720 L66 720 Q70 688 91.5 676 Q113 664 136 664 Q161 664 182 676 Q203 688 208 720 L286 720 L286 720 Z " />
<glyph glyph-name="dotaccent" unicode="&#x2d9;" horiz-adv-x="274" d="M223 665 Q223 627 199 600.5 Q175 574 137 574 Q99 574 75 600.5 Q51 627 51 665 Q51 684 57.5 700.5 Q64 717 75 729.5 Q86 742 102 749.5 Q118 757 137 757 Q156 757 172 749.5 Q188 742 199 729.5 Q210 717 216.5 700.5 Q223 684 223 665 Z " />
<glyph glyph-name="ring" unicode="&#x2da;" horiz-adv-x="274" d="M239 670 Q239 623 211 592 Q183 561 137 561 Q91 561 64 592 Q37 623 37 670 Q37 717 64 748 Q91 779 137 779 Q183 779 211 748 Q239 717 239 670 Z M191 670 Q191 696 177 715.5 Q163 735 137 735 Q111 735 98 715.5 Q85 696 85 670 Q85 644 98 624.5 Q111 605 137 605 Q163 605 177 624.5 Q191 644 191 670 Z " />
<glyph glyph-name="ogonek" unicode="&#x2db;" horiz-adv-x="274" d="M236 -196 Q214 -213 185 -224.5 Q156 -236 125 -236 Q107 -236 88.5 -231.5 Q70 -227 55 -216.5 Q40 -206 30.5 -188.5 Q21 -171 21 -145 Q21 -122 30 -102 Q39 -82 53.5 -64 Q68 -46 85.5 -30 Q103 -14 121 0 L218 0 Q165 -45 143.5 -71.5 Q122 -98 122 -120 Q122 -151 151 -151 Q179 -151 205 -130 L236 -196 L236 -196 Z " />
<glyph glyph-name="tilde" unicode="&#x2dc;" horiz-adv-x="274" d="M290 711 Q288 653 264.5 619 Q241 585 201 585 Q169 585 132 608 Q110 622 99.5 626 Q89 630 76 630 Q48 630 43 586 L-15 586 Q-12 642 11 676 Q34 712 74 712 Q93 712 108.5 706 Q124 700 144 688 Q166 675 177 670.5 Q188 666 201 666 Q216 666 223 676.5 Q230 687 233 711 L290 711 L290 711 Z " />
<glyph glyph-name="hungarumlaut" unicode="&#x2dd;" horiz-adv-x="274" d="M72 579 L-31 579 L59 723 L184 723 L72 579 Z M225 579 L122 579 L212 723 L337 723 L225 579 Z " />
<glyph glyph-name="uni0394" unicode="&#x394;" horiz-adv-x="710" d="M9 0 L277 708 L417 708 L701 0 L9 0 Z M344 503 L214 145 L482 145 L344 503 Z " />
<glyph glyph-name="uni03A9" unicode="&#x3a9;" horiz-adv-x="771" d="M429 0 L429 219 Q461 227 485.5 244 Q510 261 527 286 Q560 335 560 405 Q560 445 545.5 477.5 Q531 510 507 532.5 Q483 555 452 567.5 Q421 580 387 580 Q352 580 320.5 568 Q289 556 265 533 Q241 510 226.5 477.5 Q212 445 212 404 Q212 335 248.5 285.5 Q285 236 342 219 L342 0 L51 0 L51 144 L218 144 L218 155 Q179 167 148 191 Q117 215 96 247 Q51 315 51 405 Q51 476 77.5 534 Q104 592 149.5 633.5 Q195 675 255.5 698 Q316 721 385 721 Q454 721 515 698.5 Q576 676 621.5 635 Q667 594 693.5 536 Q720 478 720 407 Q720 362 709 321.5 Q698 281 677 248 Q656 215 625 191 Q594 167 553 155 L553 144 L720 144 L720 0 L429 0 Z " />
<glyph glyph-name="uni03BC" unicode="&#x3bc;" horiz-adv-x="666" d="M251 498 L251 250 Q251 233 253.5 211.5 Q256 190 264.5 171 Q273 152 288 139 Q303 126 328 126 Q353 126 370.5 135 Q388 144 398.5 159 Q409 174 414 194 Q419 214 419 237 L419 498 L581 498 L581 0 L426 0 L426 57 L425 57 Q410 31 384.5 12 Q359 -7 314 -7 Q296 -7 279 -2 Q262 3 251 13 L251 -226 L89 -226 L89 498 L251 498 Z " />
<glyph glyph-name="pi" unicode="&#x3c0;" horiz-adv-x="666" d="M627 18 Q600 4 571 -1.5 Q542 -7 508 -7 Q471 -7 447 3.5 Q423 14 409 33 Q395 52 389.5 77 Q384 102 384 131 L384 361 L269 361 L269 0 L103 0 L103 361 L34 361 L34 498 L625 498 L625 361 L547 361 L547 160 Q547 144 554 130.5 Q561 117 582 117 Q600 117 627 129 L627 18 L627 18 Z " />
<glyph glyph-name="endash" unicode="&#x2013;" horiz-adv-x="360" d="M24 226 L24 328 L336 328 L336 226 L24 226 Z " />
<glyph glyph-name="emdash" unicode="&#x2014;" horiz-adv-x="460" d="M24 226 L24 328 L436 328 L436 226 L24 226 Z " />
<glyph glyph-name="quoteleft" unicode="&#x2018;" horiz-adv-x="229" d="M148 450 L31 450 L94 708 L198 708 L148 450 Z " />
<glyph glyph-name="quoteright" unicode="&#x2019;" horiz-adv-x="229" d="M81 708 L198 708 L135 450 L31 450 L81 708 Z " />
<glyph glyph-name="quotesinglbase" unicode="&#x201a;" horiz-adv-x="229" d="M136 -115 L31 -115 L81 143 L198 143 L136 -115 Z " />
<glyph glyph-name="quotedblleft" unicode="&#x201c;" horiz-adv-x="398" d="M317 450 L200 450 L262 708 L367 708 L317 450 Z M148 450 L31 450 L94 708 L198 708 L148 450 Z " />
<glyph glyph-name="quotedblright" unicode="&#x201d;" horiz-adv-x="397" d="M81 708 L198 708 L136 450 L31 450 L81 708 Z M250 708 L367 708 L304 450 L200 450 L250 708 Z " />
<glyph glyph-name="quotedblbase" unicode="&#x201e;" horiz-adv-x="397" d="M81 143 L198 143 L136 -115 L31 -115 L81 143 Z M250 143 L367 143 L304 -115 L200 -115 L250 143 Z " />
<glyph glyph-name="dagger" unicode="&#x2020;" horiz-adv-x="443" d="M289 377 L289 -131 L156 -131 L156 377 L21 377 L21 508 L155 508 L155 708 L289 708 L289 508 L424 508 L424 377 L289 377 Z " />
<glyph glyph-name="daggerdbl" unicode="&#x2021;" horiz-adv-x="443" d="M290 48 L290 -131 L156 -131 L156 48 L21 48 L21 174 L156 174 L156 403 L21 403 L21 529 L155 529 L155 708 L289 708 L289 529 L424 529 L424 403 L289 403 L289 174 L424 174 L424 48 L290 48 Z " />
<glyph glyph-name="bullet" unicode="&#x2022;" horiz-adv-x="500" d="M427 354 Q427 317 413 285 Q399 253 375 229 Q351 205 319 191 Q287 177 250 177 Q213 177 181 191 Q149 205 125 229 Q101 253 87 285 Q73 317 73 354 Q73 391 87 423 Q101 455 125 479 Q149 503 181 517 Q213 531 250 531 Q287 531 319 517 Q351 503 375 479 Q399 455 413 423 Q427 391 427 354 Z " />
<glyph glyph-name="ellipsis" unicode="&#x2026;" horiz-adv-x="900" d="M235 81 Q235 43 211 17 Q187 -9 150 -9 Q112 -9 88.5 17 Q65 43 65 81 Q65 118 88.5 145 Q112 172 150 172 Q187 172 211 145 Q235 118 235 81 Z M835 81 Q835 43 811 17 Q787 -9 750 -9 Q712 -9 688.5 17 Q665 43 665 81 Q665 118 688.5 145 Q712 172 750 172 Q787 172 811 145 Q835 118 835 81 Z M535 81 Q535 43 511 17 Q487 -9 450 -9 Q412 -9 388.5 17 Q365 43 365 81 Q365 118 388.5 145 Q412 172 450 172 Q487 172 511 145 Q535 118 535 81 Z " />
<glyph glyph-name="perthousand" unicode="&#x2030;" horiz-adv-x="966" d="M304 539 Q304 500 294.5 467.5 Q285 435 267 411 Q249 387 223.5 373.5 Q198 360 166 360 Q134 360 108.5 373.5 Q83 387 65.5 411 Q48 435 38.5 467.5 Q29 500 29 539 Q29 578 38.5 611 Q48 644 65.5 668.5 Q83 693 108.5 706.5 Q134 720 166 720 Q198 720 223.5 706.5 Q249 693 267 668.5 Q285 644 294.5 611 Q304 578 304 539 Z M212 540 Q212 580 200.5 606.5 Q189 633 166 633 Q143 633 132.5 606.5 Q122 580 122 540 Q122 502 132.5 474.5 Q143 447 166 447 Q189 447 200.5 474.5 Q212 502 212 540 Z M631 167 Q631 128 621.5 95.5 Q612 63 594 39 Q576 15 550.5 1.5 Q525 -12 493 -12 Q461 -12 435.5 1.5 Q410 15 392.5 39 Q375 63 365.5 95.5 Q356 128 356 167 Q356 206 365.5 239 Q375 272 392.5 296.5 Q410 321 435.5 334.5 Q461 348 493 348 Q525 348 550.5 334.5 Q576 321 594 296.5 Q612 272 621.5 239 Q631 206 631 167 Z M539 168 Q539 208 527.5 234.5 Q516 261 493 261 Q470 261 459.5 234.5 Q449 208 449 168 Q449 130 459.5 102.5 Q470 75 493 75 Q516 75 527.5 102.5 Q539 130 539 168 Z M939 167 Q939 128 929.5 95.5 Q920 63 902 39 Q884 15 858.5 1.5 Q833 -12 801 -12 Q769 -12 743.5 1.5 Q718 15 700.5 39 Q683 63 673.5 95.5 Q664 128 664 167 Q664 206 673.5 239 Q683 272 700.5 296.5 Q718 321 743.5 334.5 Q769 348 801 348 Q833 348 858.5 334.5 Q884 321 902 296.5 Q920 272 929.5 239 Q939 206 939 167 Z M847 168 Q847 208 835.5 234.5 Q824 261 801 261 Q778 261 767.5 234.5 Q757 208 757 168 Q757 130 767.5 102.5 Q778 75 801 75 Q824 75 835.5 102.5 Q847 130 847 168 Z M218 -21 L145 6 L447 738 L520 709 L218 -21 Z " />
<glyph glyph-name="guilsinglleft" unicode="&#x2039;" horiz-adv-x="261" d="M145 31 L36 262 L145 493 L225 451 L137 262 L225 73 L145 31 Z " />
<glyph glyph-name="guilsinglright" unicode="&#x203a;" horiz-adv-x="261" d="M124 262 L36 451 L116 493 L225 262 L116 31 L36 73 L124 262 Z " />
<glyph glyph-name="fraction" unicode="&#x2044;" horiz-adv-x="100" d="M-42 -19 L-120 5 L150 737 L229 711 L-42 -19 Z " />
<glyph glyph-name="Euro" unicode="&#x20ac;" horiz-adv-x="529" d="M475 580 Q459 587 436 591 Q413 595 391 595 Q345 595 312.5 568 Q280 541 267 488 L461 488 L435 389 L245 389 Q243 380 243 371.5 Q243 363 243 355 Q243 347 243 338.5 Q243 330 244 322 L425 322 L402 223 L260 223 Q271 173 305 146 Q339 119 384 119 Q412 119 436 125.5 Q460 132 475 140 L493 7 Q478 -1 445 -10 Q412 -19 365 -19 Q312 -19 268 -2 Q224 15 190.5 46.5 Q157 78 134 122.5 Q111 167 101 223 L23 223 L47 322 L92 322 Q91 330 91 338.5 Q91 347 91 355 Q91 362 91 371 Q91 380 92 389 L25 389 L49 488 L103 488 Q131 608 204.5 667.5 Q278 727 385 727 Q417 727 451.5 720.5 Q486 714 508 705 L475 580 L475 580 Z " />
<glyph glyph-name="afii61289" unicode="&#x2113;" horiz-adv-x="500" d="M462 55 Q420 20 377 3 Q334 -14 284 -14 Q243 -14 211 -2.5 Q179 9 157.5 29.5 Q136 50 125 77 Q114 104 114 136 L114 166 L60 120 L58 120 L5 201 L113 287 L113 522 Q113 564 127 600.5 Q141 637 166 663.5 Q191 690 225.5 705.5 Q260 721 301 721 Q337 721 366 710 Q395 699 415.5 678.5 Q436 658 447 630 Q458 602 458 568 Q458 490 410.5 417.5 Q363 345 263 264 L263 160 Q263 124 281.5 109.5 Q300 95 322 95 Q340 95 362.5 104 Q385 113 410 132 L412 132 L462 55 Z M336 559 Q336 585 326.5 603.5 Q317 622 300 622 Q284 622 273.5 602 Q263 582 263 550 L263 389 Q303 431 319.5 474 Q336 517 336 559 Z " />
<glyph glyph-name="trademark" unicode="&#x2122;" horiz-adv-x="760" d="M114 611 L35 611 L35 708 L293 708 L293 611 L215 611 L215 296 L114 296 L114 611 Z M330 708 L465 708 L526 440 L583 708 L719 708 L719 296 L626 296 L626 557 L624 557 L561 296 L483 296 L422 557 L420 557 L420 296 L330 296 L330 708 Z " />
<glyph glyph-name="Omega" unicode="&#x2126;" horiz-adv-x="771" d="M429 0 L429 219 Q461 227 485.5 244 Q510 261 527 286 Q560 335 560 405 Q560 445 545.5 477.5 Q531 510 507 532.5 Q483 555 452 567.5 Q421 580 387 580 Q352 580 320.5 568 Q289 556 265 533 Q241 510 226.5 477.5 Q212 445 212 404 Q212 335 248.5 285.5 Q285 236 342 219 L342 0 L51 0 L51 144 L218 144 L218 155 Q179 167 148 191 Q117 215 96 247 Q51 315 51 405 Q51 476 77.5 534 Q104 592 149.5 633.5 Q195 675 255.5 698 Q316 721 385 721 Q454 721 515 698.5 Q576 676 621.5 635 Q667 594 693.5 536 Q720 478 720 407 Q720 362 709 321.5 Q698 281 677 248 Q656 215 625 191 Q594 167 553 155 L553 144 L720 144 L720 0 L429 0 Z " />
<glyph glyph-name="estimated" unicode="&#x212e;" horiz-adv-x="800" d="M595 402 L595 595 Q513 674 401 674 Q289 674 210 595 L210 402 L595 402 Z M210 355 L210 115 Q286 37 402 37 Q485 37 546 74.5 Q607 112 658 196 L704 168 Q674 120 642.5 86 Q611 52 575 30.5 Q539 9 496.5 -1.5 Q454 -12 402 -12 Q324 -12 261 16.5 Q198 45 153 95 Q108 145 84 211.5 Q60 278 60 355 Q60 432 84 498.5 Q108 565 153 614.5 Q198 664 261 692 Q324 720 402 720 Q478 720 541.5 693 Q605 666 650 617.5 Q695 569 720 502 Q745 435 745 355 L210 355 Z " />
<glyph glyph-name="partialdiff" unicode="&#x2202;" horiz-adv-x="666" d="M427 428 Q427 455 419.5 482 Q412 509 396 531.5 Q380 554 356 568 Q332 582 298 582 Q265 582 231 570 Q197 558 161 516 L84 628 Q177 721 299 721 Q383 721 438.5 688 Q494 655 527.5 603 Q561 551 575 486.5 Q589 422 589 359 Q589 320 584.5 277 Q580 234 569 192.5 Q558 151 538.5 113.5 Q519 76 488.5 48 Q458 20 415.5 3.5 Q373 -13 316 -13 Q262 -13 216.5 5 Q171 23 138 55 Q105 87 87 131.5 Q69 176 69 229 Q69 278 85.5 320 Q102 362 132.5 392.5 Q163 423 207.5 440 Q252 457 309 457 Q374 457 427 428 Z M420 292 Q373 328 328 328 Q282 328 258.5 298.5 Q235 269 235 222 Q235 177 258 148.5 Q281 120 319 120 Q346 120 365.5 134 Q385 148 397 170.5 Q409 193 414.5 221.5 Q420 250 420 279 L420 292 Z " />
<glyph glyph-name="Delta" unicode="&#x2206;" horiz-adv-x="710" d="M9 0 L277 708 L417 708 L701 0 L9 0 Z M344 503 L214 145 L482 145 L344 503 Z " />
<glyph glyph-name="product" unicode="&#x220f;" horiz-adv-x="753" d="M543 -214 L543 653 L210 653 L210 -214 L59 -214 L59 786 L695 786 L695 -214 L543 -214 Z " />
<glyph glyph-name="summation" unicode="&#x2211;" horiz-adv-x="666" d="M26 -214 L26 -103 L318 292 L38 675 L38 786 L632 786 L632 653 L230 653 L486 293 L213 -81 L644 -81 L644 -214 L26 -214 Z " />
<glyph glyph-name="minus" unicode="&#x2212;" horiz-adv-x="666" d="M68 242 L68 365 L598 365 L598 242 L68 242 Z " />
<glyph glyph-name="uni2215" unicode="&#x2215;" horiz-adv-x="100" d="M-42 -19 L-120 5 L150 737 L229 711 L-42 -19 Z " />
<glyph glyph-name="uni2219" unicode="&#x2219;" horiz-adv-x="270" d="M220 269 Q220 231 196 205 Q172 179 135 179 Q97 179 73.5 205 Q50 231 50 269 Q50 306 73.5 333 Q97 360 135 360 Q172 360 196 333 Q220 306 220 269 Z " />
<glyph glyph-name="radical" unicode="&#x221a;" horiz-adv-x="569" d="M365 -214 L239 -214 L94 86 L43 62 L-11 176 L164 255 L276 16 L434 786 L579 786 L365 -214 Z " />
<glyph glyph-name="infinity" unicode="&#x221e;" horiz-adv-x="837" d="M792 266 Q792 227 779.5 192 Q767 157 744 131 Q721 105 686.5 90 Q652 75 609 75 Q578 75 551.5 83.5 Q525 92 501.5 106 Q478 120 457.5 139 Q437 158 419 178 Q400 158 380 139.5 Q360 121 337.5 107 Q315 93 289 84.5 Q263 76 231 76 Q188 76 153.5 90.5 Q119 105 95 130.5 Q71 156 58 190.5 Q45 225 45 265 Q45 304 57.5 338 Q70 372 93.5 397.5 Q117 423 150.5 437.5 Q184 452 227 452 Q260 452 287 443 Q314 434 337 419 Q360 404 380.5 384 Q401 364 419 343 Q437 364 457 384 Q477 404 500 419.5 Q523 435 550.5 444 Q578 453 610 453 Q653 453 686.5 438.5 Q720 424 743.5 398.5 Q767 373 779.5 339 Q792 305 792 266 Z M674 263 Q674 294 656.5 314 Q639 334 607 334 Q591 334 575 327 Q559 320 544.5 309.5 Q530 299 517 286.5 Q504 274 493 262 Q516 236 545.5 215 Q575 194 610 194 Q640 194 657 214 Q674 234 674 263 Z M344 262 Q332 274 318 286.5 Q304 299 289 309.5 Q274 320 258 326.5 Q242 333 227 333 Q198 333 180.5 312.5 Q163 292 163 263 Q163 232 181 213.5 Q199 195 230 195 Q262 195 291.5 216.5 Q321 238 344 262 Z " />
<glyph glyph-name="integral" unicode="&#x222b;" horiz-adv-x="633" d="M519 696 Q519 668 500.5 648.5 Q482 629 453 629 Q433 629 422.5 637 Q412 645 405 655.5 Q398 666 393 676 Q388 686 380 689 Q371 681 370 664 Q369 647 369 636 Q369 615 370 594.5 Q371 574 371 553 L371 113 Q371 85 371 56.5 Q371 28 369 0 Q367 -39 360 -77.5 Q353 -116 335 -146.5 Q317 -177 285 -195.5 Q253 -214 203 -214 Q184 -214 162.5 -209 Q141 -204 122.5 -193.5 Q104 -183 91.5 -165.5 Q79 -148 79 -122 Q79 -112 84 -104 Q89 -84 106 -71 Q123 -58 146 -58 Q165 -58 175.5 -66 Q186 -74 192.5 -84.5 Q199 -95 203.5 -104 Q208 -113 216 -116 Q221 -113 223.5 -107.5 Q226 -102 227 -95 Q228 -88 228 -81 Q228 -74 228 -69 Q229 -49 227.5 -29 Q226 -9 226 11 L226 45 L226 507 Q226 551 229.5 600 Q233 649 249.5 690 Q266 731 300 758 Q334 785 396 785 Q413 785 434.5 780.5 Q456 776 474.5 765.5 Q493 755 506 738 Q519 721 519 696 Z " />
<glyph glyph-name="approxequal" unicode="&#x2248;" horiz-adv-x="666" d="M580 468 Q572 376 530 326 Q488 276 419 276 Q389 276 355.5 286 Q322 296 289 308 Q256 320 226 330 Q196 340 173 340 Q152 340 139.5 323 Q127 306 122 285 L26 285 Q29 319 39 352 Q49 385 68.5 410.5 Q88 436 117.5 452 Q147 468 188 468 Q219 468 250 459 Q281 450 311.5 438.5 Q342 427 372.5 418 Q403 409 433 409 Q455 409 467 424.5 Q479 440 483 468 L580 468 Z M579 247 Q575 215 565.5 182 Q556 149 537.5 122.5 Q519 96 490.5 79.5 Q462 63 420 63 Q390 63 355.5 73 Q321 83 288 95.5 Q255 108 224.5 118 Q194 128 172 128 Q151 128 138 110.5 Q125 93 120 66 L24 66 Q27 100 37 134.5 Q47 169 66 196 Q85 223 113.5 240 Q142 257 182 257 Q213 257 244.5 247.5 Q276 238 307.5 226.5 Q339 215 370.5 205.5 Q402 196 433 196 Q453 196 465 210.5 Q477 225 482 247 L579 247 Z " />
<glyph glyph-name="notequal" unicode="&#x2260;" horiz-adv-x="666" d="M296 110 L222 -36 L107 20 L154 110 L52 110 L52 237 L219 237 L262 321 L52 321 L52 448 L327 448 L402 593 L517 538 L470 448 L569 448 L569 321 L405 321 L362 237 L569 237 L569 110 L296 110 Z " />
<glyph glyph-name="lessequal" unicode="&#x2264;" horiz-adv-x="666" d="M79 18 L79 141 L587 141 L587 18 L79 18 Z M79 368 L79 471 L587 685 L587 549 L281 418 L587 291 L587 154 L79 368 Z " />
<glyph glyph-name="greaterequal" unicode="&#x2265;" horiz-adv-x="666" d="M79 141 L587 141 L587 18 L79 18 L79 141 Z M79 291 L385 418 L79 549 L79 685 L587 471 L587 368 L79 154 L79 291 Z " />
<glyph glyph-name="lozenge" unicode="&#x25ca;" horiz-adv-x="606" d="M362 -35 L242 -35 L61 356 L243 747 L362 747 L546 356 L362 -35 Z M302 597 L201 356 L302 115 L405 356 L302 597 Z " />
<glyph glyph-name="dotlessj" unicode="&#xf6be;" horiz-adv-x="299" d="M218 -35 Q218 -77 210 -114.5 Q202 -152 182 -179.5 Q162 -207 128 -223.5 Q94 -240 43 -240 Q25 -240 6.5 -238.5 Q-12 -237 -27 -234 L-19 -97 Q-6 -102 9 -102 Q41 -102 50 -80 Q59 -58 59 -21 L59 523 L218 523 L218 -35 L218 -35 Z " />
<glyph glyph-name="commaaccent" unicode="&#xf6c3;" horiz-adv-x="274" d="M157 -232 L52 -232 L102 -45 L219 -45 L157 -232 Z " />
<glyph glyph-name="uniF8FF" unicode="&#xf8ff;" horiz-adv-x="512" d="M222 117 L222 184 L278 184 L278 117 L222 117 Z M225 234 L223 251 Q223 307 236 332 Q243 345 254 359.5 Q265 374 282 391 Q298 406 308 417.5 Q318 429 323 438.5 Q328 448 330 456.5 Q332 465 332 474 Q332 510 309.5 534.5 Q287 559 256 559 Q225 559 202.5 537 Q180 515 174 464 L124 472 Q131 544 168 576.5 Q205 609 259 609 Q313 609 348 573.5 Q383 538 383 478 Q383 446 370.5 419.5 Q358 393 320 358 Q283 325 277 306 Q271 286 271 234 L225 234 Z M462 50 L462 667 L50 667 L50 50 L462 50 Z M512 718 L512 0 L0 0 L0 718 L512 718 Z " />
<glyph glyph-name="fi" unicode="&#xfb01;" horiz-adv-x="575" d="M308 646 Q293 651 276 651 Q243 651 231.5 625.5 Q220 600 220 566 L220 523 L300 523 L300 401 L221 401 L221 0 L68 0 L68 401 L6 401 L6 523 L68 523 L68 567 Q68 610 77 648.5 Q86 687 107 716.5 Q128 746 163 763.5 Q198 781 250 781 Q264 781 283 779 Q302 777 316 773 L308 646 Z M358 0 L358 523 L516 523 L516 0 L358 0 Z M523 665 Q523 627 499 600.5 Q475 574 437 574 Q399 574 375 600.5 Q351 627 351 665 Q351 684 357.5 700.5 Q364 717 375 729.5 Q386 742 402 749.5 Q418 757 437 757 Q456 757 472 749.5 Q488 742 499 729.5 Q510 717 516.5 700.5 Q523 684 523 665 Z " />
<glyph glyph-name="fl" unicode="&#xfb02;" horiz-adv-x="583" d="M308 646 Q293 651 276 651 Q243 651 231.5 625.5 Q220 600 220 566 L220 523 L300 523 L300 401 L221 401 L221 0 L68 0 L68 401 L6 401 L6 523 L68 523 L68 567 Q68 610 77 648.5 Q86 687 107 716.5 Q128 746 163 763.5 Q198 781 250 781 Q264 781 283 779 Q302 777 316 773 L308 646 Z M361 0 L361 756 L521 756 L521 0 L361 0 Z " />
</font>
</svg>
