<?xml version="1.0" encoding="utf-8"?>
<!-- Generator: Adobe Illustrator 19.1.0, SVG Export Plug-In . SVG Version: 6.00 Build 0)  -->
<svg version="1.1" id="Layer_1" xmlns="http://www.w3.org/2000/svg" xmlns:xlink="http://www.w3.org/1999/xlink" x="0px" y="0px"
	 viewBox="244.4 88.6 385 385" style="enable-background:new 244.4 88.6 385 385;" xml:space="preserve">
<g>
	<path d="M285.8,276.9c-1.4,0.9-2.3,2.1-2.5,3.7c-0.1,0.7-0.1,1.4,0,2.1c0.3,1.7,1.5,2.6,3.4,2.7c2.8,0,5.1-1.2,6.9-3.2
		c3.5-3.9,5-8.5,4.6-13.8c-0.3-3.9-2.6-6.4-6.6-6.9c-0.9-0.1-1.8-0.2-2.7-0.3c0-0.1,0-0.3,0-0.5c0.1,0,0.2,0,0.3,0
		c3.1-0.3,6.1-1.1,8.7-3.1c4.4-3.2,5.4-8.7,4-12.6c-0.5-1.4-1.2-2.5-2.3-3.5c-1.4,1.1-2.6,2.4-3.7,3.8c-2.6,3.3-4.6,7.1-6.7,10.8
		c-2.5,4.6-5,9.2-7.7,13.7c-2.1,3.6-4.7,6.9-7.8,9.7c-5.4,4.9-11.7,7.2-19,6.8c-3.1-0.1-6-1.2-8.2-3.5c-2-2.1-2.7-4.6-1.9-7.4
		c0.6-2.1,2.4-3.2,4.6-2.9c1.5,0.2,2.5,1.3,2.7,2.8c0.2,1.5-0.6,3.1-2,3.7c-0.4,0.2-0.5,0.4-0.5,0.8c0,2.9,1.3,4.7,4,5.4
		c0.8,0.2,1.7,0.3,2.6,0.3c4.2,0.1,7.7-1.5,10.7-4.4c2.9-2.7,5-5.9,6.9-9.3c2.6-4.6,5.2-9.2,7.8-13.8c2.4-4.1,5.1-8.1,8.4-11.6
		c2.3-2.4,4.8-4.6,7.9-6.3c-0.2-0.1-0.3-0.3-0.5-0.4c-2.6-1.9-5.6-3-8.8-3.5c-7.8-1.1-14.9,1-21.4,5.4c-4.4,2.8-7.7,6.5-9.7,11.3
		c-1.5,3.8-2.2,7.7-1.2,11.8c0.2,1,0.6,1.9,1.1,2.8c1.9,3.5,4.9,4.7,8.7,3.6c3.1-0.9,5.1-3.1,6.5-5.8c1.6-3.1,2.2-6.4,1.9-9.9
		c-0.1-1.3-0.2-2.5-0.3-3.8c0.2,0,0.5,0,0.8-0.1c0.1,1.3,0.3,2.6,0.4,3.9c0.2,3.6-0.3,7-2,10.2c-2.5,4.7-6.4,7.1-11.7,7.2
		c-2.5,0-4.9-0.5-6.9-2c-2.4-1.8-3.6-4.3-4-7.2c-0.8-5.7,1-10.6,4.6-14.9c3.1-3.8,6.9-6.5,11.1-8.7c4.8-2.5,10-4.1,15.4-4.6
		c6.4-0.6,12.7,0.3,18.7,2.9c0.4,0.2,0.8,0.2,1.2,0c2.5-1.1,5.1-2.2,7.8-2.7c0.7-0.1,1.5-0.2,2.2-0.3c0.1,0,0.3,0.1,0.4,0.3
		c-3.4,0.6-6.5,1.7-9.3,3.8c0.8,0.7,1.6,1.3,2.4,2c4.1,3.8,4.9,11.7-1.5,16c-2.5,1.7-5.3,2.7-8.2,3.3c-0.6,0.1-1.2,0.2-1.9,0.5
		c0.7,0.1,1.4,0.2,2.1,0.3c1.3,0.3,2.5,0.5,3.8,0.9c3.3,1.1,5,3.5,5.1,6.9c0.1,6.8-3.1,11.7-8.9,14.9c-3.1,1.7-6.5,2.5-10,2.4
		c-1.9,0-3.7-0.6-5.3-1.6c-2-1.4-2.9-3.6-2.3-5.7c0.4-1.6,1.4-2.8,3.1-3.2C282.9,275.2,284.4,275.8,285.8,276.9z"/>
	<path d="M492.4,261.5c2-0.1,3.9-0.1,5.8-0.7c1.5-0.5,2.8-1.4,3.4-2.9c0-0.1,0.2-0.3,0.4-0.3c2.3-0.1,4.5-0.1,6.8-0.2
		c0,0,0,0,0.1,0.1c-1,0.8-1.9,1.5-2.9,2.3c-3.2,2.6-6.2,5.4-8.7,8.7c-1.3,1.7-2.4,3.6-3.2,5.6c-0.1,0.3-0.3,0.5-0.7,0.3
		c1.4-4.4,3.3-8.5,5.8-12.5c-1.2,0.1-2.3,0.2-3.5,0.3c-1,0.1-2.1,0.1-3.1,0.2c-0.5,0-0.7,0.2-0.9,0.6c-2.3,3.9-4.6,7.7-7.4,11.1
		c-2.8,3.5-6,6.7-10.1,8.8c-5.7,2.9-11.7,3.8-18,2.1c-2.3-0.6-4.3-1.6-5.9-3.3c-2-2.1-2.7-5.2-1.6-7.7c0.9-2.1,3-3.1,5-2.3
		c2.2,0.8,2.8,3.9,1,5.5c-0.3,0.3-0.7,0.4-1.1,0.6c-0.3,0.1-0.4,0.2-0.3,0.5c0.3,3.5,2.5,5.9,6.1,6.5c5,0.8,9.3-0.7,13.1-3.9
		c2.6-2.3,4.7-4.9,6.5-7.8c2.1-3.4,4-6.8,6-10.2c0,0,0-0.1,0.1-0.3c-1,0-1.9,0-2.9,0c0-0.3,0-0.5,0-0.8c0.9,0,1.7,0,2.6,0
		c0.5,0,0.8-0.1,1-0.6c2.1-4.2,4.6-8.1,7.9-11.4c4.2-4.2,9.2-6.9,15-8.3c0.1,0,0.2,0,0.4-0.1c0,0,0.1,0,0.1-0.2c-0.3,0-0.6,0-0.9,0
		c-4.4-0.1-8.9-0.1-13.3-0.2c-7.1-0.2-14.2,0.2-21.2,1.7c-3.9,0.8-7.6,2-11,4.1c-1.8,1.1-3.3,2.5-4.3,4.4c-2,4.1-1.2,8.3,3.9,10.5
		c2.7,1.2,5.6,1.4,8.5,1.1c2.8-0.3,5.5-1.1,7.8-2.7c3.3-2.3,5.1-5.4,5.4-9.3c0.1-1.2,0-2.3,0-3.6c0.3,0,0.6,0,0.8,0
		c0.3,3.7-0.2,7.1-2.1,10.2c-3.6,5.9-8.9,8.9-15.8,8.6c-3.6-0.1-6.7-1.6-8.8-4.6c-2.1-3-2.1-6.2-1-9.5c0.8-2.5,2.5-4.5,4.6-6.1
		c4.6-3.6,9.7-5.8,15.3-7.3c4.8-1.3,9.8-2,14.8-2.3c4.2-0.2,8.5-0.3,12.7-0.2c4.1,0.1,8.2,0.4,12.3,0.7c1.5,0.1,3,0.2,4.5,0.3
		c0.3,0,0.6,0,0.8,0.1c1,0.2,1.5,0.8,1.7,1.9c0.1,1-0.2,1.8-1.1,2.3c-1.1,0.6-2.4,0.8-3.7,0.8c-2.3,0-4.5,0-6.8-0.3
		c-3.9-0.5-7.1,0.9-9.9,3.6c-2.7,2.7-4.8,5.8-6.6,9.1c-1.2,2.2-2.3,4.4-3.5,6.6C492.5,261.2,492.5,261.4,492.4,261.5z"/>
	<path d="M571.8,284.3c-4.7-0.3-9.5-0.5-14.3,0c0-0.2,0-0.3,0-0.4c0-0.1,0-0.3,0-0.4c0.7-0.1,1.3-0.3,1.9-0.5
		c2.1-0.6,2.8-1.5,2.8-3.7c0-4,0-8,0-12.1c0-1.4,0-2.7-0.1-4.1c-0.2-2.1-1.1-2.9-3.2-3.1c-0.1,0-0.3,0-0.4,0c-0.8,0-0.8,0-0.7-0.9
		c3.1-0.5,6.3-0.9,9.5-1.4c0,1.2,0,2.3,0,3.4c0.3-0.2,0.5-0.3,0.7-0.5c1.7-1.3,3.5-2.5,5.7-3c3.8-0.9,7,0,9.4,3.1
		c0.1,0.1,0.2,0.2,0.3,0.4c0.2-0.1,0.3-0.2,0.5-0.3c1.8-1.3,3.7-2.5,5.8-3.1c3.3-0.9,6.3-0.4,8.8,2.1c1.5,1.5,2.2,3.6,2.3,5.7
		c0.1,4.4,0.1,8.9,0.1,13.3c0,0.6,0,1.2,0.1,1.7c0.2,1,0.8,1.7,1.7,2.1c0.9,0.3,1.9,0.6,2.9,0.8c0,0.2,0,0.4,0,0.8
		c-4.6-0.2-9.3-0.5-14,0c0-0.3,0-0.6,0-0.8c0.5-0.1,1.1-0.3,1.6-0.5c1.7-0.6,2.5-1.5,2.5-3.4c0-4.2,0-8.5,0-12.7
		c0-1.3-0.3-2.5-1-3.7c-1-1.6-2.4-2.5-4.3-2.5c-2.2,0-4.1,0.5-5.9,1.8c-0.3,0.2-0.4,0.5-0.4,0.9c0,5.3,0,10.6,0,15.9
		c0,2,0.8,3,2.6,3.6c0.4,0.1,0.8,0.3,1.3,0.3c0.6,0,0.7,0.3,0.6,0.9c-4.6-0.2-9.1-0.5-13.7,0c0-0.3,0-0.6,0-0.8
		c0.6-0.2,1.2-0.3,1.8-0.6c1.5-0.5,2.3-1.5,2.3-3.1c0-4.6,0-9.3,0-13.9c0-0.6-0.1-1.2-0.2-1.8c-0.6-2.5-2-3.7-4.7-3.8
		c-1.8,0-3.3,0.5-4.7,1.6c-2,1.6-2,1.6-2,4.1c0,4.4,0,8.7,0,13.1c0,2.3,0.8,3.3,3,3.9c0.3,0.1,0.6,0.2,0.9,0.2
		C571.9,283.4,572,283.7,571.8,284.3z"/>
	<path d="M514.4,264.8c-1.8-0.4-3.5-0.7-5.3-1c0.1-2.5,2.1-5.1,4.6-5.8c3-0.8,6-0.9,9-0.1c3.7,1,5.5,3.6,5.5,7.5c0,4.2,0,8.4,0,12.6
		c0,0.6,0.1,1.2,0.3,1.7c0.5,1.3,1.6,1.8,3,1.5c0.9-0.2,1.7-0.8,2.4-1.3c0.4-0.3,0.7-0.6,1.1-0.9c0.2,0.2,0.4,0.5,0.7,0.8
		c-0.6,0.7-1.2,1.3-1.8,1.9c-1,0.9-2,1.8-3,2.7c-0.3,0.2-0.6,0.4-0.9,0.5c-1.3,0.7-2.5,0.5-3.6-0.4c-0.8-0.7-1.5-1.4-2.2-2.1
		c-0.3-0.3-0.7-0.7-1-1.1c-0.1,0.1-0.3,0.2-0.4,0.3c-2.2,1.5-4.6,2.9-7.2,3.5c-2.5,0.6-4.8,0.3-6.8-1.4c-3.4-2.6-3.3-8.6,0.5-11.2
		c1.7-1.2,3.6-1.9,5.6-2.1c2.5-0.3,5-0.5,7.6-0.7c0.2,0,0.5,0,0.7,0c0-0.1,0.1-0.1,0.1-0.1c0-2.2,0.1-4.4-0.2-6.6
		c-0.3-2.6-2.8-4.2-5.4-3.9c-0.8,0.1-1.4,0.5-1.8,1.1c-0.9,1.2-1.3,2.6-1.4,4.1C514.4,264.3,514.4,264.5,514.4,264.8z M523.3,275.8
		c0-1,0-2.1,0-3.1c0-0.1-0.2-0.4-0.3-0.5c-2.2-0.6-4.5-0.8-6.7-0.2c-1.9,0.6-3.4,1.6-4,3.6c-0.8,2.6,0.2,4.9,2.5,5.7
		c0.7,0.2,1.4,0.3,2,0.4c2.3,0,4.4-0.9,6.2-2.3c0.1-0.1,0.2-0.4,0.2-0.6C523.3,277.8,523.3,276.8,523.3,275.8z"/>
	<path d="M416.3,236.6c-0.1-0.8-0.1-0.8,0.6-0.9c2.7-0.4,5.4-0.7,8.2-1.1c0.2,0,0.5,0,0.8-0.1c0,0.3,0,0.6,0,0.8
		c0,13.9,0,27.8,0,41.7c0,1.1,0.1,2.2,0.2,3.2c0.2,1.5,1.1,2.5,2.7,2.9c0.7,0.1,1.4,0.2,2.2,0.4c0,0.2,0,0.4,0,0.8
		c-5-0.3-10-0.4-15.1,0c0-0.3,0-0.6,0-0.8c0.5-0.1,1-0.1,1.5-0.2c2.1-0.4,3-1.4,3.2-3.5c0.1-0.8,0.1-1.6,0.1-2.5
		c0-12.1,0-24.2,0-36.3c0-0.6,0-1.1-0.1-1.6c-0.3-1.8-1.1-2.5-2.9-2.7C417.2,236.7,416.7,236.6,416.3,236.6z"/>
	<path d="M466.5,306.9c2.2-1.7,4.6-3.2,7.3-3.9c0.8-0.2,1.5-0.3,2.3-0.4c0,0,0,0.1,0.1,0.2c-0.1,0.1-0.3,0.3-0.5,0.4
		c-2.9,1.1-5.3,2.9-7.7,4.7c-2.7,2-4.8,4.5-6.5,7.3c-0.1,0.1-0.2,0.3-0.3,0.3c-0.1,0-0.3-0.2-0.4-0.3c-0.2-0.5-0.2-1,0-1.5
		c0.5-0.9,1.1-1.9,1.6-2.8c0.1-0.2,0.2-0.3,0.4-0.7c-1.3,0.6-2.3,1.2-3.5,1.7c-1.8,0.8-3.6,1.5-5.4,2.1c-1.4,0.5-2.2-0.2-2.3-1.7
		c0-0.2,0-0.5,0-0.8c-0.2,0.1-0.3,0.1-0.4,0.2c-1.4,1-2.8,2-4.2,3c-0.5,0.3-1,0.6-1.5,0.7c-1.1,0.2-1.9-0.8-1.5-1.9
		c0.2-0.6,0.6-1.2,0.9-1.9c-0.2,0.1-0.4,0.2-0.6,0.3c-1.9,0.9-3.8,1.8-5.7,2.6c-0.6,0.2-1.3,0.3-2,0.2c-1.4-0.2-2.1-1.5-1.7-3
		c0-0.2,0-0.5,0-0.7c-0.2,0-0.5,0-0.7,0.1c-1.2,0.8-2.3,1.6-3.4,2.4c-1,0.7-1.9,1.5-2.9,2.2c-0.3,0.2-0.8,0.3-1,0.1
		c-0.2-0.1-0.4-0.6-0.4-0.9c0-1.5,0.6-2.8,1.2-4.1c0.1-0.2,0.2-0.4,0.4-0.8c-0.7,0.4-1.2,0.7-1.7,0.9c-2.2,1.1-4.4,2.2-6.6,3.2
		c-0.8,0.4-1.6,0.6-2.5,0.3c-1.3-0.3-1.9-1.3-1.9-2.9c-0.2,0.1-0.4,0.2-0.6,0.3c-2.6,1.5-5.3,2.9-8.2,3.7c-0.3,0.1-0.6,0.1-0.9,0.2
		c-1.1,0.1-1.5-0.2-1.6-1.4c-0.1-1.2,0.1-2.3,0.5-3.4c0-0.2,0.1-0.3,0.1-0.6c-0.1,0.1-0.3,0.2-0.4,0.3c-1.5,1.2-3,2.4-4.7,3.2
		c-0.1,0-0.3,0.1-0.5,0.2c-1.3,0.6-1.8,0-1.8-1.4c0-0.6,0.3-1.3,0.6-1.8c1.3-2.3,3.1-4.1,5.4-5.4c1-0.6,1.8-0.3,2.2,0.8
		c0.1,0.3,0,0.4-0.3,0.4s-0.8,0-1.1,0.2c-2.4,1.3-4.2,3.3-5.6,5.6c0,0.1,0,0.2-0.1,0.4c0.3,0,0.6-0.1,0.8-0.2
		c1.5-0.5,2.6-1.4,3.9-2.3c2.5-1.8,4.3-4.2,5.9-6.8c1.7-2.7,3.6-5.3,5.4-8c0.1-0.1,0.2-0.2,0.3-0.4c0.2-0.3,0.5-0.3,0.7,0
		c0.5,0.8,0.6,1.1,0.1,1.9c-2.5,3.6-5,7.1-7.5,10.7c-0.8,1.2-1.5,2.6-2.1,3.9c-0.3,0.5-0.6,1.2-0.1,1.7c0.5,0.6,1.2,0.3,1.7,0.1
		c2.9-0.9,5.6-2.3,8.3-3.7c0.2-0.1,0.3-0.4,0.4-0.6c0.8-1.3,1.6-2.7,2.5-4c0.6-0.9,1.6-0.8,2.6-0.8c0.1,0,0.3,0.1,0.3,0.2
		c0,0.1-0.1,0.3-0.2,0.4c-1.6,1.5-3,3.2-4.1,5.2c-0.3,0.5-0.5,1-0.6,1.5c-0.2,0.8,0.1,1.2,0.9,1.2c0.4,0,0.9-0.1,1.3-0.2
		c3-0.8,5.6-2.4,8.3-3.9c1.3-0.7,2.3-1.5,3-2.8c0.2-0.5,0.7-1,1-1.5c0.6-0.8,1.5-1,2.5-0.6c-0.2,0.4-0.5,0.8-0.7,1.1
		c-1,1.5-2.1,3-3.1,4.6c-0.6,0.9-1.1,1.9-1.5,2.9c-0.1,0.3-0.1,0.6-0.1,0.9c0,0,0.1,0,0.2,0.1c0.2-0.1,0.5-0.3,0.7-0.5
		c1.8-1.3,3.5-2.7,5.3-4c0.6-0.4,1.2-0.7,1.9-1c0.2-0.1,0.6-0.1,0.8,0c1,0.3,1.1,0.8,0.6,1.7c-0.4,0.5-0.7,1-1,1.6
		c-0.1,0.2-0.2,0.6-0.3,0.8c-0.1,0.9,0.2,1.3,1.1,1c1.5-0.5,3-1.1,4.5-1.7c1.7-0.8,3.4-1.6,5-2.5c0.4-0.2,0.7-0.6,1-0.8
		c1.1-0.9,2.2-1.8,3.3-2.6c0.3-0.2,0.7-0.4,1-0.5c1.3-0.5,2.3-0.1,2.9,1.2c0.1,0.2,0.1,0.4,0.1,0.8c-0.3-0.1-0.5-0.1-0.7-0.2
		c-0.7-0.3-1.5-0.3-2.2,0c-1.6,0.8-3,1.9-4.3,3.2c-0.8,0.8-1.5,1.7-2.3,2.6c-0.1,0.1-0.1,0.4-0.2,0.6c0.2,0,0.5,0.1,0.7,0
		c1.2-0.7,2.4-1.3,3.6-2c1.2-0.8,2.4-1.5,3.2-2.8c0.3-0.4,1.4-0.4,1.8,0c0.1,0.1,0,0.5,0,0.7c-0.5,0.8-1,1.4-1.5,2.2
		c-0.1,0.2-0.2,0.6-0.3,0.8c-0.1,0.4,0.1,0.7,0.5,0.6c0.6-0.1,1.3-0.3,1.8-0.5c2.9-1.3,5.7-2.6,8.5-3.9c0.2-0.1,0.4-0.3,0.5-0.5
		c0.7-1.2,1.1-2.5,1.3-3.9c0-0.5,0.2-0.5,0.6-0.4c0.8,0.3,1.1,0.8,0.9,1.7c0,0.3-0.1,0.5-0.3,0.8
		C466.7,306.3,466.5,306.6,466.5,306.9C466.4,306.8,466.5,306.9,466.5,306.9z"/>
	<path d="M607.6,283.2c-0.1-2.6-0.3-5.2-0.5-7.7c0,0,0-0.1,0-0.2c0.6-0.2,0.9,0,1.2,0.5c1.3,2,2.8,3.8,4.7,5.2
		c1.8,1.4,3.8,2.2,6.1,2.1c0.8,0,1.7-0.2,2.4-0.5c2-0.8,2.7-3,1.6-4.9c-0.7-1.2-1.7-2-3-2.5c-1.8-0.8-3.7-1.5-5.4-2.3
		c-1.4-0.6-2.7-1.2-3.9-2c-2.9-1.8-3.9-4.5-3.1-7.7c0.8-3.4,3.4-5.5,6.9-5.7c2.1-0.1,4,0.4,6.1,0.8c1.3,0.3,2.5,0.5,3.8,0.7
		c0.5,0,0.4,0.3,0.5,0.6c0.1,2,0.2,3.9,0.3,5.9c0,0.3,0,0.6,0,0.8c-0.6,0.2-0.9,0-1.2-0.5c-1.3-2.2-3-4.1-5.3-5.3
		c-1.7-0.9-3.5-1.3-5.4-0.7c-1.2,0.3-2,1.1-2.3,2.3c-0.3,1.3,0,2.5,1.1,3.3c1,0.7,2,1.3,3.1,1.8c1.9,0.9,3.9,1.6,5.9,2.5
		c0.9,0.4,1.9,1,2.7,1.5c2.3,1.6,3.4,3.8,3.2,6.6c-0.2,3.1-1.5,5.4-4.4,6.5c-1,0.4-2.1,0.6-3.1,0.7c-3.2,0.4-6.3-0.3-9.4-1.2
		C609.4,283.7,608.6,283.5,607.6,283.2z"/>
	<path d="M364.9,259c0.1,2.3,0.2,4.7,0.4,7.1c-0.5,0.1-0.8,0.1-1.2-0.4c-1.5-2.5-3.3-4.6-6-5.7c-1.5-0.7-3.1-0.8-4.7-0.3
		c-1.2,0.4-2.1,1.2-2.3,2.4c-0.3,1.3,0.1,2.4,1.2,3.2c1.2,1,2.7,1.6,4.1,2.2c2,0.8,4.1,1.6,6,2.6c1.1,0.6,2.2,1.4,3.1,2.3
		c1.7,1.7,1.9,3.9,1.5,6.2c-0.6,3.6-2.8,5.6-6.6,6.2c-3.3,0.5-6.4,0-9.6-0.9c-1-0.3-2-0.5-3-0.7c-0.1,0-0.4-0.2-0.4-0.4
		c-0.2-2.5-0.3-5.1-0.5-7.7c0.6-0.2,0.9,0,1.3,0.5c1.5,2.4,3.4,4.5,5.9,6c2.2,1.3,4.4,1.7,6.9,1c3.4-1,3.2-4.4,1.5-6.1
		c-1-1-2.3-1.6-3.6-2.2c-2.1-0.9-4.2-1.7-6.3-2.6c-0.8-0.4-1.6-0.8-2.3-1.4c-2.6-1.9-3.4-4.6-2.4-8c0.9-3,3.5-5,6.7-5.1
		c1.3,0,2.5,0.1,3.8,0.3C360.5,258.1,362.6,258.5,364.9,259z"/>
	<path d="M377.8,260.6c0,0.3,0,0.5,0,0.7c0,5.3,0,10.5,0,15.7c0,0.8,0.1,1.5,0.2,2.3c0.3,1.8,1.5,2.6,3.3,2.4
		c1.7-0.2,3.1-1.1,4.3-2.3c0.3-0.3,0.5-0.6,0.8-0.9c0.3,0.3,0.4,0.5,0.7,0.8c-1.9,1.9-3.7,3.9-6.2,5.2c-1.4,0.7-2.9,1-4.4,0.8
		c-1.9-0.2-3.1-1.3-3.5-3.1c-0.2-1-0.4-2-0.4-3c0-5.9,0-11.7,0-17.6c0-0.2,0-0.5,0-0.8c-1.7,0-3.4,0-5.2,0c0-0.4,0-0.7,0-1.1
		c0.1,0,0.2,0,0.3,0c2-0.2,3.6-1.1,4.9-2.6c1.6-1.9,2.6-4.1,3.4-6.4c0.1-0.4,0.3-0.9,0.5-1.3c0.2-0.8,0.2-0.8,1.1-0.6
		c0,3.3,0,6.6,0,10c3,0,6,0,8.9,0c0,0.7,0,1.4,0,2.1C383.8,260.6,380.9,260.6,377.8,260.6z"/>
	<path d="M548.4,283.5c0,0.2,0,0.5,0,0.8c-4.9-0.2-9.7-0.5-14.5,0c-0.2-0.8-0.2-0.8,0.5-1c0.6-0.1,1.2-0.3,1.8-0.5
		c1.4-0.5,2-1.5,2.1-2.9c0-0.4,0-0.8,0-1.2c0-5.1,0-10.1,0-15.2c0-0.4,0-0.7,0-1.1c-0.2-1.2-1-2-2.3-2.2c-0.7-0.1-1.3-0.1-2-0.2
		c0-0.2,0-0.5,0-0.8c3.1-0.5,6.3-1,9.5-1.5c0,1.3,0,2.6,0,3.9c0.3-0.2,0.5-0.4,0.7-0.5c1.5-1.2,3-2.4,4.6-3.6c1.2-0.8,2.5-1.4,4-1.2
		c2.6,0.3,4.1,1.8,4.4,4.5c0.1,1.1,0.1,1.1-0.8,1.7c-1.4,0.8-2.8,1.5-4.2,2.3c0.1-0.6,0.2-1,0.3-1.5s0-1,0-1.5
		c-0.3-1.6-1.7-2.4-3.3-1.9c-1.5,0.5-2.5,1.5-3.6,2.5c-0.7,0.7-1.5,1.3-1.8,2.1c-0.3,0.8-0.1,1.7-0.1,2.6c0,4.1,0,8.2,0,12.2
		c0,2.1,0.7,3.1,2.7,3.6C546.9,283.2,547.6,283.3,548.4,283.5z"/>
	<path d="M321.1,283.5c0,0.2,0,0.5,0,0.8c-4.9-0.2-9.7-0.5-14.6,0c-0.2-0.8-0.2-0.8,0.5-1c0.7-0.2,1.5-0.4,2.2-0.7
		c1.1-0.5,1.6-1.4,1.8-2.5c0-0.4,0.1-0.9,0.1-1.4c0-5,0-10,0-15.1c0-0.4,0-0.7,0-1.1c-0.1-1.2-0.7-2-1.9-2.3
		c-0.8-0.2-1.6-0.2-2.5-0.4c0-0.2,0-0.5,0-0.8c3.1-0.5,6.3-1,9.5-1.5c0,1.3,0,2.6,0,4c0.5-0.4,0.8-0.7,1.1-0.9
		c1.5-1.2,3-2.4,4.6-3.5c1.2-0.9,2.7-1.1,4.2-0.8c2.1,0.4,3.3,1.9,3.7,4.1c0.2,1.3,0.2,1.3-0.9,2c-1.4,0.8-2.7,1.5-4.1,2.3
		c0.1-0.5,0.2-0.9,0.2-1.4c0-0.6,0.1-1.2,0-1.8c-0.4-1.5-1.7-2.3-3.2-1.7c-0.9,0.3-1.8,0.8-2.5,1.5c-1,0.8-1.9,1.9-2.9,2.9
		c-0.1,0.1-0.2,0.4-0.2,0.6c0,4.9,0,9.9,0,14.8c0,1.6,0.8,2.6,2.3,3.1C319.3,283.1,320.2,283.3,321.1,283.5z"/>
	<path d="M604.7,309.9c-1.4,0.4-2.7,0.8-4,1.1c-1,0.2-2,0.3-3.1,0.5c-0.3,0-0.6,0.2-0.8,0.4c-0.8,0.7-1.4,1.5-2.2,2.2
		c-0.5,0.4-1.1,0.7-1.7,0.9c-0.9,0.3-1.5-0.1-1.7-1c-0.1-0.6,0-1.3,0-1.9c0-0.1,0-0.3,0.1-0.5c-0.6,0.4-1.2,0.8-1.7,1.1
		c-2.4,1.5-4.8,3.1-7.2,4.6c-0.9,0.5-1.8,0.9-2.8,1.2c-1.4,0.4-2-0.1-2.2-1.6c-0.2-2.6,0.5-4.9,1.8-7c1.4-2.4,2.9-4.7,4.4-7.1
		c0.5-0.8,0.9-1.5,1.4-2.3c-1.2,0.1-2.2,0.2-3.1,0.3c-1.3,0.1-2.5,0-3.7-0.8c-0.7-0.5-1.1-1.1-1-2.1c0.4,0.1,0.8,0.2,1,0.4
		c1.6,1.3,3.6,1.3,5.5,1.2c1.4,0,2.4-0.3,3.1-1.7c0.5-1.1,1.2-2.2,1.8-3.2c0.3-0.6,1.4-1,2-0.7c0.1,0,0.3,0.3,0.3,0.5
		c0,0.2-0.1,0.5-0.3,0.7c-0.7,1.1-1.4,2.2-2.1,3.3c-0.1,0.1-0.1,0.3-0.3,0.6c0.8-0.1,1.6-0.3,2.3-0.4c1.4-0.2,2.7-0.4,4.1-0.5
		c0.3,0,0.7,0.1,0.9,0.2c-0.1,0.4-0.1,0.8-0.3,1.1c-0.1,0.4-0.5,0.6-0.9,0.5c-1.7-0.4-3.4,0-5.1,0.1c-1.4,0.1-2.3,0.8-3,1.9
		c-2.4,3.7-4.9,7.4-6.7,11.5c-0.3,0.7-0.5,1.4-0.7,2.1c-0.3,1.1,0.2,1.6,1.3,1.3c1-0.3,1.9-0.7,2.8-1.2c2.2-1.3,4.3-2.6,6.4-3.9
		c0.9-0.5,1.9-0.9,2.7-1.5c0.8-0.7,1.2-1.6,1.9-2.4c0.5-0.6,1-1.1,1.5-1.6c0.7-0.6,2.3-0.3,2.8,0.4c0,0,0,0.1,0,0.2
		c0,0-0.1,0.1-0.1,0.1c-1.2,0-2,0.7-2.7,1.6c-0.8,0.9-1.5,1.9-2.1,2.9c-0.3,0.5-0.5,1.1-0.6,1.7c-0.1,0.5,0.1,0.7,0.6,0.5
		c1.2-0.3,2.1-1,2.7-2c-0.6-0.7-0.6-1,0-1.7c0.4-0.4,0.8-0.8,1.3-1.2c0.1-0.1,0.3-0.2,0.4-0.2c0.4,0,0.8,0,1.1,0
		c0,0.4,0,0.7-0.1,1.1c-0.1,0.2-0.2,0.5-0.4,0.7c0,0,0,0.1,0.1,0.2c0.7,0,1.3,0,1.9-0.2c1.7-0.5,3.4-1,5.2-1.5
		c0.2,0,0.4-0.3,0.5-0.5c0.7-1.3,1.2-2.6,1.3-4c0-0.4,0.2-0.5,0.6-0.4c0.9,0.3,1.2,0.9,0.9,1.8c-0.1,0.5-0.4,0.9-0.5,1.5
		c2.9-2.1,5.9-4,9.7-4c-0.1,0.1-0.3,0.3-0.5,0.3c-3.1,1.2-5.7,3.1-8.3,5.1c-2.4,1.9-4.4,4.3-6,6.9c-0.1,0.1-0.3,0.3-0.3,0.3
		c-0.1,0-0.3-0.2-0.4-0.4c-0.2-0.5-0.2-1.1,0.1-1.5c0.6-1,1.3-2.1,1.9-3.1C604.5,310.2,604.6,310,604.7,309.9z"/>
	<path d="M331.3,258.4c3.3-0.2,6.6-0.5,9.9-0.7c0,0.3,0,0.5,0,0.8c0,6.7,0,13.3,0,20c0,0.5,0,1,0.1,1.5c0.3,2.3,1.3,3.1,3.6,3.3
		c0.5,0,0.9,0.1,1.5,0.1c0,0.2,0,0.5,0,0.8c-5-0.2-10-0.5-15,0c0-0.3,0-0.6,0-0.8c0.7-0.1,1.4-0.1,2-0.3c1.4-0.2,2.3-1,2.5-2.5
		c0.1-0.8,0.2-1.5,0.2-2.3c0-4.5,0-9,0-13.5c0-0.6,0-1.1-0.1-1.7c-0.3-2.2-1.4-3.3-3.6-3.8c-0.1,0-0.2,0-0.3,0
		C331.2,259.4,331.2,259.4,331.3,258.4z"/>
	<path d="M532.8,313.1c0.4-0.1,0.8-0.1,1.1-0.3c1.9-0.8,3.4-2.1,5-3.3c2-1.7,3.4-3.9,4.8-6.1c1.7-2.5,3.4-5,5.1-7.4
		c0.6-0.8,0.8-0.8,1.3,0.1c0.2,0.5,0.1,0.8-0.1,1.2c-2.3,3.1-4.5,6.2-6.7,9.4c-1,1.5-1.9,3.1-2.8,4.7c-0.2,0.5-0.4,1-0.5,1.5
		c-0.2,0.8,0.1,1.2,0.9,1.1c0.6,0,1.1-0.2,1.6-0.4c2.8-1,5.5-2.3,8.1-3.8c0.2-0.1,0.4-0.2,0.6-0.3c0.1,0.7-0.2,1.2-0.7,1.5
		c-1.8,1.4-3.9,2.4-6,3.3c-1.3,0.5-2.6,0.9-3.9,1.4c-0.2,0-0.4,0.1-0.6,0.1c-1,0.1-1.4-0.2-1.5-1.2c-0.1-1.1,0.1-2.2,0.4-3.2
		c0.1-0.3,0.2-0.6,0.3-1c-0.8,0.7-1.5,1.3-2.2,1.7c-1.2,0.8-2.3,1.5-3.6,2.1c-1.1,0.6-1.8,0.1-1.7-1.2c0-0.7,0.3-1.3,0.5-1.9
		c0.1-0.3,0.4-0.7,0.6-1c-1,0.3-1.9,0.6-2.8,0.8c-1.2,0.2-2.3,0.4-3.5,0.6c-0.3,0-0.6,0.2-0.8,0.4c-0.8,0.7-1.4,1.5-2.2,2.2
		c-0.5,0.4-1.1,0.7-1.7,0.9c-1,0.3-1.5-0.1-1.7-1.1c-0.2-1,0-2,0.4-3c0.1-0.2,0.2-0.5,0.4-0.8c-1,0.3-2,0.6-3,0.8
		c-1.2,0.2-2.3,0.4-3.5,0.6c-0.3,0-0.6,0.2-0.8,0.5c-0.8,0.8-1.5,1.6-2.3,2.3c-0.5,0.4-1.2,0.6-1.8,0.8c-0.7,0.1-1.1-0.1-1.3-0.8
		c-0.4-1-0.1-2.1,0.2-3.1c0.8-2,2.1-3.8,3.8-5.3c0.6-0.6,2.3-0.4,2.7,0.3c0.2,0.2,0.1,0.4-0.2,0.4c-1,0-1.8,0.6-2.3,1.4
		c-0.8,1-1.6,2.1-2.3,3.2c-0.3,0.5-0.4,1.2-0.5,1.8c0,0.3,0.1,0.5,0.5,0.4c1.2-0.3,2.2-1,2.8-2.1c-0.6-0.7-0.6-1.1,0-1.7
		c0.4-0.5,0.9-0.8,1.4-1.3c0.2-0.1,0.4-0.2,0.6-0.2c0.8-0.1,1,0.2,0.8,0.9c-0.1,0.3-0.3,0.7-0.6,1.1c0.5,0,0.8,0,1.2,0
		c1.9-0.2,3.7-0.7,5.4-1.4c0.2-0.1,0.4-0.2,0.5-0.4c0.7-0.8,1.4-1.6,2.1-2.4c0.7-0.7,2.5-0.3,2.9,0.6c-0.1,0-0.2,0.1-0.3,0.1
		c-0.9,0-1.6,0.4-2.2,1.1c-0.9,1.1-1.8,2.3-2.6,3.5c-0.3,0.5-0.4,1.1-0.6,1.6c-0.1,0.5,0.1,0.7,0.7,0.6c1.2-0.3,2.1-1,2.7-2
		c-0.6-0.6-0.6-1-0.1-1.6c0.4-0.5,0.9-0.9,1.4-1.3c0.1-0.1,0.3-0.2,0.5-0.2c0.3,0,0.8-0.1,0.9,0.1c0.1,0.1,0,0.6,0,0.9
		c-0.1,0.3-0.3,0.6-0.4,0.8c0,0,0,0.1,0.1,0.2c0.8-0.1,1.7-0.1,2.5-0.3c1.1-0.2,2.2-0.6,3.2-0.9c0.8-0.2,1.5-0.7,2.1-1.2
		c0.8-0.8,1.8-1.5,2.8-2.1c1-0.6,1.7-0.2,2,0.8c0.1,0.3,0,0.4-0.3,0.4c-0.4,0-0.8,0-1.2,0.2c-2.4,1.3-4.1,3.2-5.5,5.5
		C532.8,312.6,532.8,312.8,532.8,313.1z"/>
	<path d="M263.2,300.2c-0.4,0.3-0.8,0.6-1.1,0.9c-1.4,1.5-2.7,3.1-4.1,4.6c-1.7,1.9-3.4,3.8-5.5,5.3c-0.5,0.3-1,0.6-1.5,0.8
		c-1,0.3-1.6,0-2.1-0.9c-0.6-1.2-0.6-2.5-0.3-3.8c0.8-3.4,2.2-6.6,4-9.6c0.9-1.5,1.8-2.9,2.8-4.2c0.9-1.3,2.3-2,3.9-1.9
		c0.2,0,0.4,0.1,0.7,0.1c-0.1,0.2-0.2,0.4-0.3,0.5c-3.2,3-5.4,6.7-7.4,10.5c-0.9,1.7-1.5,3.5-2.2,5.3c-0.2,0.5-0.2,1.1-0.3,1.6
		c0,0.8,0.2,1,0.9,0.7c0.5-0.2,0.9-0.5,1.3-0.8c2.5-2.1,4.8-4.6,7-7c1.7-2,3.4-3.9,5.6-5.4c0.8-0.6,1.6-1.1,2.6-1.2
		c0.3,0,0.7,0,0.8,0.2c0.1,0.1,0,0.6-0.1,0.8c-3.7,6.3-7,12.9-11.2,19c-2.3,3.3-4.6,6.4-7.7,9c-0.6,0.5-1.3,0.9-1.9,1.4
		c-0.1,0.1-0.4,0-0.6,0c0-0.2-0.1-0.5,0-0.6c0.2-0.5,0.5-0.9,0.8-1.3c0.6-0.7,1.1-1.3,1.7-1.8c2.3-1.9,4.1-4.4,5.7-6.9
		c3.1-4.6,5.8-9.5,8.2-14.5c0.1-0.2,0.1-0.4,0.2-0.6C263.3,300.3,263.2,300.2,263.2,300.2z"/>
	<path d="M389.5,309.8c-1.1,0.3-2.2,0.7-3.2,0.9c-1.3,0.3-2.6,0.4-3.9,0.7c-0.3,0-0.6,0.2-0.8,0.4c-0.7,0.7-1.3,1.5-2.1,2.1
		c-0.5,0.4-1.2,0.8-1.9,0.9c-0.9,0.3-1.4-0.1-1.6-1c-0.3-0.9,0-1.9,0.3-2.8c0-0.2,0.1-0.4,0.3-0.7c-0.3,0.1-0.4,0.2-0.6,0.3
		c-2.3,1-4.5,2-6.8,2.9c-0.4,0.2-0.8,0.3-1.3,0.3c-1,0.1-1.6-0.3-1.8-1.3c-0.1-0.4-0.1-0.8-0.2-1.3c-0.2,0.1-0.3,0.2-0.4,0.3
		c-1.4,1-2.8,2-4.2,3c-0.4,0.3-0.9,0.5-1.4,0.7c-1,0.3-2.2-0.9-1.6-1.9c0.4-0.7,0.7-1.5,1.2-2.1c1.5-1.8,3.1-3.5,5.1-4.8
		c0.8-0.6,1.7-1,2.7-1.4c1-0.3,2.3,1,2.2,2.1c-0.2,0-0.4-0.1-0.5-0.1c-0.8-0.5-1.6-0.4-2.4,0c-1.5,0.8-2.9,1.9-4.1,3.1
		c-0.8,0.8-1.5,1.7-2.2,2.5c-0.1,0.1-0.1,0.4-0.2,0.7c0.2,0,0.5,0.1,0.7,0c1.2-0.7,2.4-1.3,3.5-2c1.2-0.8,2.4-1.5,3.2-2.8
		c0.3-0.4,1.5-0.4,1.8,0c0.1,0.1,0,0.5-0.1,0.6c-0.4,0.6-0.9,1.2-1.3,1.8c-0.2,0.4-0.4,0.8-0.5,1.2c-0.1,0.5,0,0.7,0.5,0.6
		c0.6-0.1,1.2-0.3,1.8-0.5c2.6-1.1,5.2-2.3,7.8-3.5c0.2-0.1,0.4-0.3,0.5-0.5c0.8-0.8,1.5-1.7,2.2-2.5c0.5-0.6,2.3-0.3,2.7,0.3
		c0.1,0.2,0.1,0.4-0.2,0.4c-1.1,0-1.9,0.7-2.5,1.5c-0.8,1.1-1.6,2.2-2.3,3.3c-0.3,0.4-0.3,1-0.4,1.5c0,0.3,0.1,0.5,0.5,0.4
		c1.2-0.3,2.2-1,2.8-2.1c-0.6-0.7-0.6-1,0-1.7c0.4-0.5,0.9-0.9,1.5-1.3c0.2-0.1,0.4-0.2,0.6-0.2c0.7-0.1,1,0.2,0.8,0.9
		c0,0.2-0.2,0.4-0.3,0.6c-0.1,0.1-0.1,0.3-0.3,0.7c0.8,0,1.5,0,2.1-0.2c1.7-0.5,3.4-1,5.2-1.5c0.2,0,0.4-0.3,0.6-0.5
		c0.7-1.3,1.2-2.6,1.3-4c0-0.1,0-0.2,0.1-0.4c1.1,0,1.7,0.8,1.4,1.9c-0.1,0.5-0.4,1-0.5,1.5c2.9-2.1,5.9-4,9.7-4
		c-0.1,0.1-0.3,0.3-0.5,0.3c-2.8,1.1-5.2,2.8-7.7,4.6c-2.7,2-4.9,4.5-6.7,7.4c0,0.1-0.2,0.3-0.3,0.3c-0.1,0-0.3-0.2-0.3-0.3
		c-0.2-0.5-0.2-1,0-1.5c0.5-0.8,1-1.7,1.5-2.5C389,310.7,389.2,310.3,389.5,309.8z"/>
	<path d="M346.6,298.7c1.1-0.2,2.1-0.4,3-0.5c1.1-0.1,2.3-0.3,3.3-0.4c0.4,0,0.9-0.2,1,0.5c0,0.7-0.6,1.4-1.1,1.3
		c-2.2-0.4-4.2,0-6.3,0.4c-0.5,0.1-0.8,0.3-1.1,0.7c-2.7,3.9-5.4,7.9-7.4,12.3c-0.3,0.8-0.6,1.5-0.8,2.3c-0.3,1.1,0.2,1.6,1.3,1.3
		c1.2-0.4,2.3-0.9,3.5-1.6c2.5-1.5,5-3.1,7.6-4.6c0.2-0.1,0.5-0.3,0.7-0.4c1-0.3,1.5-1,2-1.9c0.8-1.4,1.3-2.8,1.5-4.3
		c0-0.3,0.1-0.4,0.4-0.3c0.9,0.2,1.3,0.9,1.1,1.8c-0.1,0.5-0.4,1-0.6,1.7c3-2.3,6-4.1,9.8-4.2c-0.1,0.1-0.3,0.3-0.4,0.3
		c-3,1.2-5.5,3.1-8.1,5c-2.5,1.9-4.5,4.3-6.2,7c-0.1,0.1-0.3,0.3-0.3,0.3c-0.1-0.1-0.3-0.2-0.4-0.4c-0.2-0.5-0.2-1,0-1.5
		c0.4-0.8,0.8-1.5,1.3-2.3c-0.3,0.2-0.6,0.3-0.8,0.5c-2.4,1.6-4.9,3.3-7.4,4.8c-1.1,0.7-2.3,1.3-3.5,1.7c-1.7,0.7-2.4,0.1-2.6-1.7
		c-0.2-2.6,0.7-4.8,1.9-7c1.4-2.3,2.8-4.6,4.2-6.9c0.5-0.8,0.8-1.5,1.4-2.3c-0.4,0-0.6,0-0.8,0.1c-1.4,0-2.7,0.2-4,0.1
		c-1.1,0-2.1-0.6-2.7-1.6c-0.2-0.3-0.2-0.8-0.2-1.1c0.3,0,0.8,0,1,0.2c1.6,1.3,3.5,1.3,5.5,1.2c1.4,0,2.5-0.3,3.1-1.8
		c0.5-1.1,1.2-2.2,1.8-3.3c0.3-0.6,1.5-1,2-0.6c0.5,0.3,0.2,0.7,0,1c-0.4,0.7-0.8,1.3-1.3,1.9c-0.3,0.5-0.7,1-1,1.6
		C346.8,298.2,346.7,298.4,346.6,298.7z"/>
	<path d="M313.3,304.4c-0.6,0.1-1.1,0.3-1.5,0.4c-0.3,0-0.6,0.1-0.8,0.1c0-0.3,0.1-0.6,0.2-0.9c0.5-1.2,1.5-1.5,2.6-1.6
		c0.8,0,1.1-0.4,1.5-1c1.1-2,2.4-3.9,3.6-5.8c0.1-0.2,0.2-0.3,0.3-0.6c-0.4,0-0.8,0-1.1-0.1c-0.5,0-0.6-0.2-0.3-0.7
		c0.5-0.8,1.3-1.2,2.2-1.3c3.5-0.2,7-0.3,10.5,0c0.4,0,0.8,0.1,1.3,0.2c0.4,0.1,0.5,0.4,0.2,0.7c-0.3,0.2-0.7,0.5-1.1,0.5
		c-2.7,0.1-5.4,0.1-8.1,0.3c-0.3,0-0.7,0.2-0.8,0.4c-1.5,2.1-3,4.2-4.5,6.3c-0.1,0.2-0.2,0.4-0.4,0.7c1.1-0.1,2.1-0.2,3.1-0.2
		c1.4,0,2.8,0,4.2,0c0.2,0,0.6,0.2,0.7,0.3c0,0.2-0.1,0.5-0.3,0.8c-0.3,0.4-0.8,0.5-1.3,0.5c-1.4,0-2.7,0.1-4.1,0.2
		c-0.9,0.1-1.9,0.2-2.8,0.4c-0.2,0-0.6,0.2-0.7,0.4c-1.6,2.8-3.2,5.6-4.5,8.6c-0.2,0.4-0.3,0.9-0.5,1.3c-0.1,0.6,0,0.7,0.6,0.7
		c1.8-0.1,3.7-0.2,5.5-0.3c1.3,0,2.7,0,4,0c0.5,0,0.8,0.3,1,0.7c0.1,0.2,0.1,0.5,0,0.8c0,0.1-0.4,0.1-0.6,0.1c-2,0-4.1,0-6.1,0.2
		c-2.3,0.2-4.5,0.6-6.8,0.8c-0.9,0.1-1.1-0.2-0.8-1c0.1-0.2,0.2-0.5,0.4-0.7c0.7-0.7,0.9-1.5,1.3-2.3c1.2-2.7,2.5-5.4,3.7-8.2
		C313.1,304.8,313.2,304.7,313.3,304.4z"/>
	<path d="M579.8,293.1c0.9,0.1,1.8,0.4,2.3,1.3c0.3,0.5,0.1,0.8-0.4,0.8c-0.9,0.1-1.8,0.1-2.6,0.4c-5.4,1.5-10.2,4-14.4,7.7
		c-1.5,1.3-1.4,1.9,0.4,2.6c1.6,0.7,3.4,1.3,5,1.9c0.9,0.4,1.9,0.8,2.7,1.3c1.3,0.8,1.5,1.8,0.8,3c-0.5,0.8-1.1,1.6-1.8,2.3
		c-3.5,3.1-7.5,5.4-12.1,6.6c-0.4,0.1-0.8,0.1-1.3,0.2c-0.4,0-0.5-0.1-0.4-0.5c0.3-0.6,0.7-1.1,1.4-1.3c3.3-0.8,6.2-2.4,8.8-4.6
		c0.8-0.7,1.5-1.4,2.2-2.2c1-1.2,0.8-2-0.6-2.6c-1.7-0.8-3.6-1.4-5.4-2.1c-0.6-0.2-1.2-0.4-1.8-0.6c-1.7-0.6-2.2-1.9-1.1-3.3
		c0.7-0.9,1.5-1.8,2.5-2.6c4.2-3.4,8.8-6,13.8-7.9c0.4-0.1,0.8-0.3,1.2-0.4C579.3,293.1,579.5,293.1,579.8,293.1z"/>
	<path d="M508,294.8c-0.8,0-1.3,0-1.9,0c-0.2,0-0.4,0-0.6,0c-0.1,0-0.3,0-0.4-0.1c0-0.1,0-0.3,0.1-0.4c0.4-0.6,1-1,1.7-1
		c0.3,0,0.6,0,0.8,0c0.8,0,1.6,0,2.3-0.7c0.3-0.3,0.9-0.4,1.4-0.5c0.8-0.1,0.8,0,0.6,0.8c0.7,0,1.4,0,2,0c1.9,0,3.7,0.1,5.6,0.1
		c0.4,0,0.7,0.2,0.8,0.7c0.1,0.8,0,0.9-0.8,0.8c-0.8-0.1-1.7-0.1-2.6-0.1c-2,0.1-3.9,0.2-5.9,0.3c-0.2,0-0.5,0.1-0.6,0.3
		c-1.5,2.1-2.9,4.1-4.3,6.2c-0.1,0.1-0.1,0.3-0.1,0.5c0.1,0,0.3,0.1,0.5,0.1c1.4,0,2.7,0,4.1,0c0.7,0,1.2,0.3,1.5,0.9
		c0.2,0.5,0,0.7-0.4,0.6c-2.2-0.2-4.4,0.2-6.6,0.5c-0.2,0-0.6,0.2-0.7,0.4c-2.5,3.7-5,7.4-6.5,11.6c-0.4,1.2-0.8,2.4-0.8,3.7
		c0,0.2-0.2,0.4-0.3,0.6c-0.2-0.1-0.5-0.2-0.6-0.4c-0.7-1.1-0.7-2.3-0.4-3.6c0.3-1.5,1.1-2.7,1.8-3.9c1.3-2.4,2.6-4.7,4-7.1
		c0.1-0.2,0.2-0.5,0.3-0.7c0,0,0-0.1-0.1-0.2c-0.6,0.1-1.2,0.2-1.7,0.4c-0.3,0-0.7,0.1-1.1,0.1c0.1-0.4,0.2-0.8,0.4-1.1
		c0.6-0.8,1.4-1.3,2.4-1.3c1.1,0,1.7-0.4,2.3-1.4c1-1.7,2.2-3.4,3.2-5.1C507.5,295.5,507.7,295.3,508,294.8z"/>
	<path d="M284.5,311.3c-0.8,0.7-1.7,1.4-2.6,2c-0.9,0.7-1.9,1.3-2.9,1.9c-1.2,0.7-2.1,0.2-2.3-1.2c-0.2-1.2,0-2.3,0.5-3.3
		c0.1-0.2,0.1-0.4,0.3-0.7c-0.2,0-0.4,0.1-0.6,0.1c-2,0.6-3.9,1.2-6.1,1.3c-0.2,0-0.6,0.2-0.8,0.4c-0.8,0.8-1.5,1.6-2.4,2.3
		c-0.5,0.4-1.2,0.6-1.8,0.8c-0.7,0.1-1.1-0.1-1.3-0.8c-0.3-0.9-0.2-1.8,0.1-2.6c0.8-2.3,2.2-4.2,4-5.8c0.6-0.5,2.2-0.2,2.6,0.4
		c0.2,0.2,0.1,0.4-0.2,0.5c-1,0-1.8,0.6-2.3,1.4c-0.8,1.1-1.6,2.1-2.4,3.2c-0.3,0.5-0.4,1.1-0.5,1.7c-0.1,0.4,0.1,0.6,0.6,0.4
		c1.2-0.3,2.1-1,2.8-2c-0.6-0.8-0.6-1.1,0-1.8c0.4-0.5,0.9-0.8,1.4-1.2c0.2-0.1,0.4-0.2,0.6-0.2c0.8-0.1,1,0.2,0.8,0.9
		c-0.1,0.3-0.3,0.7-0.6,1.2c0.8,0,1.5,0,2.1-0.2c1.5-0.4,3-0.8,4.5-1.3c0.2,0,0.4-0.3,0.5-0.4c0.9-1.2,1.8-2.4,2.7-3.6
		c0.4-0.6,0.9-0.5,1.4,0c0.4,0.4,0.4,0.8-0.1,1.3c-2,1.9-3.5,4-4.4,6.6c-0.1,0.3-0.1,0.7-0.1,1c0.3,0,0.7,0,1-0.1
		c2.7-1.1,5-2.8,6.9-5.1c0.6-0.8,1.4-0.8,2.3-0.7c0.3,0,0.4,0.2,0.3,0.6c-0.1,0.1-0.2,0.3-0.3,0.4c-1.1,1.7-2.2,3.4-3.3,5.1
		c-0.1,0.1-0.2,0.2-0.3,0.3c-0.1-0.1-0.2-0.2-0.2-0.3c0-0.5,0-1.1,0.1-1.6c0-0.2,0.1-0.5,0.2-0.7
		C284.5,311.4,284.5,311.4,284.5,311.3z"/>
	<path d="M480.3,311.5c-0.2,0.1-0.4,0.3-0.6,0.4c-1.3,0.8-2.6,1.7-3.9,2.5c-0.2,0.1-0.4,0.2-0.6,0.3c-1.5,0.6-2.3,0.1-2.3-1.6
		c0-1,0.3-2.1,0.7-3c1-2.4,2.5-4.6,4.2-6.5c0.7-0.8,1.5-0.9,2.4-0.6c0.4,0.2,0.5,0.4,0.1,0.7c-2.5,2.1-4.3,4.7-5.7,7.6
		c-0.2,0.5-0.3,1-0.4,1.5c-0.1,0.4,0.2,0.6,0.6,0.5c0.5-0.1,1-0.2,1.5-0.4c2-0.9,3.8-2.2,5.4-3.7c0.5-0.4,0.8-1,1.2-1.5
		c0.5-0.8,1.7-0.9,2.5-0.6c0.4,0.2,0.3,0.4,0,0.7c-0.9,1.3-1.9,2.5-2.8,3.9c-3,5-5.9,10.1-8.8,15.2c-0.2,0.3-0.5,0.6-0.8,0.8
		c-0.1-0.4-0.3-0.8-0.3-1.1c0-1.1,0.4-2,1.1-2.9c0.4-0.5,0.7-1.1,1-1.6c1.8-3.2,3.6-6.5,5.4-9.8c0.1-0.2,0.2-0.5,0.4-0.8
		C480.4,311.6,480.3,311.5,480.3,311.5z"/>
	<path d="M629.3,309.2c0.2,0.7,0,1.4-0.7,1.7c-1.5,0.8-3,1.8-4.6,2.5c-2.1,0.9-4.2,1.8-6.4,2.5c-2.8,0.8-4.6-1.1-3.8-3.9
		c1-3.2,2.9-5.9,5.8-7.7c0.7-0.4,1.5-0.8,2.2-0.1c0.8,0.7,1.1,1.6,0.8,2.6c-0.4,1.1-1.2,1.9-2.1,2.5c-1.3,1-2.8,1.7-4.5,2.1
		c-0.6,0.1-0.8,0.4-1,0.9c-0.1,0.4-0.2,0.8-0.3,1.1c-0.1,0.8,0.2,1.2,1,1.2c0.8,0,1.7-0.2,2.5-0.4c3.1-1,6-2.6,8.9-4.1
		C628,309.9,628.6,309.5,629.3,309.2z M616.4,310.2c0.3-0.1,0.5-0.1,0.7-0.2c1.5-0.8,2.9-1.7,3.9-3.2c0.1-0.2,0.3-0.5,0.3-0.8
		c0-0.2,0-0.5,0-0.6c-0.1-0.1-0.4,0-0.6,0c-0.4,0.2-0.8,0.4-1,0.7c-1,1.1-1.9,2.2-2.9,3.3C616.7,309.6,616.6,309.9,616.4,310.2z"/>
	<path d="M338.1,245c-1.3,0-2.1-0.6-2.8-1.4c-1.2-1.5-1-3.9,0.4-5.3c1.3-1.3,3.2-1.3,4.6,0c2.1,2.1,1.3,5.8-1.5,6.6
		C338.5,244.9,338.2,244.9,338.1,245z"/>
	<path d="M340.6,302.5c-0.1,0.1-0.3,0.2-0.5,0.3c-3.1,1.4-5.8,3.5-8.5,5.6c-0.1,0.1-0.3,0.4-0.3,0.6c0.1,1.6,0.2,3.2,0.3,4.7
		c0,0.3,0.3,0.7,0.5,1c0.2,0.3,0.2,0.5-0.1,0.6c-0.4,0.1-0.9,0.3-1.4,0.3c-0.5,0-0.6-0.4-0.6-0.8c-0.1-1.1-0.2-2.3-0.3-3.4
		c0-0.5,0-0.9,0-1.5c-0.3,0.1-0.5,0.2-0.6,0.3c-1.3,1.1-2.6,2.2-3.9,3.2c-0.3,0.3-0.7,0.6-1.1,0.8c-0.2-0.8-0.2-1.6,0.4-2.2
		c0.8-0.8,1.7-1.5,2.5-2.1c0.7-0.5,1.5-1,2.2-1.5c0.1-0.1,0.3-0.4,0.3-0.6c0-0.8-0.1-1.5-0.3-2.3c0-0.3-0.3-0.5-0.5-0.8
		c0-0.1-0.1-0.4,0-0.5c0.1-0.1,0.3-0.2,0.4-0.3c1.2-0.7,1.6-0.6,1.8,0.8c0.1,0.7,0.1,1.5,0.2,2.3c3-1.8,5.7-4.1,9.3-4.8
		C340.5,302.3,340.5,302.4,340.6,302.5z"/>
	<path d="M294,306.8c3-2.1,5.9-3.9,9.7-4c-0.1,0.1-0.3,0.3-0.5,0.4c-3.1,1.2-5.7,3.1-8.3,5.2c-2.4,1.9-4.3,4.3-6,6.9
		c-0.1,0.1-0.2,0.3-0.3,0.3c-0.1,0-0.3-0.2-0.3-0.3c0-0.4-0.1-0.9,0-1.3c0.3-0.8,0.8-1.5,1.3-2.3c0.9-1.5,1.9-3,2.6-4.6
		c0.4-0.9,0.6-2,0.8-3c0.1-0.4,0.2-0.5,0.6-0.4c0.8,0.3,1.2,0.8,0.9,1.7C294.4,305.8,294.2,306.3,294,306.8z"/>
	<path d="M424.1,299.7c0,0.5-0.5,1-1.2,1.2c-0.4,0.1-0.7,0.2-1.1,0.3c-0.4,0.1-0.8-0.1-0.7-0.5c0.1-0.3,0.2-0.8,0.5-0.9
		c0.4-0.3,0.9-0.6,1.5-0.8C423.8,298.7,424.1,299,424.1,299.7z"/>
	<path d="M416.5,271.3c0,3.7-1,7-3.6,9.8c-1.8,2-4.1,3.2-6.8,3.8c-3.1,0.7-6.2,0.6-9.2-0.5c-4.7-1.7-7.4-5.2-8.3-10.1
		c-0.6-3.2-0.3-6.3,1.1-9.3c1.9-4.1,5.3-6.5,9.8-7.2c3.1-0.5,6.1-0.3,9,0.8c4.7,1.9,7.2,5.6,7.9,10.5
		C416.5,269.7,416.5,270.5,416.5,271.3z M410.8,271.5c0-1-0.2-2.6-0.7-4.2c-0.8-2.5-2-4.8-4.2-6.3c-1.8-1.3-3.9-1.8-6.1-1.2
		c-2,0.5-3.3,2-4.1,3.8c-1.5,3.2-1.8,6.6-1.2,10c0.4,2.5,1.4,4.9,3.1,6.8c1.8,2,4,2.9,6.6,2.7c2.4-0.2,3.9-1.7,5-3.7
		C410.3,277.1,410.8,274.6,410.8,271.5z"/>
</g>
</svg>
