<?xml version="1.0" encoding="UTF-8"?>
<svg xmlns="http://www.w3.org/2000/svg" xmlns:xlink="http://www.w3.org/1999/xlink" version="1.2" >
<font id="Circular Book">
<font-face  font-family="Circular" units-per-em="1000" ascent="809" descent="-191" font-style="normal" font-weight="400" font-stretch="normal" cap-height="709" x-height="481" underline-position="-155" underline-thickness="80" />
<missing-glyph  horiz-adv-x="562" d="M80 709 L482 709 L482 0 L80 0 L80 709 Z M403 79 L403 630 L159 630 L159 79 L403 79 Z " />
<glyph glyph-name="space" unicode="&#x20;" horiz-adv-x="250" d="" />
<glyph glyph-name="exclam" unicode="&#x21;" horiz-adv-x="311" d="M189 203 L122 203 L96 709 L214 709 L189 203 Z M90 60 Q90 87 109 106.5 Q128 126 155 126 Q182 126 201.5 106.5 Q221 87 221 60 Q221 33 201.5 14 Q182 -5 155 -5 Q128 -5 109 14 Q90 33 90 60 Z " />
<glyph glyph-name="quotedbl" unicode="&#x22;" horiz-adv-x="374" d="M40 599 Q40 626 57 643 Q74 660 101 660 Q127 660 144 643 Q161 626 161 599 Q161 591 159 581 L117 393 L83 393 L42 580 Q40 590 40 599 Z M213 599 Q213 626 230 643 Q247 660 274 660 Q300 660 317 643 Q334 626 334 599 Q334 591 332 581 L290 393 L256 393 L215 580 Q213 590 213 599 Z " />
<glyph glyph-name="numbersign" unicode="&#x23;" horiz-adv-x="738" d="M99 481 L243 481 L279 648 L363 648 L327 481 L469 481 L505 648 L589 648 L553 481 L688 481 L688 405 L537 405 L503 245 L639 245 L639 169 L486 169 L450 0 L366 0 L402 169 L260 169 L224 0 L140 0 L176 169 L50 169 L50 245 L193 245 L227 405 L99 405 L99 481 Z M277 245 L419 245 L453 405 L311 405 L277 245 Z " />
<glyph glyph-name="dollar" unicode="&#x24;" horiz-adv-x="595" d="M268 -117 L268 -13 Q216 -8 177 11.5 Q138 31 111 58.5 Q84 86 69 119 Q54 152 50 185 L145 215 Q147 191 155.5 168 Q164 145 179 126 Q194 107 216 93.5 Q238 80 268 75 L268 284 L243 289 Q166 305 121.5 351 Q77 397 77 471 Q77 507 91 539 Q105 571 130.5 596.5 Q156 622 191 639 Q226 656 268 661 L268 766 L346 766 L346 660 Q392 654 425 637 Q458 620 480 597 Q502 574 514.5 547.5 Q527 521 533 497 L443 464 Q441 478 434 494 Q427 510 415 525 Q403 540 386 552.5 Q369 565 346 571 L346 366 L361 363 Q445 346 492 295.5 Q539 245 539 177 Q539 144 526.5 112 Q514 80 490 54 Q466 28 430 10.5 Q394 -7 346 -13 L346 -117 L268 -117 Z M441 172 Q441 204 418 230.5 Q395 257 346 268 L346 75 Q395 84 418 110.5 Q441 137 441 172 Z M176 475 Q176 443 196.5 418.5 Q217 394 268 384 L268 574 Q224 566 200 539 Q176 512 176 475 Z " />
<glyph glyph-name="percent" unicode="&#x25;" horiz-adv-x="817" d="M138 498 Q138 463 160.5 441 Q183 419 215 419 Q248 419 270 441 Q292 463 292 498 Q292 532 270 554 Q248 576 215 576 Q183 576 160.5 554 Q138 532 138 498 Z M55 498 Q55 531 68 559.5 Q81 588 103 609.5 Q125 631 154 643 Q183 655 215 655 Q247 655 276.5 643 Q306 631 328 609.5 Q350 588 363 559.5 Q376 531 376 498 Q376 465 363 436 Q350 407 328 385.5 Q306 364 276.5 352 Q247 340 215 340 Q183 340 154 352 Q125 364 103 385.5 Q81 407 68 436 Q55 465 55 498 Z M534 150 Q534 115 556.5 93 Q579 71 611 71 Q644 71 666 93 Q688 115 688 150 Q688 184 666 206 Q644 228 611 228 Q579 228 556.5 206 Q534 184 534 150 Z M451 150 Q451 183 464 211.5 Q477 240 499 261.5 Q521 283 550 295 Q579 307 611 307 Q643 307 672.5 295 Q702 283 724 261.5 Q746 240 759 211.5 Q772 183 772 150 Q772 117 759 88 Q746 59 724 37.5 Q702 16 672.5 4 Q643 -8 611 -8 Q579 -8 550 4 Q521 16 499 37.5 Q477 59 464 88 Q451 117 451 150 Z M135 0 L601 648 L691 648 L227 0 L135 0 Z " />
<glyph glyph-name="ampersand" unicode="&#x26;" horiz-adv-x="697" d="M474 94 Q430 45 382.5 16.5 Q335 -12 275 -12 Q225 -12 186.5 3.5 Q148 19 122 44.5 Q96 70 83 102.5 Q70 135 70 169 Q70 203 79 230.5 Q88 258 104.5 281.5 Q121 305 144 325.5 Q167 346 195 367 L205 375 L192 389 Q180 402 165 418.5 Q150 435 137 455 Q124 475 115.5 498 Q107 521 107 547 Q107 590 123 623 Q139 656 165.5 678.5 Q192 701 224.5 712.5 Q257 724 290 724 Q330 724 364.5 712 Q399 700 424 677.5 Q449 655 463.5 623 Q478 591 478 551 Q478 525 469.5 502.5 Q461 480 447 460.5 Q433 441 415 424.5 Q397 408 378 394 L342 367 L474 230 L632 406 L632 277 L536 166 L697 0 L564 0 L474 94 Z M276 78 Q317 78 348 101 Q379 124 408 156 L411 160 L267 311 L231 284 Q205 264 188 239 Q171 214 171 177 Q171 159 178.5 141.5 Q186 124 199.5 109.5 Q213 95 232.5 86.5 Q252 78 276 78 Z M204 553 Q204 538 209 524 Q214 510 222 497.5 Q230 485 239.5 474 Q249 463 258 454 L280 430 L328 466 Q360 489 370.5 510 Q381 531 381 554 Q381 589 355.5 614.5 Q330 640 291 640 Q276 640 260.5 634.5 Q245 629 232.5 617.5 Q220 606 212 590 Q204 574 204 553 Z " />
<glyph glyph-name="quotesingle" unicode="&#x27;" horiz-adv-x="201" d="M40 599 Q40 626 57 643 Q74 660 101 660 Q127 660 144 643 Q161 626 161 599 Q161 591 159 581 L117 393 L83 393 L42 580 Q40 590 40 599 Z " />
<glyph glyph-name="parenleft" unicode="&#x28;" horiz-adv-x="302" d="M55 317 Q55 399 69.5 468.5 Q84 538 109.5 596.5 Q135 655 170 704 Q205 753 245 794 L302 744 Q225 658 180.5 553.5 Q136 449 136 317 Q136 185 180.5 80 Q225 -25 302 -110 L245 -160 Q205 -119 170 -70 Q135 -21 109.5 37.5 Q84 96 69.5 165.5 Q55 235 55 317 Z " />
<glyph glyph-name="parenright" unicode="&#x29;" horiz-adv-x="302" d="M247 317 Q247 235 232.5 165.5 Q218 96 192.5 37.5 Q167 -21 132 -70 Q97 -119 57 -160 L0 -110 Q76 -25 121 80 Q166 185 166 317 Q166 383 154.5 442 Q143 501 121.5 554 Q100 607 69 654 Q38 701 0 744 L57 794 Q97 753 132 704 Q167 655 192.5 596.5 Q218 538 232.5 468.5 Q247 399 247 317 Z " />
<glyph glyph-name="asterisk" unicode="&#x2a;" horiz-adv-x="440" d="M259 575 L382 617 L405 545 L281 504 L363 399 L302 353 L219 462 L141 354 L80 400 L159 504 L35 545 L58 617 L180 574 L180 709 L259 709 L259 575 Z " />
<glyph glyph-name="plus" unicode="&#x2b;" horiz-adv-x="567" d="M242 327 L242 522 L324 522 L324 327 L512 327 L512 248 L324 248 L324 51 L242 51 L242 248 L55 248 L55 327 L242 327 Z " />
<glyph glyph-name="comma" unicode="&#x2c;" horiz-adv-x="294" d="M70 64 Q70 91 90.5 111 Q111 131 143 131 Q175 131 199.5 107.5 Q224 84 224 36 Q224 -14 209.5 -49.5 Q195 -85 173 -108 Q151 -131 125 -143.5 Q99 -156 76 -159 L76 -107 Q94 -103 109.5 -92.5 Q125 -82 135.5 -67 Q146 -52 152.5 -34.5 Q159 -17 159 1 Q157 -1 151 -2.5 Q145 -4 137 -4 Q109 -4 89.5 14 Q70 32 70 64 Z " />
<glyph glyph-name="hyphen" unicode="&#x2d;" horiz-adv-x="361" d="M45 246 L45 328 L316 328 L316 246 L45 246 Z " />
<glyph glyph-name="period" unicode="&#x2e;" horiz-adv-x="279" d="M70 64 Q70 93 90 113.5 Q110 134 139 134 Q168 134 188.5 113.5 Q209 93 209 64 Q209 35 188.5 15 Q168 -5 139 -5 Q110 -5 90 15 Q70 35 70 64 Z " />
<glyph glyph-name="slash" unicode="&#x2f;" horiz-adv-x="434" d="M91 0 L0 0 L343 709 L434 709 L91 0 Z " />
<glyph glyph-name="zero" unicode="0" horiz-adv-x="614" d="M147 324 Q147 174 204 114 Q223 94 247.5 83 Q272 72 307 72 Q342 72 366.5 83 Q391 94 410 114 Q467 174 467 324 Q467 474 410 534 Q391 554 366.5 565 Q342 576 307 576 Q272 576 247.5 565 Q223 554 204 534 Q147 474 147 324 Z M50 324 Q50 391 63 451 Q76 511 108 559 Q140 607 189 635 Q238 663 307 663 Q376 663 425 635 Q474 607 506 559 Q538 511 551 451 Q564 391 564 324 Q564 257 551 197 Q538 137 506 89 Q474 41 425 13 Q376 -15 307 -15 Q238 -15 189 13 Q140 41 108 89 Q76 137 63 197 Q50 257 50 324 Z " />
<glyph glyph-name="one" unicode="1" horiz-adv-x="353" d="M182 0 L182 457 L25 457 L25 526 Q93 528 137 561.5 Q181 595 192 648 L278 648 L278 0 L182 0 Z " />
<glyph glyph-name="two" unicode="2" horiz-adv-x="529" d="M43 427 Q42 434 42 440.5 Q42 447 42 453 Q42 495 57 533 Q72 571 100.5 600 Q129 629 171 646 Q213 663 266 663 Q318 663 359 647 Q400 631 428 604 Q456 577 470.5 540.5 Q485 504 485 464 Q485 400 452 349.5 Q419 299 363 264 L235 182 Q207 164 185 142.5 Q163 121 156 91 L489 91 L489 0 L35 0 Q36 40 44.5 75 Q53 110 71.5 142 Q90 174 119 202.5 Q148 231 189 258 L297 328 Q343 357 364.5 391 Q386 425 386 463 Q386 485 378.5 505.5 Q371 526 356 542 Q341 558 318 567.5 Q295 577 264 577 Q232 577 208.5 566.5 Q185 556 169.5 538 Q154 520 146.5 496 Q139 472 139 444 Q139 437 139.5 430 Q140 423 141 415 L43 427 Z " />
<glyph glyph-name="three" unicode="3" horiz-adv-x="553" d="M177 382 L368 558 L58 558 L58 648 L498 648 L498 560 L313 389 Q349 389 384.5 377 Q420 365 448.5 340.5 Q477 316 495 279 Q513 242 513 192 Q513 151 497.5 113.5 Q482 76 452 47 Q422 18 378.5 1 Q335 -16 278 -16 Q222 -16 178 1 Q134 18 103.5 46.5 Q73 75 56 111.5 Q39 148 37 188 L133 210 Q134 178 146 152 Q158 126 177.5 108 Q197 90 222.5 80 Q248 70 277 70 Q310 70 336 79.5 Q362 89 379 105.5 Q396 122 405 144 Q414 166 414 190 Q414 222 402.5 245 Q391 268 372 282.5 Q353 297 329.5 304 Q306 311 282 311 Q253 311 225 301 L177 382 Z " />
<glyph glyph-name="four" unicode="4" horiz-adv-x="574" d="M35 259 L313 648 L448 648 L448 237 L559 237 L559 146 L448 146 L448 0 L353 0 L353 146 L35 146 L35 259 Z M353 554 L125 237 L353 237 L353 554 Z " />
<glyph glyph-name="five" unicode="5" horiz-adv-x="548" d="M129 204 Q134 144 174 107 Q214 70 275 70 Q304 70 329.5 79 Q355 88 373.5 105.5 Q392 123 403 147 Q414 171 414 201 Q414 234 402.5 259.5 Q391 285 372 301.5 Q353 318 327.5 326.5 Q302 335 274 335 Q239 335 208 322.5 Q177 310 156 288 Q130 298 107.5 307.5 Q85 317 60 326 L144 648 L486 648 L486 558 L209 558 L161 372 Q183 396 219 408 Q255 420 293 420 Q341 420 381 405 Q421 390 450.5 362.5 Q480 335 496.5 295 Q513 255 513 205 Q513 159 496 119 Q479 79 448 49 Q417 19 373 1.5 Q329 -16 275 -16 Q223 -16 180.5 -0.5 Q138 15 106.5 41.5 Q75 68 56.5 103 Q38 138 35 176 L129 204 Z " />
<glyph glyph-name="six" unicode="6" horiz-adv-x="580" d="M495 547 Q477 558 446.5 566.5 Q416 575 379 575 Q328 575 287.5 557.5 Q247 540 217.5 509 Q188 478 171 435.5 Q154 393 151 343 Q171 375 214 401 Q257 427 322 427 Q370 427 410.5 412.5 Q451 398 481 369.5 Q511 341 527.5 300 Q544 259 544 206 Q544 154 524.5 113 Q505 72 472 43.5 Q439 15 395.5 0 Q352 -15 304 -15 Q257 -15 212 2 Q167 19 131 55 Q95 91 73 148 Q51 205 51 285 Q51 375 76.5 445.5 Q102 516 147 564.5 Q192 613 253 638 Q314 663 385 663 Q430 663 466 653 Q502 643 525 627 L495 547 Z M165 206 Q165 174 177 149 Q189 124 208.5 106.5 Q228 89 253 79.5 Q278 70 305 70 Q333 70 358.5 79 Q384 88 403.5 105.5 Q423 123 434 148.5 Q445 174 445 206 Q445 239 433.5 264.5 Q422 290 403 307.5 Q384 325 358.5 334 Q333 343 305 343 Q277 343 251.5 334 Q226 325 207 307.5 Q188 290 176.5 264.5 Q165 239 165 206 Z " />
<glyph glyph-name="seven" unicode="7" horiz-adv-x="483" d="M478 554 Q455 536 414 495.5 Q373 455 330 387.5 Q287 320 251.5 224.5 Q216 129 204 0 L103 0 Q108 70 122.5 131.5 Q137 193 156.5 245.5 Q176 298 199.5 341.5 Q223 385 247 420 Q302 501 370 558 L5 558 L5 648 L478 648 L478 554 Z " />
<glyph glyph-name="eight" unicode="8" horiz-adv-x="560" d="M280 372 Q332 373 366 401.5 Q400 430 400 478 Q400 522 367.5 552 Q335 582 280 582 Q225 582 192.5 552 Q160 522 160 478 Q160 430 194 401.5 Q228 373 280 372 Z M280 70 Q346 70 381 101.5 Q416 133 416 179 Q416 226 380.5 258 Q345 290 280 290 Q215 290 179.5 258 Q144 226 144 179 Q144 133 179 101.5 Q214 70 280 70 Z M280 -15 Q224 -15 180.5 -0.5 Q137 14 107 39 Q77 64 61 98 Q45 132 45 171 Q45 231 80.5 272.5 Q116 314 168 331 Q146 339 126.5 354 Q107 369 93 388.5 Q79 408 70.5 432 Q62 456 62 483 Q62 523 78.5 556 Q95 589 124.5 613 Q154 637 193.5 650 Q233 663 280 663 Q326 663 366 650 Q406 637 435.5 613 Q465 589 481.5 556 Q498 523 498 483 Q498 430 467.5 389 Q437 348 392 331 Q444 314 479.5 272.5 Q515 231 515 171 Q515 132 499 98 Q483 64 453 39 Q423 14 379.5 -0.5 Q336 -15 280 -15 Z " />
<glyph glyph-name="nine" unicode="9" horiz-adv-x="581" d="M89 104 Q110 91 142.5 82 Q175 73 207 73 Q266 73 308 91 Q350 109 377 140.5 Q404 172 417 213.5 Q430 255 432 303 Q415 271 372.5 245.5 Q330 220 264 220 Q222 220 181.5 234 Q141 248 109.5 276 Q78 304 59 344.5 Q40 385 40 439 Q40 489 59.5 530.5 Q79 572 112 601.5 Q145 631 188 647 Q231 663 279 663 Q327 663 372 645.5 Q417 628 452.5 591.5 Q488 555 509.5 499 Q531 443 531 365 Q531 276 511 205.5 Q491 135 450.5 86 Q410 37 349.5 11 Q289 -15 207 -15 Q188 -15 167 -12 Q146 -9 125.5 -4 Q105 1 87 8 Q69 15 57 23 L89 104 Z M419 441 Q419 472 407 497.5 Q395 523 375.5 540.5 Q356 558 331 567.5 Q306 577 279 577 Q252 577 226.5 567.5 Q201 558 181.5 540.5 Q162 523 150.5 498 Q139 473 139 441 Q139 408 150.5 382.5 Q162 357 181.5 339.5 Q201 322 226 313 Q251 304 279 304 Q306 304 331 313.5 Q356 323 375.5 340.5 Q395 358 407 383.5 Q419 409 419 441 Z " />
<glyph glyph-name="colon" unicode="&#x3a;" horiz-adv-x="290" d="M76 64 Q76 93 96 113.5 Q116 134 145 134 Q174 134 194.5 113.5 Q215 93 215 64 Q215 35 194.5 15 Q174 -5 145 -5 Q116 -5 96 15 Q76 35 76 64 Z M75 416 Q75 445 95 465.5 Q115 486 144 486 Q173 486 193.5 465.5 Q214 445 214 416 Q214 387 193.5 367 Q173 347 144 347 Q115 347 95 367 Q75 387 75 416 Z " />
<glyph glyph-name="semicolon" unicode="&#x3b;" horiz-adv-x="297" d="M75 62 Q75 87 94.5 106 Q114 125 145 125 Q175 125 198.5 103 Q222 81 222 35 Q222 -12 208 -46 Q194 -80 173 -101.5 Q152 -123 127.5 -135 Q103 -147 81 -150 L81 -101 Q98 -97 113 -87 Q128 -77 138 -62.5 Q148 -48 154 -31.5 Q160 -15 160 2 Q158 0 152.5 -1.5 Q147 -3 139 -3 Q113 -3 94 14 Q75 31 75 62 Z M76 416 Q76 445 96 465.5 Q116 486 145 486 Q174 486 194.5 465.5 Q215 445 215 416 Q215 387 194.5 367 Q174 347 145 347 Q116 347 96 367 Q76 387 76 416 Z " />
<glyph glyph-name="less" unicode="&#x3c;" horiz-adv-x="482" d="M35 329 L447 535 L447 440 L137 287 L447 134 L447 39 L35 244 L35 329 Z " />
<glyph glyph-name="equal" unicode="&#x3d;" horiz-adv-x="593" d="M65 346 L65 423 L528 423 L528 346 L65 346 Z M65 151 L65 230 L528 230 L528 151 L65 151 Z " />
<glyph glyph-name="greater" unicode="&#x3e;" horiz-adv-x="482" d="M447 244 L35 39 L35 134 L347 287 L35 440 L35 535 L447 329 L447 244 Z " />
<glyph glyph-name="question" unicode="&#x3f;" horiz-adv-x="510" d="M196 203 Q195 212 195 220 Q195 228 195 238 Q195 288 214 326 Q233 364 278 394 L322 424 Q348 441 361.5 467 Q375 493 375 522 Q375 544 367.5 564.5 Q360 585 345.5 601 Q331 617 308.5 626.5 Q286 636 256 636 Q223 636 199.5 625 Q176 614 161 596 Q146 578 138.5 555 Q131 532 131 508 Q131 495 133 481 Q135 467 138 459 L41 471 Q35 492 35 519 Q35 553 48 589.5 Q61 626 88 656 Q115 686 156.5 705 Q198 724 256 724 Q308 724 349 707 Q390 690 418 662 Q446 634 460.5 597.5 Q475 561 475 523 Q475 463 446 420.5 Q417 378 373 349 L327 318 Q304 302 293.5 276.5 Q283 251 283 222 Q283 218 283 214.5 Q283 211 284 203 L196 203 Z M174 60 Q174 87 193 106.5 Q212 126 239 126 Q266 126 285.5 106.5 Q305 87 305 60 Q305 33 285.5 14 Q266 -5 239 -5 Q212 -5 193 14 Q174 33 174 60 Z " />
<glyph glyph-name="at" unicode="&#x40;" horiz-adv-x="826" d="M601 137 Q566 137 538 152.5 Q510 168 502 201 Q479 169 447 152 Q415 135 383 135 Q349 135 321 147 Q293 159 272.5 181.5 Q252 204 241 235.5 Q230 267 230 306 Q230 356 246 399 Q262 442 289.5 473 Q317 504 353 521.5 Q389 539 430 539 Q446 539 462.5 535 Q479 531 493.5 523 Q508 515 519.5 502.5 Q531 490 537 473 L546 526 L625 526 L571 275 Q568 260 568 247 Q568 230 576.5 218 Q585 206 606 206 Q627 206 646.5 221.5 Q666 237 681 263.5 Q696 290 705 324 Q714 358 714 396 Q714 451 694 497.5 Q674 544 637.5 578 Q601 612 549 631.5 Q497 651 434 651 Q368 651 312 628 Q256 605 214.5 563 Q173 521 150 462.5 Q127 404 127 332 Q127 266 148.5 210 Q170 154 211 113 Q252 72 311 49 Q370 26 445 26 Q500 26 552.5 43 Q605 60 650 96 L691 42 Q669 21 640 4.5 Q611 -12 578.5 -23.5 Q546 -35 511.5 -41 Q477 -47 445 -47 Q357 -47 283.5 -19.5 Q210 8 157 58 Q104 108 74.5 178 Q45 248 45 333 Q45 420 76 492 Q107 564 160 615.5 Q213 667 283.5 695.5 Q354 724 433 724 Q509 724 574.5 699 Q640 674 688 630.5 Q736 587 763.5 527 Q791 467 791 397 Q791 341 776 293.5 Q761 246 735 211 Q709 176 674.5 156.5 Q640 137 601 137 Z M515 370 Q515 415 493.5 439.5 Q472 464 431 464 Q404 464 382 451.5 Q360 439 344.5 418.5 Q329 398 320.5 371.5 Q312 345 312 317 Q312 294 316 274 Q320 254 330 239.5 Q340 225 356.5 216.5 Q373 208 397 208 Q422 208 443.5 220 Q465 232 480.5 253.5 Q496 275 505 305 Q514 335 515 370 Z " />
<glyph glyph-name="A" unicode="A" horiz-adv-x="697" d="M504 198 L190 198 L115 0 L10 0 L292 709 L405 709 L687 0 L581 0 L504 198 Z M225 289 L469 289 L346 607 L225 289 Z " />
<glyph glyph-name="B" unicode="B" horiz-adv-x="602" d="M321 709 Q372 709 411.5 694.5 Q451 680 478.5 654.5 Q506 629 520.5 594 Q535 559 535 517 Q535 460 505.5 420.5 Q476 381 429 364 Q459 356 483 339.5 Q507 323 523.5 300.5 Q540 278 548.5 250.5 Q557 223 557 193 Q557 151 541 115.5 Q525 80 496 54.5 Q467 29 427 14.5 Q387 0 338 0 L90 0 L90 709 L321 709 Z M310 399 Q370 399 403 430.5 Q436 462 436 512 Q436 563 401.5 593 Q367 623 306 623 L188 623 L188 399 L310 399 Z M324 86 Q384 86 420.5 116.5 Q457 147 457 199 Q457 250 425 282.5 Q393 315 328 315 L188 315 L188 86 L324 86 Z " />
<glyph glyph-name="C" unicode="C" horiz-adv-x="750" d="M397 -15 Q328 -15 264.5 9.5 Q201 34 152.5 81 Q104 128 74.5 197 Q45 266 45 355 Q45 444 75 512.5 Q105 581 154.5 628 Q204 675 267.5 699.5 Q331 724 397 724 Q458 724 509 708 Q560 692 600 663 Q640 634 667.5 592 Q695 550 709 499 L618 467 Q598 548 541.5 591 Q485 634 397 634 Q349 634 303.5 616.5 Q258 599 222.5 564 Q187 529 166 476.5 Q145 424 145 355 Q145 286 166 233.5 Q187 181 222.5 145.5 Q258 110 303.5 92.5 Q349 75 397 75 Q442 75 479 88 Q516 101 544.5 123.5 Q573 146 592.5 177.5 Q612 209 623 245 L710 213 Q696 163 668 121 Q640 79 600.5 49 Q561 19 509.5 2 Q458 -15 397 -15 Z " />
<glyph glyph-name="D" unicode="D" horiz-adv-x="720" d="M333 87 Q382 87 426 103.5 Q470 120 503 153 Q536 186 555 236 Q574 286 574 353 Q574 420 555 470.5 Q536 521 503.5 554.5 Q471 588 427.5 605 Q384 622 335 622 L188 622 L188 87 L333 87 Z M90 0 L90 709 L338 709 Q405 709 466.5 686 Q528 663 574 618 Q620 573 647.5 506.5 Q675 440 675 353 Q675 266 647.5 200 Q620 134 573 89.5 Q526 45 464.5 22.5 Q403 0 336 0 L90 0 Z " />
<glyph glyph-name="E" unicode="E" horiz-adv-x="581" d="M90 0 L90 709 L521 709 L521 618 L188 618 L188 400 L490 400 L490 308 L188 308 L188 91 L521 91 L521 0 L90 0 Z " />
<glyph glyph-name="F" unicode="F" horiz-adv-x="551" d="M90 0 L90 709 L521 709 L521 618 L188 618 L188 390 L490 390 L490 298 L188 298 L188 0 L90 0 Z " />
<glyph glyph-name="G" unicode="G" horiz-adv-x="765" d="M625 0 L616 100 Q604 79 584 58.5 Q564 38 535.5 21.5 Q507 5 470.5 -5 Q434 -15 389 -15 Q322 -15 260 9 Q198 33 150 80 Q102 127 73.5 196 Q45 265 45 355 Q45 445 75 514 Q105 583 154.5 629.5 Q204 676 267 700 Q330 724 396 724 Q454 724 504.5 708.5 Q555 693 595.5 665 Q636 637 665.5 597.5 Q695 558 710 510 L621 472 Q597 549 538 591.5 Q479 634 396 634 Q348 634 303 617 Q258 600 223 565 Q188 530 166.5 477.5 Q145 425 145 355 Q145 284 165.5 231.5 Q186 179 220.5 144 Q255 109 299.5 91.5 Q344 74 392 74 Q451 74 492 92.5 Q533 111 559 139 Q585 167 597 199.5 Q609 232 611 259 L365 259 L365 347 L704 347 L704 0 L625 0 Z " />
<glyph glyph-name="H" unicode="H" horiz-adv-x="738" d="M550 0 L550 315 L188 315 L188 0 L90 0 L90 709 L188 709 L188 406 L550 406 L550 709 L648 709 L648 0 L550 0 Z " />
<glyph glyph-name="I" unicode="I" horiz-adv-x="280" d="M90 0 L90 709 L190 709 L190 0 L90 0 Z " />
<glyph glyph-name="J" unicode="J" horiz-adv-x="534" d="M20 257 L118 279 L118 212 Q118 141 152 108.5 Q186 76 240 76 Q294 76 325 109.5 Q356 143 356 205 L356 709 L454 709 L454 212 Q454 165 439.5 124 Q425 83 397 52 Q369 21 329.5 3 Q290 -15 241 -15 Q189 -15 148 1 Q107 17 78.5 47 Q50 77 35 118.5 Q20 160 20 211 L20 257 Z " />
<glyph glyph-name="K" unicode="K" horiz-adv-x="668" d="M289 322 L188 214 L188 0 L90 0 L90 709 L188 709 L188 344 L520 709 L649 709 L354 393 L653 0 L529 0 L289 322 Z " />
<glyph glyph-name="L" unicode="L" horiz-adv-x="548" d="M90 0 L90 709 L188 709 L188 92 L523 92 L523 0 L90 0 Z " />
<glyph glyph-name="M" unicode="M" horiz-adv-x="946" d="M759 0 L759 552 L517 0 L427 0 L187 552 L187 0 L90 0 L90 709 L223 709 L473 132 L725 709 L856 709 L856 0 L759 0 Z " />
<glyph glyph-name="N" unicode="N" horiz-adv-x="763" d="M571 0 L188 578 L188 0 L90 0 L90 709 L221 709 L575 165 L575 709 L673 709 L673 0 L571 0 Z " />
<glyph glyph-name="O" unicode="O" horiz-adv-x="802" d="M145 355 Q145 286 166.5 233.5 Q188 181 223.5 145.5 Q259 110 305 92.5 Q351 75 401 75 Q450 75 496.5 92.5 Q543 110 578.5 145.5 Q614 181 635.5 233.5 Q657 286 657 355 Q657 424 635.5 476.5 Q614 529 578.5 564 Q543 599 496.5 616.5 Q450 634 401 634 Q351 634 305 616.5 Q259 599 223.5 564 Q188 529 166.5 476.5 Q145 424 145 355 Z M45 355 Q45 444 75.5 512.5 Q106 581 156 628 Q206 675 270 699.5 Q334 724 401 724 Q468 724 532 699.5 Q596 675 646 628 Q696 581 726.5 512.5 Q757 444 757 355 Q757 266 726.5 197 Q696 128 646 81 Q596 34 532 9.5 Q468 -15 401 -15 Q334 -15 270 9.5 Q206 34 156 81 Q106 128 75.5 197 Q45 266 45 355 Z " />
<glyph glyph-name="P" unicode="P" horiz-adv-x="597" d="M330 378 Q394 378 430.5 410.5 Q467 443 467 498 Q467 555 430.5 588 Q394 621 330 621 L188 621 L188 378 L330 378 Z M188 290 L188 0 L90 0 L90 709 L348 709 Q397 709 437.5 693 Q478 677 506.5 648.5 Q535 620 551 582 Q567 544 567 499 Q567 454 551 415.5 Q535 377 506.5 349.5 Q478 322 437.5 306 Q397 290 348 290 L188 290 Z " />
<glyph glyph-name="Q" unicode="Q" horiz-adv-x="802" d="M45 355 Q45 444 75.5 512.5 Q106 581 156 628 Q206 675 270 699.5 Q334 724 401 724 Q468 724 532 699.5 Q596 675 646 628 Q696 581 726.5 512.5 Q757 444 757 355 Q757 270 729.5 205 Q702 140 657 93 L740 0 L673 -59 L587 36 Q545 10 497.5 -2.5 Q450 -15 401 -15 Q334 -15 270 9.5 Q206 34 156 81 Q106 128 75.5 197 Q45 266 45 355 Z M145 355 Q145 286 166.5 233.5 Q188 181 223.5 145.5 Q259 110 305 92.5 Q351 75 401 75 Q469 75 525 106 L402 244 L470 303 L594 163 Q623 198 640 245.5 Q657 293 657 355 Q657 424 635.5 476.5 Q614 529 578.5 564 Q543 599 496.5 616.5 Q450 634 401 634 Q351 634 305 616.5 Q259 599 223.5 564 Q188 529 166.5 476.5 Q145 424 145 355 Z " />
<glyph glyph-name="R" unicode="R" horiz-adv-x="619" d="M295 290 L189 290 L189 0 L90 0 L90 709 L357 709 Q407 709 447.5 692.5 Q488 676 516 647.5 Q544 619 559 580.5 Q574 542 574 498 Q574 421 528.5 366.5 Q483 312 402 297 L571 0 L457 0 L295 290 Z M339 378 Q399 378 436 410.5 Q473 443 473 498 Q473 555 436 588 Q399 621 339 621 L189 621 L189 378 L339 378 Z " />
<glyph glyph-name="S" unicode="S" horiz-adv-x="593" d="M454 517 Q451 536 441 557.5 Q431 579 413 597 Q395 615 368 626.5 Q341 638 304 638 Q274 638 249 629 Q224 620 205.5 604 Q187 588 177 566.5 Q167 545 167 520 Q167 482 190 454.5 Q213 427 258 417 L364 394 Q453 374 500.5 322 Q548 270 548 195 Q548 154 531 116 Q514 78 482 49 Q450 20 405 2.5 Q360 -15 303 -15 Q239 -15 191.5 4 Q144 23 111.5 53 Q79 83 61 120.5 Q43 158 38 196 L132 226 Q135 196 146.5 168.5 Q158 141 179.5 120 Q201 99 231.5 86.5 Q262 74 302 74 Q375 74 411.5 107 Q448 140 448 187 Q448 225 422 255.5 Q396 286 342 297 L241 319 Q165 336 116.5 384.5 Q68 433 68 513 Q68 555 86 593 Q104 631 135.5 660 Q167 689 210 706.5 Q253 724 302 724 Q362 724 404.5 707.5 Q447 691 475.5 665 Q504 639 520 608 Q536 577 542 548 L454 517 Z " />
<glyph glyph-name="T" unicode="T" horiz-adv-x="592" d="M345 618 L345 0 L247 0 L247 618 L10 618 L10 709 L582 709 L582 618 L345 618 Z " />
<glyph glyph-name="U" unicode="U" horiz-adv-x="670" d="M335 -15 Q281 -15 234.5 1.5 Q188 18 153.5 50.5 Q119 83 99.5 131 Q80 179 80 242 L80 709 L177 709 L177 245 Q177 164 218.5 120 Q260 76 335 76 Q410 76 451 120 Q492 164 492 245 L492 709 L590 709 L590 242 Q590 179 570.5 131 Q551 83 516.5 50.5 Q482 18 435.5 1.5 Q389 -15 335 -15 Z " />
<glyph glyph-name="V" unicode="V" horiz-adv-x="657" d="M544 709 L647 709 L374 0 L277 0 L10 709 L114 709 L328 126 L544 709 Z " />
<glyph glyph-name="W" unicode="W" horiz-adv-x="1004" d="M888 709 L989 709 L787 0 L686 0 L501 575 L318 0 L220 0 L15 709 L116 709 L272 154 L450 709 L553 709 L735 148 L888 709 Z " />
<glyph glyph-name="X" unicode="X" horiz-adv-x="617" d="M366 355 L604 0 L487 0 L308 277 L125 0 L10 0 L252 355 L12 709 L130 709 L309 431 L491 709 L607 709 L366 355 Z " />
<glyph glyph-name="Y" unicode="Y" horiz-adv-x="618" d="M10 709 L128 709 L312 393 L496 709 L608 709 L358 303 L358 0 L260 0 L260 303 L10 709 Z " />
<glyph glyph-name="Z" unicode="Z" horiz-adv-x="632" d="M45 0 L45 98 L468 618 L55 618 L55 709 L587 709 L587 614 L162 92 L592 92 L592 0 L45 0 Z " />
<glyph glyph-name="bracketleft" unicode="&#x5b;" horiz-adv-x="288" d="M90 -148 L90 785 L283 785 L283 709 L172 709 L172 -73 L283 -73 L283 -148 L90 -148 Z " />
<glyph glyph-name="backslash" unicode="&#x5c;" horiz-adv-x="434" d="M0 709 L93 709 L434 0 L341 0 L0 709 Z " />
<glyph glyph-name="bracketright" unicode="&#x5d;" horiz-adv-x="288" d="M5 -148 L5 -73 L116 -73 L116 709 L5 709 L5 785 L198 785 L198 -148 L5 -148 Z " />
<glyph glyph-name="asciicircum" unicode="&#x5e;" horiz-adv-x="521" d="M397 354 L261 612 L124 354 L25 354 L219 710 L302 710 L496 354 L397 354 Z " />
<glyph glyph-name="underscore" unicode="&#x5f;" horiz-adv-x="542" d="M15 -79 L15 0 L527 0 L527 -79 L15 -79 Z " />
<glyph glyph-name="grave" unicode="&#x60;" horiz-adv-x="272" d="M34 689 L152 689 L238 543 L160 543 L34 689 Z " />
<glyph glyph-name="a" unicode="a" horiz-adv-x="523" d="M50 129 Q50 161 61 186.5 Q72 212 91.5 230 Q111 248 138 259 Q165 270 196 275 L326 294 Q348 297 355.5 307 Q363 317 363 330 Q363 365 338.5 390.5 Q314 416 259 416 Q209 416 182 388.5 Q155 361 150 319 L60 340 Q64 374 80.5 403 Q97 432 123 452.5 Q149 473 183.5 484.5 Q218 496 257 496 Q311 496 349 481.5 Q387 467 411 443 Q435 419 446 387 Q457 355 457 320 L457 79 Q457 47 459 28 Q461 9 463 0 L371 0 Q369 9 367.5 24 Q366 39 366 65 Q358 52 345 38 Q332 24 313 12 Q294 0 268.5 -7.5 Q243 -15 211 -15 Q174 -15 144.5 -3 Q115 9 94 28.5 Q73 48 61.5 74 Q50 100 50 129 Z M224 64 Q253 64 278.5 71.5 Q304 79 322.5 95.5 Q341 112 352 139.5 Q363 167 363 206 L363 228 L216 206 Q186 201 166 183.5 Q146 166 146 134 Q146 107 167 85.5 Q188 64 224 64 Z " />
<glyph glyph-name="b" unicode="b" horiz-adv-x="593" d="M80 0 L80 724 L173 724 L173 413 Q190 445 231 470 Q272 495 332 495 Q387 495 428 475.5 Q469 456 497 421.5 Q525 387 539 341 Q553 295 553 243 Q553 189 538 142.5 Q523 96 494.5 61.5 Q466 27 424.5 7 Q383 -13 329 -13 Q275 -13 235.5 9 Q196 31 173 70 L173 0 L80 0 Z M457 243 Q457 321 419 366.5 Q381 412 315 412 Q284 412 257.5 400 Q231 388 212 366.5 Q193 345 182.5 313.5 Q172 282 172 243 Q172 204 182.5 172 Q193 140 212 117.5 Q231 95 257.5 83 Q284 71 315 71 Q380 71 418.5 118 Q457 165 457 243 Z " />
<glyph glyph-name="c" unicode="c" horiz-adv-x="530" d="M282 409 Q253 409 227 398.5 Q201 388 180.5 367 Q160 346 148 314.5 Q136 283 136 241 Q136 200 148 168.5 Q160 137 180 115.5 Q200 94 227 83 Q254 72 283 72 Q317 72 340.5 82 Q364 92 379.5 107 Q395 122 404 139.5 Q413 157 417 171 L500 135 Q491 109 474 82.5 Q457 56 430 34 Q403 12 366.5 -1.5 Q330 -15 283 -15 Q230 -15 185.5 4.5 Q141 24 109 58.5 Q77 93 58.5 139.5 Q40 186 40 241 Q40 297 58.5 344 Q77 391 109.5 424.5 Q142 458 186.5 477 Q231 496 282 496 Q330 496 366.5 482.5 Q403 469 429.5 447 Q456 425 472 397.5 Q488 370 496 343 L411 307 Q406 325 397 343 Q388 361 372.5 375.5 Q357 390 335 399.5 Q313 409 282 409 Z " />
<glyph glyph-name="d" unicode="d" horiz-adv-x="588" d="M136 242 Q136 205 145.5 173.5 Q155 142 173 119 Q191 96 217 83 Q243 70 277 70 Q309 70 335 83.5 Q361 97 379 120 Q397 143 406.5 175 Q416 207 416 244 Q416 319 379.5 365 Q343 411 278 411 Q246 411 219.5 398.5 Q193 386 174.5 363.5 Q156 341 146 310 Q136 279 136 242 Z M417 73 Q400 38 362.5 12.5 Q325 -13 268 -13 Q215 -13 173 6.5 Q131 26 101.5 60.5 Q72 95 56 141.5 Q40 188 40 242 Q40 293 56.5 338.5 Q73 384 103 418.5 Q133 453 175 473.5 Q217 494 268 494 Q300 494 324.5 487 Q349 480 367 468.5 Q385 457 397 442.5 Q409 428 415 413 L415 724 L508 724 L508 89 Q508 54 510 30 Q512 6 513 0 L422 0 Q420 8 418.5 25.5 Q417 43 417 65 L417 73 Z " />
<glyph glyph-name="e" unicode="e" horiz-adv-x="542" d="M404 290 Q402 342 369 377.5 Q336 413 272 413 Q242 413 218.5 402.5 Q195 392 178.5 374.5 Q162 357 152 335 Q142 313 141 290 L404 290 Z M499 137 Q489 105 469.5 77.5 Q450 50 422.5 29.5 Q395 9 360 -3 Q325 -15 283 -15 Q235 -15 191 2 Q147 19 113.5 52 Q80 85 60.5 133 Q41 181 41 242 Q41 299 60 345.5 Q79 392 110.5 425.5 Q142 459 184 477.5 Q226 496 271 496 Q326 496 369.5 477.5 Q413 459 442 426 Q471 393 486.5 346.5 Q502 300 502 244 Q502 235 501.5 227 Q501 219 500 214 L138 214 Q139 182 150 155 Q161 128 180.5 108.5 Q200 89 226.5 78.5 Q253 68 283 68 Q342 68 373 96 Q404 124 418 165 L499 137 Z " />
<glyph glyph-name="f" unicode="f" horiz-adv-x="343" d="M206 396 L206 0 L109 0 L109 396 L20 396 L20 481 L109 481 L109 562 Q109 602 121.5 633 Q134 664 155.5 685 Q177 706 205.5 716.5 Q234 727 267 727 Q291 727 305.5 723 Q320 719 323 717 L323 633 Q319 635 309.5 637 Q300 639 282 639 Q270 639 256.5 635.5 Q243 632 231.5 623 Q220 614 213 598 Q206 582 206 557 L206 481 L322 481 L322 396 L206 396 Z " />
<glyph glyph-name="g" unicode="g" horiz-adv-x="578" d="M136 -5 Q141 -56 176.5 -89.5 Q212 -123 267 -123 Q343 -123 378.5 -84 Q414 -45 414 33 L414 102 Q397 69 359 46 Q321 23 267 23 Q219 23 178.5 40.5 Q138 58 108.5 88.5 Q79 119 62.5 162 Q46 205 46 256 Q46 305 62 347.5 Q78 390 107 421.5 Q136 453 176.5 471.5 Q217 490 267 490 Q323 490 360 470 Q397 450 415 414 L415 481 L508 481 L508 36 Q508 -10 496 -53.5 Q484 -97 455.5 -130.5 Q427 -164 381 -184.5 Q335 -205 267 -205 Q222 -205 183.5 -191.5 Q145 -178 115.5 -154 Q86 -130 67.5 -97.5 Q49 -65 45 -26 L136 -5 Z M281 102 Q342 102 380 144 Q418 186 418 256 Q418 326 380 368 Q342 410 281 410 Q218 410 180 368 Q142 326 142 256 Q142 185 179.5 143.5 Q217 102 281 102 Z " />
<glyph glyph-name="h" unicode="h" horiz-adv-x="562" d="M174 0 L80 0 L80 724 L174 724 L174 425 Q200 463 239 479 Q278 495 320 495 Q363 495 395.5 480.5 Q428 466 449.5 440.5 Q471 415 481.5 380 Q492 345 492 305 L492 0 L398 0 L398 289 Q398 314 392.5 336 Q387 358 373.5 374.5 Q360 391 338.5 400.5 Q317 410 286 410 Q259 410 238.5 400 Q218 390 204 373 Q190 356 182.5 333 Q175 310 174 283 L174 0 Z " />
<glyph glyph-name="i" unicode="i" horiz-adv-x="253" d="M80 0 L80 481 L173 481 L173 0 L80 0 Z M59 663 Q59 692 78.5 711.5 Q98 731 126 731 Q155 731 174.5 711.5 Q194 692 194 663 Q194 635 174.5 615.5 Q155 596 126 596 Q98 596 78.5 615.5 Q59 635 59 663 Z " />
<glyph glyph-name="j" unicode="j" horiz-adv-x="254" d="M80 481 L174 481 L174 -56 Q174 -122 139 -163.5 Q104 -205 41 -205 Q14 -205 2 -202.5 Q-10 -200 -15 -198 L-15 -119 Q-11 -120 -3.5 -121 Q4 -122 15 -122 Q52 -122 66 -103.5 Q80 -85 80 -52 L80 481 Z M59 665 Q59 694 78.5 713.5 Q98 733 126 733 Q155 733 174.5 713.5 Q194 694 194 665 Q194 637 174.5 617.5 Q155 598 126 598 Q98 598 78.5 617.5 Q59 637 59 665 Z " />
<glyph glyph-name="k" unicode="k" horiz-adv-x="525" d="M306 278 L515 0 L397 0 L240 212 L173 145 L173 0 L80 0 L80 724 L173 724 L173 268 L381 481 L511 481 L306 278 Z " />
<glyph glyph-name="l" unicode="l" horiz-adv-x="254" d="M80 0 L80 724 L174 724 L174 0 L80 0 Z " />
<glyph glyph-name="m" unicode="m" horiz-adv-x="857" d="M80 0 L80 481 L170 481 L170 417 Q193 457 233.5 476 Q274 495 316 495 Q361 495 400.5 473 Q440 451 460 404 Q489 456 532 475.5 Q575 495 621 495 Q652 495 682 484 Q712 473 735.5 450.5 Q759 428 773 393.5 Q787 359 787 312 L787 0 L694 0 L694 302 Q694 349 669.5 380.5 Q645 412 592 412 Q542 412 511.5 377.5 Q481 343 481 291 L481 0 L387 0 L387 302 Q387 349 363 380.5 Q339 412 285 412 Q234 412 203.5 378 Q173 344 173 290 L173 0 L80 0 Z " />
<glyph glyph-name="n" unicode="n" horiz-adv-x="562" d="M174 0 L80 0 L80 481 L172 481 L172 412 Q198 457 238 476 Q278 495 320 495 Q363 495 395.5 480.5 Q428 466 449.5 440.5 Q471 415 481.5 380 Q492 345 492 305 L492 0 L398 0 L398 289 Q398 314 392.5 336 Q387 358 373.5 374.5 Q360 391 338.5 400.5 Q317 410 286 410 Q258 410 237 399.5 Q216 389 202 371 Q188 353 181 329 Q174 305 174 278 L174 0 Z " />
<glyph glyph-name="o" unicode="o" horiz-adv-x="572" d="M286 69 Q316 69 343 80 Q370 91 391 113 Q412 135 424 167 Q436 199 436 241 Q436 283 424 314.5 Q412 346 391 368 Q370 390 343 401 Q316 412 286 412 Q256 412 229 401 Q202 390 181 368 Q160 346 148 314.5 Q136 283 136 241 Q136 199 148 167 Q160 135 181 113 Q202 91 229 80 Q256 69 286 69 Z M286 496 Q340 496 385 476.5 Q430 457 463 423 Q496 389 514 342.5 Q532 296 532 241 Q532 186 514 139 Q496 92 463 58 Q430 24 385 4.5 Q340 -15 286 -15 Q232 -15 187 4.5 Q142 24 109 58 Q76 92 58 139 Q40 186 40 241 Q40 296 58 342.5 Q76 389 109 423 Q142 457 187 476.5 Q232 496 286 496 Z " />
<glyph glyph-name="p" unicode="p" horiz-adv-x="593" d="M80 -190 L80 481 L171 481 L171 406 Q191 442 232 467 Q273 492 332 492 Q386 492 427.5 472.5 Q469 453 496.5 419 Q524 385 538.5 339 Q553 293 553 241 Q553 187 538 141 Q523 95 494 60.5 Q465 26 423.5 6.5 Q382 -13 329 -13 Q273 -13 233 10 Q193 33 173 65 L173 -190 L80 -190 Z M457 241 Q457 277 447 307.5 Q437 338 419 360.5 Q401 383 374.5 396 Q348 409 315 409 Q283 409 256.5 396 Q230 383 211 360.5 Q192 338 182 307.5 Q172 277 172 241 Q172 204 182 172.5 Q192 141 211 118.5 Q230 96 256.5 83.5 Q283 71 315 71 Q348 71 374 83.5 Q400 96 418.5 118.5 Q437 141 447 172.5 Q457 204 457 241 Z " />
<glyph glyph-name="q" unicode="q" horiz-adv-x="581" d="M418 -190 L418 68 Q399 31 360.5 9 Q322 -13 268 -13 Q216 -13 174 7 Q132 27 102 62 Q72 97 56 143 Q40 189 40 242 Q40 293 55.5 338.5 Q71 384 100 418.5 Q129 453 171 473 Q213 493 266 493 Q297 493 322 485.5 Q347 478 366.5 466 Q386 454 399 438.5 Q412 423 420 407 L420 481 L511 481 L511 -190 L418 -190 Z M136 242 Q136 205 146 173.5 Q156 142 174.5 119 Q193 96 219 83 Q245 70 277 70 Q309 70 335 83 Q361 96 380 119 Q399 142 409 173.5 Q419 205 419 242 Q419 279 409 310 Q399 341 380 363 Q361 385 335 397.5 Q309 410 277 410 Q211 410 173.5 363.5 Q136 317 136 242 Z " />
<glyph glyph-name="r" unicode="r" horiz-adv-x="367" d="M347 386 Q326 389 306 389 Q247 389 210.5 354.5 Q174 320 174 241 L174 0 L80 0 L80 481 L172 481 L172 397 Q185 425 202.5 442.5 Q220 460 239 470.5 Q258 481 278 485 Q298 489 316 489 Q326 489 334.5 488 Q343 487 347 486 L347 386 Z " />
<glyph glyph-name="s" unicode="s" horiz-adv-x="452" d="M120 155 Q125 117 153 91 Q181 65 232 65 Q272 65 293 84 Q314 103 314 129 Q314 152 298 168 Q282 184 252 191 L170 209 Q113 221 81.5 257 Q50 293 50 344 Q50 375 63.5 402.5 Q77 430 100 451 Q123 472 154.5 484 Q186 496 221 496 Q270 496 303.5 482 Q337 468 358 447.5 Q379 427 389.5 405 Q400 383 404 367 L321 336 Q319 345 314 359 Q309 373 298 385.5 Q287 398 268 407 Q249 416 221 416 Q185 416 163 396.5 Q141 377 141 352 Q141 306 196 294 L274 277 Q340 263 373.5 225.5 Q407 188 407 134 Q407 108 396 82 Q385 56 363.5 34 Q342 12 309 -1.5 Q276 -15 231 -15 Q181 -15 145.5 -1 Q110 13 86.5 34 Q63 55 50.5 79.5 Q38 104 35 125 L120 155 Z " />
<glyph glyph-name="t" unicode="t" horiz-adv-x="355" d="M206 481 L310 481 L310 396 L206 396 L206 146 Q206 113 221 96.5 Q236 80 273 80 Q282 80 293 81 Q304 82 310 84 L310 4 Q304 2 287 -1.5 Q270 -5 246 -5 Q184 -5 148 30.5 Q112 66 112 132 L112 396 L20 396 L20 481 L46 481 Q85 481 102.5 502 Q120 523 120 555 L120 633 L206 633 L206 481 Z " />
<glyph glyph-name="u" unicode="u" horiz-adv-x="566" d="M397 58 Q377 20 337 2.5 Q297 -15 255 -15 Q213 -15 179.5 0 Q146 15 123 41 Q100 67 87.5 102 Q75 137 75 178 L75 481 L169 481 L169 192 Q169 167 175 144.5 Q181 122 194 105 Q207 88 227.5 78 Q248 68 278 68 Q335 68 363.5 102 Q392 136 392 191 L392 481 L486 481 L486 89 Q486 60 487.5 36.5 Q489 13 491 0 L401 0 Q399 8 398 25.5 Q397 43 397 58 Z " />
<glyph glyph-name="v" unicode="v" horiz-adv-x="502" d="M300 0 L205 0 L10 481 L116 481 L253 110 L391 481 L492 481 L300 0 Z " />
<glyph glyph-name="w" unicode="w" horiz-adv-x="793" d="M448 481 L573 119 L679 481 L778 481 L622 0 L525 0 L397 366 L272 0 L173 0 L15 481 L118 481 L226 119 L351 481 L448 481 Z " />
<glyph glyph-name="x" unicode="x" horiz-adv-x="491" d="M189 245 L16 481 L130 481 L248 312 L364 481 L475 481 L304 245 Q311 235 325 216 Q339 197 356.5 173 Q374 149 392.5 122.5 Q411 96 428.5 72 Q446 48 460 29 Q474 10 481 0 L368 0 L244 177 L122 0 L10 0 L189 245 Z " />
<glyph glyph-name="y" unicode="y" horiz-adv-x="523" d="M97 -201 L217 53 L10 481 L118 481 L268 149 L412 481 L513 481 L200 -201 L97 -201 Z " />
<glyph glyph-name="z" unicode="z" horiz-adv-x="466" d="M40 0 L40 82 L304 396 L44 396 L44 481 L421 481 L421 399 L157 85 L426 85 L426 0 L40 0 Z " />
<glyph glyph-name="braceleft" unicode="&#x7b;" horiz-adv-x="353" d="M45 361 Q67 361 87 366.5 Q107 372 122 384 Q137 396 146 415 Q155 434 155 462 L155 599 Q155 693 201 739 Q247 785 335 785 L348 785 L348 710 L335 710 Q279 710 258 685 Q237 660 237 605 L237 441 Q237 390 209 358.5 Q181 327 133 318 Q181 309 209 277.5 Q237 246 237 195 L237 32 Q237 -23 258 -48 Q279 -73 335 -73 L348 -73 L348 -148 L335 -148 Q247 -148 201 -102 Q155 -56 155 38 L155 174 Q155 202 146 221 Q137 240 122 252 Q107 264 87 269.5 Q67 275 45 275 L45 361 Z " />
<glyph glyph-name="bar" unicode="&#x7c;" horiz-adv-x="262" d="M90 -148 L90 785 L172 785 L172 -148 L90 -148 Z " />
<glyph glyph-name="braceright" unicode="&#x7d;" horiz-adv-x="353" d="M308 275 Q286 275 266 269.5 Q246 264 231 252 Q216 240 207 221 Q198 202 198 174 L198 38 Q198 -56 152 -102 Q106 -148 18 -148 L5 -148 L5 -73 L18 -73 Q74 -73 95 -48 Q116 -23 116 32 L116 195 Q116 246 144 277.5 Q172 309 220 318 Q172 327 144 358.5 Q116 390 116 441 L116 605 Q116 660 95 685 Q74 710 18 710 L5 710 L5 785 L18 785 Q106 785 152 739 Q198 693 198 599 L198 462 Q198 434 207 415 Q216 396 231 384 Q246 372 266 366.5 Q286 361 308 361 L308 275 Z " />
<glyph glyph-name="asciitilde" unicode="&#x7e;" horiz-adv-x="570" d="M242 264 Q213 279 188 279 Q160 279 136 263.5 Q112 248 92 222 L35 268 Q63 314 102 338.5 Q141 363 187 363 Q210 363 234 357 Q258 351 282 337 L328 312 Q356 296 385 296 Q413 296 437 310.5 Q461 325 478 351 L535 305 Q507 259 468.5 235.5 Q430 212 385 212 Q337 212 288 239 L242 264 Z " />
<glyph glyph-name="uni00A0" unicode="&#xa0;" horiz-adv-x="250" d="" />
<glyph glyph-name="exclamdown" unicode="&#xa1;" horiz-adv-x="277" d="M197 -217 L79 -217 L105 288 L172 288 L197 -217 Z M73 430 Q73 457 92 476.5 Q111 496 138 496 Q165 496 184.5 476.5 Q204 457 204 430 Q204 403 184.5 384 Q165 365 138 365 Q111 365 92 384 Q73 403 73 430 Z " />
<glyph glyph-name="cent" unicode="&#xa2;" horiz-adv-x="542" d="M239 0 L239 94 Q197 101 162 122 Q127 143 102.5 174 Q78 205 64 244 Q50 283 50 328 Q50 374 64 413 Q78 452 103 482.5 Q128 513 162.5 533 Q197 553 239 561 L239 649 L315 649 L315 563 Q353 559 382.5 545.5 Q412 532 433 512.5 Q454 493 467.5 469.5 Q481 446 488 423 L407 390 Q403 403 396 417.5 Q389 432 378 444.5 Q367 457 351.5 466.5 Q336 476 315 481 L315 174 Q338 178 354.5 188.5 Q371 199 383 211.5 Q395 224 402 237.5 Q409 251 412 263 L492 230 Q484 208 469.5 185 Q455 162 433.5 143 Q412 124 382 110 Q352 96 315 92 L315 0 L239 0 Z M143 328 Q143 268 170 230 Q197 192 239 178 L239 477 Q198 463 170.5 426 Q143 389 143 328 Z " />
<glyph glyph-name="sterling" unicode="&#xa3;" horiz-adv-x="593" d="M141 359 Q130 385 120.5 413.5 Q111 442 111 477 Q111 517 126.5 551 Q142 585 168.5 610 Q195 635 231 649 Q267 663 309 663 Q367 663 405.5 646.5 Q444 630 468 604 Q492 578 502.5 546.5 Q513 515 515 485 L417 468 Q416 524 386.5 550.5 Q357 577 311 577 Q291 577 272.5 570.5 Q254 564 240 551.5 Q226 539 217.5 520 Q209 501 209 477 Q209 445 219 416.5 Q229 388 242 359 L436 359 L436 273 L268 273 Q269 266 269.5 259.5 Q270 253 270 246 Q270 193 245 151.5 Q220 110 175 87 L378 87 Q403 87 421.5 96 Q440 105 451.5 119.5 Q463 134 468.5 153 Q474 172 474 193 L568 179 Q568 140 556.5 107 Q545 74 524 50.5 Q503 27 472 13.5 Q441 0 402 0 L65 0 L65 95 Q116 116 145.5 154.5 Q175 193 175 235 Q175 257 171 273 L71 273 L71 359 L141 359 Z " />
<glyph glyph-name="currency" unicode="&#xa4;" horiz-adv-x="582" d="M82 239 Q82 273 92 303.5 Q102 334 119 360 L44 437 L104 496 L179 418 Q205 435 234 444 Q263 453 295 453 Q355 453 406 422 L478 496 L538 437 L468 364 Q487 338 498 306 Q509 274 509 239 Q509 204 498.5 172.5 Q488 141 469 116 L538 45 L479 -14 L409 58 Q384 42 355 33.5 Q326 25 295 25 Q262 25 232 35 Q202 45 176 62 L103 -14 L44 45 L117 121 Q100 147 91 176.5 Q82 206 82 239 Z M165 239 Q165 210 175 185.5 Q185 161 203 143.5 Q221 126 244.5 116.5 Q268 107 295 107 Q322 107 345.5 116.5 Q369 126 386 143.5 Q403 161 413 185.5 Q423 210 423 239 Q423 268 413 292 Q403 316 386 333.5 Q369 351 345.5 360.5 Q322 370 295 370 Q268 370 244.5 360.5 Q221 351 203 333.5 Q185 316 175 292 Q165 268 165 239 Z " />
<glyph glyph-name="yen" unicode="&#xa5;" horiz-adv-x="582" d="M345 155 L345 0 L248 0 L248 155 L79 155 L79 227 L248 227 L248 307 L79 307 L79 378 L196 378 L25 648 L139 648 L296 387 L445 648 L557 648 L394 378 L513 378 L513 307 L345 307 L345 227 L513 227 L513 155 L345 155 Z " />
<glyph glyph-name="brokenbar" unicode="&#xa6;" horiz-adv-x="262" d="M172 785 L172 386 L90 386 L90 785 L172 785 Z M172 251 L172 -148 L90 -148 L90 251 L172 251 Z " />
<glyph glyph-name="section" unicode="&#xa7;" horiz-adv-x="573" d="M484 239 Q484 216 476 196 Q468 176 456 159.5 Q444 143 429 131.5 Q414 120 400 114 Q442 88 465 49.5 Q488 11 488 -31 Q488 -73 471.5 -107 Q455 -141 426.5 -165 Q398 -189 361 -202 Q324 -215 283 -215 Q235 -215 198.5 -201.5 Q162 -188 137 -163.5 Q112 -139 99.5 -104.5 Q87 -70 86 -29 L175 -11 Q175 -66 202 -101 Q229 -136 285 -136 Q332 -136 361.5 -111.5 Q391 -87 391 -41 Q391 -13 375 9.5 Q359 32 332 46 L228 100 Q200 114 175 130 Q150 146 131 166 Q112 186 100.5 211.5 Q89 237 89 271 Q89 294 97 314.5 Q105 335 117.5 351 Q130 367 145 378.5 Q160 390 174 395 Q131 421 108 460 Q85 499 85 541 Q85 583 101.5 617 Q118 651 146.5 674.5 Q175 698 212 711 Q249 724 290 724 Q338 724 375 709.5 Q412 695 436.5 670 Q461 645 474 611.5 Q487 578 487 539 L397 521 Q397 577 370 611 Q343 645 288 645 Q240 645 210.5 619 Q181 593 181 550 Q181 495 241 464 L344 410 Q372 395 397 379 Q422 363 441.5 343 Q461 323 472.5 297.5 Q484 272 484 239 Z M228 366 Q211 358 195.5 336 Q180 314 180 286 Q180 258 194.5 237 Q209 216 244 198 L344 144 Q361 152 376.5 173.5 Q392 195 392 224 Q392 252 377.5 273 Q363 294 328 312 L228 366 Z " />
<glyph glyph-name="dieresis" unicode="&#xa8;" horiz-adv-x="379" d="M38 621 Q38 645 54.5 662 Q71 679 95 679 Q120 679 137 662 Q154 645 154 621 Q154 596 137 579.5 Q120 563 95 563 Q71 563 54.5 579.5 Q38 596 38 621 Z M225 621 Q225 645 241.5 662 Q258 679 283 679 Q307 679 324 662 Q341 645 341 621 Q341 596 324 579.5 Q307 563 283 563 Q258 563 241.5 579.5 Q225 596 225 621 Z " />
<glyph glyph-name="copyright" unicode="&#xa9;" horiz-adv-x="821" d="M123 355 Q123 292 145 237.5 Q167 183 206 143.5 Q245 104 297 81 Q349 58 409 58 Q469 58 521 81 Q573 104 612 143.5 Q651 183 673 237.5 Q695 292 695 355 Q695 418 673 472 Q651 526 612 566 Q573 606 521 628.5 Q469 651 409 651 Q349 651 297 628.5 Q245 606 206 566 Q167 526 145 472 Q123 418 123 355 Z M45 355 Q45 431 73.5 498 Q102 565 151.5 615.5 Q201 666 267 695 Q333 724 409 724 Q485 724 552 695 Q619 666 668.5 615.5 Q718 565 747 498 Q776 431 776 355 Q776 279 747 211.5 Q718 144 668.5 94 Q619 44 552 14.5 Q485 -15 409 -15 Q333 -15 267 14.5 Q201 44 151.5 94 Q102 144 73.5 211.5 Q45 279 45 355 Z M411 494 Q388 494 366.5 485.5 Q345 477 328.5 459.5 Q312 442 302 416.5 Q292 391 292 357 Q292 323 302 297.5 Q312 272 328 254.5 Q344 237 366 228 Q388 219 412 219 Q440 219 459 227 Q478 235 490.5 247.5 Q503 260 510.5 274 Q518 288 521 300 L589 270 Q582 249 568 227.5 Q554 206 532 188 Q510 170 480 159 Q450 148 412 148 Q369 148 332.5 164 Q296 180 270 208 Q244 236 229 274 Q214 312 214 357 Q214 402 229 440.5 Q244 479 270.5 506.5 Q297 534 333.5 549.5 Q370 565 411 565 Q450 565 480 554 Q510 543 531.5 525 Q553 507 566 484.5 Q579 462 586 440 L516 411 Q512 425 505 440 Q498 455 485 466.5 Q472 478 454 486 Q436 494 411 494 Z " />
<glyph glyph-name="ordfeminine" unicode="&#xaa;" horiz-adv-x="428" d="M66 401 Q66 446 96 472 Q126 498 169 504 L257 516 Q272 518 277.5 525 Q283 532 283 541 Q283 564 267 580.5 Q251 597 215 597 Q182 597 163.5 578.5 Q145 560 142 532 L73 548 Q75 571 86 591 Q97 611 115.5 626 Q134 641 159 650 Q184 659 214 659 Q253 659 280 648.5 Q307 638 324.5 621 Q342 604 349.5 581 Q357 558 357 533 L357 364 Q357 347 358.5 329.5 Q360 312 361 309 L290 309 Q288 315 287 326 Q286 337 286 353 Q275 334 249 316.5 Q223 299 181 299 Q154 299 133 307.5 Q112 316 97 330 Q82 344 74 362.5 Q66 381 66 401 Z M193 359 Q211 359 227.5 363.5 Q244 368 256.5 379 Q269 390 276 408 Q283 426 283 452 L283 467 L188 452 Q168 449 154.5 438 Q141 427 141 405 Q141 387 154.5 373 Q168 359 193 359 Z " />
<glyph glyph-name="guillemotleft" unicode="&#xab;" horiz-adv-x="471" d="M163 99 L30 290 L163 481 L256 481 L125 290 L256 99 L163 99 Z M358 99 L225 290 L358 481 L451 481 L320 290 L451 99 L358 99 Z " />
<glyph glyph-name="logicalnot" unicode="&#xac;" horiz-adv-x="573" d="M424 149 L424 344 L45 344 L45 426 L508 426 L508 149 L424 149 Z " />
<glyph glyph-name="uni00AD" unicode="&#xad;" horiz-adv-x="361" d="M45 246 L45 328 L316 328 L316 246 L45 246 Z " />
<glyph glyph-name="registered" unicode="&#xae;" horiz-adv-x="821" d="M45 355 Q45 431 73.5 498 Q102 565 151.5 615.5 Q201 666 267 695 Q333 724 409 724 Q485 724 552 695 Q619 666 668.5 615.5 Q718 565 747 498 Q776 431 776 355 Q776 279 747 211.5 Q718 144 668.5 94 Q619 44 552 14.5 Q485 -15 409 -15 Q333 -15 267 14.5 Q201 44 151.5 94 Q102 144 73.5 211.5 Q45 279 45 355 Z M123 355 Q123 292 145 237.5 Q167 183 206 143.5 Q245 104 297 81 Q349 58 409 58 Q469 58 521 81 Q573 104 612 143.5 Q651 183 673 237.5 Q695 292 695 355 Q695 418 673 472 Q651 526 612 566 Q573 606 521 628.5 Q469 651 409 651 Q349 651 297 628.5 Q245 606 206 566 Q167 526 145 472 Q123 418 123 355 Z M415 373 Q449 373 467 388.5 Q485 404 485 432 Q485 493 415 493 L363 493 L363 373 L415 373 Z M363 157 L287 157 L287 559 L426 559 Q455 559 480 549.5 Q505 540 523 523 Q541 506 551.5 483 Q562 460 562 433 Q562 391 537.5 359 Q513 327 474 314 L564 157 L477 157 L393 307 L363 307 L363 157 Z " />
<glyph glyph-name="macron" unicode="&#xaf;" horiz-adv-x="343" d="M35 577 L35 658 L308 658 L308 577 L35 577 Z " />
<glyph glyph-name="degree" unicode="&#xb0;" horiz-adv-x="371" d="M108 502 Q108 467 130.5 445 Q153 423 185 423 Q218 423 240 445 Q262 467 262 502 Q262 536 240 558 Q218 580 185 580 Q153 580 130.5 558 Q108 536 108 502 Z M25 502 Q25 535 38 563.5 Q51 592 73 613.5 Q95 635 124 647 Q153 659 185 659 Q217 659 246.5 647 Q276 635 298 613.5 Q320 592 333 563.5 Q346 535 346 502 Q346 469 333 440 Q320 411 298 389.5 Q276 368 246.5 356 Q217 344 185 344 Q153 344 124 356 Q95 368 73 389.5 Q51 411 38 440 Q25 469 25 502 Z " />
<glyph glyph-name="plusminus" unicode="&#xb1;" horiz-adv-x="567" d="M242 386 L242 522 L324 522 L324 386 L502 386 L502 309 L324 309 L324 175 L242 175 L242 309 L65 309 L65 386 L242 386 Z M502 130 L502 51 L65 51 L65 130 L502 130 Z " />
<glyph glyph-name="twosuperior" unicode="&#xb2;" horiz-adv-x="389" d="M67 568 Q65 576 64.5 584.5 Q64 593 64 599 Q64 623 73 644 Q82 665 99 681 Q116 697 140.5 706.5 Q165 716 196 716 Q227 716 251 706.5 Q275 697 292 681.5 Q309 666 318 645 Q327 624 327 601 Q327 566 308 538.5 Q289 511 257 491 L185 446 Q174 438 165 429 Q156 420 154 409 L329 409 L329 344 L61 344 L61 357 Q61 402 81 438.5 Q101 475 146 502 L206 539 Q249 565 249 602 Q249 622 235 637 Q221 652 195 652 Q169 652 153.5 636 Q138 620 138 594 Q138 591 138.5 583 Q139 575 141 568 L67 568 Z " />
<glyph glyph-name="threesuperior" unicode="&#xb3;" horiz-adv-x="412" d="M149 565 L244 644 L73 644 L73 709 L344 709 L344 646 L244 566 Q265 564 284.5 556.5 Q304 549 319 535.5 Q334 522 343 502 Q352 482 352 457 Q352 432 341.5 410 Q331 388 312 371.5 Q293 355 266.5 345.5 Q240 336 207 336 Q174 336 149 345 Q124 354 105.5 368 Q87 382 75.5 400.5 Q64 419 60 439 L127 466 Q132 437 153.5 419.5 Q175 402 206 402 Q237 402 255.5 418 Q274 434 274 457 Q274 488 252.5 500.5 Q231 513 206 513 Q198 513 190.5 512 Q183 511 178 509 L149 565 Z " />
<glyph glyph-name="acute" unicode="&#xb4;" horiz-adv-x="274" d="M114 543 L35 543 L122 689 L240 689 L114 543 Z " />
<glyph glyph-name="mu" unicode="&#xb5;" horiz-adv-x="571" d="M402 58 Q382 20 342 2.5 Q302 -15 260 -15 Q233 -15 212.5 -9.5 Q192 -4 174 5 L174 -190 L80 -190 L80 481 L174 481 L174 192 Q174 167 180 144.5 Q186 122 199 105 Q212 88 232.5 78 Q253 68 283 68 Q340 68 368.5 102 Q397 136 397 191 L397 481 L491 481 L491 89 Q491 60 492.5 35 Q494 10 496 0 L406 0 Q404 8 403 25.5 Q402 43 402 58 Z " />
<glyph glyph-name="paragraph" unicode="&#xb6;" horiz-adv-x="626" d="M328 -201 L245 -201 L245 321 L229 321 Q190 321 154.5 335.5 Q119 350 92.5 375.5 Q66 401 50.5 436 Q35 471 35 511 Q35 559 53 596 Q71 633 102 658 Q133 683 174 696 Q215 709 261 709 L601 709 L601 628 L504 628 L504 -201 L421 -201 L421 628 L328 628 L328 -201 Z " />
<glyph glyph-name="periodcentered" unicode="&#xb7;" horiz-adv-x="279" d="M70 284 Q70 313 90 333.5 Q110 354 139 354 Q168 354 188.5 333.5 Q209 313 209 284 Q209 255 188.5 235 Q168 215 139 215 Q110 215 90 235 Q70 255 70 284 Z " />
<glyph glyph-name="cedilla" unicode="&#xb8;" horiz-adv-x="294" d="M82 -62 L130 14 L201 14 L162 -46 Q204 -46 231.5 -68 Q259 -90 259 -128 Q259 -146 252 -162 Q245 -178 231 -190.5 Q217 -203 194.5 -210.5 Q172 -218 142 -218 Q104 -218 75.5 -204 Q47 -190 32 -172 L69 -127 Q78 -137 96.5 -149 Q115 -161 141 -161 Q159 -161 173.5 -153 Q188 -145 188 -128 Q188 -114 176.5 -105 Q165 -96 144 -96 Q128 -96 115 -101 L82 -62 Z " />
<glyph glyph-name="onesuperior" unicode="&#xb9;" horiz-adv-x="293" d="M136 344 L136 589 L50 589 L50 641 Q87 642 112 661.5 Q137 681 142 709 L213 709 L213 344 L136 344 Z " />
<glyph glyph-name="ordmasculine" unicode="&#xba;" horiz-adv-x="484" d="M242 366 Q281 366 311 394.5 Q341 423 341 479 Q341 535 311 563 Q281 591 242 591 Q202 591 172 563 Q142 535 142 479 Q142 423 172 394.5 Q202 366 242 366 Z M242 659 Q280 659 312 645.5 Q344 632 367.5 608 Q391 584 404 551 Q417 518 417 479 Q417 440 404 407 Q391 374 367.5 350 Q344 326 312 312.5 Q280 299 242 299 Q204 299 171.5 312.5 Q139 326 116 350 Q93 374 80 407 Q67 440 67 479 Q67 518 80 551 Q93 584 116 608 Q139 632 171.5 645.5 Q204 659 242 659 Z " />
<glyph glyph-name="guillemotright" unicode="&#xbb;" horiz-adv-x="471" d="M215 99 L346 290 L215 481 L308 481 L441 290 L308 99 L215 99 Z M20 99 L151 290 L20 481 L113 481 L246 290 L113 99 L20 99 Z " />
<glyph glyph-name="onequarter" unicode="&#xbc;" horiz-adv-x="780" d="M141 283 L141 528 L55 528 L55 580 Q92 581 117 600.5 Q142 620 147 648 L218 648 L218 283 L141 283 Z M81 0 L547 648 L637 648 L173 0 L81 0 Z M404 146 L581 366 L666 366 L666 138 L730 138 L730 73 L666 73 L666 1 L589 1 L589 73 L404 73 L404 146 Z M589 277 L478 138 L589 138 L589 277 Z " />
<glyph glyph-name="onehalf" unicode="&#xbd;" horiz-adv-x="779" d="M80 0 L546 648 L636 648 L172 0 L80 0 Z M141 283 L141 528 L55 528 L55 580 Q92 581 117 600.5 Q142 620 147 648 L218 648 L218 283 L141 283 Z M469 225 Q467 233 466.5 241.5 Q466 250 466 256 Q466 280 475 301 Q484 322 501 338 Q518 354 542.5 363.5 Q567 373 598 373 Q629 373 653 363.5 Q677 354 694 338.5 Q711 323 720 302 Q729 281 729 258 Q729 223 710 195.5 Q691 168 659 148 L587 103 Q576 95 567 86 Q558 77 556 66 L731 66 L731 1 L463 1 L463 14 Q463 59 483 95.5 Q503 132 548 159 L608 196 Q651 222 651 259 Q651 279 637 294 Q623 309 597 309 Q571 309 555.5 293 Q540 277 540 251 Q540 248 540.5 240 Q541 232 543 225 L469 225 Z " />
<glyph glyph-name="threequarters" unicode="&#xbe;" horiz-adv-x="850" d="M169 0 L635 648 L725 648 L261 0 L169 0 Z M145 504 L240 583 L69 583 L69 648 L340 648 L340 585 L240 505 Q261 503 280.5 495.5 Q300 488 315 474.5 Q330 461 339 441 Q348 421 348 396 Q348 371 337.5 349 Q327 327 308 310.5 Q289 294 262.5 284.5 Q236 275 203 275 Q170 275 145 284 Q120 293 101.5 307 Q83 321 71.5 339.5 Q60 358 56 378 L123 405 Q128 376 149.5 358.5 Q171 341 202 341 Q233 341 251.5 357 Q270 373 270 396 Q270 427 248.5 439.5 Q227 452 202 452 Q194 452 186.5 451 Q179 450 174 448 L145 504 Z M474 146 L651 366 L736 366 L736 138 L800 138 L800 73 L736 73 L736 1 L659 1 L659 73 L474 73 L474 146 Z M659 277 L548 138 L659 138 L659 277 Z " />
<glyph glyph-name="questiondown" unicode="&#xbf;" horiz-adv-x="510" d="M299 289 Q300 280 300 272 Q300 264 300 254 Q300 204 281 166 Q262 128 217 98 L173 68 Q147 51 133.5 25 Q120 -1 120 -30 Q120 -52 127.5 -72.5 Q135 -93 149.5 -109 Q164 -125 186.5 -134.5 Q209 -144 239 -144 Q272 -144 295.5 -133 Q319 -122 334 -104 Q349 -86 356.5 -63 Q364 -40 364 -16 Q364 -3 362 11 Q360 25 357 33 L454 21 Q460 0 460 -27 Q460 -62 447 -98 Q434 -134 407 -164 Q380 -194 338.5 -213 Q297 -232 239 -232 Q186 -232 145.5 -215 Q105 -198 77 -170 Q49 -142 34.5 -105.5 Q20 -69 20 -31 Q20 29 49 71.5 Q78 114 122 143 L168 174 Q191 190 201.5 215.5 Q212 241 212 270 Q212 275 212 279.5 Q212 284 211 289 L299 289 Z M320 431 Q320 404 301 384.5 Q282 365 255 365 Q228 365 208.5 384.5 Q189 404 189 431 Q189 458 208.5 477 Q228 496 255 496 Q282 496 301 477 Q320 458 320 431 Z " />
<glyph glyph-name="Agrave" unicode="&#xc0;" horiz-adv-x="697" d="M504 198 L190 198 L115 0 L10 0 L292 709 L405 709 L687 0 L581 0 L504 198 Z M225 289 L469 289 L346 607 L225 289 Z M163 878 L292 878 L394 759 L301 759 L163 878 Z " />
<glyph glyph-name="Aacute" unicode="&#xc1;" horiz-adv-x="697" d="M504 198 L190 198 L115 0 L10 0 L292 709 L405 709 L687 0 L581 0 L504 198 Z M225 289 L469 289 L346 607 L225 289 Z M394 759 L300 759 L401 878 L531 878 L394 759 Z " />
<glyph glyph-name="Acircumflex" unicode="&#xc2;" horiz-adv-x="697" d="M504 198 L190 198 L115 0 L10 0 L292 709 L405 709 L687 0 L581 0 L504 198 Z M225 289 L469 289 L346 607 L225 289 Z M172 759 L284 878 L404 878 L521 759 L429 759 L344 823 L263 759 L172 759 Z " />
<glyph glyph-name="Atilde" unicode="&#xc3;" horiz-adv-x="697" d="M504 198 L190 198 L115 0 L10 0 L292 709 L405 709 L687 0 L581 0 L504 198 Z M225 289 L469 289 L346 607 L225 289 Z M506 865 Q506 809 479 781.5 Q452 754 410 754 Q388 754 371 760 Q354 766 339 777 L324 787 Q314 793 305.5 797 Q297 801 287 801 Q271 801 261.5 790.5 Q252 780 252 757 L184 757 L184 773 Q184 829 211.5 856.5 Q239 884 281 884 Q302 884 320.5 877 Q339 870 354 861 L369 852 Q380 846 388.5 842 Q397 838 407 838 Q420 838 429.5 845.5 Q439 853 439 873 L439 881 L506 881 L506 865 Z " />
<glyph glyph-name="Adieresis" unicode="&#xc4;" horiz-adv-x="697" d="M142 819 Q142 844 159 861 Q176 878 201 878 Q226 878 243 861 Q260 844 260 819 Q260 794 243 777 Q226 760 201 760 Q176 760 159 777 Q142 794 142 819 Z M433 819 Q433 844 450 861 Q467 878 492 878 Q517 878 534 861 Q551 844 551 819 Q551 794 534 777 Q517 760 492 760 Q467 760 450 777 Q433 794 433 819 Z M504 198 L190 198 L115 0 L10 0 L292 709 L405 709 L687 0 L581 0 L504 198 Z M225 289 L469 289 L346 607 L225 289 Z " />
<glyph glyph-name="Aring" unicode="&#xc5;" horiz-adv-x="697" d="M225 289 L469 289 L346 607 L225 289 Z M397 760 Q397 781 382 796.5 Q367 812 344 812 Q323 812 308.5 796.5 Q294 781 294 760 Q294 738 308.5 723.5 Q323 709 344 709 Q367 709 382 723.5 Q397 738 397 760 Z M469 760 Q469 731 456 707 Q443 683 422 666 L687 0 L581 0 L504 198 L190 198 L115 0 L10 0 L274 664 Q251 681 237.5 705.5 Q224 730 224 760 Q224 785 234 807.5 Q244 830 260.5 846 Q277 862 299.5 871.5 Q322 881 346 881 Q371 881 393.5 871.5 Q416 862 432.5 846 Q449 830 459 807.5 Q469 785 469 760 Z " />
<glyph glyph-name="AE" unicode="&#xc6;" horiz-adv-x="1026" d="M535 0 L535 196 L257 196 L131 0 L5 0 L477 709 L966 709 L966 618 L633 618 L633 400 L935 400 L935 308 L633 308 L633 91 L966 91 L966 0 L535 0 Z M535 284 L535 628 L313 284 L535 284 Z " />
<glyph glyph-name="Ccedilla" unicode="&#xc7;" horiz-adv-x="750" d="M338 -62 L368 -14 Q304 -9 245.5 17.5 Q187 44 142.5 91 Q98 138 71.5 204.5 Q45 271 45 355 Q45 444 75 512.5 Q105 581 154.5 628 Q204 675 267.5 699.5 Q331 724 397 724 Q458 724 509 708 Q560 692 600 663 Q640 634 667.5 592 Q695 550 709 499 L618 467 Q598 548 541.5 591 Q485 634 397 634 Q349 634 303.5 616.5 Q258 599 222.5 564 Q187 529 166 476.5 Q145 424 145 355 Q145 286 166 233.5 Q187 181 222.5 145.5 Q258 110 303.5 92.5 Q349 75 397 75 Q441 75 478 88 Q515 101 543.5 123.5 Q572 146 592 177.5 Q612 209 623 245 L710 213 Q697 168 672 129 Q647 90 612.5 60.5 Q578 31 534 12 Q490 -7 439 -13 L418 -46 Q460 -46 487.5 -68 Q515 -90 515 -128 Q515 -146 508 -162 Q501 -178 487 -190.5 Q473 -203 450.5 -210.5 Q428 -218 398 -218 Q360 -218 331.5 -204 Q303 -190 288 -172 L325 -127 Q334 -137 352.5 -149 Q371 -161 397 -161 Q415 -161 429.5 -153 Q444 -145 444 -128 Q444 -114 432.5 -105 Q421 -96 400 -96 Q384 -96 371 -101 L338 -62 Z " />
<glyph glyph-name="Egrave" unicode="&#xc8;" horiz-adv-x="581" d="M90 0 L90 709 L521 709 L521 618 L188 618 L188 400 L490 400 L490 308 L188 308 L188 91 L521 91 L521 0 L90 0 Z M149 878 L278 878 L380 759 L287 759 L149 878 Z " />
<glyph glyph-name="Eacute" unicode="&#xc9;" horiz-adv-x="581" d="M90 0 L90 709 L521 709 L521 618 L188 618 L188 400 L490 400 L490 308 L188 308 L188 91 L521 91 L521 0 L90 0 Z M328 759 L234 759 L335 878 L465 878 L328 759 Z " />
<glyph glyph-name="Ecircumflex" unicode="&#xca;" horiz-adv-x="581" d="M90 0 L90 709 L521 709 L521 618 L188 618 L188 400 L490 400 L490 308 L188 308 L188 91 L521 91 L521 0 L90 0 Z M131 759 L243 878 L363 878 L480 759 L388 759 L303 823 L222 759 L131 759 Z " />
<glyph glyph-name="Edieresis" unicode="&#xcb;" horiz-adv-x="581" d="M90 0 L90 709 L521 709 L521 618 L188 618 L188 400 L490 400 L490 308 L188 308 L188 91 L521 91 L521 0 L90 0 Z M133 819 Q133 844 150 861 Q167 878 192 878 Q217 878 234 861 Q251 844 251 819 Q251 794 234 777 Q217 760 192 760 Q167 760 150 777 Q133 794 133 819 Z M364 819 Q364 844 381 861 Q398 878 423 878 Q448 878 465 861 Q482 844 482 819 Q482 794 465 777 Q448 760 423 760 Q398 760 381 777 Q364 794 364 819 Z " />
<glyph glyph-name="Igrave" unicode="&#xcc;" horiz-adv-x="280" d="M90 0 L90 709 L190 709 L190 0 L90 0 Z M-44 878 L85 878 L187 759 L94 759 L-44 878 Z " />
<glyph glyph-name="Iacute" unicode="&#xcd;" horiz-adv-x="280" d="M90 0 L90 709 L190 709 L190 0 L90 0 Z M188 759 L94 759 L195 878 L325 878 L188 759 Z " />
<glyph glyph-name="Icircumflex" unicode="&#xce;" horiz-adv-x="280" d="M90 0 L90 709 L190 709 L190 0 L90 0 Z M-27 759 L85 878 L205 878 L322 759 L230 759 L145 823 L64 759 L-27 759 Z " />
<glyph glyph-name="Idieresis" unicode="&#xcf;" horiz-adv-x="280" d="M90 0 L90 709 L190 709 L190 0 L90 0 Z M12 819 Q12 842 27 857 Q42 872 65 872 Q88 872 103.5 857 Q119 842 119 819 Q119 796 103.5 780.5 Q88 765 65 765 Q42 765 27 780.5 Q12 796 12 819 Z M165 819 Q165 842 180.5 857 Q196 872 219 872 Q242 872 257 857 Q272 842 272 819 Q272 796 257 780.5 Q242 765 219 765 Q196 765 180.5 780.5 Q165 796 165 819 Z " />
<glyph glyph-name="Eth" unicode="&#xd0;" horiz-adv-x="724" d="M94 0 L94 325 L18 325 L18 407 L94 407 L94 709 L342 709 Q409 709 470.5 686 Q532 663 578 618 Q624 573 651.5 506.5 Q679 440 679 353 Q679 266 651.5 200 Q624 134 577 89.5 Q530 45 468.5 22.5 Q407 0 340 0 L94 0 Z M337 87 Q386 87 430 103.5 Q474 120 507 153 Q540 186 559 236 Q578 286 578 353 Q578 420 559 470.5 Q540 521 507.5 554.5 Q475 588 431.5 605 Q388 622 339 622 L192 622 L192 407 L314 407 L314 325 L192 325 L192 87 L337 87 Z " />
<glyph glyph-name="Ntilde" unicode="&#xd1;" horiz-adv-x="763" d="M571 0 L188 578 L188 0 L90 0 L90 709 L221 709 L575 165 L575 709 L673 709 L673 0 L571 0 Z M543 865 Q543 809 516 781.5 Q489 754 447 754 Q425 754 408 760 Q391 766 376 777 L361 787 Q351 793 342.5 797 Q334 801 324 801 Q308 801 298.5 790.5 Q289 780 289 757 L221 757 L221 773 Q221 829 248.5 856.5 Q276 884 318 884 Q339 884 357.5 877 Q376 870 391 861 L406 852 Q417 846 425.5 842 Q434 838 444 838 Q457 838 466.5 845.5 Q476 853 476 873 L476 881 L543 881 L543 865 Z " />
<glyph glyph-name="Ograve" unicode="&#xd2;" horiz-adv-x="802" d="M145 355 Q145 286 166.5 233.5 Q188 181 223.5 145.5 Q259 110 305 92.5 Q351 75 401 75 Q450 75 496.5 92.5 Q543 110 578.5 145.5 Q614 181 635.5 233.5 Q657 286 657 355 Q657 424 635.5 476.5 Q614 529 578.5 564 Q543 599 496.5 616.5 Q450 634 401 634 Q351 634 305 616.5 Q259 599 223.5 564 Q188 529 166.5 476.5 Q145 424 145 355 Z M45 355 Q45 444 75.5 512.5 Q106 581 156 628 Q206 675 270 699.5 Q334 724 401 724 Q468 724 532 699.5 Q596 675 646 628 Q696 581 726.5 512.5 Q757 444 757 355 Q757 266 726.5 197 Q696 128 646 81 Q596 34 532 9.5 Q468 -15 401 -15 Q334 -15 270 9.5 Q206 34 156 81 Q106 128 75.5 197 Q45 266 45 355 Z M223 878 L352 878 L454 759 L361 759 L223 878 Z " />
<glyph glyph-name="Oacute" unicode="&#xd3;" horiz-adv-x="802" d="M145 355 Q145 286 166.5 233.5 Q188 181 223.5 145.5 Q259 110 305 92.5 Q351 75 401 75 Q450 75 496.5 92.5 Q543 110 578.5 145.5 Q614 181 635.5 233.5 Q657 286 657 355 Q657 424 635.5 476.5 Q614 529 578.5 564 Q543 599 496.5 616.5 Q450 634 401 634 Q351 634 305 616.5 Q259 599 223.5 564 Q188 529 166.5 476.5 Q145 424 145 355 Z M45 355 Q45 444 75.5 512.5 Q106 581 156 628 Q206 675 270 699.5 Q334 724 401 724 Q468 724 532 699.5 Q596 675 646 628 Q696 581 726.5 512.5 Q757 444 757 355 Q757 266 726.5 197 Q696 128 646 81 Q596 34 532 9.5 Q468 -15 401 -15 Q334 -15 270 9.5 Q206 34 156 81 Q106 128 75.5 197 Q45 266 45 355 Z M440 759 L346 759 L447 878 L577 878 L440 759 Z " />
<glyph glyph-name="Ocircumflex" unicode="&#xd4;" horiz-adv-x="802" d="M145 355 Q145 286 166.5 233.5 Q188 181 223.5 145.5 Q259 110 305 92.5 Q351 75 401 75 Q450 75 496.5 92.5 Q543 110 578.5 145.5 Q614 181 635.5 233.5 Q657 286 657 355 Q657 424 635.5 476.5 Q614 529 578.5 564 Q543 599 496.5 616.5 Q450 634 401 634 Q351 634 305 616.5 Q259 599 223.5 564 Q188 529 166.5 476.5 Q145 424 145 355 Z M45 355 Q45 444 75.5 512.5 Q106 581 156 628 Q206 675 270 699.5 Q334 724 401 724 Q468 724 532 699.5 Q596 675 646 628 Q696 581 726.5 512.5 Q757 444 757 355 Q757 266 726.5 197 Q696 128 646 81 Q596 34 532 9.5 Q468 -15 401 -15 Q334 -15 270 9.5 Q206 34 156 81 Q106 128 75.5 197 Q45 266 45 355 Z M227 759 L339 878 L459 878 L576 759 L484 759 L399 823 L318 759 L227 759 Z " />
<glyph glyph-name="Otilde" unicode="&#xd5;" horiz-adv-x="802" d="M145 355 Q145 286 166.5 233.5 Q188 181 223.5 145.5 Q259 110 305 92.5 Q351 75 401 75 Q450 75 496.5 92.5 Q543 110 578.5 145.5 Q614 181 635.5 233.5 Q657 286 657 355 Q657 424 635.5 476.5 Q614 529 578.5 564 Q543 599 496.5 616.5 Q450 634 401 634 Q351 634 305 616.5 Q259 599 223.5 564 Q188 529 166.5 476.5 Q145 424 145 355 Z M45 355 Q45 444 75.5 512.5 Q106 581 156 628 Q206 675 270 699.5 Q334 724 401 724 Q468 724 532 699.5 Q596 675 646 628 Q696 581 726.5 512.5 Q757 444 757 355 Q757 266 726.5 197 Q696 128 646 81 Q596 34 532 9.5 Q468 -15 401 -15 Q334 -15 270 9.5 Q206 34 156 81 Q106 128 75.5 197 Q45 266 45 355 Z M566 866 Q566 810 539 782.5 Q512 755 470 755 Q448 755 431 761 Q414 767 399 778 L384 788 Q374 794 365.5 798 Q357 802 347 802 Q331 802 321.5 791.5 Q312 781 312 758 L244 758 L244 774 Q244 830 271.5 857.5 Q299 885 341 885 Q362 885 380.5 878 Q399 871 414 862 L429 853 Q440 847 448.5 843 Q457 839 467 839 Q480 839 489.5 846.5 Q499 854 499 874 L499 882 L566 882 L566 866 Z " />
<glyph glyph-name="Odieresis" unicode="&#xd6;" horiz-adv-x="802" d="M187 819 Q187 844 204 861 Q221 878 246 878 Q271 878 288 861 Q305 844 305 819 Q305 794 288 777 Q271 760 246 760 Q221 760 204 777 Q187 794 187 819 Z M498 819 Q498 844 515 861 Q532 878 557 878 Q582 878 599 861 Q616 844 616 819 Q616 794 599 777 Q582 760 557 760 Q532 760 515 777 Q498 794 498 819 Z M145 355 Q145 286 166.5 233.5 Q188 181 223.5 145.5 Q259 110 305 92.5 Q351 75 401 75 Q450 75 496.5 92.5 Q543 110 578.5 145.5 Q614 181 635.5 233.5 Q657 286 657 355 Q657 424 635.5 476.5 Q614 529 578.5 564 Q543 599 496.5 616.5 Q450 634 401 634 Q351 634 305 616.5 Q259 599 223.5 564 Q188 529 166.5 476.5 Q145 424 145 355 Z M45 355 Q45 444 75.5 512.5 Q106 581 156 628 Q206 675 270 699.5 Q334 724 401 724 Q468 724 532 699.5 Q596 675 646 628 Q696 581 726.5 512.5 Q757 444 757 355 Q757 266 726.5 197 Q696 128 646 81 Q596 34 532 9.5 Q468 -15 401 -15 Q334 -15 270 9.5 Q206 34 156 81 Q106 128 75.5 197 Q45 266 45 355 Z " />
<glyph glyph-name="multiply" unicode="&#xd7;" horiz-adv-x="530" d="M264 230 L96 56 L40 112 L209 288 L41 462 L98 519 L265 345 L432 519 L489 463 L320 288 L490 112 L434 55 L264 230 Z " />
<glyph glyph-name="Oslash" unicode="&#xd8;" horiz-adv-x="802" d="M45 355 Q45 444 75.5 512.5 Q106 581 156 628 Q206 675 270 699.5 Q334 724 401 724 Q452 724 500.5 710 Q549 696 592 669 L664 761 L732 709 L659 615 Q704 568 730.5 503 Q757 438 757 355 Q757 266 726.5 197 Q696 128 646 81 Q596 34 532 9.5 Q468 -15 401 -15 Q351 -15 303 -1.5 Q255 12 212 38 L144 -51 L74 0 L145 92 Q100 139 72.5 204.5 Q45 270 45 355 Z M145 355 Q145 295 160.5 248.5 Q176 202 204 167 L536 596 Q475 634 401 634 Q351 634 305 616.5 Q259 599 223.5 564 Q188 529 166.5 476.5 Q145 424 145 355 Z M657 355 Q657 413 641.5 458.5 Q626 504 600 539 L268 110 Q298 92 332 83.5 Q366 75 401 75 Q450 75 496.5 92.5 Q543 110 578.5 145.5 Q614 181 635.5 233.5 Q657 286 657 355 Z " />
<glyph glyph-name="Ugrave" unicode="&#xd9;" horiz-adv-x="670" d="M335 -15 Q281 -15 234.5 1.5 Q188 18 153.5 50.5 Q119 83 99.5 131 Q80 179 80 242 L80 709 L177 709 L177 245 Q177 164 218.5 120 Q260 76 335 76 Q410 76 451 120 Q492 164 492 245 L492 709 L590 709 L590 242 Q590 179 570.5 131 Q551 83 516.5 50.5 Q482 18 435.5 1.5 Q389 -15 335 -15 Z M173 878 L302 878 L404 759 L311 759 L173 878 Z " />
<glyph glyph-name="Uacute" unicode="&#xda;" horiz-adv-x="670" d="M335 -15 Q281 -15 234.5 1.5 Q188 18 153.5 50.5 Q119 83 99.5 131 Q80 179 80 242 L80 709 L177 709 L177 245 Q177 164 218.5 120 Q260 76 335 76 Q410 76 451 120 Q492 164 492 245 L492 709 L590 709 L590 242 Q590 179 570.5 131 Q551 83 516.5 50.5 Q482 18 435.5 1.5 Q389 -15 335 -15 Z M357 759 L263 759 L364 878 L494 878 L357 759 Z " />
<glyph glyph-name="Ucircumflex" unicode="&#xdb;" horiz-adv-x="670" d="M335 -15 Q281 -15 234.5 1.5 Q188 18 153.5 50.5 Q119 83 99.5 131 Q80 179 80 242 L80 709 L177 709 L177 245 Q177 164 218.5 120 Q260 76 335 76 Q410 76 451 120 Q492 164 492 245 L492 709 L590 709 L590 242 Q590 179 570.5 131 Q551 83 516.5 50.5 Q482 18 435.5 1.5 Q389 -15 335 -15 Z M161 759 L273 878 L393 878 L510 759 L418 759 L333 823 L252 759 L161 759 Z " />
<glyph glyph-name="Udieresis" unicode="&#xdc;" horiz-adv-x="670" d="M166 819 Q166 844 183 861 Q200 878 225 878 Q250 878 267 861 Q284 844 284 819 Q284 794 267 777 Q250 760 225 760 Q200 760 183 777 Q166 794 166 819 Z M387 819 Q387 844 404 861 Q421 878 446 878 Q471 878 488 861 Q505 844 505 819 Q505 794 488 777 Q471 760 446 760 Q421 760 404 777 Q387 794 387 819 Z M335 -15 Q281 -15 234.5 1.5 Q188 18 153.5 50.5 Q119 83 99.5 131 Q80 179 80 242 L80 709 L177 709 L177 245 Q177 164 218.5 120 Q260 76 335 76 Q410 76 451 120 Q492 164 492 245 L492 709 L590 709 L590 242 Q590 179 570.5 131 Q551 83 516.5 50.5 Q482 18 435.5 1.5 Q389 -15 335 -15 Z " />
<glyph glyph-name="Yacute" unicode="&#xdd;" horiz-adv-x="618" d="M10 709 L128 709 L312 393 L496 709 L608 709 L358 303 L358 0 L260 0 L260 303 L10 709 Z M330 759 L236 759 L337 878 L467 878 L330 759 Z " />
<glyph glyph-name="Thorn" unicode="&#xde;" horiz-adv-x="592" d="M332 244 Q396 244 431.5 276 Q467 308 467 363 Q467 420 431.5 452.5 Q396 485 332 485 L188 485 L188 244 L332 244 Z M188 157 L188 0 L90 0 L90 709 L188 709 L188 572 L343 572 Q392 572 433 556 Q474 540 504 512.5 Q534 485 550.5 447 Q567 409 567 364 Q567 319 550.5 281 Q534 243 504.5 215.5 Q475 188 434 172.5 Q393 157 344 157 L188 157 Z " />
<glyph glyph-name="germandbls" unicode="&#xdf;" horiz-adv-x="567" d="M357 343 Q357 323 369.5 314 Q382 305 403 295 L438 278 Q480 258 511 220.5 Q542 183 542 130 Q542 105 532.5 79 Q523 53 502.5 32 Q482 11 451.5 -2 Q421 -15 379 -15 Q334 -15 302.5 -1 Q271 13 251.5 34 Q232 55 223.5 79.5 Q215 104 215 126 L298 148 Q298 136 302 121 Q306 106 315.5 93 Q325 80 340.5 71.5 Q356 63 379 63 Q415 63 432 83 Q449 103 449 122 Q449 148 436 165 Q423 182 397 195 L363 211 Q346 219 327.5 229 Q309 239 293.5 254 Q278 269 268 289.5 Q258 310 258 338 Q258 374 275 400.5 Q292 427 321 446 L353 467 Q378 483 394 503.5 Q410 524 410 552 Q410 588 381.5 614.5 Q353 641 300 641 Q274 641 251.5 631.5 Q229 622 211.5 603 Q194 584 184 555 Q174 526 174 488 L174 0 L80 0 L80 493 Q80 548 97 591 Q114 634 144 663.5 Q174 693 214 708.5 Q254 724 300 724 Q346 724 383.5 711 Q421 698 448 675 Q475 652 490 621.5 Q505 591 505 555 Q505 526 497.5 503 Q490 480 478 462 Q466 444 450 430.5 Q434 417 417 407 L388 389 Q374 381 365.5 370.5 Q357 360 357 343 Z " />
<glyph glyph-name="agrave" unicode="&#xe0;" horiz-adv-x="523" d="M50 129 Q50 161 61 186.5 Q72 212 91.5 230 Q111 248 138 259 Q165 270 196 275 L326 294 Q348 297 355.5 307 Q363 317 363 330 Q363 365 338.5 390.5 Q314 416 259 416 Q209 416 182 388.5 Q155 361 150 319 L60 340 Q64 374 80.5 403 Q97 432 123 452.5 Q149 473 183.5 484.5 Q218 496 257 496 Q311 496 349 481.5 Q387 467 411 443 Q435 419 446 387 Q457 355 457 320 L457 79 Q457 47 459 28 Q461 9 463 0 L371 0 Q369 9 367.5 24 Q366 39 366 65 Q358 52 345 38 Q332 24 313 12 Q294 0 268.5 -7.5 Q243 -15 211 -15 Q174 -15 144.5 -3 Q115 9 94 28.5 Q73 48 61.5 74 Q50 100 50 129 Z M224 64 Q253 64 278.5 71.5 Q304 79 322.5 95.5 Q341 112 352 139.5 Q363 167 363 206 L363 228 L216 206 Q186 201 166 183.5 Q146 166 146 134 Q146 107 167 85.5 Q188 64 224 64 Z M109 689 L227 689 L313 543 L235 543 L109 689 Z " />
<glyph glyph-name="aacute" unicode="&#xe1;" horiz-adv-x="523" d="M50 129 Q50 161 61 186.5 Q72 212 91.5 230 Q111 248 138 259 Q165 270 196 275 L326 294 Q348 297 355.5 307 Q363 317 363 330 Q363 365 338.5 390.5 Q314 416 259 416 Q209 416 182 388.5 Q155 361 150 319 L60 340 Q64 374 80.5 403 Q97 432 123 452.5 Q149 473 183.5 484.5 Q218 496 257 496 Q311 496 349 481.5 Q387 467 411 443 Q435 419 446 387 Q457 355 457 320 L457 79 Q457 47 459 28 Q461 9 463 0 L371 0 Q369 9 367.5 24 Q366 39 366 65 Q358 52 345 38 Q332 24 313 12 Q294 0 268.5 -7.5 Q243 -15 211 -15 Q174 -15 144.5 -3 Q115 9 94 28.5 Q73 48 61.5 74 Q50 100 50 129 Z M224 64 Q253 64 278.5 71.5 Q304 79 322.5 95.5 Q341 112 352 139.5 Q363 167 363 206 L363 228 L216 206 Q186 201 166 183.5 Q146 166 146 134 Q146 107 167 85.5 Q188 64 224 64 Z M299 543 L220 543 L307 689 L425 689 L299 543 Z " />
<glyph glyph-name="acircumflex" unicode="&#xe2;" horiz-adv-x="523" d="M50 129 Q50 161 61 186.5 Q72 212 91.5 230 Q111 248 138 259 Q165 270 196 275 L326 294 Q348 297 355.5 307 Q363 317 363 330 Q363 365 338.5 390.5 Q314 416 259 416 Q209 416 182 388.5 Q155 361 150 319 L60 340 Q64 374 80.5 403 Q97 432 123 452.5 Q149 473 183.5 484.5 Q218 496 257 496 Q311 496 349 481.5 Q387 467 411 443 Q435 419 446 387 Q457 355 457 320 L457 79 Q457 47 459 28 Q461 9 463 0 L371 0 Q369 9 367.5 24 Q366 39 366 65 Q358 52 345 38 Q332 24 313 12 Q294 0 268.5 -7.5 Q243 -15 211 -15 Q174 -15 144.5 -3 Q115 9 94 28.5 Q73 48 61.5 74 Q50 100 50 129 Z M224 64 Q253 64 278.5 71.5 Q304 79 322.5 95.5 Q341 112 352 139.5 Q363 167 363 206 L363 228 L216 206 Q186 201 166 183.5 Q146 166 146 134 Q146 107 167 85.5 Q188 64 224 64 Z M108 545 L212 684 L319 684 L423 545 L335 545 L265 626 L195 545 L108 545 Z " />
<glyph glyph-name="atilde" unicode="&#xe3;" horiz-adv-x="523" d="M50 129 Q50 161 61 186.5 Q72 212 91.5 230 Q111 248 138 259 Q165 270 196 275 L326 294 Q348 297 355.5 307 Q363 317 363 330 Q363 365 338.5 390.5 Q314 416 259 416 Q209 416 182 388.5 Q155 361 150 319 L60 340 Q64 374 80.5 403 Q97 432 123 452.5 Q149 473 183.5 484.5 Q218 496 257 496 Q311 496 349 481.5 Q387 467 411 443 Q435 419 446 387 Q457 355 457 320 L457 79 Q457 47 459 28 Q461 9 463 0 L371 0 Q369 9 367.5 24 Q366 39 366 65 Q358 52 345 38 Q332 24 313 12 Q294 0 268.5 -7.5 Q243 -15 211 -15 Q174 -15 144.5 -3 Q115 9 94 28.5 Q73 48 61.5 74 Q50 100 50 129 Z M224 64 Q253 64 278.5 71.5 Q304 79 322.5 95.5 Q341 112 352 139.5 Q363 167 363 206 L363 228 L216 206 Q186 201 166 183.5 Q146 166 146 134 Q146 107 167 85.5 Q188 64 224 64 Z M422 662 Q422 606 394.5 579.5 Q367 553 325 553 Q305 553 289 559.5 Q273 566 259 575 L245 584 Q235 590 226.5 594 Q218 598 208 598 Q194 598 186.5 589 Q179 580 179 555 L107 555 L107 570 Q107 626 135 652.5 Q163 679 205 679 Q225 679 241.5 672.5 Q258 666 272 657 L286 648 Q296 642 304 638 Q312 634 322 634 Q337 634 344 643.5 Q351 653 351 677 L422 677 L422 662 Z " />
<glyph glyph-name="adieresis" unicode="&#xe4;" horiz-adv-x="523" d="M50 129 Q50 161 61 186.5 Q72 212 91.5 230 Q111 248 138 259 Q165 270 196 275 L326 294 Q348 297 355.5 307 Q363 317 363 330 Q363 365 338.5 390.5 Q314 416 259 416 Q209 416 182 388.5 Q155 361 150 319 L60 340 Q64 374 80.5 403 Q97 432 123 452.5 Q149 473 183.5 484.5 Q218 496 257 496 Q311 496 349 481.5 Q387 467 411 443 Q435 419 446 387 Q457 355 457 320 L457 79 Q457 47 459 28 Q461 9 463 0 L371 0 Q369 9 367.5 24 Q366 39 366 65 Q358 52 345 38 Q332 24 313 12 Q294 0 268.5 -7.5 Q243 -15 211 -15 Q174 -15 144.5 -3 Q115 9 94 28.5 Q73 48 61.5 74 Q50 100 50 129 Z M224 64 Q253 64 278.5 71.5 Q304 79 322.5 95.5 Q341 112 352 139.5 Q363 167 363 206 L363 228 L216 206 Q186 201 166 183.5 Q146 166 146 134 Q146 107 167 85.5 Q188 64 224 64 Z M110 621 Q110 645 126.5 662 Q143 679 167 679 Q192 679 209 662 Q226 645 226 621 Q226 596 209 579.5 Q192 563 167 563 Q143 563 126.5 579.5 Q110 596 110 621 Z M297 621 Q297 645 313.5 662 Q330 679 355 679 Q379 679 396 662 Q413 645 413 621 Q413 596 396 579.5 Q379 563 355 563 Q330 563 313.5 579.5 Q297 596 297 621 Z " />
<glyph glyph-name="aring" unicode="&#xe5;" horiz-adv-x="523" d="M50 129 Q50 161 61 186.5 Q72 212 91.5 230 Q111 248 138 259 Q165 270 196 275 L326 294 Q348 297 355.5 307 Q363 317 363 330 Q363 365 338.5 390.5 Q314 416 259 416 Q209 416 182 388.5 Q155 361 150 319 L60 340 Q64 374 80.5 403 Q97 432 123 452.5 Q149 473 183.5 484.5 Q218 496 257 496 Q311 496 349 481.5 Q387 467 411 443 Q435 419 446 387 Q457 355 457 320 L457 79 Q457 47 459 28 Q461 9 463 0 L371 0 Q369 9 367.5 24 Q366 39 366 65 Q358 52 345 38 Q332 24 313 12 Q294 0 268.5 -7.5 Q243 -15 211 -15 Q174 -15 144.5 -3 Q115 9 94 28.5 Q73 48 61.5 74 Q50 100 50 129 Z M224 64 Q253 64 278.5 71.5 Q304 79 322.5 95.5 Q341 112 352 139.5 Q363 167 363 206 L363 228 L216 206 Q186 201 166 183.5 Q146 166 146 134 Q146 107 167 85.5 Q188 64 224 64 Z M373 641 Q373 618 364 598 Q355 578 340 563.5 Q325 549 304.5 540.5 Q284 532 261 532 Q239 532 219 540.5 Q199 549 183.5 563.5 Q168 578 159 598 Q150 618 150 641 Q150 664 159 684 Q168 704 183.5 719 Q199 734 219 742.5 Q239 751 261 751 Q284 751 304.5 742.5 Q325 734 340 719 Q355 704 364 684 Q373 664 373 641 Z M309 641 Q309 661 295 675.5 Q281 690 260 690 Q240 690 226.5 675.5 Q213 661 213 641 Q213 621 226.5 607 Q240 593 260 593 Q281 593 295 607 Q309 621 309 641 Z " />
<glyph glyph-name="ae" unicode="&#xe6;" horiz-adv-x="874" d="M831 137 Q821 105 801 77.5 Q781 50 753 29.5 Q725 9 690 -3 Q655 -15 615 -15 Q554 -15 501.5 11.5 Q449 38 415 89 Q404 70 388 51.5 Q372 33 349 18 Q326 3 294.5 -6 Q263 -15 222 -15 Q181 -15 149 -3 Q117 9 95 28.5 Q73 48 61.5 74 Q50 100 50 129 Q50 161 61 186.5 Q72 212 91.5 230 Q111 248 138 259 Q165 270 196 275 L335 294 Q359 298 366 308.5 Q373 319 373 330 Q373 365 345.5 391 Q318 417 263 417 Q212 417 182.5 389 Q153 361 148 323 L60 340 Q63 376 82.5 405 Q102 434 130.5 454.5 Q159 475 193.5 485.5 Q228 496 263 496 Q325 496 368 474 Q411 452 434 416 Q466 454 510 475 Q554 496 603 496 Q658 496 701.5 477.5 Q745 459 774 426 Q803 393 818.5 346.5 Q834 300 834 244 Q834 237 833.5 227.5 Q833 218 832 214 L470 214 Q471 182 482.5 155.5 Q494 129 513.5 109.5 Q533 90 559 79 Q585 68 615 68 Q673 68 704 96 Q735 124 749 165 L831 137 Z M229 64 Q254 64 279.5 71.5 Q305 79 326 95.5 Q347 112 360 139 Q373 166 373 205 L373 228 L216 206 Q184 201 165 183 Q146 165 146 132 Q146 106 167.5 85 Q189 64 229 64 Z M736 290 Q734 342 700.5 377.5 Q667 413 604 413 Q574 413 550.5 402.5 Q527 392 510.5 374.5 Q494 357 484 335 Q474 313 473 290 L736 290 Z " />
<glyph glyph-name="ccedilla" unicode="&#xe7;" horiz-adv-x="530" d="M220 -63 L252 -13 Q205 -7 166.5 14.5 Q128 36 99.5 69.5 Q71 103 55.5 147 Q40 191 40 241 Q40 296 58.5 343 Q77 390 109.5 424 Q142 458 186.5 477 Q231 496 282 496 Q330 496 366.5 482.5 Q403 469 429.5 447 Q456 425 472 397.5 Q488 370 496 343 L411 307 Q406 325 397 343 Q388 361 372.5 375.5 Q357 390 335 399.5 Q313 409 282 409 Q253 409 227 398 Q201 387 180.5 366 Q160 345 148 313.5 Q136 282 136 241 Q136 200 148 168.5 Q160 137 180 115.5 Q200 94 227 83 Q254 72 283 72 Q316 72 339.5 82 Q363 92 378.5 107 Q394 122 403.5 139.5 Q413 157 417 171 L500 135 Q492 112 477.5 88 Q463 64 441.5 44 Q420 24 390.5 9 Q361 -6 323 -12 L300 -47 Q342 -47 369.5 -69 Q397 -91 397 -129 Q397 -164 369 -190.5 Q341 -217 280 -217 Q242 -217 213.5 -204 Q185 -191 170 -173 L207 -128 Q216 -138 234.5 -150 Q253 -162 279 -162 Q297 -162 311.5 -154 Q326 -146 326 -129 Q326 -115 314.5 -106 Q303 -97 282 -97 Q266 -97 253 -102 L220 -63 Z " />
<glyph glyph-name="egrave" unicode="&#xe8;" horiz-adv-x="542" d="M404 290 Q402 342 369 377.5 Q336 413 272 413 Q242 413 218.5 402.5 Q195 392 178.5 374.5 Q162 357 152 335 Q142 313 141 290 L404 290 Z M499 137 Q489 105 469.5 77.5 Q450 50 422.5 29.5 Q395 9 360 -3 Q325 -15 283 -15 Q235 -15 191 2 Q147 19 113.5 52 Q80 85 60.5 133 Q41 181 41 242 Q41 299 60 345.5 Q79 392 110.5 425.5 Q142 459 184 477.5 Q226 496 271 496 Q326 496 369.5 477.5 Q413 459 442 426 Q471 393 486.5 346.5 Q502 300 502 244 Q502 235 501.5 227 Q501 219 500 214 L138 214 Q139 182 150 155 Q161 128 180.5 108.5 Q200 89 226.5 78.5 Q253 68 283 68 Q342 68 373 96 Q404 124 418 165 L499 137 Z M124 689 L242 689 L328 543 L250 543 L124 689 Z " />
<glyph glyph-name="eacute" unicode="&#xe9;" horiz-adv-x="542" d="M404 290 Q402 342 369 377.5 Q336 413 272 413 Q242 413 218.5 402.5 Q195 392 178.5 374.5 Q162 357 152 335 Q142 313 141 290 L404 290 Z M499 137 Q489 105 469.5 77.5 Q450 50 422.5 29.5 Q395 9 360 -3 Q325 -15 283 -15 Q235 -15 191 2 Q147 19 113.5 52 Q80 85 60.5 133 Q41 181 41 242 Q41 299 60 345.5 Q79 392 110.5 425.5 Q142 459 184 477.5 Q226 496 271 496 Q326 496 369.5 477.5 Q413 459 442 426 Q471 393 486.5 346.5 Q502 300 502 244 Q502 235 501.5 227 Q501 219 500 214 L138 214 Q139 182 150 155 Q161 128 180.5 108.5 Q200 89 226.5 78.5 Q253 68 283 68 Q342 68 373 96 Q404 124 418 165 L499 137 Z M309 543 L230 543 L317 689 L435 689 L309 543 Z " />
<glyph glyph-name="ecircumflex" unicode="&#xea;" horiz-adv-x="542" d="M404 290 Q402 342 369 377.5 Q336 413 272 413 Q242 413 218.5 402.5 Q195 392 178.5 374.5 Q162 357 152 335 Q142 313 141 290 L404 290 Z M499 137 Q489 105 469.5 77.5 Q450 50 422.5 29.5 Q395 9 360 -3 Q325 -15 283 -15 Q235 -15 191 2 Q147 19 113.5 52 Q80 85 60.5 133 Q41 181 41 242 Q41 299 60 345.5 Q79 392 110.5 425.5 Q142 459 184 477.5 Q226 496 271 496 Q326 496 369.5 477.5 Q413 459 442 426 Q471 393 486.5 346.5 Q502 300 502 244 Q502 235 501.5 227 Q501 219 500 214 L138 214 Q139 182 150 155 Q161 128 180.5 108.5 Q200 89 226.5 78.5 Q253 68 283 68 Q342 68 373 96 Q404 124 418 165 L499 137 Z M122 545 L226 684 L333 684 L437 545 L349 545 L279 626 L209 545 L122 545 Z " />
<glyph glyph-name="edieresis" unicode="&#xeb;" horiz-adv-x="542" d="M404 290 Q402 342 369 377.5 Q336 413 272 413 Q242 413 218.5 402.5 Q195 392 178.5 374.5 Q162 357 152 335 Q142 313 141 290 L404 290 Z M499 137 Q489 105 469.5 77.5 Q450 50 422.5 29.5 Q395 9 360 -3 Q325 -15 283 -15 Q235 -15 191 2 Q147 19 113.5 52 Q80 85 60.5 133 Q41 181 41 242 Q41 299 60 345.5 Q79 392 110.5 425.5 Q142 459 184 477.5 Q226 496 271 496 Q326 496 369.5 477.5 Q413 459 442 426 Q471 393 486.5 346.5 Q502 300 502 244 Q502 235 501.5 227 Q501 219 500 214 L138 214 Q139 182 150 155 Q161 128 180.5 108.5 Q200 89 226.5 78.5 Q253 68 283 68 Q342 68 373 96 Q404 124 418 165 L499 137 Z M126 621 Q126 645 142.5 662 Q159 679 183 679 Q208 679 225 662 Q242 645 242 621 Q242 596 225 579.5 Q208 563 183 563 Q159 563 142.5 579.5 Q126 596 126 621 Z M313 621 Q313 645 329.5 662 Q346 679 371 679 Q395 679 412 662 Q429 645 429 621 Q429 596 412 579.5 Q395 563 371 563 Q346 563 329.5 579.5 Q313 596 313 621 Z " />
<glyph glyph-name="igrave" unicode="&#xec;" horiz-adv-x="253" d="M-32 689 L86 689 L172 543 L94 543 L-32 689 Z M80 0 L80 481 L173 481 L173 0 L80 0 Z " />
<glyph glyph-name="iacute" unicode="&#xed;" horiz-adv-x="253" d="M164 543 L85 543 L172 689 L290 689 L164 543 Z M80 0 L80 481 L173 481 L173 0 L80 0 Z " />
<glyph glyph-name="icircumflex" unicode="&#xee;" horiz-adv-x="253" d="M80 0 L80 481 L173 481 L173 0 L80 0 Z M-29 545 L75 684 L182 684 L286 545 L198 545 L128 626 L58 545 L-29 545 Z " />
<glyph glyph-name="idieresis" unicode="&#xef;" horiz-adv-x="253" d="M80 0 L80 481 L173 481 L173 0 L80 0 Z M4 621 Q4 644 19 659.5 Q34 675 57 675 Q80 675 95.5 659.5 Q111 644 111 621 Q111 598 95.5 583 Q80 568 57 568 Q34 568 19 583 Q4 598 4 621 Z M145 621 Q145 644 160 659.5 Q175 675 198 675 Q221 675 236.5 659.5 Q252 644 252 621 Q252 598 236.5 583 Q221 568 198 568 Q175 568 160 583 Q145 598 145 621 Z " />
<glyph glyph-name="eth" unicode="&#xf0;" horiz-adv-x="570" d="M394 599 Q422 573 447 539 Q472 505 490.5 463 Q509 421 520 371 Q531 321 531 261 Q531 202 514 152 Q497 102 465.5 65 Q434 28 388.5 7 Q343 -14 285 -14 Q231 -14 186 4 Q141 22 108.5 54.5 Q76 87 58 131 Q40 175 40 227 Q40 282 60 326 Q80 370 112 401 Q144 432 185.5 448 Q227 464 271 464 Q316 464 352.5 451.5 Q389 439 411 414 Q394 460 368 495 Q342 530 310 557 L179 492 L150 555 L244 602 Q216 618 188 629 Q160 640 132 648 L161 724 Q190 717 237.5 699 Q285 681 335 647 L444 702 L475 639 L394 599 Z M285 70 Q315 70 342 80 Q369 90 389.5 110 Q410 130 422 159.5 Q434 189 434 227 Q434 266 422 295 Q410 324 389.5 344 Q369 364 342 374 Q315 384 285 384 Q255 384 228 373.5 Q201 363 180 343 Q159 323 147 294 Q135 265 135 227 Q135 189 147 159.5 Q159 130 180 110 Q201 90 228 80 Q255 70 285 70 Z " />
<glyph glyph-name="ntilde" unicode="&#xf1;" horiz-adv-x="562" d="M174 0 L80 0 L80 481 L172 481 L172 412 Q198 457 238 476 Q278 495 320 495 Q363 495 395.5 480.5 Q428 466 449.5 440.5 Q471 415 481.5 380 Q492 345 492 305 L492 0 L398 0 L398 289 Q398 314 392.5 336 Q387 358 373.5 374.5 Q360 391 338.5 400.5 Q317 410 286 410 Q258 410 237 399.5 Q216 389 202 371 Q188 353 181 329 Q174 305 174 278 L174 0 Z M452 662 Q452 606 424.5 579.5 Q397 553 355 553 Q335 553 319 559.5 Q303 566 289 575 L275 584 Q265 590 256.5 594 Q248 598 238 598 Q224 598 216.5 589 Q209 580 209 555 L137 555 L137 570 Q137 626 165 652.5 Q193 679 235 679 Q255 679 271.5 672.5 Q288 666 302 657 L316 648 Q326 642 334 638 Q342 634 352 634 Q367 634 374 643.5 Q381 653 381 677 L452 677 L452 662 Z " />
<glyph glyph-name="ograve" unicode="&#xf2;" horiz-adv-x="572" d="M286 69 Q316 69 343 80 Q370 91 391 113 Q412 135 424 167 Q436 199 436 241 Q436 283 424 314.5 Q412 346 391 368 Q370 390 343 401 Q316 412 286 412 Q256 412 229 401 Q202 390 181 368 Q160 346 148 314.5 Q136 283 136 241 Q136 199 148 167 Q160 135 181 113 Q202 91 229 80 Q256 69 286 69 Z M286 496 Q340 496 385 476.5 Q430 457 463 423 Q496 389 514 342.5 Q532 296 532 241 Q532 186 514 139 Q496 92 463 58 Q430 24 385 4.5 Q340 -15 286 -15 Q232 -15 187 4.5 Q142 24 109 58 Q76 92 58 139 Q40 186 40 241 Q40 296 58 342.5 Q76 389 109 423 Q142 457 187 476.5 Q232 496 286 496 Z M125 689 L243 689 L329 543 L251 543 L125 689 Z " />
<glyph glyph-name="oacute" unicode="&#xf3;" horiz-adv-x="572" d="M286 69 Q316 69 343 80 Q370 91 391 113 Q412 135 424 167 Q436 199 436 241 Q436 283 424 314.5 Q412 346 391 368 Q370 390 343 401 Q316 412 286 412 Q256 412 229 401 Q202 390 181 368 Q160 346 148 314.5 Q136 283 136 241 Q136 199 148 167 Q160 135 181 113 Q202 91 229 80 Q256 69 286 69 Z M286 496 Q340 496 385 476.5 Q430 457 463 423 Q496 389 514 342.5 Q532 296 532 241 Q532 186 514 139 Q496 92 463 58 Q430 24 385 4.5 Q340 -15 286 -15 Q232 -15 187 4.5 Q142 24 109 58 Q76 92 58 139 Q40 186 40 241 Q40 296 58 342.5 Q76 389 109 423 Q142 457 187 476.5 Q232 496 286 496 Z M309 543 L230 543 L317 689 L435 689 L309 543 Z " />
<glyph glyph-name="ocircumflex" unicode="&#xf4;" horiz-adv-x="572" d="M286 69 Q316 69 343 80 Q370 91 391 113 Q412 135 424 167 Q436 199 436 241 Q436 283 424 314.5 Q412 346 391 368 Q370 390 343 401 Q316 412 286 412 Q256 412 229 401 Q202 390 181 368 Q160 346 148 314.5 Q136 283 136 241 Q136 199 148 167 Q160 135 181 113 Q202 91 229 80 Q256 69 286 69 Z M286 496 Q340 496 385 476.5 Q430 457 463 423 Q496 389 514 342.5 Q532 296 532 241 Q532 186 514 139 Q496 92 463 58 Q430 24 385 4.5 Q340 -15 286 -15 Q232 -15 187 4.5 Q142 24 109 58 Q76 92 58 139 Q40 186 40 241 Q40 296 58 342.5 Q76 389 109 423 Q142 457 187 476.5 Q232 496 286 496 Z M129 545 L233 684 L340 684 L444 545 L356 545 L286 626 L216 545 L129 545 Z " />
<glyph glyph-name="otilde" unicode="&#xf5;" horiz-adv-x="572" d="M286 69 Q316 69 343 80 Q370 91 391 113 Q412 135 424 167 Q436 199 436 241 Q436 283 424 314.5 Q412 346 391 368 Q370 390 343 401 Q316 412 286 412 Q256 412 229 401 Q202 390 181 368 Q160 346 148 314.5 Q136 283 136 241 Q136 199 148 167 Q160 135 181 113 Q202 91 229 80 Q256 69 286 69 Z M286 496 Q340 496 385 476.5 Q430 457 463 423 Q496 389 514 342.5 Q532 296 532 241 Q532 186 514 139 Q496 92 463 58 Q430 24 385 4.5 Q340 -15 286 -15 Q232 -15 187 4.5 Q142 24 109 58 Q76 92 58 139 Q40 186 40 241 Q40 296 58 342.5 Q76 389 109 423 Q142 457 187 476.5 Q232 496 286 496 Z M445 662 Q445 606 417.5 579.5 Q390 553 348 553 Q328 553 312 559.5 Q296 566 282 575 L268 584 Q258 590 249.5 594 Q241 598 231 598 Q217 598 209.5 589 Q202 580 202 555 L130 555 L130 570 Q130 626 158 652.5 Q186 679 228 679 Q248 679 264.5 672.5 Q281 666 295 657 L309 648 Q319 642 327 638 Q335 634 345 634 Q360 634 367 643.5 Q374 653 374 677 L445 677 L445 662 Z " />
<glyph glyph-name="odieresis" unicode="&#xf6;" horiz-adv-x="572" d="M286 69 Q316 69 343 80 Q370 91 391 113 Q412 135 424 167 Q436 199 436 241 Q436 283 424 314.5 Q412 346 391 368 Q370 390 343 401 Q316 412 286 412 Q256 412 229 401 Q202 390 181 368 Q160 346 148 314.5 Q136 283 136 241 Q136 199 148 167 Q160 135 181 113 Q202 91 229 80 Q256 69 286 69 Z M286 496 Q340 496 385 476.5 Q430 457 463 423 Q496 389 514 342.5 Q532 296 532 241 Q532 186 514 139 Q496 92 463 58 Q430 24 385 4.5 Q340 -15 286 -15 Q232 -15 187 4.5 Q142 24 109 58 Q76 92 58 139 Q40 186 40 241 Q40 296 58 342.5 Q76 389 109 423 Q142 457 187 476.5 Q232 496 286 496 Z M134 621 Q134 645 150.5 662 Q167 679 191 679 Q216 679 233 662 Q250 645 250 621 Q250 596 233 579.5 Q216 563 191 563 Q167 563 150.5 579.5 Q134 596 134 621 Z M321 621 Q321 645 337.5 662 Q354 679 379 679 Q403 679 420 662 Q437 645 437 621 Q437 596 420 579.5 Q403 563 379 563 Q354 563 337.5 579.5 Q321 596 321 621 Z " />
<glyph glyph-name="divide" unicode="&#xf7;" horiz-adv-x="567" d="M218 110 Q218 136 237.5 155 Q257 174 283 174 Q309 174 328 155 Q347 136 347 110 Q347 84 328 64.5 Q309 45 283 45 Q257 45 237.5 64.5 Q218 84 218 110 Z M218 465 Q218 491 237.5 510 Q257 529 283 529 Q309 529 328 510 Q347 491 347 465 Q347 439 328 419.5 Q309 400 283 400 Q257 400 237.5 419.5 Q218 439 218 465 Z M55 329 L512 329 L512 246 L55 246 L55 329 Z " />
<glyph glyph-name="oslash" unicode="&#xf8;" horiz-adv-x="572" d="M286 496 Q321 496 352.5 487.5 Q384 479 411 464 L461 529 L521 481 L470 415 Q499 381 515.5 337 Q532 293 532 241 Q532 186 514 139 Q496 92 463 58 Q430 24 385 4.5 Q340 -15 286 -15 Q251 -15 219.5 -6.5 Q188 2 162 16 L113 -47 L53 1 L102 65 Q73 99 56.5 143.5 Q40 188 40 241 Q40 296 58 342.5 Q76 389 109 423 Q142 457 187 476.5 Q232 496 286 496 Z M136 241 Q136 208 143 184 Q150 160 161 140 L357 394 Q324 412 286 412 Q256 412 229 401 Q202 390 181 368 Q160 346 148 314.5 Q136 283 136 241 Z M286 69 Q316 69 343 80 Q370 91 391 113 Q412 135 424 167 Q436 199 436 241 Q436 270 429.5 295 Q423 320 412 340 L216 86 Q246 69 286 69 Z " />
<glyph glyph-name="ugrave" unicode="&#xf9;" horiz-adv-x="566" d="M397 58 Q377 20 337 2.5 Q297 -15 255 -15 Q213 -15 179.5 0 Q146 15 123 41 Q100 67 87.5 102 Q75 137 75 178 L75 481 L169 481 L169 192 Q169 167 175 144.5 Q181 122 194 105 Q207 88 227.5 78 Q248 68 278 68 Q335 68 363.5 102 Q392 136 392 191 L392 481 L486 481 L486 89 Q486 60 487.5 36.5 Q489 13 491 0 L401 0 Q399 8 398 25.5 Q397 43 397 58 Z M130 689 L248 689 L334 543 L256 543 L130 689 Z " />
<glyph glyph-name="uacute" unicode="&#xfa;" horiz-adv-x="566" d="M397 58 Q377 20 337 2.5 Q297 -15 255 -15 Q213 -15 179.5 0 Q146 15 123 41 Q100 67 87.5 102 Q75 137 75 178 L75 481 L169 481 L169 192 Q169 167 175 144.5 Q181 122 194 105 Q207 88 227.5 78 Q248 68 278 68 Q335 68 363.5 102 Q392 136 392 191 L392 481 L486 481 L486 89 Q486 60 487.5 36.5 Q489 13 491 0 L401 0 Q399 8 398 25.5 Q397 43 397 58 Z M297 543 L218 543 L305 689 L423 689 L297 543 Z " />
<glyph glyph-name="ucircumflex" unicode="&#xfb;" horiz-adv-x="566" d="M397 58 Q377 20 337 2.5 Q297 -15 255 -15 Q213 -15 179.5 0 Q146 15 123 41 Q100 67 87.5 102 Q75 137 75 178 L75 481 L169 481 L169 192 Q169 167 175 144.5 Q181 122 194 105 Q207 88 227.5 78 Q248 68 278 68 Q335 68 363.5 102 Q392 136 392 191 L392 481 L486 481 L486 89 Q486 60 487.5 36.5 Q489 13 491 0 L401 0 Q399 8 398 25.5 Q397 43 397 58 Z M123 545 L227 684 L334 684 L438 545 L350 545 L280 626 L210 545 L123 545 Z " />
<glyph glyph-name="udieresis" unicode="&#xfc;" horiz-adv-x="566" d="M397 58 Q377 20 337 2.5 Q297 -15 255 -15 Q213 -15 179.5 0 Q146 15 123 41 Q100 67 87.5 102 Q75 137 75 178 L75 481 L169 481 L169 192 Q169 167 175 144.5 Q181 122 194 105 Q207 88 227.5 78 Q248 68 278 68 Q335 68 363.5 102 Q392 136 392 191 L392 481 L486 481 L486 89 Q486 60 487.5 36.5 Q489 13 491 0 L401 0 Q399 8 398 25.5 Q397 43 397 58 Z M128 621 Q128 645 144.5 662 Q161 679 185 679 Q210 679 227 662 Q244 645 244 621 Q244 596 227 579.5 Q210 563 185 563 Q161 563 144.5 579.5 Q128 596 128 621 Z M315 621 Q315 645 331.5 662 Q348 679 373 679 Q397 679 414 662 Q431 645 431 621 Q431 596 414 579.5 Q397 563 373 563 Q348 563 331.5 579.5 Q315 596 315 621 Z " />
<glyph glyph-name="yacute" unicode="&#xfd;" horiz-adv-x="523" d="M97 -201 L217 53 L10 481 L118 481 L268 149 L412 481 L513 481 L200 -201 L97 -201 Z M283 543 L204 543 L291 689 L409 689 L283 543 Z " />
<glyph glyph-name="thorn" unicode="&#xfe;" horiz-adv-x="593" d="M80 -190 L80 724 L174 724 L174 411 Q194 445 234.5 468.5 Q275 492 332 492 Q386 492 427.5 472.5 Q469 453 496.5 419 Q524 385 538.5 339 Q553 293 553 241 Q553 187 538 141 Q523 95 494 60.5 Q465 26 423.5 6.5 Q382 -13 329 -13 Q273 -13 233 10 Q193 33 173 65 L173 -190 L80 -190 Z M457 241 Q457 277 447 307.5 Q437 338 419 360.5 Q401 383 374.5 396 Q348 409 315 409 Q283 409 256.5 396 Q230 383 211 360.5 Q192 338 182 307.5 Q172 277 172 241 Q172 204 182 172.5 Q192 141 211 118.5 Q230 96 256.5 83.5 Q283 71 315 71 Q348 71 374 83.5 Q400 96 418.5 118.5 Q437 141 447 172.5 Q457 204 457 241 Z " />
<glyph glyph-name="ydieresis" unicode="&#xff;" horiz-adv-x="523" d="M97 -201 L217 53 L10 481 L118 481 L268 149 L412 481 L513 481 L200 -201 L97 -201 Z M110 621 Q110 645 126.5 662 Q143 679 167 679 Q192 679 209 662 Q226 645 226 621 Q226 596 209 579.5 Q192 563 167 563 Q143 563 126.5 579.5 Q110 596 110 621 Z M297 621 Q297 645 313.5 662 Q330 679 355 679 Q379 679 396 662 Q413 645 413 621 Q413 596 396 579.5 Q379 563 355 563 Q330 563 313.5 579.5 Q297 596 297 621 Z " />
<glyph glyph-name="dotlessi" unicode="&#x131;" horiz-adv-x="253" d="M80 0 L80 481 L173 481 L173 0 L80 0 Z " />
<glyph glyph-name="IJ" unicode="&#x132;" horiz-adv-x="594" d="M80 300 L80 709 L180 709 L180 300 L80 300 Z M180 230 L180 212 Q180 141 213 108.5 Q246 76 300 76 Q354 76 385 109.5 Q416 143 416 205 L416 709 L514 709 L514 212 Q514 165 499.5 124 Q485 83 457 52 Q429 21 389.5 3 Q350 -15 301 -15 Q249 -15 208 1 Q167 17 138.5 47 Q110 77 95 118.5 Q80 160 80 211 L180 230 Z " />
<glyph glyph-name="ij" unicode="&#x133;" horiz-adv-x="517" d="M80 0 L80 481 L173 481 L173 0 L80 0 Z M59 663 Q59 692 78.5 711.5 Q98 731 126 731 Q155 731 174.5 711.5 Q194 692 194 663 Q194 635 174.5 615.5 Q155 596 126 596 Q98 596 78.5 615.5 Q59 635 59 663 Z M343 481 L437 481 L437 -56 Q437 -122 402 -163.5 Q367 -205 304 -205 Q277 -205 265 -202.5 Q253 -200 248 -198 L248 -119 Q252 -120 259.5 -121 Q267 -122 278 -122 Q315 -122 329 -103.5 Q343 -85 343 -52 L343 481 Z M322 665 Q322 694 341.5 713.5 Q361 733 389 733 Q418 733 437.5 713.5 Q457 694 457 665 Q457 637 437.5 617.5 Q418 598 389 598 Q361 598 341.5 617.5 Q322 637 322 665 Z " />
<glyph glyph-name="Lslash" unicode="&#x141;" horiz-adv-x="559" d="M101 0 L101 289 L5 247 L5 334 L101 376 L101 709 L199 709 L199 420 L356 489 L356 402 L199 332 L199 92 L534 92 L534 0 L101 0 Z " />
<glyph glyph-name="lslash" unicode="&#x142;" horiz-adv-x="288" d="M94 0 L94 272 L5 233 L5 320 L94 359 L94 724 L188 724 L188 401 L283 443 L283 356 L188 314 L188 0 L94 0 Z " />
<glyph glyph-name="OE" unicode="&#x152;" horiz-adv-x="1148" d="M145 355 Q145 286 166.5 233.5 Q188 181 223.5 145.5 Q259 110 305 92.5 Q351 75 401 75 Q450 75 496.5 92.5 Q543 110 578.5 145.5 Q614 181 635.5 233.5 Q657 286 657 355 Q657 424 635.5 476.5 Q614 529 578.5 564 Q543 599 496.5 616.5 Q450 634 401 634 Q351 634 305 616.5 Q259 599 223.5 564 Q188 529 166.5 476.5 Q145 424 145 355 Z M657 0 L657 93 Q606 39 539 12 Q472 -15 401 -15 Q334 -15 270 9.5 Q206 34 156 81 Q106 128 75.5 197 Q45 266 45 355 Q45 444 75.5 512.5 Q106 581 156 628 Q206 675 270 699.5 Q334 724 401 724 Q472 724 539 697 Q606 670 657 616 L657 709 L1088 709 L1088 618 L755 618 L755 400 L1057 400 L1057 308 L755 308 L755 91 L1088 91 L1088 0 L657 0 Z " />
<glyph glyph-name="oe" unicode="&#x153;" horiz-adv-x="937" d="M286 69 Q316 69 343 80 Q370 91 391 113 Q412 135 424 167 Q436 199 436 241 Q436 283 424 314.5 Q412 346 391 368 Q370 390 343 401 Q316 412 286 412 Q256 412 229 401 Q202 390 181 368 Q160 346 148 314.5 Q136 283 136 241 Q136 199 148 167 Q160 135 181 113 Q202 91 229 80 Q256 69 286 69 Z M799 290 Q797 342 763.5 377.5 Q730 413 667 413 Q637 413 613.5 402.5 Q590 392 573.5 374.5 Q557 357 547 335 Q537 313 536 290 L799 290 Z M894 137 Q884 105 864.5 77.5 Q845 50 817.5 29.5 Q790 9 755 -3 Q720 -15 678 -15 Q619 -15 568 9.5 Q517 34 483 82 Q451 37 400 11 Q349 -15 286 -15 Q232 -15 187 4.5 Q142 24 109 58 Q76 92 58 139 Q40 186 40 241 Q40 296 58 342.5 Q76 389 109 423 Q142 457 187 476.5 Q232 496 286 496 Q349 496 400 469.5 Q451 443 483 398 Q515 444 563.5 470 Q612 496 666 496 Q721 496 764.5 477.5 Q808 459 837 426 Q866 393 881.5 346.5 Q897 300 897 244 Q897 236 896.5 227.5 Q896 219 895 214 L533 214 Q534 182 545.5 155.5 Q557 129 576.5 109.5 Q596 90 622 79 Q648 68 678 68 Q737 68 768 96 Q799 124 813 165 L894 137 Z " />
<glyph glyph-name="Scaron" unicode="&#x160;" horiz-adv-x="593" d="M454 517 Q451 536 441 557.5 Q431 579 413 597 Q395 615 368 626.5 Q341 638 304 638 Q274 638 249 629 Q224 620 205.5 604 Q187 588 177 566.5 Q167 545 167 520 Q167 482 190 454.5 Q213 427 258 417 L364 394 Q453 374 500.5 322 Q548 270 548 195 Q548 154 531 116 Q514 78 482 49 Q450 20 405 2.5 Q360 -15 303 -15 Q239 -15 191.5 4 Q144 23 111.5 53 Q79 83 61 120.5 Q43 158 38 196 L132 226 Q135 196 146.5 168.5 Q158 141 179.5 120 Q201 99 231.5 86.5 Q262 74 302 74 Q375 74 411.5 107 Q448 140 448 187 Q448 225 422 255.5 Q396 286 342 297 L241 319 Q165 336 116.5 384.5 Q68 433 68 513 Q68 555 86 593 Q104 631 135.5 660 Q167 689 210 706.5 Q253 724 302 724 Q362 724 404.5 707.5 Q447 691 475.5 665 Q504 639 520 608 Q536 577 542 548 L454 517 Z M224 878 L305 814 L390 878 L482 878 L365 759 L245 759 L133 878 L224 878 Z " />
<glyph glyph-name="scaron" unicode="&#x161;" horiz-adv-x="452" d="M120 155 Q125 117 153 91 Q181 65 232 65 Q272 65 293 84 Q314 103 314 129 Q314 152 298 168 Q282 184 252 191 L170 209 Q113 221 81.5 257 Q50 293 50 344 Q50 375 63.5 402.5 Q77 430 100 451 Q123 472 154.5 484 Q186 496 221 496 Q270 496 303.5 482 Q337 468 358 447.5 Q379 427 389.5 405 Q400 383 404 367 L321 336 Q319 345 314 359 Q309 373 298 385.5 Q287 398 268 407 Q249 416 221 416 Q185 416 163 396.5 Q141 377 141 352 Q141 306 196 294 L274 277 Q340 263 373.5 225.5 Q407 188 407 134 Q407 108 396 82 Q385 56 363.5 34 Q342 12 309 -1.5 Q276 -15 231 -15 Q181 -15 145.5 -1 Q110 13 86.5 34 Q63 55 50.5 79.5 Q38 104 35 125 L120 155 Z M156 687 L226 606 L296 687 L384 687 L282 545 L171 545 L69 687 L156 687 Z " />
<glyph glyph-name="Ydieresis" unicode="&#x178;" horiz-adv-x="618" d="M10 709 L128 709 L312 393 L496 709 L608 709 L358 303 L358 0 L260 0 L260 303 L10 709 Z M135 819 Q135 844 152 861 Q169 878 194 878 Q219 878 236 861 Q253 844 253 819 Q253 794 236 777 Q219 760 194 760 Q169 760 152 777 Q135 794 135 819 Z M366 819 Q366 844 383 861 Q400 878 425 878 Q450 878 467 861 Q484 844 484 819 Q484 794 467 777 Q450 760 425 760 Q400 760 383 777 Q366 794 366 819 Z " />
<glyph glyph-name="Zcaron" unicode="&#x17d;" horiz-adv-x="632" d="M45 0 L45 98 L468 618 L55 618 L55 709 L587 709 L587 614 L162 92 L592 92 L592 0 L45 0 Z M240 878 L321 814 L406 878 L498 878 L381 759 L261 759 L149 878 L240 878 Z " />
<glyph glyph-name="zcaron" unicode="&#x17e;" horiz-adv-x="466" d="M165 687 L235 606 L305 687 L393 687 L291 545 L180 545 L78 687 L165 687 Z M40 0 L40 82 L304 396 L44 396 L44 481 L421 481 L421 399 L157 85 L426 85 L426 0 L40 0 Z " />
<glyph glyph-name="florin" unicode="&#x192;" horiz-adv-x="481" d="M197 398 L87 398 L87 481 L214 481 L237 594 Q244 632 260.5 659.5 Q277 687 299.5 704.5 Q322 722 348.5 730.5 Q375 739 402 739 Q431 739 446.5 736.5 Q462 734 476 729 L476 646 Q465 649 452 651 Q439 653 423 653 Q410 653 395.5 650.5 Q381 648 368 638.5 Q355 629 344 610.5 Q333 592 327 561 L311 481 L440 481 L440 398 L294 398 L212 -13 Q204 -51 188 -78.5 Q172 -106 149.5 -123.5 Q127 -141 100.5 -149.5 Q74 -158 47 -158 Q16 -158 0 -155.5 Q-16 -153 -30 -148 L-30 -65 Q-19 -68 -5.5 -70 Q8 -72 26 -72 Q39 -72 53.5 -69 Q68 -66 81 -56.5 Q94 -47 105 -29 Q116 -11 122 20 L197 398 Z " />
<glyph glyph-name="circumflex" unicode="&#x2c6;" horiz-adv-x="385" d="M35 545 L139 684 L246 684 L350 545 L262 545 L192 626 L122 545 L35 545 Z " />
<glyph glyph-name="caron" unicode="&#x2c7;" horiz-adv-x="385" d="M122 687 L192 606 L262 687 L350 687 L248 545 L137 545 L35 687 L122 687 Z " />
<glyph glyph-name="uni02C9" unicode="&#x2c9;" horiz-adv-x="343" d="M35 577 L35 658 L308 658 L308 577 L35 577 Z " />
<glyph glyph-name="breve" unicode="&#x2d8;" horiz-adv-x="362" d="M181 545 Q146 545 119 557 Q92 569 73.5 589 Q55 609 45 634.5 Q35 660 35 687 L108 687 Q109 664 126 643 Q143 622 181 622 Q219 622 235.5 643 Q252 664 254 687 L327 687 Q327 660 317.5 634.5 Q308 609 290 589 Q272 569 244.5 557 Q217 545 181 545 Z " />
<glyph glyph-name="dotaccent" unicode="&#x2d9;" horiz-adv-x="174" d="M25 616 Q25 642 43 660 Q61 678 87 678 Q113 678 131 660 Q149 642 149 616 Q149 590 131 572 Q113 554 87 554 Q61 554 43 572 Q25 590 25 616 Z " />
<glyph glyph-name="ring" unicode="&#x2da;" horiz-adv-x="293" d="M258 641 Q258 618 249 598 Q240 578 225 563.5 Q210 549 189.5 540.5 Q169 532 146 532 Q124 532 104 540.5 Q84 549 68.5 563.5 Q53 578 44 598 Q35 618 35 641 Q35 664 44 684 Q53 704 68.5 719 Q84 734 104 742.5 Q124 751 146 751 Q169 751 189.5 742.5 Q210 734 225 719 Q240 704 249 684 Q258 664 258 641 Z M194 641 Q194 661 180 675.5 Q166 690 145 690 Q125 690 111.5 675.5 Q98 661 98 641 Q98 621 111.5 607 Q125 593 145 593 Q166 593 180 607 Q194 621 194 641 Z " />
<glyph glyph-name="ogonek" unicode="&#x2db;" horiz-adv-x="233" d="M33 -115 Q33 -88 42.5 -66.5 Q52 -45 67 -29.5 Q82 -14 100 -3 Q118 8 135 16 L198 0 Q184 -7 169 -16 Q154 -25 141.5 -37 Q129 -49 121 -64 Q113 -79 113 -97 Q113 -123 129.5 -133.5 Q146 -144 166 -144 Q178 -144 185 -143 Q192 -142 198 -140 L198 -208 Q188 -212 177.5 -214 Q167 -216 148 -216 Q125 -216 104 -209 Q83 -202 67 -189.5 Q51 -177 42 -158 Q33 -139 33 -115 Z " />
<glyph glyph-name="tilde" unicode="&#x2dc;" horiz-adv-x="377" d="M346 662 Q346 606 318.5 579.5 Q291 553 249 553 Q229 553 213 559.5 Q197 566 183 575 L169 584 Q159 590 150.5 594 Q142 598 132 598 Q118 598 110.5 589 Q103 580 103 555 L31 555 L31 570 Q31 626 59 652.5 Q87 679 129 679 Q149 679 165.5 672.5 Q182 666 196 657 L210 648 Q220 642 228 638 Q236 634 246 634 Q261 634 268 643.5 Q275 653 275 677 L346 677 L346 662 Z " />
<glyph glyph-name="hungarumlaut" unicode="&#x2dd;" horiz-adv-x="367" d="M101 543 L35 543 L86 689 L191 689 L101 543 Z M232 543 L166 543 L227 689 L332 689 L232 543 Z " />
<glyph glyph-name="uni0394" unicode="&#x394;" horiz-adv-x="662" d="M278 709 L383 709 L662 0 L0 0 L278 709 Z M139 90 L522 90 L329 597 L139 90 Z " />
<glyph glyph-name="uni03A9" unicode="&#x3a9;" horiz-adv-x="796" d="M398 636 Q352 636 306.5 620 Q261 604 225 572.5 Q189 541 167 495 Q145 449 145 388 Q145 334 164 290 Q183 246 213 213.5 Q243 181 280.5 160.5 Q318 140 355 132 L355 0 L50 0 L50 88 L252 88 Q214 102 176.5 128.5 Q139 155 110 193.5 Q81 232 63 280.5 Q45 329 45 387 Q45 466 74.5 529 Q104 592 152.5 635 Q201 678 265 701 Q329 724 398 724 Q467 724 531 701 Q595 678 643.5 635 Q692 592 721.5 529 Q751 466 751 387 Q751 329 733 280.5 Q715 232 685.5 193.5 Q656 155 619 128.5 Q582 102 543 88 L746 88 L746 0 L441 0 L441 132 Q478 140 515.5 160.5 Q553 181 583 213.5 Q613 246 632 290 Q651 334 651 388 Q651 449 629 495 Q607 541 571 572.5 Q535 604 489.5 620 Q444 636 398 636 Z " />
<glyph glyph-name="uni03BC" unicode="&#x3bc;" horiz-adv-x="571" d="M402 58 Q382 20 342 2.5 Q302 -15 260 -15 Q233 -15 212.5 -9.5 Q192 -4 174 5 L174 -190 L80 -190 L80 481 L174 481 L174 192 Q174 167 180 144.5 Q186 122 199 105 Q212 88 232.5 78 Q253 68 283 68 Q340 68 368.5 102 Q397 136 397 191 L397 481 L491 481 L491 89 Q491 60 492.5 35 Q494 10 496 0 L406 0 Q404 8 403 25.5 Q402 43 402 58 Z " />
<glyph glyph-name="pi" unicode="&#x3c0;" horiz-adv-x="615" d="M565 5 Q556 1 541.5 -3 Q527 -7 504 -7 Q473 -7 451 3 Q429 13 414.5 29.5 Q400 46 393 67.5 Q386 89 386 112 L386 399 L221 399 L221 0 L127 0 L127 399 L45 399 L45 481 L563 481 L563 399 L480 399 L480 122 Q480 95 495.5 84 Q511 73 534 73 Q542 73 549.5 74 Q557 75 565 77 L565 5 Z " />
<glyph glyph-name="uni2007" unicode="&#x2007;" horiz-adv-x="614" d="" />
<glyph glyph-name="uni2008" unicode="&#x2008;" horiz-adv-x="279" d="" />
<glyph glyph-name="uni200B" unicode="&#x200b;" d="" />
<glyph glyph-name="endash" unicode="&#x2013;" horiz-adv-x="642" d="M65 246 L65 328 L577 328 L577 246 L65 246 Z " />
<glyph glyph-name="emdash" unicode="&#x2014;" horiz-adv-x="1103" d="M75 246 L75 328 L1028 328 L1028 246 L75 246 Z " />
<glyph glyph-name="quoteleft" unicode="&#x2018;" horiz-adv-x="218" d="M178 515 Q178 490 159.5 472.5 Q141 455 113 455 Q84 455 62 476 Q40 497 40 540 Q40 584 53 616 Q66 648 85.5 669.5 Q105 691 128.5 702 Q152 713 173 715 L173 668 Q140 660 119.5 631 Q99 602 98 571 Q100 573 105 574.5 Q110 576 118 576 Q143 576 160.5 560 Q178 544 178 515 Z " />
<glyph glyph-name="quoteright" unicode="&#x2019;" horiz-adv-x="224" d="M40 656 Q40 681 59.5 699.5 Q79 718 108 718 Q138 718 161 696 Q184 674 184 630 Q184 583 170.5 550 Q157 517 136.5 495 Q116 473 92 462 Q68 451 46 448 L46 496 Q80 504 101 533.5 Q122 563 123 597 Q121 595 116 593.5 Q111 592 103 592 Q77 592 58.5 609 Q40 626 40 656 Z " />
<glyph glyph-name="quotesinglbase" unicode="&#x201a;" horiz-adv-x="224" d="M40 61 Q40 86 59.5 104.5 Q79 123 108 123 Q138 123 161 101 Q184 79 184 35 Q184 -12 170.5 -45 Q157 -78 136.5 -100 Q116 -122 92 -133 Q68 -144 46 -147 L46 -99 Q80 -91 101 -61.5 Q122 -32 123 2 Q121 0 116 -1.5 Q111 -3 103 -3 Q77 -3 58.5 14 Q40 31 40 61 Z " />
<glyph glyph-name="quotedblleft" unicode="&#x201c;" horiz-adv-x="389" d="M349 520 Q349 495 330.5 477.5 Q312 460 284 460 Q255 460 233 481 Q211 502 211 545 Q211 589 224 621 Q237 653 256.5 674.5 Q276 696 299.5 707 Q323 718 344 720 L344 673 Q311 665 290.5 636 Q270 607 269 576 Q271 578 276 579.5 Q281 581 289 581 Q314 581 331.5 565 Q349 549 349 520 Z M178 520 Q178 495 159.5 477.5 Q141 460 113 460 Q84 460 62 481 Q40 502 40 545 Q40 589 53 621 Q66 653 85.5 674.5 Q105 696 128.5 707 Q152 718 173 720 L173 673 Q140 665 119.5 636 Q99 607 98 576 Q100 578 105 579.5 Q110 581 118 581 Q143 581 160.5 565 Q178 549 178 520 Z " />
<glyph glyph-name="quotedblright" unicode="&#x201d;" horiz-adv-x="389" d="M40 655 Q40 680 58.5 697.5 Q77 715 105 715 Q134 715 156 694 Q178 673 178 630 Q178 586 165 554 Q152 522 132.5 501 Q113 480 89.5 469 Q66 458 45 455 L45 502 Q61 506 75 515.5 Q89 525 98.5 538 Q108 551 114 567 Q120 583 120 599 Q118 597 113 595.5 Q108 594 100 594 Q75 594 57.5 610 Q40 626 40 655 Z M211 655 Q211 680 229.5 697.5 Q248 715 276 715 Q305 715 327 694 Q349 673 349 630 Q349 586 336 554 Q323 522 303.5 501 Q284 480 260.5 469 Q237 458 216 455 L216 502 Q232 506 246 515.5 Q260 525 269.5 538 Q279 551 285 567 Q291 583 291 599 Q289 597 284 595.5 Q279 594 271 594 Q246 594 228.5 610 Q211 626 211 655 Z " />
<glyph glyph-name="quotedblbase" unicode="&#x201e;" horiz-adv-x="389" d="M40 58 Q40 83 58.5 100.5 Q77 118 105 118 Q134 118 156 97 Q178 76 178 33 Q178 -11 165 -43 Q152 -75 132.5 -96 Q113 -117 89.5 -128 Q66 -139 45 -142 L45 -95 Q61 -91 75 -81.5 Q89 -72 98.5 -59 Q108 -46 114 -30 Q120 -14 120 2 Q118 0 113 -1.5 Q108 -3 100 -3 Q75 -3 57.5 13 Q40 29 40 58 Z M211 58 Q211 83 229.5 100.5 Q248 118 276 118 Q305 118 327 97 Q349 76 349 33 Q349 -11 336 -43 Q323 -75 303.5 -96 Q284 -117 260.5 -128 Q237 -139 216 -142 L216 -95 Q232 -91 246 -81.5 Q260 -72 269.5 -59 Q279 -46 285 -30 Q291 -14 291 2 Q289 0 284 -1.5 Q279 -3 271 -3 Q246 -3 228.5 13 Q211 29 211 58 Z " />
<glyph glyph-name="dagger" unicode="&#x2020;" horiz-adv-x="386" d="M152 162 L152 479 L25 479 L25 560 L152 560 L152 709 L234 709 L234 560 L361 560 L361 479 L234 479 L234 162 L152 162 Z " />
<glyph glyph-name="daggerdbl" unicode="&#x2021;" horiz-adv-x="426" d="M172 230 L172 479 L45 479 L45 560 L172 560 L172 709 L254 709 L254 560 L381 560 L381 479 L254 479 L254 230 L381 230 L381 149 L254 149 L254 0 L172 0 L172 149 L45 149 L45 230 L172 230 Z " />
<glyph glyph-name="bullet" unicode="&#x2022;" horiz-adv-x="554" d="M70 289 Q70 332 86.5 370 Q103 408 131 436 Q159 464 196.5 480.5 Q234 497 277 497 Q320 497 357.5 480.5 Q395 464 423 436 Q451 408 467.5 370 Q484 332 484 289 Q484 247 467.5 209 Q451 171 423 143 Q395 115 357.5 98.5 Q320 82 277 82 Q234 82 196.5 98.5 Q159 115 131 143 Q103 171 86.5 209 Q70 247 70 289 Z " />
<glyph glyph-name="ellipsis" unicode="&#x2026;" horiz-adv-x="932" d="M842 59 Q842 32 823.5 13.5 Q805 -5 778 -5 Q751 -5 732 13.5 Q713 32 713 59 Q713 86 732 105 Q751 124 778 124 Q805 124 823.5 105 Q842 86 842 59 Z M530 59 Q530 32 511.5 13.5 Q493 -5 466 -5 Q439 -5 420 13.5 Q401 32 401 59 Q401 86 420 105 Q439 124 466 124 Q493 124 511.5 105 Q530 86 530 59 Z M219 59 Q219 32 200.5 13.5 Q182 -5 155 -5 Q128 -5 109 13.5 Q90 32 90 59 Q90 86 109 105 Q128 124 155 124 Q182 124 200.5 105 Q219 86 219 59 Z " />
<glyph glyph-name="perthousand" unicode="&#x2030;" horiz-adv-x="1055" d="M138 498 Q138 463 160.5 441 Q183 419 215 419 Q248 419 270 441 Q292 463 292 498 Q292 532 270 554 Q248 576 215 576 Q183 576 160.5 554 Q138 532 138 498 Z M55 498 Q55 531 68 559.5 Q81 588 103 609.5 Q125 631 154 643 Q183 655 215 655 Q247 655 276.5 643 Q306 631 328 609.5 Q350 588 363 559.5 Q376 531 376 498 Q376 465 363 436 Q350 407 328 385.5 Q306 364 276.5 352 Q247 340 215 340 Q183 340 154 352 Q125 364 103 385.5 Q81 407 68 436 Q55 465 55 498 Z M534 150 Q534 115 556.5 93 Q579 71 611 71 Q644 71 666 93 Q688 115 688 150 Q688 184 666 206 Q644 228 611 228 Q579 228 556.5 206 Q534 184 534 150 Z M135 0 L601 648 L691 648 L227 0 L135 0 Z M772 150 Q772 115 794.5 93 Q817 71 849 71 Q882 71 904 93 Q926 115 926 150 Q926 184 904 206 Q882 228 849 228 Q817 228 794.5 206 Q772 184 772 150 Z M451 150 Q451 183 464 211.5 Q477 240 499 261.5 Q521 283 550 295 Q579 307 611 307 Q648 307 679 291 Q710 275 730 247 Q750 275 780.5 291 Q811 307 849 307 Q881 307 910.5 295 Q940 283 962 261.5 Q984 240 997 211.5 Q1010 183 1010 150 Q1010 117 997 88 Q984 59 962 37.5 Q940 16 910.5 4 Q881 -8 849 -8 Q811 -8 780.5 8 Q750 24 730 51 Q710 24 679 8 Q648 -8 611 -8 Q579 -8 550 4 Q521 16 499 37.5 Q477 59 464 88 Q451 117 451 150 Z " />
<glyph glyph-name="guilsinglleft" unicode="&#x2039;" horiz-adv-x="276" d="M163 99 L30 290 L163 481 L256 481 L125 290 L256 99 L163 99 Z " />
<glyph glyph-name="guilsinglright" unicode="&#x203a;" horiz-adv-x="276" d="M20 99 L151 290 L20 481 L113 481 L246 290 L113 99 L20 99 Z " />
<glyph glyph-name="uni2042" unicode="&#x2042;" horiz-adv-x="835" d="M453 588 L564 626 L584 561 L473 525 L547 430 L492 389 L417 487 L347 390 L292 431 L363 525 L251 561 L272 626 L382 588 L382 709 L453 709 L453 588 Z M237 191 L348 229 L368 164 L257 128 L331 33 L276 -8 L201 90 L131 -7 L76 34 L147 128 L35 164 L56 229 L166 191 L166 312 L237 312 L237 191 Z M669 191 L780 229 L800 164 L689 128 L763 33 L708 -8 L633 90 L563 -7 L508 34 L579 128 L467 164 L488 229 L598 191 L598 312 L669 312 L669 191 Z " />
<glyph glyph-name="fraction" unicode="&#x2044;" horiz-adv-x="556" d="M0 0 L466 648 L556 648 L92 0 L0 0 Z " />
<glyph glyph-name="uni2051" unicode="&#x2051;" horiz-adv-x="423" d="M247 588 L358 626 L378 561 L267 525 L341 430 L286 389 L211 487 L141 390 L86 431 L157 525 L45 561 L66 626 L176 588 L176 709 L247 709 L247 588 Z M247 191 L358 229 L378 164 L267 128 L341 33 L286 -8 L211 90 L141 -7 L86 34 L157 128 L45 164 L66 229 L176 191 L176 312 L247 312 L247 191 Z " />
<glyph glyph-name="uni2070" unicode="&#x2070;" horiz-adv-x="426" d="M138 526 Q138 506 140.5 484 Q143 462 151 444 Q159 426 173.5 414.5 Q188 403 213 403 Q238 403 252.5 414.5 Q267 426 275 444 Q283 462 285.5 484 Q288 506 288 526 Q288 546 285.5 568 Q283 590 275 608 Q267 626 252.5 638 Q238 650 213 650 Q188 650 173.5 638.5 Q159 627 151 609 Q143 591 140.5 569 Q138 547 138 526 Z M60 526 Q60 562 67.5 596.5 Q75 631 95 658 Q112 681 139.5 698.5 Q167 716 213 716 Q259 716 286.5 698.5 Q314 681 331 658 Q351 631 358.5 596.5 Q366 562 366 526 Q366 490 358.5 456 Q351 422 331 395 Q314 372 286.5 354.5 Q259 337 213 337 Q167 337 139.5 354.5 Q112 372 95 395 Q75 422 67.5 456 Q60 490 60 526 Z " />
<glyph glyph-name="uni2074" unicode="&#x2074;" horiz-adv-x="446" d="M60 489 L237 709 L322 709 L322 481 L386 481 L386 416 L322 416 L322 344 L245 344 L245 416 L60 416 L60 489 Z M245 620 L134 481 L245 481 L245 620 Z " />
<glyph glyph-name="uni2075" unicode="&#x2075;" horiz-adv-x="404" d="M126 459 Q133 433 152.5 417.5 Q172 402 199 402 Q228 402 247 418 Q266 434 266 463 Q266 494 247 509.5 Q228 525 199 525 Q179 525 163 517.5 Q147 510 135 498 L71 522 L120 709 L324 709 L324 643 L170 643 L147 557 Q161 572 180.5 578.5 Q200 585 220 585 Q276 585 310 553 Q344 521 344 466 Q344 439 334.5 415.5 Q325 392 306.5 374.5 Q288 357 261 347 Q234 337 199 337 Q172 337 148.5 345 Q125 353 107 365.5 Q89 378 77 394.5 Q65 411 60 429 L126 459 Z " />
<glyph glyph-name="uni2076" unicode="&#x2076;" horiz-adv-x="418" d="M322 641 Q293 654 260 654 Q212 654 178.5 627.5 Q145 601 137 549 Q150 568 175 580 Q200 592 228 592 Q286 592 322 559 Q358 526 358 466 Q358 437 346.5 413.5 Q335 390 315.5 373 Q296 356 269 346.5 Q242 337 211 337 Q183 337 156 347 Q129 357 107.5 377.5 Q86 398 73 429.5 Q60 461 60 504 Q60 553 74.5 592 Q89 631 115 659 Q141 687 176.5 702 Q212 717 254 717 Q279 717 302 712 Q325 707 340 698 L322 641 Z M143 465 Q143 434 164.5 418 Q186 402 212 402 Q238 402 259 418 Q280 434 280 465 Q280 496 259 512 Q238 528 212 528 Q186 528 164.5 512 Q143 496 143 465 Z " />
<glyph glyph-name="uni2077" unicode="&#x2077;" horiz-adv-x="417" d="M357 640 Q344 631 321 610 Q298 589 274 553.5 Q250 518 230 466.5 Q210 415 203 344 L121 344 Q128 419 150 474.5 Q172 530 196 568 Q224 612 257 643 L60 643 L60 709 L357 709 L357 640 Z " />
<glyph glyph-name="uni2078" unicode="&#x2078;" horiz-adv-x="410" d="M205 561 Q231 561 246.5 574 Q262 587 262 609 Q262 629 247 641.5 Q232 654 205 654 Q178 654 163 641.5 Q148 629 148 609 Q148 587 163.5 574 Q179 561 205 561 Z M205 401 Q238 401 255 414.5 Q272 428 272 451 Q272 473 254.5 487 Q237 501 205 501 Q173 501 155.5 487 Q138 473 138 451 Q138 428 155 414.5 Q172 401 205 401 Z M205 337 Q135 337 97.5 368 Q60 399 60 445 Q60 472 78 495.5 Q96 519 128 531 Q101 542 86.5 564 Q72 586 72 611 Q72 658 109.5 687 Q147 716 205 716 Q263 716 300.5 687 Q338 658 338 611 Q338 586 323.5 564 Q309 542 282 531 Q314 519 332 495.5 Q350 472 350 445 Q350 399 312.5 368 Q275 337 205 337 Z " />
<glyph glyph-name="uni2079" unicode="&#x2079;" horiz-adv-x="416" d="M96 415 Q125 402 158 402 Q206 402 240.5 426.5 Q275 451 281 505 Q268 486 243 474 Q218 462 190 462 Q133 462 96.5 495.5 Q60 529 60 588 Q60 616 71.5 640 Q83 664 102.5 681 Q122 698 149 707.5 Q176 717 207 717 Q235 717 261.5 707 Q288 697 309 676.5 Q330 656 343 624.5 Q356 593 356 550 Q356 498 341.5 458.5 Q327 419 301.5 392 Q276 365 241 351 Q206 337 164 337 Q139 337 116 342 Q93 347 78 356 L96 415 Z M273 588 Q273 619 252 635.5 Q231 652 204 652 Q177 652 156.5 635.5 Q136 619 136 588 Q136 557 156.5 540.5 Q177 524 204 524 Q231 524 252 540.5 Q273 557 273 588 Z " />
<glyph glyph-name="uni2080" unicode="&#x2080;" horiz-adv-x="426" d="M138 111 Q138 91 140.5 69 Q143 47 151 29 Q159 11 173.5 -0.5 Q188 -12 213 -12 Q238 -12 252.5 -0.5 Q267 11 275 29 Q283 47 285.5 69 Q288 91 288 111 Q288 131 285.5 153 Q283 175 275 193 Q267 211 252.5 223 Q238 235 213 235 Q188 235 173.5 223.5 Q159 212 151 194 Q143 176 140.5 154 Q138 132 138 111 Z M60 111 Q60 147 67.5 181.5 Q75 216 95 243 Q112 266 139.5 283.5 Q167 301 213 301 Q259 301 286.5 283.5 Q314 266 331 243 Q351 216 358.5 181.5 Q366 147 366 111 Q366 75 358.5 41 Q351 7 331 -20 Q314 -43 286.5 -60.5 Q259 -78 213 -78 Q167 -78 139.5 -60.5 Q112 -43 95 -20 Q75 7 67.5 41 Q60 75 60 111 Z " />
<glyph glyph-name="uni2081" unicode="&#x2081;" horiz-adv-x="303" d="M136 -71 L136 174 L50 174 L50 226 Q87 227 112 246.5 Q137 266 142 294 L213 294 L213 -71 L136 -71 Z " />
<glyph glyph-name="uni2082" unicode="&#x2082;" horiz-adv-x="389" d="M67 153 Q65 161 64.5 169.5 Q64 178 64 184 Q64 208 73 229 Q82 250 99 266 Q116 282 140.5 291.5 Q165 301 196 301 Q227 301 251 291.5 Q275 282 292 266.5 Q309 251 318 230 Q327 209 327 186 Q327 151 308 123.5 Q289 96 257 76 L185 31 Q174 23 165 14 Q156 5 154 -6 L329 -6 L329 -71 L61 -71 L61 -58 Q61 -13 81 23.5 Q101 60 146 87 L206 124 Q249 150 249 187 Q249 207 235 222 Q221 237 195 237 Q169 237 153.5 221 Q138 205 138 179 Q138 176 138.5 168 Q139 160 141 153 L67 153 Z " />
<glyph glyph-name="uni2083" unicode="&#x2083;" horiz-adv-x="412" d="M149 151 L244 230 L73 230 L73 295 L344 295 L344 232 L244 152 Q265 150 284.5 142.5 Q304 135 319 121.5 Q334 108 343 88 Q352 68 352 43 Q352 18 341.5 -4 Q331 -26 312 -42.5 Q293 -59 266.5 -68.5 Q240 -78 207 -78 Q174 -78 149 -69 Q124 -60 105.5 -46 Q87 -32 75.5 -13.5 Q64 5 60 25 L127 52 Q132 23 153.5 5.5 Q175 -12 206 -12 Q237 -12 255.5 4 Q274 20 274 43 Q274 74 252.5 86.5 Q231 99 206 99 Q198 99 190.5 98 Q183 97 178 95 L149 151 Z " />
<glyph glyph-name="uni2084" unicode="&#x2084;" horiz-adv-x="446" d="M60 74 L237 294 L322 294 L322 66 L386 66 L386 1 L322 1 L322 -71 L245 -71 L245 1 L60 1 L60 74 Z M245 205 L134 66 L245 66 L245 205 Z " />
<glyph glyph-name="uni2085" unicode="&#x2085;" horiz-adv-x="404" d="M126 44 Q133 18 152.5 2.5 Q172 -13 199 -13 Q228 -13 247 3 Q266 19 266 48 Q266 79 247 94.5 Q228 110 199 110 Q179 110 163 102.5 Q147 95 135 83 L71 107 L120 294 L324 294 L324 228 L170 228 L147 142 Q161 157 180.5 163.5 Q200 170 220 170 Q276 170 310 138 Q344 106 344 51 Q344 24 334.5 0.5 Q325 -23 306.5 -40.5 Q288 -58 261 -68 Q234 -78 199 -78 Q172 -78 148.5 -70 Q125 -62 107 -49.5 Q89 -37 77 -20.5 Q65 -4 60 14 L126 44 Z " />
<glyph glyph-name="uni2086" unicode="&#x2086;" horiz-adv-x="418" d="M322 226 Q293 239 260 239 Q212 239 178.5 212.5 Q145 186 137 134 Q150 153 175 165 Q200 177 228 177 Q286 177 322 144 Q358 111 358 51 Q358 22 346.5 -1.5 Q335 -25 315.5 -42 Q296 -59 269 -68.5 Q242 -78 211 -78 Q183 -78 156 -68 Q129 -58 107.5 -37.5 Q86 -17 73 14.5 Q60 46 60 89 Q60 138 74.5 177 Q89 216 115 244 Q141 272 176.5 287 Q212 302 254 302 Q279 302 302 297 Q325 292 340 283 L322 226 Z M143 50 Q143 19 164.5 3 Q186 -13 212 -13 Q238 -13 259 3 Q280 19 280 50 Q280 81 259 97 Q238 113 212 113 Q186 113 164.5 97 Q143 81 143 50 Z " />
<glyph glyph-name="uni2087" unicode="&#x2087;" horiz-adv-x="417" d="M357 225 Q344 216 321 195 Q298 174 274 138.5 Q250 103 230 51.5 Q210 0 203 -71 L121 -71 Q128 4 150 59.5 Q172 115 196 153 Q224 197 257 228 L60 228 L60 294 L357 294 L357 225 Z " />
<glyph glyph-name="uni2088" unicode="&#x2088;" horiz-adv-x="410" d="M205 146 Q231 146 246.5 159 Q262 172 262 194 Q262 214 247 226.5 Q232 239 205 239 Q178 239 163 226.5 Q148 214 148 194 Q148 172 163.5 159 Q179 146 205 146 Z M205 -14 Q238 -14 255 -0.5 Q272 13 272 36 Q272 58 254.5 72 Q237 86 205 86 Q173 86 155.5 72 Q138 58 138 36 Q138 13 155 -0.5 Q172 -14 205 -14 Z M205 -78 Q135 -78 97.5 -47 Q60 -16 60 30 Q60 57 78 80.5 Q96 104 128 116 Q101 127 86.5 149 Q72 171 72 196 Q72 243 109.5 272 Q147 301 205 301 Q263 301 300.5 272 Q338 243 338 196 Q338 171 323.5 149 Q309 127 282 116 Q314 104 332 80.5 Q350 57 350 30 Q350 -16 312.5 -47 Q275 -78 205 -78 Z " />
<glyph glyph-name="uni2089" unicode="&#x2089;" horiz-adv-x="416" d="M96 0 Q125 -13 158 -13 Q206 -13 240.5 11.5 Q275 36 281 90 Q268 71 243 59 Q218 47 190 47 Q133 47 96.5 80.5 Q60 114 60 173 Q60 201 71.5 225 Q83 249 102.5 266 Q122 283 149 292.5 Q176 302 207 302 Q235 302 261.5 292 Q288 282 309 261.5 Q330 241 343 209.5 Q356 178 356 135 Q356 83 341.5 43.5 Q327 4 301.5 -23 Q276 -50 241 -64 Q206 -78 164 -78 Q139 -78 116 -73 Q93 -68 78 -59 L96 0 Z M273 173 Q273 204 252 220.5 Q231 237 204 237 Q177 237 156.5 220.5 Q136 204 136 173 Q136 142 156.5 125.5 Q177 109 204 109 Q231 109 252 125.5 Q273 142 273 173 Z " />
<glyph glyph-name="Euro" unicode="&#x20ac;" horiz-adv-x="689" d="M144 282 Q143 290 142.5 302.5 Q142 315 142 325 Q142 335 142.5 346 Q143 357 144 365 L65 365 L65 443 L159 443 Q177 498 209.5 539 Q242 580 283.5 607.5 Q325 635 373 649 Q421 663 469 663 Q520 663 563 651.5 Q606 640 640 616 L600 539 Q573 559 540 567.5 Q507 576 469 576 Q402 576 345.5 543 Q289 510 261 443 L554 443 L515 365 L242 365 Q239 347 239 325 Q239 297 242 282 L479 282 L440 202 L263 202 Q291 136 345.5 104 Q400 72 466 72 Q511 72 549.5 85.5 Q588 99 615 126 L664 56 Q627 24 576.5 4.5 Q526 -15 466 -15 Q418 -15 371.5 -1 Q325 13 284 40 Q243 67 211 107.5 Q179 148 161 202 L65 202 L65 282 L144 282 Z " />
<glyph glyph-name="uni2113" unicode="&#x2113;" horiz-adv-x="407" d="M35 259 Q41 261 60.5 267 Q80 273 103 284 L103 506 Q103 580 140 622 Q177 664 237 664 Q301 664 336.5 625 Q372 586 372 514 Q372 475 360.5 436 Q349 397 326.5 360 Q304 323 271.5 290 Q239 257 197 231 L197 160 Q197 119 216 101 Q235 83 264 82 Q292 82 315 89.5 Q338 97 354 111 L354 26 Q349 19 327 7 Q305 -5 260 -5 Q179 -5 141 40.5 Q103 86 103 155 L103 188 Q86 183 69.5 178.5 Q53 174 35 171 L35 259 Z M278 514 Q278 546 269.5 562 Q261 578 239 578 Q222 578 209.5 562.5 Q197 547 197 507 L197 343 Q230 373 254 415 Q278 457 278 514 Z " />
<glyph glyph-name="trademark" unicode="&#x2122;" horiz-adv-x="859" d="M218 641 L218 344 L142 344 L142 641 L30 641 L30 709 L330 709 L330 641 L218 641 Z M727 344 L727 577 L626 344 L567 344 L469 574 L469 344 L393 344 L393 709 L492 709 L599 455 L706 709 L799 709 L799 344 L727 344 Z " />
<glyph glyph-name="Omega" unicode="&#x2126;" horiz-adv-x="796" d="M398 636 Q352 636 306.5 620 Q261 604 225 572.5 Q189 541 167 495 Q145 449 145 388 Q145 334 164 290 Q183 246 213 213.5 Q243 181 280.5 160.5 Q318 140 355 132 L355 0 L50 0 L50 88 L252 88 Q214 102 176.5 128.5 Q139 155 110 193.5 Q81 232 63 280.5 Q45 329 45 387 Q45 466 74.5 529 Q104 592 152.5 635 Q201 678 265 701 Q329 724 398 724 Q467 724 531 701 Q595 678 643.5 635 Q692 592 721.5 529 Q751 466 751 387 Q751 329 733 280.5 Q715 232 685.5 193.5 Q656 155 619 128.5 Q582 102 543 88 L746 88 L746 0 L441 0 L441 132 Q478 140 515.5 160.5 Q553 181 583 213.5 Q613 246 632 290 Q651 334 651 388 Q651 449 629 495 Q607 541 571 572.5 Q535 604 489.5 620 Q444 636 398 636 Z " />
<glyph glyph-name="uni2160" unicode="&#x2160;" horiz-adv-x="506" d="M451 560 L301 560 L301 88 L451 88 L451 0 L55 0 L55 88 L205 88 L205 560 L55 560 L55 648 L451 648 L451 560 Z " />
<glyph glyph-name="uni2161" unicode="&#x2161;" horiz-adv-x="770" d="M715 0 L55 0 L55 88 L195 88 L195 560 L55 560 L55 648 L715 648 L715 560 L575 560 L575 88 L715 88 L715 0 Z M479 560 L291 560 L291 88 L479 88 L479 560 Z " />
<glyph glyph-name="uni2162" unicode="&#x2162;" horiz-adv-x="1044" d="M989 0 L55 0 L55 88 L195 88 L195 560 L55 560 L55 648 L989 648 L989 560 L849 560 L849 88 L989 88 L989 0 Z M753 560 L570 560 L570 88 L753 88 L753 560 Z M291 88 L474 88 L474 560 L291 560 L291 88 Z " />
<glyph glyph-name="uni2163" unicode="&#x2163;" horiz-adv-x="1006" d="M951 0 L55 0 L55 88 L185 88 L185 560 L55 560 L55 648 L950 648 L950 560 L835 560 L672 88 L951 88 L951 0 Z M281 88 L521 88 L361 560 L281 560 L281 88 Z M736 560 L463 560 L599 141 L736 560 Z " />
<glyph glyph-name="uni2164" unicode="&#x2164;" horiz-adv-x="803" d="M748 560 L638 560 L475 88 L744 88 L744 0 L60 0 L60 88 L324 88 L164 560 L55 560 L55 648 L748 648 L748 560 Z M539 560 L266 560 L402 141 L539 560 Z " />
<glyph glyph-name="uni2165" unicode="&#x2165;" horiz-adv-x="1006" d="M951 0 L55 0 L55 88 L329 88 L169 560 L55 560 L55 648 L950 648 L950 560 L821 560 L821 88 L951 88 L951 0 Z M480 88 L725 88 L725 560 L643 560 L480 88 Z M544 560 L271 560 L407 141 L544 560 Z " />
<glyph glyph-name="uni2166" unicode="&#x2166;" horiz-adv-x="1293" d="M1238 0 L55 0 L55 88 L328 88 L169 560 L55 560 L55 648 L1238 648 L1238 560 L1098 560 L1098 88 L1238 88 L1238 0 Z M1002 560 L820 560 L820 88 L1002 88 L1002 560 Z M479 88 L724 88 L724 560 L642 560 L479 88 Z M543 560 L271 560 L406 141 L543 560 Z " />
<glyph glyph-name="uni2167" unicode="&#x2167;" horiz-adv-x="1542" d="M1487 0 L55 0 L55 88 L325 88 L169 560 L55 560 L55 648 L1487 648 L1487 560 L1352 560 L1352 88 L1487 88 L1487 0 Z M814 88 L987 88 L987 560 L814 560 L814 88 Z M1083 88 L1256 88 L1256 560 L1083 560 L1083 88 Z M474 88 L718 88 L718 560 L634 560 L474 88 Z M534 560 L271 560 L402 141 L534 560 Z " />
<glyph glyph-name="uni2168" unicode="&#x2168;" horiz-adv-x="976" d="M921 0 L55 0 L55 88 L185 88 L185 560 L55 560 L55 648 L920 648 L920 560 L815 560 L645 317 L806 88 L921 88 L921 0 Z M367 560 L281 560 L281 88 L373 88 L538 317 L367 560 Z M591 392 L706 560 L477 560 L591 392 Z M481 88 L696 88 L590 243 L481 88 Z " />
<glyph glyph-name="uni2169" unicode="&#x2169;" horiz-adv-x="767" d="M711 560 L606 560 L436 317 L597 88 L712 88 L712 0 L55 0 L55 88 L164 88 L329 317 L158 560 L55 560 L55 648 L711 648 L711 560 Z M382 392 L497 560 L268 560 L382 392 Z M272 88 L487 88 L381 243 L272 88 Z " />
<glyph glyph-name="uni216C" unicode="&#x216c;" horiz-adv-x="654" d="M599 0 L55 0 L55 88 L185 88 L185 560 L55 560 L55 648 L421 648 L421 560 L281 560 L281 88 L503 88 L503 281 L599 281 L599 0 Z " />
<glyph glyph-name="uni216D" unicode="&#x216d;" horiz-adv-x="722" d="M667 0 L571 0 L571 67 Q540 29 494 7.5 Q448 -14 379 -14 Q318 -14 259.5 8.5 Q201 31 155.5 74 Q110 117 82.5 180.5 Q55 244 55 325 Q55 407 83 470 Q111 533 156.5 576 Q202 619 260 641.5 Q318 664 379 664 Q446 664 492 644 Q538 624 569 587 L569 650 L665 650 L665 424 L569 424 Q561 493 513 534.5 Q465 576 379 576 Q333 576 292 561 Q251 546 220 515 Q189 484 170.5 436.5 Q152 389 152 325 Q152 261 170.5 213.5 Q189 166 220 135 Q251 104 292 89 Q333 74 379 74 Q428 74 463.5 88.5 Q499 103 522 125.5 Q545 148 557 176 Q569 204 571 231 L667 231 L667 0 Z " />
<glyph glyph-name="uni216E" unicode="&#x216e;" horiz-adv-x="735" d="M376 648 Q435 648 490 627.5 Q545 607 587 566 Q629 525 654.5 464.5 Q680 404 680 323 Q680 243 655 183 Q630 123 587 82 Q544 41 488 20.5 Q432 0 370 0 L55 0 L55 88 L190 88 L190 560 L55 560 L55 648 L376 648 Z M372 88 Q412 88 449.5 102 Q487 116 516.5 145 Q546 174 564 218 Q582 262 582 323 Q582 382 565 426.5 Q548 471 519.5 500.5 Q491 530 452 545 Q413 560 370 560 L286 560 L286 88 L372 88 Z " />
<glyph glyph-name="uni216F" unicode="&#x216f;" horiz-adv-x="1069" d="M531 133 L743 648 L1014 648 L1014 560 L882 560 L882 88 L1014 88 L1014 0 L689 0 L689 88 L788 88 L788 516 L569 0 L493 0 L276 516 L276 88 L380 88 L380 0 L55 0 L55 88 L182 88 L182 560 L55 560 L55 648 L321 648 L531 133 Z " />
<glyph glyph-name="arrowleft" unicode="&#x2190;" horiz-adv-x="1026" d="M0 287 L221 473 L221 329 L956 329 L956 246 L221 246 L221 102 L0 287 Z " />
<glyph glyph-name="arrowup" unicode="&#x2191;" horiz-adv-x="449" d="M439 555 L281 555 L281 -148 L198 -148 L198 555 L40 555 L240 800 L439 555 Z " />
<glyph glyph-name="arrowright" unicode="&#x2192;" horiz-adv-x="1026" d="M730 76 L730 245 L34 245 L34 328 L730 328 L730 499 L982 287 L730 76 Z " />
<glyph glyph-name="arrowdown" unicode="&#x2193;" horiz-adv-x="449" d="M210 -162 L-1 90 L168 90 L168 786 L251 786 L251 90 L422 90 L210 -162 Z " />
<glyph glyph-name="uni2196" unicode="&#x2196;" horiz-adv-x="874" d="M347 709 L231 592 L774 50 L715 -8 L172 533 L55 415 L55 709 L347 709 Z " />
<glyph glyph-name="uni2197" unicode="&#x2197;" horiz-adv-x="773" d="M673 709 L673 415 L555 533 L13 -8 L-46 50 L497 592 L381 709 L673 709 Z " />
<glyph glyph-name="uni2198" unicode="&#x2198;" horiz-adv-x="874" d="M482 0 L598 117 L55 659 L114 717 L656 175 L774 294 L774 0 L482 0 Z " />
<glyph glyph-name="uni2199" unicode="&#x2199;" horiz-adv-x="764" d="M45 0 L45 294 L162 175 L705 717 L764 659 L221 117 L337 0 L45 0 Z " />
<glyph glyph-name="uni21A9" unicode="&#x21a9;" horiz-adv-x="833" d="M398 664 L590 664 Q635 664 674.5 648 Q714 632 743.5 604 Q773 576 790 537.5 Q807 499 807 455 Q807 408 789 369.5 Q771 331 740 303.5 Q709 276 669 261 Q629 246 586 246 L219 246 L219 102 L-2 287 L219 473 L219 329 L581 329 Q609 329 635 337.5 Q661 346 681 362 Q701 378 713 401.5 Q725 425 725 455 Q725 485 713.5 508.5 Q702 532 682 548 Q662 564 635 572.5 Q608 581 578 581 L398 581 L398 664 Z " />
<glyph glyph-name="uni21B0" unicode="&#x21b0;" horiz-adv-x="775" d="M50 538 L271 724 L271 580 L685 580 L685 0 L602 0 L602 497 L271 497 L271 353 L50 538 Z " />
<glyph glyph-name="uni21B1" unicode="&#x21b1;" horiz-adv-x="720" d="M35 0 L35 580 L499 580 L499 724 L720 538 L499 353 L499 497 L118 497 L118 0 L35 0 Z " />
<glyph glyph-name="uni21B2" unicode="&#x21b2;" horiz-adv-x="760" d="M675 709 L675 129 L211 129 L211 -15 L-10 171 L211 356 L211 212 L592 212 L592 709 L675 709 Z " />
<glyph glyph-name="uni21B3" unicode="&#x21b3;" horiz-adv-x="840" d="M770 171 L549 -15 L549 129 L85 129 L85 709 L168 709 L168 212 L549 212 L549 356 L770 171 Z " />
<glyph glyph-name="uni21B4" unicode="&#x21b4;" horiz-adv-x="814" d="M55 709 L635 709 L635 205 L779 205 L593 -16 L408 205 L552 205 L552 626 L55 626 L55 709 Z " />
<glyph glyph-name="uni21C6" unicode="&#x21c6;" horiz-adv-x="1106" d="M55 540 L276 726 L276 582 L1031 582 L1031 499 L276 499 L276 355 L55 540 Z M830 -15 L830 129 L75 129 L75 212 L830 212 L830 356 L1051 170 L830 -15 Z " />
<glyph glyph-name="partialdiff" unicode="&#x2202;" horiz-adv-x="611" d="M247 638 Q223 638 184.5 632 Q146 626 107 607 L75 681 Q117 705 165 714.5 Q213 724 255 724 Q300 724 353.5 709 Q407 694 453.5 652.5 Q500 611 531 538 Q562 465 562 348 Q562 264 544.5 197 Q527 130 492 83 Q457 36 405.5 10.5 Q354 -15 287 -15 Q241 -15 197.5 -0.5 Q154 14 120.5 43.5 Q87 73 66.5 117.5 Q46 162 46 221 Q46 275 65.5 317.5 Q85 360 119 390 Q153 420 197.5 436 Q242 452 292 452 Q352 452 396 435 Q440 418 463 395 Q458 459 440 505.5 Q422 552 394 581 Q366 610 329 624 Q292 638 247 638 Z M306 369 Q265 369 234.5 356.5 Q204 344 183.5 323 Q163 302 152.5 274 Q142 246 142 215 Q142 180 154.5 153.5 Q167 127 188 109 Q209 91 236 81.5 Q263 72 292 72 Q339 72 371.5 92.5 Q404 113 424.5 145 Q445 177 454.5 217 Q464 257 464 296 Q438 332 395.5 350.5 Q353 369 306 369 Z " />
<glyph glyph-name="Delta" unicode="&#x2206;" horiz-adv-x="662" d="M278 709 L383 709 L662 0 L0 0 L278 709 Z M139 90 L522 90 L329 597 L139 90 Z " />
<glyph glyph-name="product" unicode="&#x220f;" horiz-adv-x="687" d="M502 0 L502 622 L188 622 L188 0 L90 0 L90 709 L597 709 L597 0 L502 0 Z " />
<glyph glyph-name="summation" unicode="&#x2211;" horiz-adv-x="567" d="M45 86 L318 357 L45 623 L45 709 L542 709 L542 619 L177 619 L446 357 L168 90 L542 90 L542 0 L45 0 L45 86 Z " />
<glyph glyph-name="minus" unicode="&#x2212;" horiz-adv-x="533" d="M55 248 L55 327 L478 327 L478 248 L55 248 Z " />
<glyph glyph-name="uni2215" unicode="&#x2215;" horiz-adv-x="404" d="M91 0 L0 0 L313 648 L404 648 L91 0 Z " />
<glyph glyph-name="uni2219" unicode="&#x2219;" horiz-adv-x="279" d="M70 284 Q70 313 90 333.5 Q110 354 139 354 Q168 354 188.5 333.5 Q209 313 209 284 Q209 255 188.5 235 Q168 215 139 215 Q110 215 90 235 Q70 255 70 284 Z " />
<glyph glyph-name="radical" unicode="&#x221a;" horiz-adv-x="665" d="M581 780 L315 0 L224 0 L35 529 L143 529 L270 155 L505 868 L700 868 L700 780 L581 780 Z " />
<glyph glyph-name="infinity" unicode="&#x221e;" horiz-adv-x="801" d="M399 228 Q353 177 311 149.5 Q269 122 219 122 Q181 122 149 134.5 Q117 147 94 169.5 Q71 192 58 223 Q45 254 45 290 Q45 326 58 357 Q71 388 94 410.5 Q117 433 149 446 Q181 459 219 459 Q269 459 314.5 432 Q360 405 402 352 Q447 405 489.5 432 Q532 459 582 459 Q620 459 652 446 Q684 433 707 410.5 Q730 388 743 357 Q756 326 756 290 Q756 254 743 223 Q730 192 707 169.5 Q684 147 652 134.5 Q620 122 582 122 Q483 122 399 228 Z M221 379 Q178 379 153 353 Q128 327 128 289 Q128 251 153 225.5 Q178 200 221 200 Q258 200 288.5 224.5 Q319 249 350 287 Q318 326 288.5 352.5 Q259 379 221 379 Z M580 200 Q623 200 648 225.5 Q673 251 673 289 Q673 327 648 353 Q623 379 580 379 Q542 379 513 353.5 Q484 328 451 290 Q483 252 512.5 226 Q542 200 580 200 Z " />
<glyph glyph-name="integral" unicode="&#x222b;" horiz-adv-x="310" d="M109 551 Q109 625 151 667 Q193 709 268 709 L305 709 L305 623 L275 623 Q242 623 222.5 603.5 Q203 584 203 544 L203 -41 Q203 -115 162.5 -157.5 Q122 -200 48 -200 L5 -200 L5 -114 L36 -114 Q68 -114 88.5 -93.5 Q109 -73 109 -33 L109 551 Z " />
<glyph glyph-name="approxequal" unicode="&#x2248;" horiz-adv-x="569" d="M534 384 Q506 344 469 322.5 Q432 301 388 301 Q340 301 288 331 L241 357 Q209 374 179 374 Q127 374 88 329 L35 376 Q64 418 100 439.5 Q136 461 178 461 Q204 461 228.5 453 Q253 445 281 430 L327 405 Q362 385 397 385 Q446 385 483 429 L534 384 Z M534 190 Q506 150 469 128.5 Q432 107 388 107 Q340 107 288 137 L241 163 Q209 180 179 180 Q127 180 88 135 L35 182 Q64 224 100 245.5 Q136 267 178 267 Q204 267 228.5 259 Q253 251 281 236 L327 211 Q362 191 397 191 Q446 191 483 235 L534 190 Z " />
<glyph glyph-name="notequal" unicode="&#x2260;" horiz-adv-x="593" d="M246 151 L172 51 L76 51 L150 151 L65 151 L65 230 L208 230 L293 346 L65 346 L65 423 L350 423 L423 522 L519 522 L446 423 L528 423 L528 346 L389 346 L304 230 L528 230 L528 151 L246 151 Z " />
<glyph glyph-name="lessequal" unicode="&#x2264;" horiz-adv-x="542" d="M477 130 L477 51 L65 51 L65 130 L477 130 Z M65 389 L477 535 L477 451 L170 347 L477 243 L477 159 L65 304 L65 389 Z " />
<glyph glyph-name="greaterequal" unicode="&#x2265;" horiz-adv-x="542" d="M477 130 L477 51 L65 51 L65 130 L477 130 Z M477 304 L65 159 L65 243 L372 347 L65 451 L65 535 L477 389 L477 304 Z " />
<glyph glyph-name="dotmath" unicode="&#x22c5;" horiz-adv-x="279" d="M70 284 Q70 313 90 333.5 Q110 354 139 354 Q168 354 188.5 333.5 Q209 313 209 284 Q209 255 188.5 235 Q168 215 139 215 Q110 215 90 235 Q70 255 70 284 Z " />
<glyph glyph-name="uni24C5" unicode="&#x24c5;" horiz-adv-x="821" d="M123 355 Q123 292 145 237.5 Q167 183 206 143.5 Q245 104 297 81 Q349 58 409 58 Q469 58 521 81 Q573 104 612 143.5 Q651 183 673 237.5 Q695 292 695 355 Q695 418 673 472 Q651 526 612 566 Q573 606 521 628.5 Q469 651 409 651 Q349 651 297 628.5 Q245 606 206 566 Q167 526 145 472 Q123 418 123 355 Z M45 355 Q45 431 73.5 498 Q102 565 151.5 615.5 Q201 666 267 695 Q333 724 409 724 Q485 724 552 695 Q619 666 668.5 615.5 Q718 565 747 498 Q776 431 776 355 Q776 279 747 211.5 Q718 144 668.5 94 Q619 44 552 14.5 Q485 -15 409 -15 Q333 -15 267 14.5 Q201 44 151.5 94 Q102 144 73.5 211.5 Q45 279 45 355 Z M433 367 Q467 367 486 384 Q505 401 505 429 Q505 458 486 475.5 Q467 493 433 493 L363 493 L363 367 L433 367 Z M363 301 L363 157 L287 157 L287 559 L446 559 Q475 559 500 549 Q525 539 543 521.5 Q561 504 571.5 480.5 Q582 457 582 430 Q582 403 571.5 379.5 Q561 356 543 338.5 Q525 321 500 311 Q475 301 446 301 L363 301 Z " />
<glyph glyph-name="filledbox" unicode="&#x25a0;" horiz-adv-x="921" d="M110 709 L811 709 L811 0 L110 0 L110 709 Z " />
<glyph glyph-name="H22073" unicode="&#x25a1;" horiz-adv-x="921" d="M110 0 L110 709 L811 709 L811 0 L110 0 Z M192 75 L729 75 L729 633 L192 633 L192 75 Z " />
<glyph glyph-name="uni25AF" unicode="&#x25af;" horiz-adv-x="562" d="" />
<glyph glyph-name="triagup" unicode="&#x25b2;" horiz-adv-x="837" d="M837 0 L0 0 L420 724 L837 0 Z " />
<glyph glyph-name="uni25B3" unicode="&#x25b3;" horiz-adv-x="837" d="M837 0 L0 0 L420 724 L837 0 Z M419 561 L140 75 L696 75 L419 561 Z " />
<glyph glyph-name="lozenge" unicode="&#x25ca;" horiz-adv-x="556" d="M278 112 L418 354 L278 597 L137 354 L278 112 Z M237 709 L319 709 L521 354 L319 0 L237 0 L35 354 L237 709 Z " />
<glyph glyph-name="circle" unicode="&#x25cb;" horiz-adv-x="831" d="M45 354 Q45 431 74 498.5 Q103 566 153 616.5 Q203 667 270.5 696 Q338 725 415 725 Q492 725 559.5 696 Q627 667 677.5 616.5 Q728 566 757 498.5 Q786 431 786 354 Q786 277 757 209.5 Q728 142 677.5 92 Q627 42 559.5 13 Q492 -16 415 -16 Q338 -16 270.5 13 Q203 42 153 92 Q103 142 74 209.5 Q45 277 45 354 Z M129 354 Q129 293 151 240 Q173 187 212 147.5 Q251 108 303 85.5 Q355 63 415 63 Q475 63 527 85.5 Q579 108 618 147.5 Q657 187 679 240 Q701 293 701 354 Q701 415 679 468 Q657 521 618 560.5 Q579 600 527 622.5 Q475 645 415 645 Q355 645 303 622.5 Q251 600 212 560.5 Q173 521 151 468 Q129 415 129 354 Z " />
<glyph glyph-name="H18533" unicode="&#x25cf;" horiz-adv-x="831" d="M45 354 Q45 431 74 498.5 Q103 566 153 616.5 Q203 667 270.5 696 Q338 725 415 725 Q492 725 559.5 696 Q627 667 677.5 616.5 Q728 566 757 498.5 Q786 431 786 354 Q786 277 757 209.5 Q728 142 677.5 92 Q627 42 559.5 13 Q492 -16 415 -16 Q338 -16 270.5 13 Q203 42 153 92 Q103 142 74 209.5 Q45 277 45 354 Z " />
<glyph glyph-name="uni262E" unicode="&#x262e;" horiz-adv-x="821" d="M776 355 Q776 279 747 211.5 Q718 144 668.5 94 Q619 44 552 14.5 Q485 -15 409 -15 Q333 -15 267 14.5 Q201 44 151.5 94 Q102 144 73.5 211.5 Q45 279 45 355 Q45 431 73.5 498 Q102 565 151.5 615.5 Q201 666 267 695 Q333 724 409 724 Q485 724 552 695 Q619 666 668.5 615.5 Q718 565 747 498 Q776 431 776 355 Z M695 355 Q695 412 676 462.5 Q657 513 624 551.5 Q591 590 546 615 Q501 640 449 648 L449 408 L655 201 Q674 235 684.5 273.5 Q695 312 695 355 Z M123 355 Q123 313 133 274.5 Q143 236 162 203 L367 408 L367 648 Q314 640 269.5 615 Q225 590 192.5 551.5 Q160 513 141.5 462.5 Q123 412 123 355 Z M449 61 Q494 67 533 86.5 Q572 106 604 136 L449 292 L449 61 Z M212 137 Q243 106 282.5 86.5 Q322 67 367 61 L367 292 L212 137 Z " />
<glyph glyph-name="uni2713" unicode="&#x2713;" horiz-adv-x="970" d="M307 -17 L25 298 L85 355 L311 108 L885 729 L945 670 L307 -17 Z " />
<glyph glyph-name="uni2715" unicode="&#x2715;" horiz-adv-x="756" d="M378 295 L84 -5 L25 54 L319 355 L26 655 L86 714 L378 415 L670 714 L730 655 L436 355 L731 54 L672 -5 L378 295 Z " />
<glyph glyph-name="uni2780" unicode="&#x2780;" horiz-adv-x="821" d="M123 355 Q123 292 145 237.5 Q167 183 206 143.5 Q245 104 297 81 Q349 58 409 58 Q469 58 521 81 Q573 104 612 143.5 Q651 183 673 237.5 Q695 292 695 355 Q695 418 673 472 Q651 526 612 566 Q573 606 521 628.5 Q469 651 409 651 Q349 651 297 628.5 Q245 606 206 566 Q167 526 145 472 Q123 418 123 355 Z M45 355 Q45 431 73.5 498 Q102 565 151.5 615.5 Q201 666 267 695 Q333 724 409 724 Q485 724 552 695 Q619 666 668.5 615.5 Q718 565 747 498 Q776 431 776 355 Q776 279 747 211.5 Q718 144 668.5 94 Q619 44 552 14.5 Q485 -15 409 -15 Q333 -15 267 14.5 Q201 44 151.5 94 Q102 144 73.5 211.5 Q45 279 45 355 Z M385 173 L385 418 L299 418 L299 470 Q336 471 361 490.5 Q386 510 391 538 L462 538 L462 173 L385 173 Z " />
<glyph glyph-name="uni2781" unicode="&#x2781;" horiz-adv-x="821" d="M123 355 Q123 292 145 237.5 Q167 183 206 143.5 Q245 104 297 81 Q349 58 409 58 Q469 58 521 81 Q573 104 612 143.5 Q651 183 673 237.5 Q695 292 695 355 Q695 418 673 472 Q651 526 612 566 Q573 606 521 628.5 Q469 651 409 651 Q349 651 297 628.5 Q245 606 206 566 Q167 526 145 472 Q123 418 123 355 Z M45 355 Q45 431 73.5 498 Q102 565 151.5 615.5 Q201 666 267 695 Q333 724 409 724 Q485 724 552 695 Q619 666 668.5 615.5 Q718 565 747 498 Q776 431 776 355 Q776 279 747 211.5 Q718 144 668.5 94 Q619 44 552 14.5 Q485 -15 409 -15 Q333 -15 267 14.5 Q201 44 151.5 94 Q102 144 73.5 211.5 Q45 279 45 355 Z M276 402 Q274 410 273.5 418.5 Q273 427 273 433 Q273 457 282 478 Q291 499 308 515 Q325 531 349.5 540.5 Q374 550 405 550 Q436 550 460 540.5 Q484 531 501 515.5 Q518 500 527 479 Q536 458 536 435 Q536 400 517 372.5 Q498 345 466 325 L394 280 Q383 272 374 263 Q365 254 363 243 L538 243 L538 178 L270 178 L270 191 Q270 236 290 272.5 Q310 309 355 336 L415 373 Q458 399 458 436 Q458 456 444 471 Q430 486 404 486 Q378 486 362.5 470 Q347 454 347 428 Q347 425 347.5 417 Q348 409 350 402 L276 402 Z " />
<glyph glyph-name="uni2782" unicode="&#x2782;" horiz-adv-x="821" d="M45 355 Q45 431 73.5 498 Q102 565 151.5 615.5 Q201 666 267 695 Q333 724 409 724 Q485 724 552 695 Q619 666 668.5 615.5 Q718 565 747 498 Q776 431 776 355 Q776 279 747 211.5 Q718 144 668.5 94 Q619 44 552 14.5 Q485 -15 409 -15 Q333 -15 267 14.5 Q201 44 151.5 94 Q102 144 73.5 211.5 Q45 279 45 355 Z M123 355 Q123 292 145 237.5 Q167 183 206 143.5 Q245 104 297 81 Q349 58 409 58 Q469 58 521 81 Q573 104 612 143.5 Q651 183 673 237.5 Q695 292 695 355 Q695 418 673 472 Q651 526 612 566 Q573 606 521 628.5 Q469 651 409 651 Q349 651 297 628.5 Q245 606 206 566 Q167 526 145 472 Q123 418 123 355 Z M345 393 L440 472 L269 472 L269 537 L540 537 L540 474 L440 394 Q461 392 480.5 384.5 Q500 377 515 363.5 Q530 350 539 330 Q548 310 548 285 Q548 260 537.5 238 Q527 216 508 199.5 Q489 183 462.5 173.5 Q436 164 403 164 Q370 164 345 173 Q320 182 301.5 196 Q283 210 271.5 228.5 Q260 247 256 267 L323 294 Q328 265 349.5 247.5 Q371 230 402 230 Q433 230 451.5 246 Q470 262 470 285 Q470 316 448.5 328.5 Q427 341 402 341 Q394 341 386.5 340 Q379 339 374 337 L345 393 Z " />
<glyph glyph-name="uni2783" unicode="&#x2783;" horiz-adv-x="821" d="M123 355 Q123 292 145 237.5 Q167 183 206 143.5 Q245 104 297 81 Q349 58 409 58 Q469 58 521 81 Q573 104 612 143.5 Q651 183 673 237.5 Q695 292 695 355 Q695 418 673 472 Q651 526 612 566 Q573 606 521 628.5 Q469 651 409 651 Q349 651 297 628.5 Q245 606 206 566 Q167 526 145 472 Q123 418 123 355 Z M45 355 Q45 431 73.5 498 Q102 565 151.5 615.5 Q201 666 267 695 Q333 724 409 724 Q485 724 552 695 Q619 666 668.5 615.5 Q718 565 747 498 Q776 431 776 355 Q776 279 747 211.5 Q718 144 668.5 94 Q619 44 552 14.5 Q485 -15 409 -15 Q333 -15 267 14.5 Q201 44 151.5 94 Q102 144 73.5 211.5 Q45 279 45 355 Z M235 323 L412 543 L497 543 L497 315 L561 315 L561 250 L497 250 L497 178 L420 178 L420 250 L235 250 L235 323 Z M420 454 L309 315 L420 315 L420 454 Z " />
<glyph glyph-name="uni2784" unicode="&#x2784;" horiz-adv-x="821" d="M123 355 Q123 292 145 237.5 Q167 183 206 143.5 Q245 104 297 81 Q349 58 409 58 Q469 58 521 81 Q573 104 612 143.5 Q651 183 673 237.5 Q695 292 695 355 Q695 418 673 472 Q651 526 612 566 Q573 606 521 628.5 Q469 651 409 651 Q349 651 297 628.5 Q245 606 206 566 Q167 526 145 472 Q123 418 123 355 Z M45 355 Q45 431 73.5 498 Q102 565 151.5 615.5 Q201 666 267 695 Q333 724 409 724 Q485 724 552 695 Q619 666 668.5 615.5 Q718 565 747 498 Q776 431 776 355 Q776 279 747 211.5 Q718 144 668.5 94 Q619 44 552 14.5 Q485 -15 409 -15 Q333 -15 267 14.5 Q201 44 151.5 94 Q102 144 73.5 211.5 Q45 279 45 355 Z M323 285 Q330 259 349.5 243.5 Q369 228 396 228 Q425 228 444 244 Q463 260 463 289 Q463 320 444 335.5 Q425 351 396 351 Q376 351 360 343.5 Q344 336 332 324 L268 348 L317 535 L521 535 L521 469 L367 469 L344 383 Q358 398 377.5 404.5 Q397 411 417 411 Q473 411 507 379 Q541 347 541 292 Q541 265 531.5 241.5 Q522 218 503.5 200.5 Q485 183 458 173 Q431 163 396 163 Q369 163 345.5 171 Q322 179 304 191.5 Q286 204 274 220.5 Q262 237 257 255 L323 285 Z " />
<glyph glyph-name="uni2785" unicode="&#x2785;" horiz-adv-x="821" d="M123 355 Q123 292 145 237.5 Q167 183 206 143.5 Q245 104 297 81 Q349 58 409 58 Q469 58 521 81 Q573 104 612 143.5 Q651 183 673 237.5 Q695 292 695 355 Q695 418 673 472 Q651 526 612 566 Q573 606 521 628.5 Q469 651 409 651 Q349 651 297 628.5 Q245 606 206 566 Q167 526 145 472 Q123 418 123 355 Z M45 355 Q45 431 73.5 498 Q102 565 151.5 615.5 Q201 666 267 695 Q333 724 409 724 Q485 724 552 695 Q619 666 668.5 615.5 Q718 565 747 498 Q776 431 776 355 Q776 279 747 211.5 Q718 144 668.5 94 Q619 44 552 14.5 Q485 -15 409 -15 Q333 -15 267 14.5 Q201 44 151.5 94 Q102 144 73.5 211.5 Q45 279 45 355 Z M510 470 Q481 483 448 483 Q400 483 366.5 456.5 Q333 430 325 378 Q338 397 363 409 Q388 421 416 421 Q474 421 510 388 Q546 355 546 295 Q546 266 534.5 242.5 Q523 219 503.5 202 Q484 185 457 175.5 Q430 166 399 166 Q371 166 344 176 Q317 186 295.5 206.5 Q274 227 261 258.5 Q248 290 248 333 Q248 382 262.5 421 Q277 460 303 488 Q329 516 364.5 531 Q400 546 442 546 Q467 546 490 541 Q513 536 528 527 L510 470 Z M331 294 Q331 263 352.5 247 Q374 231 400 231 Q426 231 447 247 Q468 263 468 294 Q468 325 447 341 Q426 357 400 357 Q374 357 352.5 341 Q331 325 331 294 Z " />
<glyph glyph-name="uni2786" unicode="&#x2786;" horiz-adv-x="821" d="M123 355 Q123 292 145 237.5 Q167 183 206 143.5 Q245 104 297 81 Q349 58 409 58 Q469 58 521 81 Q573 104 612 143.5 Q651 183 673 237.5 Q695 292 695 355 Q695 418 673 472 Q651 526 612 566 Q573 606 521 628.5 Q469 651 409 651 Q349 651 297 628.5 Q245 606 206 566 Q167 526 145 472 Q123 418 123 355 Z M45 355 Q45 431 73.5 498 Q102 565 151.5 615.5 Q201 666 267 695 Q333 724 409 724 Q485 724 552 695 Q619 666 668.5 615.5 Q718 565 747 498 Q776 431 776 355 Q776 279 747 211.5 Q718 144 668.5 94 Q619 44 552 14.5 Q485 -15 409 -15 Q333 -15 267 14.5 Q201 44 151.5 94 Q102 144 73.5 211.5 Q45 279 45 355 Z M559 464 Q546 455 523 434 Q500 413 476 377.5 Q452 342 432 290.5 Q412 239 405 168 L323 168 Q330 243 352 298.5 Q374 354 398 392 Q426 436 459 467 L262 467 L262 533 L559 533 L559 464 Z " />
<glyph glyph-name="uni2787" unicode="&#x2787;" horiz-adv-x="821" d="M123 355 Q123 292 145 237.5 Q167 183 206 143.5 Q245 104 297 81 Q349 58 409 58 Q469 58 521 81 Q573 104 612 143.5 Q651 183 673 237.5 Q695 292 695 355 Q695 418 673 472 Q651 526 612 566 Q573 606 521 628.5 Q469 651 409 651 Q349 651 297 628.5 Q245 606 206 566 Q167 526 145 472 Q123 418 123 355 Z M45 355 Q45 431 73.5 498 Q102 565 151.5 615.5 Q201 666 267 695 Q333 724 409 724 Q485 724 552 695 Q619 666 668.5 615.5 Q718 565 747 498 Q776 431 776 355 Q776 279 747 211.5 Q718 144 668.5 94 Q619 44 552 14.5 Q485 -15 409 -15 Q333 -15 267 14.5 Q201 44 151.5 94 Q102 144 73.5 211.5 Q45 279 45 355 Z M408 390 Q434 390 449.5 403 Q465 416 465 438 Q465 458 450 470.5 Q435 483 408 483 Q381 483 366 470.5 Q351 458 351 438 Q351 416 366.5 403 Q382 390 408 390 Z M408 230 Q441 230 458 243.5 Q475 257 475 280 Q475 302 457.5 316 Q440 330 408 330 Q376 330 358.5 316 Q341 302 341 280 Q341 257 358 243.5 Q375 230 408 230 Z M408 166 Q338 166 300.5 197 Q263 228 263 274 Q263 301 281 324.5 Q299 348 331 360 Q304 371 289.5 393 Q275 415 275 440 Q275 487 312.5 516 Q350 545 408 545 Q466 545 503.5 516 Q541 487 541 440 Q541 415 526.5 393 Q512 371 485 360 Q517 348 535 324.5 Q553 301 553 274 Q553 228 515.5 197 Q478 166 408 166 Z " />
<glyph glyph-name="uni2788" unicode="&#x2788;" horiz-adv-x="821" d="M123 355 Q123 292 145 237.5 Q167 183 206 143.5 Q245 104 297 81 Q349 58 409 58 Q469 58 521 81 Q573 104 612 143.5 Q651 183 673 237.5 Q695 292 695 355 Q695 418 673 472 Q651 526 612 566 Q573 606 521 628.5 Q469 651 409 651 Q349 651 297 628.5 Q245 606 206 566 Q167 526 145 472 Q123 418 123 355 Z M45 355 Q45 431 73.5 498 Q102 565 151.5 615.5 Q201 666 267 695 Q333 724 409 724 Q485 724 552 695 Q619 666 668.5 615.5 Q718 565 747 498 Q776 431 776 355 Q776 279 747 211.5 Q718 144 668.5 94 Q619 44 552 14.5 Q485 -15 409 -15 Q333 -15 267 14.5 Q201 44 151.5 94 Q102 144 73.5 211.5 Q45 279 45 355 Z M299 242 Q328 229 361 229 Q409 229 443.5 253.5 Q478 278 484 332 Q471 313 446 301 Q421 289 393 289 Q336 289 299.5 322.5 Q263 356 263 415 Q263 443 274.5 467 Q286 491 305.5 508 Q325 525 352 534.5 Q379 544 410 544 Q438 544 464.5 534 Q491 524 512 503.5 Q533 483 546 451.5 Q559 420 559 377 Q559 325 544.5 285.5 Q530 246 504.5 219 Q479 192 444 178 Q409 164 367 164 Q342 164 319 169 Q296 174 281 183 L299 242 Z M476 415 Q476 446 455 462.5 Q434 479 407 479 Q380 479 359.5 462.5 Q339 446 339 415 Q339 384 359.5 367.5 Q380 351 407 351 Q434 351 455 367.5 Q476 384 476 415 Z " />
<glyph glyph-name="uniE000" unicode="&#xe000;" horiz-adv-x="814" d="M35 205 L179 205 L179 709 L759 709 L759 626 L262 626 L262 205 L406 205 L221 -16 L35 205 Z " />
<glyph glyph-name="uniE021" unicode="&#xe021;" horiz-adv-x="1080" d="M45 355 L176 355 Q176 431 205.5 498.5 Q235 566 285 616 Q335 666 402 695 Q469 724 545 724 Q595 724 640.5 712 Q686 700 727 677 L690 603 Q658 621 621.5 631 Q585 641 546 641 Q486 641 434 618.5 Q382 596 343 557.5 Q304 519 282 467 Q260 415 260 355 L403 355 L224 145 L45 355 Z M914 354 Q914 277 884.5 210 Q855 143 805 93 Q755 43 688 14 Q621 -15 545 -15 Q495 -15 449.5 -3 Q404 9 363 32 L400 106 Q432 88 468.5 78 Q505 68 544 68 Q604 68 656 90.5 Q708 113 747 151.5 Q786 190 808 242 Q830 294 830 354 L692 354 L871 564 L1050 354 L914 354 Z " />
<glyph glyph-name="uniE002" unicode="&#xe002;" horiz-adv-x="949" d="M740 564 L919 354 L789 354 Q789 277 760 210 Q731 143 681 93 Q631 43 563.5 14 Q496 -15 419 -15 Q342 -15 275 14 Q208 43 158 93 Q108 143 79 210 Q50 277 50 354 Q50 431 79 498.5 Q108 566 158 616 Q208 666 275 695 Q342 724 419 724 Q469 724 514.5 712 Q560 700 601 677 L564 603 Q532 621 495.5 631 Q459 641 420 641 Q360 641 308 618.5 Q256 596 217 557.5 Q178 519 156 466.5 Q134 414 134 354 Q134 294 156 241.5 Q178 189 217 150 Q256 111 308 88.5 Q360 66 420 66 Q480 66 532 88.5 Q584 111 622.5 150 Q661 189 683 241.5 Q705 294 705 354 L561 354 L740 564 Z " />
<glyph glyph-name="uniFB00" unicode="&#xfb00;" horiz-adv-x="659" d="M598 639 Q586 639 572.5 635.5 Q559 632 547.5 623 Q536 614 529 598 Q522 582 522 557 L522 481 L638 481 L638 396 L522 396 L522 0 L425 0 L425 396 L206 396 L206 0 L109 0 L109 396 L20 396 L20 481 L109 481 L109 562 Q109 602 121.5 633 Q134 664 155.5 685 Q177 706 205.5 716.5 Q234 727 267 727 Q291 727 305.5 723 Q320 719 323 717 L323 633 Q319 635 309.5 637 Q300 639 282 639 Q270 639 256.5 635.5 Q243 632 231.5 623 Q220 614 213 598 Q206 582 206 557 L206 481 L425 481 L425 562 Q425 602 437.5 633 Q450 664 471.5 685 Q493 706 521.5 716.5 Q550 727 583 727 Q607 727 621.5 723 Q636 719 639 717 L639 633 Q635 635 625.5 637 Q616 639 598 639 Z " />
<glyph glyph-name="fi" unicode="&#xfb01;" horiz-adv-x="604" d="M267 727 Q291 727 305.5 723 Q320 719 323 717 L323 633 Q319 635 309.5 637 Q300 639 282 639 Q270 639 256.5 635.5 Q243 632 231.5 623 Q220 614 213 598.5 Q206 583 206 558 L206 481 L524 481 L524 0 L431 0 L431 396 L206 396 L206 0 L109 0 L109 396 L20 396 L20 481 L109 481 L109 562 Q109 602 121.5 633 Q134 664 155.5 685 Q177 706 205.5 716.5 Q234 727 267 727 Z M410 665 Q410 694 429.5 713.5 Q449 733 477 733 Q506 733 525.5 713.5 Q545 694 545 665 Q545 637 525.5 617.5 Q506 598 477 598 Q449 598 429.5 617.5 Q410 637 410 665 Z " />
<glyph glyph-name="fl" unicode="&#xfb02;" horiz-adv-x="602" d="M282 639 Q270 639 256.5 635.5 Q243 632 231.5 623 Q220 614 213 598 Q206 582 206 557 L206 481 L428 481 L428 724 L522 724 L522 0 L428 0 L428 396 L206 396 L206 0 L109 0 L109 396 L20 396 L20 481 L109 481 L109 562 Q109 602 121.5 633 Q134 664 155.5 685 Q177 706 205.5 716.5 Q234 727 267 727 Q291 727 305.5 723 Q320 719 323 717 L323 633 Q319 635 309.5 637 Q300 639 282 639 Z " />
<glyph glyph-name="uniFB03" unicode="&#xfb03;" horiz-adv-x="920" d="M109 562 Q109 602 121.5 633 Q134 664 155.5 685 Q177 706 205.5 716.5 Q234 727 267 727 Q291 727 305.5 723 Q320 719 323 717 L323 633 Q319 635 309.5 637 Q300 639 282 639 Q270 639 256.5 635.5 Q243 632 231.5 623 Q220 614 213 598 Q206 582 206 557 L206 481 L425 481 L425 562 Q425 602 437.5 633 Q450 664 471.5 685 Q493 706 521.5 716.5 Q550 727 583 727 Q607 727 621.5 723 Q636 719 639 717 L639 633 Q635 635 625.5 637 Q616 639 598 639 Q586 639 572.5 635.5 Q559 632 547.5 623 Q536 614 529 598 Q522 582 522 557 L522 481 L840 481 L840 0 L747 0 L747 396 L522 396 L522 0 L425 0 L425 396 L206 396 L206 0 L109 0 L109 396 L20 396 L20 481 L109 481 L109 562 Z M726 665 Q726 694 745.5 713.5 Q765 733 793 733 Q822 733 841.5 713.5 Q861 694 861 665 Q861 637 841.5 617.5 Q822 598 793 598 Q765 598 745.5 617.5 Q726 637 726 665 Z " />
<glyph glyph-name="uniFB04" unicode="&#xfb04;" horiz-adv-x="920" d="M109 562 Q109 602 121.5 633 Q134 664 155.5 685 Q177 706 205.5 716.5 Q234 727 267 727 Q291 727 305.5 723 Q320 719 323 717 L323 633 Q319 635 309.5 637 Q300 639 282 639 Q270 639 256.5 635.5 Q243 632 231.5 623 Q220 614 213 598 Q206 582 206 557 L206 481 L425 481 L425 562 Q425 602 437.5 633 Q450 664 471.5 685 Q493 706 521.5 716.5 Q550 727 583 727 Q607 727 621.5 723 Q636 719 639 717 L639 633 Q635 635 625.5 637 Q616 639 598 639 Q586 639 572.5 635.5 Q559 632 547.5 623 Q536 614 529 598 Q522 582 522 557 L522 481 L747 481 L747 724 L840 724 L840 0 L747 0 L747 396 L522 396 L522 0 L425 0 L425 396 L206 396 L206 0 L109 0 L109 396 L20 396 L20 481 L109 481 L109 562 Z " />
<glyph glyph-name="uniFEFF" unicode="&#xfeff;" d="" />
</font>
</svg>
