<?xml version="1.0" encoding="utf-8"?>
<!-- Generator: Adobe Illustrator 20.1.0, SVG Export Plug-In . SVG Version: 6.00 Build 0)  -->
<svg version="1.1" id="Layer_1" xmlns="http://www.w3.org/2000/svg" xmlns:xlink="http://www.w3.org/1999/xlink" x="0px" y="0px"
	 viewBox="0 0 385 385" style="enable-background:new 0 0 385 385;" xml:space="preserve">
<style type="text/css">
	.st0{fill:#FFFFFF;}
</style>
<g>
	<path d="M0,115.1c1,0,1.7,0,2.4,0c79.3,0,158.6-0.1,237.9,0.1c7.2,0,14.4,1.3,21.6,2.2c11,1.4,21.7,4.1,32.1,7.7
		c14.3,4.9,27.7,11.4,39.4,20.9c11.1,9,19.9,20,27.1,32.3c9.3,16,15.5,33.3,19.2,51.4c1.8,8.6,3,17.2,4.2,25.9
		c0.6,4.6,0.7,9.3,1,14.3c-0.9,0-1.6,0-2.3,0c-74.4,0-148.8,0-223.2,0c-8.2,0-16.5-0.2-24.7-0.8c-22.5-1.7-44.2-6.5-64.8-15.9
		c-27.1-12.4-45.6-32.7-56.7-60.2c-4.6-11.5-7.8-23.5-9.8-35.7c-1.7-10.3-2.8-20.6-3-31C0.4,122.7,0.2,119,0,115.1z M80.2,219.3
		c5.6,0,11.2,0.7,16.5-0.1c15.6-2.5,24.6-17.7,21.8-31.4c-9.4,0-18.8,0-28.4,0c0-7.5,0-14.9,0-22.2c-3.4,0-6.6,0-9.9,0
		C80.2,183.6,80.2,201.5,80.2,219.3z M77.3,165.5c-14.5,0-27.5,12.3-26.6,28.7c0.8,15.2,13.7,25.7,26.5,25.4c0-3.1,0-6.2,0-9.3
		c-9-0.3-15.1-6.9-16.4-12.9c5.5,0,11,0,16.4,0c0-3.3,0-6.4,0-9.6c-5.6,0-10.9,0-16.6,0c2.8-8.1,8.4-12.3,16.7-12.9
		C77.3,171.6,77.3,168.6,77.3,165.5z M234.1,181.2c0-4,0-7.6,0-11.2c-2.6,0-5.1,0-7.6,0c0,13.4,0,26.6,0,39.9c2.6,0,5.1,0,7.7,0
		c0-5.9,0-11.6,0-17.3c0-1.1,0.1-2.2,0.4-3.2c0.5-2,1.9-2.8,4.4-2.9c2,0,2.9,1.1,3.1,2.9c0.1,0.8,0.2,1.7,0.2,2.5c0,5.3,0,10.7,0,16
		c0,0.7,0,1.4,0,2c2.8,0,5.3,0,7.8,0c0-7.9,0-15.7,0-23.5c0-3.3-2-5.9-5.2-6.8C241.3,178.7,237.7,178.8,234.1,181.2z M139.4,196.1
		c1.1,0,1.8,0,2.5,0c4,0,8-0.1,12,0c1.6,0,2-0.5,1.9-2c-0.2-1.7-0.2-3.5-0.3-5.2c-0.4-5.2-3.2-8.7-7.9-9.6c-2-0.4-4.1-0.2-6.1-0.2
		c-5.1,0.1-8.6,2.8-9.9,7.7c-1.3,5.2-1.2,10.5-0.2,15.6c0.8,4.2,3.4,7,7.8,7.6c2.4,0.3,4.9,0.4,7.3,0.2c5.3-0.3,9.2-4.6,9.1-9.6
		c-2.4,0-4.7,0-7.2,0c-0.2,0.5-0.4,1-0.5,1.6c-0.8,2.3-2,3.1-4.1,3c-1.6-0.1-3.2-1.5-3.5-3.5C139.7,200.1,139.6,198.3,139.4,196.1z
		 M166.1,188.8c0-0.3,0.1-0.5,0.1-0.6c0.1-2.6,1.3-3.9,3.4-4c2.5-0.1,3.8,0.9,4.2,3.2c0.3,2.1-0.7,3.4-3.3,4.1c-2.3,0.6-4.7,1.2-7,2
		c-2.7,0.9-4.7,2.7-5.2,5.6c-0.2,1.3-0.2,2.7-0.2,4c0,3.2,2.1,6,5.2,6.9c3.7,1,7.2,0.7,10.5-1.7c0.1,0.6,0.2,1.2,0.3,1.6
		c2.5,0,4.8,0,7.2,0c0-7.9,0.1-15.6,0-23.3c-0.1-4-2.1-6.4-6-7c-2.7-0.4-5.5-0.7-8.2-0.3c-4.8,0.5-8.5,3.6-7.9,9.6
		C161.4,188.8,163.7,188.8,166.1,188.8z M217.7,210c0-7.9,0-15.6,0-23.5c1.7,0,3.1,0,4.6,0c0-2.5,0-4.8,0-7.3c-1.5,0-3,0-4.7,0
		c0-3.2,0-6.2,0-9.1c-2.7,0-5.2,0-8,0c0,3.1,0,6.1,0,9.2c-1.5,0-2.7,0-3.9,0c0,2.5,0,4.8,0,7.4c1.4,0,2.6,0,4.1,0
		c0,7.9,0,15.6,0,23.3C212.4,210,214.9,210,217.7,210z M258.1,205.5c5.7,7.6,19.5,7.1,23.1-3.1c1.7-4.7,1.6-9.5-0.2-14.3
		c-3.5-9.1-15.3-10.1-20.9-4.7c-0.6,0.6-1.2,1.1-2,1.9c0-5.2,0-10.3,0-15.4c-1.3,0-2.4,0-3.5,0c0,13.4,0,26.6,0,39.9
		c1.2,0,2.3,0,3.6,0C258.1,208.5,258.1,207.3,258.1,205.5z M285.8,189.7c3,0.5,2.9,0.5,3.9-1.9c0.6-1.3,1.6-2.8,2.8-3.4
		c3.2-1.8,6.7-1.7,10-0.3c1,0.4,2.1,1.5,2.4,2.5c1.2,3.7,0.6,6-3.3,6.5c-1.5,0.2-3.1,0.2-4.6,0.5c-2.7,0.5-5.5,1-8.1,1.9
		c-2.8,1-4.4,3.2-4.5,6.3c-0.1,3.4,0.9,6.5,4.2,7.7c2.4,0.9,5.2,1.1,7.8,1.1c3.5,0,6.3-1.8,8.9-4.5c0.1,1.5,0.2,2.7,0.2,3.9
		c1.3,0,2.4,0,3.6,0c0-6.3,0-12.4,0-18.5c0-0.9,0-1.8,0-2.7c-0.3-4.5-2.5-7.1-6.9-8c-2-0.4-4.1-0.4-6.1-0.4
		C290.6,180.5,286.1,183.6,285.8,189.7z M201.7,179.2c-3.4-0.4-6.2,0.2-8.3,3.5c-0.1-1.2-0.1-1.9-0.2-2.7c-2.6,0-5.2,0-7.8,0
		c0,10,0,19.9,0,29.9c2.7,0,5.2,0,7.9,0c0-0.8,0-1.5,0-2.2c0-5.1,0-10.2,0-15.2c0-3.9,2-5.9,5.9-5.9c0.8,0,1.6,0,2.5,0
		C201.7,184,201.7,181.7,201.7,179.2z M118.9,169.6c-3.2,0-6.4,0-9.6,0c-1.9,0-3.7,0.1-5.6,0.4c-6.7,1.2-11,6.6-10.4,12.8
		c3.3,0.7,14.2,0.3,17.2-0.6C115.8,180.6,119.5,175.2,118.9,169.6z M313.1,181.2c0,9.7,0,19.2,0,28.8c1.2,0,2.2,0,3.4,0
		c0-5.2,0-10.4,0-15.5c0-4.7,2.8-8.5,7.4-9.8c1.2-0.4,2.5-0.4,3.7-0.6c0-1.1,0-2.1,0-3.2c-5.3-0.3-8.9,2.2-11.5,6.6c0-2,0-4,0-6.1
		C315,181.2,314.1,181.2,313.1,181.2z"/>
	<path class="st0" d="M278.8,195.4c-0.2-1.5-0.3-2.9-0.6-4.4c-1-4.5-4.4-7.6-8.5-8c-4.4-0.4-8.5,1.8-10.2,5.7c-2,4.4-2,9,0,13.4
		c3.1,6.9,12.5,7.9,16.9,1.8C278.2,201.5,278.8,198.5,278.8,195.4z"/>
	<path class="st0" d="M305.6,194.6c-2.2,0.4-4.1,0.8-6,1.2c-2.8,0.6-5.7,0.9-8.3,2c-3.9,1.6-4.4,5.6-1.2,8.4c2,1.8,4.5,1.7,6.9,1.5
		c3.8-0.3,7.5-3.1,8.2-6.5C305.5,199.1,305.4,196.8,305.6,194.6z"/>
	<path d="M90.2,210c0-4.2,0-8.3,0-12.5c6.2,0,12.4,0,18.6,0C107.5,204.1,99.9,211.1,90.2,210z"/>
	<path d="M148.1,191.4c-0.6,0-0.9,0.1-1.3,0.1c-2.3,0-4.6,0-7.1,0c-0.1-2.5,0-4.8,2-6.6c1.3-1.1,3-1.2,4.3-0.2
		C148.2,186.4,147.8,189,148.1,191.4z"/>
	<path d="M174.1,195c-0.2,2.5-0.2,4.9-0.5,7.2c-0.2,1.7-1.6,2.3-3.2,2.6c-1.5,0.2-2.8-0.1-3.6-1.6c-0.8-1.4-1-3,0.1-4.3
		c0.7-0.9,1.8-1.7,2.8-2.2C171,196,172.4,195.6,174.1,195z"/>
	<path d="M278.8,195.4c0,3.1-0.6,6-2.4,8.6c-4.4,6.1-13.9,5.1-16.9-1.8c-2-4.4-1.9-9,0-13.4c1.7-3.9,5.8-6.1,10.2-5.7
		c4.1,0.4,7.4,3.5,8.5,8C278.5,192.5,278.6,194,278.8,195.4z"/>
	<path d="M305.6,194.6c-0.1,2.2,0,4.4-0.5,6.6c-0.7,3.4-4.4,6.2-8.2,6.5c-2.4,0.2-4.9,0.3-6.9-1.5c-3.1-2.9-2.7-6.9,1.2-8.4
		c2.6-1,5.5-1.4,8.3-2C301.4,195.4,303.3,195.1,305.6,194.6z"/>
</g>
</svg>
