<?xml version="1.0" encoding="utf-8"?>
<!-- Generator: Adobe Illustrator 18.1.1, SVG Export Plug-In . SVG Version: 6.00 Build 0)  -->
<svg version="1.1" id="Layer_1" xmlns="http://www.w3.org/2000/svg" xmlns:xlink="http://www.w3.org/1999/xlink" x="0px" y="0px"
	 viewBox="38.3 0.9 31.7 62.3" enable-background="new 38.3 0.9 31.7 62.3" xml:space="preserve">
<path fill="#FFFFFF" d="M59.3,21.8v-6.1c0-2.7,0.6-4.1,4.9-4.1h5.3V1.4h-8.9c-10.9,0-14.5,5-14.5,13.6v6.8H39V32h7.2v30.6h13.2V32h9
	l1.2-10.2H59.3z M66.1,29.5h-6.5h-2.7v2.5V60h-8.1V31.9v-2.5h-2.4h-4.8v-5.1h4.8h2.4v-2.6V15c0-3.9,0.9-6.6,2.5-8.2
	c1.8-1.9,5-2.8,9.5-2.8H67v5.1h-2.8c-1.9,0-4.4,0.2-5.9,1.9c-1.3,1.4-1.5,3.2-1.5,4.8v6v2.6h2.7h7.1L66.1,29.5z"/>
</svg>
