<?xml version="1.0" encoding="utf-8"?>
<!-- Generator: Adobe Illustrator 19.1.0, SVG Export Plug-In . SVG Version: 6.00 Build 0)  -->
<svg version="1.1" id="Layer_1" xmlns="http://www.w3.org/2000/svg" xmlns:xlink="http://www.w3.org/1999/xlink" x="0px" y="0px"
	 viewBox="-72 80 210 402" style="enable-background:new -72 80 210 402;" xml:space="preserve">
<style type="text/css">
	.st0{fill:none;stroke:#000000;stroke-width:13;stroke-miterlimit:10;}
</style>
<path d="M65,217v-38.1c0-17.2,3.8-25.9,30.5-25.9H129V89H73.1C4.6,89-18,120.4-18,174.3V217h-45v64h45v192h83V281h56.4l7.6-64H65z
	 M107.2,265H66.1H49v15.5V457H-2V280.5V265h-14.9H-47v-32h30.1H-2v-16.5v-42.2c0-24.5,5.4-41.2,15.5-51.8
	c11.2-12,31.1-17.5,59.6-17.5H113v32H95.5c-12,0-27.5,1.1-37.1,11.7c-8.1,9-9.4,20.1-9.4,30.1v37.6V233h17.1H111L107.2,265z"/>
<path class="st0" d="M65,217v-38.1c0-17.2,3.8-25.9,30.5-25.9H129V89H73.1C4.6,89-18,120.4-18,174.3V217h-45v64h45v192h83V281h56.4
	l7.6-64H65z"/>
</svg>
