<?xml version="1.0" encoding="utf-8"?>
<!-- Generator: Adobe Illustrator 18.1.1, SVG Export Plug-In . SVG Version: 6.00 Build 0)  -->
<svg version="1.1" id="Layer_1" xmlns="http://www.w3.org/2000/svg" xmlns:xlink="http://www.w3.org/1999/xlink" x="0px" y="0px"
	 viewBox="0 0 200 200" enable-background="new 0 0 200 200" xml:space="preserve">
<path fill="#5D0E8B" stroke="#5D0E8B" stroke-miterlimit="10" d="M3.9,99.6c0-13.4,0-26.8,0-40.2c0-9,1.6-17.8,5.9-25.9
	C18.5,17,31.9,7.1,50.3,4.3c3.1-0.6,6.2-0.6,9.7-0.6c26.8,0,53.6,0,80.4,0c12.8,0,24.6,3.4,34.6,11.5c11.5,9,18.4,20.6,20.6,34.9
	c0.6,3.1,0.6,6.2,0.6,9.7c0,26.8,0,53.6,0,80.4c0,12.8-3.4,24.6-11.5,34.6c-9,11.5-20.6,18.4-34.9,20.6c-3.1,0.6-6.2,0.6-9.7,0.6
	c-26.8,0-53.6,0-80.4,0c-12.8,0-24.6-3.4-34.6-11.5c-11.2-8.7-18.4-20.6-20.6-34.9c-0.6-3.1-0.6-6.5-0.6-10
	C3.9,126.4,3.9,113,3.9,99.6z M187.7,99.9c0-13.7,0-27.4,0-41.1c0-5.3-0.6-10.3-2.5-15.3C178.7,24.2,161.8,12,141.3,12
	c-27.4,0-54.8,0-82.2,0c-3.4,0-6.9,0.3-10,0.9C27.3,18,12.6,36,12.3,58.2c0,27.7,0,55.8,0,83.5c0,8.1,1.9,15.9,6.2,22.7
	c9.3,15.3,22.7,23.1,40.8,23.1c24,0,48,0,72.3,0c4.4,0,8.7,0,13.1,0c12.5-0.6,22.7-5.6,31.2-14.6c8.1-9,12.1-19.3,12.1-31.5
	C187.7,127.3,187.7,113.6,187.7,99.9z"/>
<path fill="#5D0E8B" stroke="#5D0E8B" stroke-miterlimit="10" d="M150.3,99.9c0,27.4-22.4,50.2-50.2,50.2S49.7,127.3,50,99.6
	s22.7-50.2,50.2-49.8C127.6,49.8,150.3,72.2,150.3,99.9z M141.9,99.6c0-23.1-18.7-41.7-41.7-41.7S58.4,76.5,58.4,99.6
	s18.7,41.7,41.7,41.7S141.9,123,141.9,99.6z"/>
<path fill="#5D0E8B" stroke="#5D0E8B" stroke-width="3" stroke-miterlimit="10" d="M154.4,53.8c-4.7,0-8.4-3.7-8.4-8.1
	c0-4.7,3.7-8.4,8.4-8.4s8.4,3.7,8.4,8.4C162.8,50.1,159,53.8,154.4,53.8z"/>
<path fill="none" stroke="#5D0E8B" stroke-miterlimit="10" d="M3.9,99.6c0-13.4,0-26.8,0-40.2c0-9,1.6-17.8,5.9-25.9
	C18.5,17,31.9,7.1,50.3,4.3c3.1-0.6,6.2-0.6,9.7-0.6c26.8,0,53.6,0,80.4,0c12.8,0,24.6,3.4,34.6,11.5c11.5,9,18.4,20.6,20.6,34.9
	c0.6,3.1,0.6,6.2,0.6,9.7c0,26.8,0,53.6,0,80.4c0,12.8-3.4,24.6-11.5,34.6c-9,11.5-20.6,18.4-34.9,20.6c-3.1,0.6-6.2,0.6-9.7,0.6
	c-26.8,0-53.6,0-80.4,0c-12.8,0-24.6-3.4-34.6-11.5c-11.2-8.7-18.4-20.6-20.6-34.9c-0.6-3.1-0.6-6.5-0.6-10
	C3.9,126.4,3.9,113,3.9,99.6z"/>
<path fill="none" stroke="#5D0E8B" stroke-miterlimit="10" d="M150.3,99.9c0,27.4-22.4,50.2-50.2,50.2S49.7,127.3,50,99.6
	s22.7-50.2,50.2-49.8C127.6,49.8,150.3,72.2,150.3,99.9z"/>
</svg>
