<?xml version="1.0" encoding="utf-8"?>
<!-- Generator: Adobe Illustrator 19.1.0, SVG Export Plug-In . SVG Version: 6.00 Build 0)  -->
<svg version="1.1" id="Layer_1" xmlns="http://www.w3.org/2000/svg" xmlns:xlink="http://www.w3.org/1999/xlink" x="0px" y="0px"
	 viewBox="0 0 44.6 44.5" style="enable-background:new 0 0 44.6 44.5;" xml:space="preserve">
<style type="text/css">
	.st0{fill:none;stroke:#FFFFFF;stroke-width:2;stroke-miterlimit:10;}
</style>
<circle class="st0" cx="22.3" cy="22.2" r="21.2"/>
<g>
	<path class="st0" d="M26.7,17.3c0,2-1.7,3.7-3.7,3.7s-3.7-1.7-3.7-3.7s3.7-8,3.7-8S26.7,15.3,26.7,17.3z"/>
	<line class="st0" x1="16.5" y1="23.1" x2="29" y2="11"/>
	<g>
		<g>
			<path class="st0" d="M13.3,26.5c1.8,0,1.8,1,3.6,1c1.8,0,1.8-1,3.6-1c1.8,0,1.8,1,3.6,1c1.8,0,1.8-1,3.6-1c1.8,0,1.8,1,3.6,1"/>
		</g>
		<g>
			<path class="st0" d="M13.3,29.8c1.8,0,1.8,1,3.6,1c1.8,0,1.8-1,3.6-1c1.8,0,1.8,1,3.6,1c1.8,0,1.8-1,3.6-1c1.8,0,1.8,1,3.6,1"/>
		</g>
		<g>
			<path class="st0" d="M13.3,33.1c1.8,0,1.8,1,3.6,1c1.8,0,1.8-1,3.6-1c1.8,0,1.8,1,3.6,1c1.8,0,1.8-1,3.6-1c1.8,0,1.8,1,3.6,1"/>
		</g>
	</g>
</g>
</svg>
