<?xml version="1.0" encoding="utf-8"?>
<!-- Generator: Adobe Illustrator 19.1.0, SVG Export Plug-In . SVG Version: 6.00 Build 0)  -->
<svg version="1.1" id="Layer_1" xmlns="http://www.w3.org/2000/svg" xmlns:xlink="http://www.w3.org/1999/xlink" x="0px" y="0px"
	 viewBox="0 0 53.8 47.7" style="enable-background:new 0 0 53.8 47.7;" xml:space="preserve">
<style type="text/css">
	.st0{fill:none;stroke:#FFFFFF;stroke-width:2;stroke-miterlimit:10;}
</style>
<path class="st0" d="M49.1,18.8C46.6,7.8,36.3,0.1,24.8,1.2S4.5,11.7,4.1,23"/>
<path class="st0" d="M4.7,29C7.2,40,17.5,47.7,29,46.6C40.5,45.5,49.3,36,49.7,24.8"/>
<polyline class="st0" points="7.8,20 4,23.2 0.8,19.5 "/>
<polyline class="st0" points="45.9,27.6 49.7,24.4 53,28.2 "/>
<path class="st0" d="M23.6,9.6c-7,1.6-12,8.2-11.3,15.6s6.8,13,14,13.2"/>
<path class="st0" d="M30.1,38.1c7-1.6,12-8.2,11.3-15.6c-0.7-7.4-6.8-13-14-13.2"/>
<polyline class="st0" points="24.4,36.1 26.5,38.5 24.1,40.6 "/>
<polyline class="st0" points="29.3,11.7 27.2,9.2 29.6,7.2 "/>
</svg>
