<?xml version="1.0" encoding="utf-8"?>
<!-- Generator: Adobe Illustrator 19.1.0, SVG Export Plug-In . SVG Version: 6.00 Build 0)  -->
<svg version="1.1" id="Layer_1" xmlns="http://www.w3.org/2000/svg" xmlns:xlink="http://www.w3.org/1999/xlink" x="0px" y="0px"
	 viewBox="-287.9 88.9 385 385" style="enable-background:new -287.9 88.9 385 385;" xml:space="preserve">
<style type="text/css">
	.st0{fill:#070707;}
</style>
<g>
	<path class="st0" d="M-37,307.9c-16.1,0-26.1-17.8-26.1-34.4c0-16.6,10-34.4,26.1-34.4s26.1,17.8,26.1,34.4
		C-10.9,290.1-21,307.9-37,307.9 M-37,242.1c-10.3,0-14.8,18.6-14.8,31.4c0,12.8,4.5,31.4,14.8,31.4s14.8-18.6,14.8-31.4
		C-22.2,260.6-26.8,242.1-37,242.1"/>
	<path class="st0" d="M31.9,288.1v-41.6c0-1.6-0.2-3.2-3.9-3.2c-0.4,0-1-0.2-1-1.3c0-1,0.7-1.3,1-1.3h11.9c0.4,0,1,0.2,1,1.3
		c0,1.1-0.7,1.3-1,1.3c-3.7,0-3.9,1.9-3.9,3.2v57.8c0,2.6-2.6,6.4-5.9,0.9s-30.6-51-30.6-51v45.6c0,2.6,2.2,3.4,5.9,3.4
		c0.4,0,1,0.2,1,1.3c0,1-0.7,1.3-1,1.3H-10c-0.4,0-1-0.2-1-1.3c0-1.1,0.6-1.3,1-1.3c3.7,0,5.9-1,5.9-3.4v-53.1
		c0-2.4-2.1-3.4-5.9-3.4c-0.4,0-1-0.2-1-1.3c0-1,0.6-1.3,1-1.3H2.2c1.1,0,1.8-0.1,2.8,1.3C5.9,243.4,31.9,288.1,31.9,288.1"/>
	<path class="st0" d="M-64.8,305.9c0.4,0,1-0.2,1-1.3c0-1.1-0.7-1.3-1-1.3c-3.7,0-5.9-1-5.9-3.4v-53.1c0-2.4,2.2-3.4,5.9-3.4
		c0.4,0,1-0.2,1-1.3c0-1-0.7-1.3-1-1.3h-21.8c-0.4,0-1,0.3-1,1.3c0,1.1,0.6,1.3,1,1.3c3.7,0,5.9,1,5.9,3.4V300
		c0,2.4-2.1,3.4-5.9,3.4c-0.4,0-1,0.2-1,1.3c0,1,0.6,1.3,1,1.3h21.8V305.9z"/>
	<path class="st0" d="M-112.5,294.8v-48c0-2.4,2.2-3.4,5.9-3.4c0.4,0,1-0.2,1-1.3c0-1-0.7-1.3-1-1.3h-21.8c-0.4,0-1,0.3-1,1.3
		c0,1.1,0.6,1.3,1,1.3c3.7,0,5.9,1,5.9,3.4V300c0,2.4-2.1,3.4-5.9,3.4c-0.4,0-1,0.2-1,1.3c0,1,0.6,1.3,1,1.3h37.3c0.4,0,1-0.2,1-1.3
		v-14.5c0-1.5-1.9-1.5-1.9,0s-1.9,13.3-13.6,13.3C-111.1,303.5-112.5,301.2-112.5,294.8"/>
	<path class="st0" d="M-134.8,305.9c0.4,0,1-0.2,1-1.3c0-1.1-0.6-1.3-1-1.3c-3.7,0-5.9-1-5.9-3.4v-53.1c0-2.4,2.1-3.4,5.9-3.4
		c0.4,0,1-0.2,1-1.3c0-1-0.6-1.3-1-1.3h-21.8c-0.4,0-1,0.3-1,1.3c0,1.1,0.7,1.3,1,1.3c3.7,0,5.9,1,5.9,3.4V300
		c0,2.4-2.1,3.4-5.9,3.4c-0.4,0-1,0.2-1,1.3c0,1,0.7,1.3,1,1.3h21.8V305.9z"/>
	<path class="st0" d="M-175,302.2l17.2-55.5c0.7-2.6,1.5-3.4,5.2-3.4c0.4,0,1-0.2,1-1.3c0-1-0.6-1.3-1-1.3h-15.8c-0.4,0-1,0.2-1,1.3
		c0,1.1,0.6,1.3,1,1.3c3.7,0,5.9,1,5.9,3.4l-12.1,40.9l-12.3-40.9c0-2.4,1.1-3.4,4.8-3.4c0.4,0,1-0.2,1-1.3c0-1-0.7-1.3-1-1.3h-21.8
		c-0.4,0-1,0.2-1,1.3c0,1.1,0.7,1.3,1,1.3c3.7,0,5.5,0.9,6.3,3.4l16.5,55.5C-179.8,306-178,311.1-175,302.2"/>
	<path class="st0" d="M83.4,260.1c0,1.8-0.6,2.6-2.1,2.6c-2.4,0-2.2-3.3-5.8-12.1c-2.3-5.6-4.7-8.3-10.6-8.3
		c-6.6,0-11.1,5.2-11.1,13.2c0,7.5,2.8,9.2,15.6,18.5c9.8,7.2,18.1,13.6,18.1,25.3c0,12.3-9.2,24.5-27.3,24.5
		c-6.4,0-17.4-2.6-17.4-7.3c0-19.2,0.8-20.1,2.9-20.1c2.8,0,1.4,2.8,5,12c3.1,7.8,7.4,11.8,14.1,11.8c7.7,0,13.3-5.8,13.3-14.2
		c0-22.6-34.2-19.8-34.2-45.9c0-10.1,8.6-20.4,22.2-20.4c9.2,0,15.7,1.8,16.6,3.1c0.6,0.9,0.6,2.1,0.6,3.7L83.4,260.1L83.4,260.1z"
		/>
	<path class="st0" d="M-188.9,303.4c-3.7,0-5.4-0.9-6.3-3.4l-16.5-55.5c-1.3-3.7-3.2-8.9-6.1,0L-235,300c-0.7,2.6-1.5,3.4-5.2,3.4
		c-0.4,0-1,0.2-1,1.3c0,1,0.7,1.3,1,1.3h15.8c0.4,0,1-0.2,1-1.3s-0.6-1.3-1-1.3c-3.7,0-5.9-1-5.9-3.4l4.9-16.5h14.6l5,16.5
		c0,2.4-1.1,3.4-4.8,3.4c-0.4,0-1,0.2-1,1.3c0,1,0.7,1.3,1,1.3h21.8c0.4,0,1-0.2,1-1.3C-187.8,303.5-188.5,303.4-188.9,303.4
		 M-224.4,280.2l6.2-21.1l6.4,21.1H-224.4z"/>
	<path class="st0" d="M-232.2,262.2c0,12.6-7.8,23-20.6,23c-5.2,0-9.5-0.6-11.9-1.6v32.5c0,2.4,4.8,3.4,8.5,3.4c0.4,0,1,0.2,1,1.3
		c0,1-0.7,1.3-1,1.3h-27.7c-0.4,0-1-0.2-1-1.3s0.7-1.3,1-1.3c3.7,0,7-1,7-3.4v-70.7c0-2.4-3.3-3.4-7-3.4c-0.4,0-1-0.2-1-1.3
		c0-1,0.7-1.3,1-1.3h27.8C-244.5,239.6-232.2,249.1-232.2,262.2 M-264.4,277.9c0,3.1,1.6,3.8,5.4,3.8c7.9,0,14.1-8.3,14.1-20.4
		c0-12.4-6.1-19.1-12-19.1c-5.8,0-7.5,1.9-7.5,5.3C-264.4,247.4-264.4,277.9-264.4,277.9z"/>
	<path class="st0" d="M-37.8,308C-54,308-64,290-64,273.4c0-16.7,10.1-34.6,26.3-34.6c16.2,0,26.3,17.9,26.3,34.6
		C-11.4,290.1-21.5,308-37.8,308 M-37.8,241.9c-10.4,0-14.9,18.7-14.9,31.6c0,12.9,4.5,31.6,14.9,31.6s14.9-18.7,14.9-31.6
		C-22.8,260.5-27.3,241.9-37.8,241.9"/>
	<path class="st0" d="M31.7,288.1v-41.8c0-1.7-0.2-3.2-3.9-3.2c-0.4,0-1-0.2-1-1.3c0-1,0.7-1.3,1-1.3h12c0.4,0,1,0.2,1,1.3
		c0,1.1-0.6,1.3-1,1.3c-3.7,0-3.9,1.9-3.9,3.2v58.2c0,2.7-2.7,6.5-5.9,0.9c-3.5-5.5-31-51.3-31-51.3V300c0,2.7,2.2,3.4,5.9,3.4
		c0.4,0,1,0.2,1,1.3c0,1-0.7,1.3-1,1.3h-15.4c-0.4,0-1-0.3-1-1.3c0-1.1,0.7-1.3,1-1.3c3.7,0,5.9-1,5.9-3.4v-53.5
		c0-2.4-2.2-3.4-5.9-3.4c-0.4,0-1-0.2-1-1.3c0-1,0.7-1.3,1-1.3H1.8c1.1,0,1.8-0.1,2.8,1.3C5.5,243.2,31.7,288.1,31.7,288.1"/>
	<path class="st0" d="M-65.6,306c0.4,0,1-0.2,1-1.3s-0.6-1.3-1-1.3c-3.7,0-5.9-1-5.9-3.4v-53.6c0-2.4,2.2-3.4,5.9-3.4
		c0.4,0,1-0.2,1-1.3c0-1-0.6-1.3-1-1.3h-21.9c-0.4,0-1,0.3-1,1.3c0,1.1,0.7,1.3,1,1.3c3.7,0,5.9,1,5.9,3.4V300
		c0,2.4-2.2,3.4-5.9,3.4c-0.4,0-1,0.2-1,1.3c0,1,0.7,1.3,1,1.3H-65.6z"/>
	<path class="st0" d="M-113.6,294.8v-48.2c0-2.4,2.2-3.4,5.9-3.4c0.4,0,1-0.2,1-1.3c0-1-0.7-1.3-1-1.3h-21.9c-0.4,0-1,0.2-1,1.3
		c0,1.1,0.6,1.3,1,1.3c3.7,0,5.9,1,5.9,3.4V300c0,2.4-2.2,3.4-5.9,3.4c-0.4,0-1,0.2-1,1.3c0,1,0.6,1.3,1,1.3h37.5c0.4,0,1-0.2,1-1.3
		v-14.5c0-1.5-1.9-1.5-1.9,0s-1.9,13.4-13.7,13.4C-112.2,303.6-113.6,301.4-113.6,294.8"/>
	<path class="st0" d="M-136,306c0.4,0,1-0.2,1-1.3s-0.7-1.3-1-1.3c-3.7,0-5.9-1-5.9-3.4v-53.6c0-2.4,2.2-3.4,5.9-3.4
		c0.4,0,1-0.2,1-1.3c0-1-0.7-1.3-1-1.3h-21.9c-0.4,0-1,0.3-1,1.3c0,1.1,0.6,1.3,1,1.3c3.7,0,5.9,1,5.9,3.4V300
		c0,2.4-2.2,3.4-5.9,3.4c-0.4,0-1,0.2-1,1.3c0,1,0.6,1.3,1,1.3H-136z"/>
	<path class="st0" d="M-176.5,302.4l17.3-55.9c0.7-2.6,1.5-3.4,5.2-3.4c0.4,0,1-0.2,1-1.3c0-1-0.6-1.3-1-1.3h-15.8
		c-0.4,0-1,0.3-1,1.3c0,1.1,0.7,1.3,1,1.3c3.7,0,5.9,1,5.9,3.4l-12.1,41.2l-12.5-41.2c0-2.4,1.1-3.4,4.8-3.4c0.4,0,1-0.2,1-1.3
		c0-1-0.7-1.3-1-1.3h-21.9c-0.4,0-1,0.3-1,1.3c0,1.1,0.7,1.3,1,1.3c3.7,0,5.5,0.9,6.3,3.4l16.6,55.9
		C-181.3,306-179.4,311.4-176.5,302.4"/>
	<path class="st0" d="M83.5,260c0,1.8-0.6,2.6-2.1,2.6c-2.4,0-2.2-3.3-5.8-12.2c-2.3-5.7-4.7-8.4-10.6-8.4
		c-6.7,0-11.2,5.3-11.2,13.2c0,7.6,2.8,9.2,15.7,18.6c9.9,7.2,18.3,13.6,18.3,25.5c0,12.3-9.2,24.7-27.5,24.7
		c-6.4,0-17.5-2.6-17.5-7.3c0-19.3,0.8-20.2,2.9-20.2c2.8,0,1.4,2.8,5,12.1c3.1,7.9,7.5,11.8,14.1,11.8c7.7,0,13.4-5.8,13.4-14.3
		c0-22.7-34.5-19.9-34.5-46.1c0-10.1,8.6-20.6,22.4-20.6c9.2,0,15.8,1.8,16.7,3.1c0.6,0.9,0.6,2.1,0.6,3.7L83.5,260L83.5,260z"/>
	<path class="st0" d="M-190.4,303.5c-3.7,0-5.5-0.9-6.3-3.4l-16.6-55.8c-1.4-3.7-3.2-9-6.1,0l-17.3,55.9c-0.7,2.6-1.5,3.4-5.2,3.4
		c-0.4,0-1,0.2-1,1.3c0,1,0.6,1.3,1,1.3h15.8c0.4,0,1-0.2,1-1.3s-0.7-1.3-1-1.3c-3.7,0-5.9-1-5.9-3.4l4.9-16.6h14.7l5,16.6
		c0,2.4-1.1,3.4-4.8,3.4c-0.4,0-1,0.2-1,1.3c0,1,0.7,1.3,1,1.3h21.9c0.4,0,1-0.2,1-1.3C-189.4,303.8-190,303.5-190.4,303.5
		 M-226.2,280.1l6.3-21.2l6.4,21.2H-226.2z"/>
	<path class="st0" d="M-234,262c0,12.7-7.8,23.1-20.7,23.1c-5.2,0-9.5-0.6-12-1.6v32.7c0,2.4,4.9,3.4,8.6,3.4c0.4,0,1,0.2,1,1.3
		c0,1-0.7,1.3-1,1.3H-286c-0.4,0-1-0.3-1-1.3c0-1.1,0.7-1.3,1-1.3c3.7,0,7-1,7-3.4v-71c0-2.4-3.3-3.4-7-3.4c-0.4,0-1-0.2-1-1.3
		c0-1,0.7-1.3,1-1.3h28C-246.4,239.2-234,248.9-234,262 M-266.4,277.9c0,3.1,1.6,3.8,5.4,3.8c8,0,14.2-8.4,14.2-20.5
		c0-12.5-6.1-19.2-12.1-19.2c-5.8,0-7.6,1.9-7.6,5.3L-266.4,277.9L-266.4,277.9z"/>
	<path class="st0" d="M87.8,319.8c0-2.4,1.9-4.3,4.3-4.3s4.3,1.9,4.3,4.3S94.4,324,92,324C89.7,324,87.8,322.1,87.8,319.8
		 M95.8,319.8c0-2.1-1.7-3.7-3.8-3.7c-2.1,0-3.8,1.7-3.8,3.7c0,2.1,1.7,3.8,3.8,3.8C94.1,323.5,95.8,321.9,95.8,319.8 M94.2,322.1
		h-0.7l-1.4-2.2H91v2.2h-0.6v-4.8h2.1c0.4,0,0.8,0,1.2,0.2c0.3,0.2,0.5,0.6,0.5,1c0,0.9-0.7,1.3-1.5,1.3L94.2,322.1z M92,319.5
		c0.7,0,1.7,0.1,1.7-0.9c0-0.7-0.6-0.8-1.2-0.8h-1.4v1.7L92,319.5L92,319.5z"/>
</g>
</svg>
