<?xml version="1.0" encoding="utf-8"?>
<!-- Generator: Adobe Illustrator 19.1.0, SVG Export Plug-In . SVG Version: 6.00 Build 0)  -->
<svg version="1.1" id="Layer_1" xmlns="http://www.w3.org/2000/svg" xmlns:xlink="http://www.w3.org/1999/xlink" x="0px" y="0px"
	 viewBox="0 0 37 32.3" style="enable-background:new 0 0 37 32.3;" xml:space="preserve">
<style type="text/css">
	.st0{fill:#FFFFFF;}
	.st1{fill-rule:evenodd;clip-rule:evenodd;fill:none;stroke:#FFFFFF;stroke-width:2;stroke-miterlimit:10;}
</style>
<g>
	<path class="st0" d="M32.1,9.2c1.5,0,2.2,0.3,2.4,0.6c0.2,0.3,0.3,1.2-0.3,2.6l0,0l0,0c-0.2,0.7-2,5.2-3.5,8.7H16.4l-5.2-12H32.1
		 M32.1,7.2c-7.1,0-24,0-24,0l7,16h17c0,0,3.6-8.9,4-10C37.6,9.1,36,7.2,32.1,7.2L32.1,7.2z"/>
</g>
<path class="st1" d="M28.1,25.2c1.7,0,3,1.3,3,3s-1.3,3-3,3c-1.7,0-3-1.3-3-3S26.4,25.2,28.1,25.2z"/>
<path class="st1" d="M18.1,25.2c1.7,0,3,1.3,3,3s-1.3,3-3,3c-1.7,0-3-1.3-3-3S16.4,25.2,18.1,25.2z"/>
<path class="st1" d="M15.8,22.1L6.5,1.3H0.3"/>
</svg>
