<?xml version="1.0" encoding="utf-8"?>
<!-- Generator: Adobe Illustrator 19.1.0, SVG Export Plug-In . SVG Version: 6.00 Build 0)  -->
<svg version="1.1" id="Layer_1" xmlns="http://www.w3.org/2000/svg" xmlns:xlink="http://www.w3.org/1999/xlink" x="0px" y="0px"
	 viewBox="0 0 344.3 127.7" style="enable-background:new 0 0 344.3 127.7;" xml:space="preserve">
<style type="text/css">
	.st0{fill:#FFFFFF;}
</style>
<g>
	<g>
		<g>
			<g>
				<g>
					<path class="st0" d="M2.2,126.3L2.3,24.1l13.9,0l0,11.4c2-3.7,5.1-6.7,9.3-9.3c4.2-2.5,9.2-3.8,15.2-3.8c5.5,0,10.3,1,14.5,3
						c4.2,2,7.7,4.7,10.5,8.2c2.8,3.5,4.9,7.5,6.4,12.2c1.5,4.7,2.2,9.6,2.2,14.9c0,5.5-0.8,10.6-2.3,15.2
						c-1.5,4.7-3.8,8.7-6.7,12.2c-2.9,3.5-6.5,6.2-10.7,8.2c-4.2,2-9,3-14.4,3c-5.7,0-10.6-1.2-14.6-3.5c-4.1-2.3-7.1-5.1-9.1-8.4
						l0,38.8L2.2,126.3z M59.6,60.7c0-3.7-0.5-7-1.5-10.1c-1-3.1-2.4-5.8-4.3-8.1c-1.8-2.3-4.1-4.1-6.8-5.4c-2.7-1.3-5.7-2-9.1-2
						c-3.2,0-6.2,0.7-8.9,2c-2.7,1.3-5,3.1-6.9,5.4c-1.9,2.3-3.4,5-4.4,8.1c-1,3.1-1.5,6.5-1.5,10.1c0,3.8,0.5,7.2,1.5,10.4
						c1,3.2,2.5,5.9,4.4,8.2c1.9,2.3,4.2,4.1,6.9,5.3c2.7,1.3,5.7,1.9,8.9,1.9c3.3,0,6.3-0.6,9-1.9c2.6-1.3,4.9-3,6.8-5.3
						c1.9-2.3,3.3-5,4.3-8.2C59.1,67.9,59.6,64.5,59.6,60.7z"/>
					<path class="st0" d="M150.2,76.6c-1,3.2-2.5,6.3-4.5,9.1c-2,2.8-4.4,5.2-7.2,7.3c-2.8,2.1-6,3.7-9.5,4.9
						c-3.6,1.2-7.5,1.8-11.7,1.8c-4.9,0-9.5-0.9-14-2.6c-4.5-1.7-8.4-4.3-11.8-7.6c-3.4-3.4-6.1-7.5-8.1-12.3c-2-4.9-3-10.4-3-16.6
						c0-5.8,1-11,2.9-15.8c1.9-4.7,4.5-8.8,7.7-12.2c3.2-3.4,6.9-6,11.2-7.9c4.3-1.9,8.7-2.8,13.2-2.8c5.6,0,10.6,0.9,15,2.8
						c4.4,1.9,8.1,4.5,11,7.8c2.9,3.4,5.2,7.4,6.8,12.1c1.6,4.7,2.4,9.9,2.3,15.6c0,0.9,0,1.8-0.1,2.6c-0.1,0.8-0.1,1.5-0.2,2
						l-55.1,0c0.1,3.2,0.7,6.2,1.8,9c1.1,2.7,2.7,5.1,4.6,7.1c2,2,4.3,3.5,7,4.6c2.7,1.1,5.6,1.6,8.6,1.6c6,0,10.6-1.4,13.7-4.3
						c3.1-2.8,5.4-6.3,6.9-10.5L150.2,76.6z M135.7,53.3c-0.2-5.3-2-9.7-5.3-13.3c-3.3-3.6-8.3-5.4-14.8-5.4c-3,0-5.8,0.5-8.1,1.6
						s-4.4,2.5-6.1,4.3c-1.7,1.8-3,3.8-4,6c-1,2.2-1.6,4.5-1.7,6.8L135.7,53.3z"/>
					<path class="st0" d="M172.5,97.5l-14.3,0l0.1-73.2l14,0l0,10.5c2.6-4.6,6-7.8,10.1-9.7c4.1-1.9,8.2-2.9,12.5-2.9
						c4.4,0,8.2,0.7,11.5,2.2c3.3,1.5,6,3.5,8.2,6.1c2.2,2.6,3.8,5.7,4.9,9.2c1.1,3.6,1.6,7.4,1.6,11.4l0,46.4l-14.3,0l0-44
						c0-2.5-0.3-4.9-0.8-7.2s-1.5-4.2-2.9-5.9c-1.4-1.7-3.1-3-5.3-4c-2.2-1-4.8-1.5-8-1.5c-2.8,0-5.3,0.5-7.5,1.6
						c-2.1,1.1-3.9,2.5-5.3,4.3c-1.4,1.8-2.5,4-3.2,6.4c-0.7,2.4-1.1,5-1.1,7.8L172.5,97.5z"/>
					<path class="st0" d="M252.3,24.3l15.8,0l0,12.9l-15.8,0l0,38.1c0,3.3,0.8,5.9,2.3,7.5c1.5,1.7,4.2,2.5,7.9,2.5
						c0.9,0,1.9-0.1,3-0.2c1.1-0.1,2-0.3,2.6-0.5l0,12.2c-0.6,0.2-1.8,0.5-3.5,0.8c-1.7,0.4-3.8,0.5-6.2,0.5
						c-6.3,0-11.3-1.8-14.9-5.4c-3.6-3.6-5.5-8.8-5.5-15.5l0-40.2l-14,0l0-12.9l4,0c4,0,6.8-1.1,8.6-3.2c1.8-2.1,2.7-4.8,2.7-8.1
						l0-11.9l13.1,0L252.3,24.3z"/>
					<path class="st0" d="M275,77.9c0-3.2,0.6-6.2,1.7-8.8c1.1-2.6,2.7-4.8,4.6-6.6s4.3-3.3,7.1-4.4c2.7-1.1,5.7-1.9,8.8-2.4
						l19.8-2.9c2.2-0.3,3.7-1,4.5-2c0.8-1,1.1-2.2,1.1-3.5c0-3.6-1.2-6.6-3.7-9.2c-2.5-2.6-6.5-3.9-12.1-3.9c-5.1,0-9,1.4-11.7,4.2
						c-2.7,2.8-4.4,6.3-4.9,10.6l-13.7-3.2c0.4-3.4,1.5-6.6,3.1-9.6c1.7-2.9,3.8-5.5,6.5-7.5c2.6-2.1,5.7-3.7,9.2-4.9
						c3.5-1.2,7.2-1.7,11.2-1.7c5.5,0,10.1,0.7,14,2.2c3.9,1.5,7,3.4,9.4,5.9c2.4,2.4,4.2,5.3,5.3,8.5c1.1,3.2,1.7,6.6,1.7,10.2
						l0,36.7c0,3.2,0.1,5.8,0.3,7.8c0.2,1.9,0.4,3.3,0.6,4.3l-14,0c-0.2-0.9-0.4-2.1-0.5-3.7c-0.2-1.5-0.2-3.6-0.2-6.2
						c-0.8,1.3-1.9,2.7-3.2,4.1c-1.3,1.4-2.9,2.7-4.9,4c-1.9,1.2-4.2,2.2-6.8,3c-2.6,0.8-5.5,1.1-8.8,1.1c-3.8,0-7.1-0.6-10.1-1.8
						c-3-1.2-5.6-2.8-7.7-4.8c-2.1-2-3.8-4.3-4.9-6.9C275.6,83.6,275,80.9,275,77.9z M301.5,87.8c2.9,0,5.7-0.4,8.3-1.1
						c2.6-0.8,4.8-2,6.7-3.6c1.9-1.7,3.4-3.9,4.5-6.7c1.1-2.8,1.7-6.2,1.7-10.1l0-3.3l-22.4,3.3c-3,0.5-5.6,1.6-7.6,3.4
						c-2,1.8-3,4.3-3,7.5c0,2.7,1.1,5.2,3.2,7.4C294.9,86.7,297.8,87.8,301.5,87.8z"/>
				</g>
			</g>
			<g>
				<path class="st0" d="M337.7,29c-0.7,0-1.3-0.1-1.8-0.4c-0.6-0.3-1.1-0.6-1.5-1.1c-0.4-0.5-0.8-1-1-1.6c-0.2-0.6-0.4-1.3-0.4-1.9
					c0-0.7,0.1-1.3,0.4-1.9c0.2-0.6,0.6-1.1,1-1.6c0.4-0.4,0.9-0.8,1.5-1.1c0.6-0.3,1.2-0.4,1.8-0.4c0.6,0,1.3,0.1,1.8,0.4
					c0.6,0.3,1.1,0.6,1.5,1.1c0.4,0.4,0.8,1,1,1.6c0.2,0.6,0.4,1.3,0.4,1.9c0,0.7-0.1,1.3-0.4,1.9c-0.2,0.6-0.6,1.1-1,1.6
					c-0.4,0.5-0.9,0.8-1.5,1.1C338.9,28.8,338.3,29,337.7,29z M337.7,28.3c0.6,0,1.1-0.1,1.6-0.3c0.5-0.2,0.9-0.5,1.3-0.9
					c0.3-0.4,0.6-0.8,0.8-1.4c0.2-0.5,0.3-1.1,0.3-1.7c0-0.6-0.1-1.2-0.3-1.7c-0.2-0.5-0.5-1-0.8-1.4c-0.3-0.4-0.8-0.7-1.3-0.9
					c-0.5-0.2-1-0.3-1.6-0.3s-1.1,0.1-1.6,0.3c-0.5,0.2-0.9,0.5-1.3,0.9c-0.4,0.4-0.6,0.8-0.8,1.4c-0.2,0.5-0.3,1.1-0.3,1.7
					c0,0.6,0.1,1.2,0.3,1.7c0.2,0.5,0.5,1,0.8,1.4c0.4,0.4,0.8,0.7,1.3,0.9C336.5,28.2,337.1,28.3,337.7,28.3z M340,26.8l-0.8,0
					l-1.5-2.6l-1.2,0l0,2.6l-0.6,0l0-5.6l2.3,0c0.7,0,1.2,0.1,1.5,0.4c0.3,0.3,0.4,0.6,0.4,1.1c0,0.3,0,0.5-0.1,0.7
					c-0.1,0.2-0.2,0.3-0.3,0.5c-0.1,0.1-0.3,0.2-0.5,0.3c-0.2,0.1-0.4,0.1-0.7,0.1L340,26.8z M337.5,23.6c0.2,0,0.4,0,0.6,0
					c0.2,0,0.4,0,0.6-0.1s0.3-0.1,0.5-0.3c0.1-0.1,0.2-0.4,0.2-0.6c0-0.2,0-0.4-0.1-0.5c-0.1-0.1-0.2-0.2-0.3-0.3
					c-0.1-0.1-0.3-0.1-0.4-0.1c-0.2,0-0.3,0-0.5,0l-1.5,0l0,2L337.5,23.6z"/>
			</g>
		</g>
	</g>
	<g>
		<path class="st0" d="M34.2,125.8c-0.9,0-1.7-0.1-2.4-0.4s-1.4-0.7-2-1.2c-0.6-0.5-1-1.2-1.3-2c-0.3-0.8-0.5-1.7-0.5-2.7l0-11.3
			l2.4,0l0,11.3c0,1.3,0.3,2.3,1,3c0.7,0.7,1.6,1.1,2.8,1.1c1.2,0,2.2-0.4,2.8-1.1c0.7-0.7,1-1.7,1-3l0-11.3l2.4,0l0,11.3
			c0,1-0.2,1.9-0.5,2.7c-0.3,0.8-0.8,1.4-1.3,2c-0.6,0.5-1.2,0.9-2,1.2S35.1,125.8,34.2,125.8z"/>
		<path class="st0" d="M46.5,125.4l0-17.2l2.4,0l0,15l8.1,0l0,2.2L46.5,125.4z"/>
		<path class="st0" d="M66.3,110.4l0,15l-2.4,0l0-15l-5.8,0l0-2.2l13.9,0l0,2.2L66.3,110.4z"/>
		<path class="st0" d="M81.4,118.4l-2.6,0l0,7l-2.4,0l0-17.2l6.5,0c0.8,0,1.5,0.1,2.2,0.4c0.7,0.3,1.2,0.6,1.7,1.1
			c0.5,0.5,0.8,1,1,1.6c0.2,0.6,0.4,1.3,0.4,2c0,1.2-0.4,2.3-1.1,3.2c-0.7,0.9-1.8,1.4-3.1,1.7l4.1,7.2l-2.8,0L81.4,118.4z
			 M82.4,116.3c1,0,1.8-0.3,2.4-0.8c0.6-0.5,0.9-1.2,0.9-2.1c0-0.9-0.3-1.7-0.9-2.2c-0.6-0.5-1.4-0.8-2.4-0.8l-3.6,0l0,5.9
			L82.4,116.3z"/>
		<path class="st0" d="M103.3,120.7l-7.6,0l-1.8,4.8l-2.5,0l6.9-17.2l2.7,0l6.8,17.2l-2.6,0L103.3,120.7z M96.5,118.5l5.9,0l-3-7.7
			L96.5,118.5z"/>
		<path class="st0" d="M110.5,119.5l0-2l6.6,0l0,2L110.5,119.5z"/>
		<path class="st0" d="M124.7,118.4l0,7l-2.4,0l0-17.2l6.3,0c0.8,0,1.5,0.1,2.2,0.4c0.7,0.3,1.2,0.6,1.7,1.1c0.5,0.5,0.8,1,1.1,1.6
			s0.4,1.3,0.4,2c0,0.7-0.1,1.4-0.4,2c-0.3,0.6-0.6,1.2-1.1,1.6c-0.5,0.4-1,0.8-1.7,1.1c-0.7,0.3-1.4,0.4-2.2,0.4L124.7,118.4z
			 M128.2,116.3c1,0,1.8-0.3,2.4-0.8c0.6-0.5,0.9-1.2,0.9-2.1c0-0.9-0.3-1.7-0.9-2.2c-0.6-0.5-1.4-0.8-2.4-0.8l-3.4,0l0,5.9
			L128.2,116.3z"/>
		<path class="st0" d="M144.6,125.9c-0.9,0-1.7-0.1-2.4-0.4c-0.8-0.3-1.4-0.7-2-1.2c-0.6-0.5-1-1.2-1.3-2c-0.3-0.8-0.5-1.7-0.5-2.7
			l0-11.3l2.4,0l0,11.3c0,1.3,0.3,2.3,1,3c0.7,0.7,1.6,1.1,2.8,1.1c1.2,0,2.2-0.4,2.8-1.1s1-1.7,1-3l0-11.3l2.4,0l0,11.3
			c0,1-0.2,1.9-0.5,2.7c-0.3,0.8-0.8,1.4-1.3,2c-0.6,0.5-1.2,0.9-2,1.2C146.3,125.7,145.5,125.9,144.6,125.9z"/>
		<path class="st0" d="M161.8,118.5l-2.6,0l0,7l-2.4,0l0-17.2l6.5,0c0.8,0,1.5,0.1,2.2,0.4s1.2,0.6,1.7,1.1c0.5,0.5,0.8,1,1,1.6
			c0.2,0.6,0.4,1.3,0.4,2c0,1.2-0.4,2.3-1.1,3.2c-0.7,0.9-1.8,1.4-3.1,1.7l4.1,7.2l-2.8,0L161.8,118.5z M162.9,116.3
			c1,0,1.8-0.3,2.4-0.8s0.9-1.2,0.9-2.1c0-0.9-0.3-1.7-0.9-2.2c-0.6-0.5-1.4-0.8-2.4-0.8l-3.6,0l0,5.9L162.9,116.3z"/>
		<path class="st0" d="M173.8,125.5l0-17.2l2.4,0l0,17.2L173.8,125.5z"/>
		<path class="st0" d="M182.6,125.5l0-17.2l10.5,0l0,2.2l-8.1,0l0,5.5l7.3,0l0,2.2l-7.3,0l0,7.2L182.6,125.5z"/>
		<path class="st0" d="M197.9,125.5l0-17.2l2.4,0l0,17.2L197.9,125.5z"/>
		<path class="st0" d="M206.7,125.6l0-17.2l10.5,0l0,2.2l-8.1,0l0,5.3l7.3,0l0,2.2l-7.3,0l0,5.3l8.1,0l0,2.2L206.7,125.6z"/>
		<path class="st0" d="M222.7,125.6l0-17.2l6,0c1.1,0,2.1,0.2,3.1,0.6c1,0.4,1.9,0.9,2.6,1.7s1.3,1.6,1.8,2.7
			c0.4,1.1,0.7,2.3,0.7,3.7c0,1.4-0.2,2.6-0.7,3.7s-1,2-1.8,2.7c-0.8,0.7-1.6,1.3-2.6,1.6s-2,0.5-3.1,0.5L222.7,125.6z M228.6,123.5
			c0.8,0,1.5-0.1,2.3-0.4s1.3-0.7,1.9-1.2c0.5-0.5,1-1.2,1.3-2c0.3-0.8,0.5-1.8,0.5-2.8c0-1.1-0.2-2-0.5-2.9c-0.3-0.8-0.7-1.5-1.2-2
			c-0.5-0.5-1.1-1-1.8-1.2c-0.7-0.3-1.5-0.4-2.2-0.4l-3.6,0l0,13L228.6,123.5z"/>
		<path class="st0" d="M269.5,108.4l2.5,0l-4.9,17.2l-2.5,0l-4.5-14l-4.5,14l-2.4,0l-5-17.2l2.5,0l3.8,13.5l4.3-13.5l2.5,0l4.4,13.6
			L269.5,108.4z"/>
		<path class="st0" d="M285.4,120.8l-7.6,0l-1.8,4.8l-2.5,0l6.9-17.2l2.7,0l6.8,17.2l-2.6,0L285.4,120.8z M278.7,118.6l5.9,0l-3-7.7
			L278.7,118.6z"/>
		<path class="st0" d="M298.9,110.6l0,15l-2.4,0l0-15l-5.8,0l0-2.2l13.9,0l0,2.2L298.9,110.6z"/>
		<path class="st0" d="M309,125.6l0-17.2l10.5,0l0,2.2l-8.1,0l0,5.3l7.3,0l0,2.2l-7.3,0l0,5.3l8.1,0l0,2.2L309,125.6z"/>
		<path class="st0" d="M330,118.6l-2.6,0l0,7l-2.4,0l0-17.2l6.5,0c0.8,0,1.5,0.1,2.2,0.4c0.7,0.3,1.2,0.6,1.7,1.1
			c0.5,0.5,0.8,1,1,1.6c0.2,0.6,0.4,1.3,0.4,2c0,1.2-0.4,2.3-1.1,3.2c-0.7,0.9-1.8,1.4-3.1,1.7l4.1,7.2l-2.8,0L330,118.6z
			 M331.1,116.5c1,0,1.8-0.3,2.4-0.8s0.9-1.2,0.9-2.1c0-0.9-0.3-1.7-0.9-2.2c-0.6-0.5-1.4-0.8-2.4-0.8l-3.6,0l0,5.9L331.1,116.5z"/>
	</g>
</g>
</svg>
