<?xml version="1.0" encoding="utf-8"?>
<!-- Generator: Adobe Illustrator 19.1.0, SVG Export Plug-In . SVG Version: 6.00 Build 0)  -->
<svg version="1.1" id="Layer_1" xmlns="http://www.w3.org/2000/svg" xmlns:xlink="http://www.w3.org/1999/xlink" x="0px" y="0px"
	 viewBox="0 0 54.1 48.2" style="enable-background:new 0 0 54.1 48.2;" xml:space="preserve">
<style type="text/css">
	.st0{fill:none;stroke:#682C8E;stroke-width:2;stroke-miterlimit:10;}
</style>
<path class="st0" d="M49.3,19C46.8,8.1,36.5,0.4,24.9,1.4S4.7,12,4.3,23.2"/>
<path class="st0" d="M4.8,29.2c2.5,11,12.8,18.7,24.3,17.6c11.5-1.1,20.2-10.5,20.7-21.8"/>
<polyline class="st0" points="8,20.3 4.2,23.5 0.9,19.7 "/>
<polyline class="st0" points="46.1,27.9 49.9,24.7 53.1,28.4 "/>
<path class="st0" d="M23.8,9.9c-7,1.6-12,8.2-11.3,15.6s6.8,13,14,13.2"/>
<path class="st0" d="M30.3,38.4c7-1.6,12-8.2,11.3-15.6c-0.7-7.4-6.8-13-14-13.2"/>
<polyline class="st0" points="24.5,36.4 26.6,38.8 24.2,40.9 "/>
<polyline class="st0" points="29.4,11.9 27.4,9.5 29.8,7.4 "/>
</svg>
