<?xml version="1.0" encoding="utf-8"?>
<!-- Generator: Adobe Illustrator 19.1.0, SVG Export Plug-In . SVG Version: 6.00 Build 0)  -->
<svg version="1.1" id="Layer_1" xmlns="http://www.w3.org/2000/svg" xmlns:xlink="http://www.w3.org/1999/xlink" x="0px" y="0px"
	 viewBox="0 0 47 46.9" style="enable-background:new 0 0 47 46.9;" xml:space="preserve">
<style type="text/css">
	.st0{fill:#682C8E;}
	.st1{fill:none;stroke:#682C8E;stroke-width:2;stroke-miterlimit:10;}
	.st2{font-family:'AvenirNextCondensed-DemiBold';}
	.st3{font-size:10.5496px;}
</style>
<g>
	<g>
		<g>
			<path class="st0" d="M31.6,10.4c3.8,11.4-5.6,13.8-6.3,13.9l3.1-7.8l-4.6,7C20.4,13.2,31.6,10.4,31.6,10.4 M32.9,8.1l-1.8,0.4
				c-0.2,0.1-6.1,1.5-8.7,6.3c-1.5,2.7-1.7,5.8-0.5,9.3l0.6,1.8L22,27.2l0.8-0.2l0.3,1l0.9-1.3l1.7-0.4c0.8-0.2,5.1-1.4,7.4-5.5
				c1.7-3,1.8-6.7,0.3-11.1L32.9,8.1L32.9,8.1z"/>
		</g>
	</g>
	<g>
		<g>
			<path class="st0" d="M14.8,15.7c8.6,1.7,6.7,8.6,6.5,9.1L17.5,20l2.7,5.5C12.4,23.8,14.8,15.7,14.8,15.7 M13.4,13.4l-0.5,1.8
				c-0.1,0.2-1.3,4.6,0.9,8.3c1.2,2.1,3.3,3.4,6.1,4l1.2,0.2l1.1,1.4l0.3-1.1l1.4,0.3l-0.9-1.8l0.3-1c0.2-0.6,1.1-4-0.8-7.1
				c-1.4-2.3-3.8-3.8-7.2-4.5L13.4,13.4L13.4,13.4z"/>
		</g>
	</g>
</g>
<circle class="st1" cx="23.5" cy="23.4" r="22.4"/>
<text transform="matrix(1 0 0 1 18.0126 36.6491)" class="st0 st2 st3">pH</text>
</svg>
