<?xml version="1.0" encoding="utf-8"?>
<!-- Generator: Adobe Illustrator 19.1.0, SVG Export Plug-In . SVG Version: 6.00 Build 0)  -->
<svg version="1.1" id="Layer_1" xmlns="http://www.w3.org/2000/svg" xmlns:xlink="http://www.w3.org/1999/xlink" x="0px" y="0px"
	 viewBox="124.5 88 385 385" style="enable-background:new 124.5 88 385 385;" xml:space="preserve">
<style type="text/css">
	.st0{fill:#191919;}
	.st1{fill:#DDDDDD;}
	.st2{fill:#1E1E1E;}
	.st3{fill:#272727;}
	.st4{fill:#7A7A7A;}
	.st5{fill:#919191;}
	.st6{fill:#2B2B2B;}
	.st7{fill:#181818;}
	.st8{fill:#333333;}
	.st9{fill:#444444;}
	.st10{fill:#929292;}
	.st11{fill:#848484;}
	.st12{fill:#434343;}
	.st13{fill:#9B9B9B;}
	.st14{fill:#EEEEEE;}
	.st15{fill:#212121;}
	.st16{fill:#909090;}
	.st17{fill:#323232;}
	.st18{fill:#C4C4C4;}
	.st19{fill:#E1E1E1;}
	.st20{fill:#2D2D2D;}
	.st21{fill:#CBCBCB;}
	.st22{fill:#363636;}
	.st23{fill:#1C1C1C;}
	.st24{fill:#464646;}
	.st25{fill:#242424;}
	.st26{fill:#4F4F4F;}
	.st27{fill:#5E5E5E;}
	.st28{fill:#222222;}
	.st29{fill:#545454;}
	.st30{fill:#C9C9C9;}
	.st31{fill:#2C2C2C;}
	.st32{fill:#C8C8C8;}
	.st33{fill:#E0E0E0;}
	.st34{fill:#6B6B6B;}
	.st35{fill:#B5B5B5;}
	.st36{fill:#616161;}
	.st37{fill:#BEBEBE;}
	.st38{fill:#4D4D4D;}
	.st39{fill:#5A5A5A;}
	.st40{fill:#E9E9E9;}
	.st41{fill:#EDEDED;}
	.st42{fill:#232323;}
	.st43{fill:#C5C5C5;}
	.st44{fill:#E6E6E6;}
	.st45{fill:#D2D2D2;}
	.st46{fill:#ECECEC;}
	.st47{fill:#676767;}
	.st48{fill:#575757;}
	.st49{fill:#ADADAD;}
	.st50{fill:#5D5D5D;}
	.st51{fill:#F2F2F2;}
	.st52{fill:#B8B8B8;}
	.st53{fill:#DBDBDB;}
	.st54{fill:#C2C2C2;}
	.st55{fill:#646464;}
	.st56{fill:#CDCDCD;}
	.st57{fill:#CCCCCC;}
	.st58{fill:#585858;}
	.st59{fill:#B3B3B3;}
	.st60{fill:#141414;}
	.st61{fill:#E2E2E2;}
	.st62{fill:#F0F0F0;}
	.st63{fill:#5C5C5C;}
	.st64{fill:#FAFAFA;}
	.st65{fill:#CECECE;}
	.st66{fill:#2E2E2E;}
	.st67{fill:#282828;}
	.st68{fill:#2F2F2F;}
	.st69{fill:#E8E8E8;}
	.st70{fill:#D3D3D3;}
	.st71{fill:#525252;}
	.st72{fill:#3A3A3A;}
	.st73{fill:#BCBCBC;}
	.st74{fill:#1A1A1A;}
	.st75{fill:#1B1B1B;}
	.st76{fill:#1F1F1F;}
	.st77{fill:#1D1D1D;}
	.st78{fill:#171717;}
	.st79{fill:#161616;}
	.st80{fill:#4E4E4E;}
	.st81{fill:#515151;}
	.st82{fill:#6A6A6A;}
	.st83{fill:#626262;}
	.st84{fill:#0B0B0B;}
	.st85{fill:#4C4C4C;}
</style>
<g>
	<g>
		<path d="M317,185.3c50.6,0,98.2,10.2,133.8,28.8c17.1,8.9,30.4,19.2,39.7,30.6c9.3,11.4,14,23.5,14,35.8s-4.7,24.4-14,35.8
			c-9.3,11.4-22.6,21.7-39.7,30.6c-35.7,18.6-83.2,28.8-133.8,28.8s-98.2-10.2-133.8-28.8c-17.1-8.9-30.4-19.2-39.7-30.6
			c-9.3-11.4-14-23.5-14-35.8s4.7-24.4,14-35.8c9.3-11.4,22.6-21.7,39.7-30.6C218.8,195.6,266.4,185.3,317,185.3 M317,180.3
			c-106.3,0-192.5,44.8-192.5,100.2S210.7,380.7,317,380.7s192.5-44.8,192.5-100.2S423.3,180.3,317,180.3L317,180.3z"/>
	</g>
	<g>
		<path d="M359,332.5c-2-4-3.7-7.2-5.3-10.4c-0.2,3.3-2.1,7,2.6,9.6c-2.7,0-4.7,0-7.4,0c3.3-2,2.7-4.9,2.6-7.5
			c-0.1-2.5,1.1-5.4-1.9-7.2c3.6-1.3,5-0.8,6.7,2.3c1.3,2.4,2.6,4.7,4.1,7.5c1.4-2.5,2.7-4.7,4-6.9c2.1-3.7,2.1-3.7,6.2-3.3
			c-2,5.1-2.3,10,0.6,15.1c-2.1,0-4.4,0-6.6,0c0.2-1.5,0.5-3,0.6-4.5c0.1-1.6,0-3.2-0.5-5C363,325.4,361.1,328.7,359,332.5z"/>
		<path d="M271.2,322.3c0.4,3.1-1.5,6.9,2.7,9.3c-2,0-4.1,0-6.3,0c3.1-3.2,3.4-11.6,0.7-14.6c3.6-1.3,4.9-0.8,6.6,2.5
			c1.2,2.4,2.5,4.7,3.9,7.4c1.5-2.6,2.9-5,4.4-7.3c2-3.4,2-3.4,6.2-2.8c-2.9,3.1-2.5,11.5,0.9,14.9c-2.7,0-5.1,0-7.2,0
			c0-3.1,0-6.1,0-9.2c-1.7,3.1-3.5,6.3-5.7,10.1c-2-3.9-3.7-7.2-5.4-10.4C271.7,322.2,271.5,322.3,271.2,322.3z"/>
		<path d="M405.3,324.1c2,2.6,3.8,4.8,5.5,7c-3,1.6-4,1.4-6-1.6c-1.2-1.7-2.4-3.4-3.9-5c-0.6,2.7-1.7,5.2,2,7.2c-3.3,0-5.7,0-8.3,0
			c2.4-2.9,2.3-12.7-0.3-15.2c3.9,0,7.5-0.3,11.1,0.2c1.2,0.2,2.8,1.7,3.3,3C409.3,321.8,407.8,323.1,405.3,324.1z M400.1,323.2
			c1.1,0,1.8,0.2,2.6-0.1c1.7-0.4,2.5-1.8,1.9-3.2c-0.5-1.2-1.9-2.5-3.1-2.7c-1.8-0.4-1.2,1.5-1.3,2.6
			C400.1,320.8,400.1,321.9,400.1,323.2z"/>
		<path d="M265.9,331.2c-3.1,1.5-4.1,1.2-6.2-2c-1-1.6-2.2-3.2-3.5-5.1c-1.6,3.2-1.2,5.5,1.2,7.6c-2.8,0-5.2,0-7.9,0
			c2.8-2,1.8-4.9,1.7-7.4c-0.1-2.5,1.5-5.5-2.4-7.6c4.4,0,8.1-0.3,11.7,0.2c1.2,0.2,2.9,1.9,3.1,3.1c0.2,1.4-1.1,2.9-1.8,4.4
			c-0.4,0.1-0.8,0.1-1.2,0.1C262.4,326.5,264.1,328.8,265.9,331.2z M255.3,323c2.3,0.6,4,0.4,4.5-1.9c0.4-1.7-0.4-2.9-2.1-3.6
			c-1.7-0.7-2.4-0.2-2.4,1.6C255.3,320.3,255.3,321.5,255.3,323z"/>
		<path d="M413.3,316.6c2.6,0,4.7,0,6.4,0c-0.5,2-0.9,4.1-1.4,6.2c0.3,0.2,0.5,0.3,0.8,0.4c1.9-1.5,3.8-2.9,5.6-4.5
			c0.4-0.3,0.1-1.3,0.1-2.1c1.6,0,3.4,0,5.7,0c-2.6,1.9-4.8,3.5-7.2,5.3c2.7,3.4,5.3,6.6,8,9.8c-3,0.5-5.7,0.6-7.4-2.7
			c-0.8-1.6-2.3-3-3.4-4.4c-2.7,1.8-2.5,4.2,0.7,7.1c-2.8,0-5.3,0-7.9,0C415.6,329,415.8,319.3,413.3,316.6z"/>
		<path d="M308.5,331.7c3.1-3.1,2.9-12.9-0.5-15c4.2,0,8-0.2,11.9,0.1c1,0.1,2.4,1.4,2.8,2.6c0.8,2.1-0.4,3.7-3,4.9
			c1.9,2.4,3.6,4.6,5.4,6.9c-1.7,1.6-4.1,1.4-5.8-1c-0.9-1.3-1.6-2.8-2.5-4.1c-0.5-0.6-1.3-0.9-2.3-1.5c-0.5,3.2-0.8,5.6,2,7.4
			C314,331.7,311.4,331.7,308.5,331.7z M313.7,320c0.6,1.8,0.2,3.3,2.4,3.3c2,0,2.9-1.1,2.9-2.8c0-1.8-1.1-3.3-2.9-3.2
			C315.2,317.4,314.4,319,313.7,320z"/>
		<path d="M445.9,316.7c0,1.3,0,2.3,0,3.3c-1.6-2.8-4-2.6-6.8-2.4c0,1.6,0,3.2,0,5.4c1.7-0.6,3.2-1.1,4.8-1.6c0,1.4,0,3,0,5
			c-0.6-0.8-0.9-1.4-1.3-1.5c-1-0.4-2-0.7-3.1-0.7c-0.2,0-0.6,1.4-0.6,2.2c0.1,1.3,0.4,2.6,0.6,3.8c1.8-0.4,3.6-0.6,5.3-1.1
			c0.7-0.2,1.1-0.9,1.7-1.4c0.6,2.4-0.3,4-2.3,4.1c-3.6,0.2-7.2,0.1-11,0.1c2.4-3.8,2.1-13.2-0.5-15.2
			C437.4,316.7,441.7,316.7,445.9,316.7z"/>
		<path d="M297.9,317c0.3,2.4,0.4,4,0.6,5.6c1.5-0.3,3.1-0.6,4.8-1c0,1.1,0,2.7,0,4.7c-0.6-0.6-0.8-1-1.2-1.2
			c-1-0.4-2.1-0.8-3.2-0.9c-0.2,0-0.8,1.6-0.7,2.4c0.1,1.2,0.7,3.5,1,3.5c1.8-0.1,3.6-0.6,5.3-1.1c0.6-0.2,0.9-1,1.4-1.5
			c0.9,2.1-0.2,4.2-2.4,4.3c-3.6,0.1-7.1,0.1-11.4,0.1c3-2.3,2.2-5.1,2.1-7.7c-0.1-2.6,1.2-5.5-2.1-7.6c4.6,0,8.6,0,12.9,0
			c0,1,0,1.9,0,2.2C302.9,318.3,300.7,317.7,297.9,317z"/>
		<path d="M238.1,315.8c3.6,5.2,4.9,11.4,9.3,15.9c-2.5,0-5.1,0-7,0c0-1.4,0.4-3.5-0.1-3.7c-1.7-0.8-3.7-1.2-5.6-1.1
			c-1,0.1-1.8,1.7-2.8,2.8c1.4,0.8,2.2,1.2,3.6,2c-2.6,0-4.5,0-6.2,0C232,326.5,235,321.3,238.1,315.8z M239.1,325.1
			c-0.9-1.5-1.6-2.7-2.5-4.1c-0.8,1.5-1.3,2.7-2,4.1C236.2,325.1,237.4,325.1,239.1,325.1z"/>
		<path d="M377.2,330c0.9,0.4,1.6,0.8,2.4,1.2c0,0.2-0.1,0.3-0.1,0.4c-1.9,0-3.8,0-5.5,0c2.8-5,5.8-10.2,9-16c1.1,2,1.9,3.6,2.7,5.2
			c1.2,2.4,2.3,4.8,3.6,7.1c0.8,1.3,1.8,2.5,2.7,3.8c-2.1,0-4.5,0-7.1,0c0.7-1.8,1.5-3.9-1.1-4.9C380.4,325.6,378.1,326.8,377.2,330
			z M381.5,320.8c-0.8,1.6-1.4,2.8-2.1,4.2c1.6,0,2.8,0,4.4,0C383,323.7,382.4,322.5,381.5,320.8z"/>
		<path d="M448.9,320.5c0-1.6,0-2.6,0-4c2.5,0,4.9,0,7.4,0c2.3,0,4.6,0,6.9,0c2.8,0,3.2,0.6,2.5,3.1c-1.4-0.7-2.8-1.5-4.4-1.9
			c-0.5-0.1-1.7,1-1.8,1.6c-0.2,3.1-0.3,6.1,0.1,9.2c0.2,1.1,1.6,2.1,2.5,3.2c-3.1,0-6.3,0-9.5,0c3.9-1.2,2.8-4.4,2.8-7
			c0.1-1.3,0.2-2.6-0.1-3.8c-0.2-1.1-0.4-2.9-1.1-3.1c-1.6-0.6-3.4-0.3-4.4,1.6C449.8,319.7,449.5,319.8,448.9,320.5z"/>
		<path d="M338.2,317c0.2,1.3,0.3,2.7,0.5,4.4c-1.6-1.4-2.8-2.7-4.1-3.6c-0.6-0.5-1.7-0.7-2.4-0.5c-0.8,0.2-1.8,1-1.8,1.7
			c-0.1,0.7,0.7,1.7,1.4,2.1c1.3,0.7,2.8,1.1,4.2,1.6c2.4,0.9,3.5,2.6,3.2,5.2c-0.3,2.3-2.4,4.1-4.8,4.2c-1.7,0-3.8,0-5.2-0.8
			c-1.1-0.7-1.4-2.6-2-4c0.3-0.2,0.6-0.3,0.9-0.5c0.5,0.6,0.8,1.3,1.4,1.9c1.4,1.6,3.1,2.9,5.3,2c0.8-0.3,1.6-1.3,1.8-2
			c0.1-0.6-0.8-1.6-1.4-2c-1.1-0.6-2.4-0.8-3.6-1.3c-3.2-1.2-4.5-3.3-3.7-5.7c0.9-2.8,3.5-4,6.8-3.3
			C335.7,316.5,336.9,316.7,338.2,317z"/>
		<path d="M217.2,316.5c3.4,0,7.2,0,11.2,0c0,1.2,0,2.3,0,2.9c-1.5-0.6-3.1-1.4-4.8-1.8c-0.6-0.2-1.9,0.6-2,1.1
			c-0.2,1.3,0.2,2.6,0.4,3.9c1.1-0.2,2.1-0.4,3.2-0.7c0.3-0.1,0.6-0.6,1.2-1.3c0,2.1,0,3.7,0,5.9c-0.6-0.8-0.8-1.5-1.3-1.7
			c-0.9-0.4-1.9-0.8-2.8-0.7c-0.4,0.1-0.9,1.3-0.8,2c0.3,1.8,0.8,3.6,1.2,5.4c-1.8,0-4.2,0-6.6,0
			C219.2,326.8,217.9,321.7,217.2,316.5z"/>
	</g>
	<g>
		<path class="st0" d="M418.9,233.2c0.4,1.3,1.1,0.6,1.7,0.3c3.8-1.9,7.3-4.4,9.9-7.8c0.4-0.6,0.8-0.9,1.5-1.3
			c1.6-0.8,2.5-0.7,2.9,1.2c0.4,1.4,0.6,3.1,2.5,3.5c-0.5,1.9,0.7,3.7,0.4,5.8c-0.9,4.9-3,9-6.4,12.5c-0.3,0.3-0.5,0.7-0.7,1.1
			c-0.7,0.5-1.4,0.5-2-0.1c0.8-2.4,2.8-4.1,3.8-6.4c1-2.3,1.9-4.5,2.9-6.8c-2.1,4.5-3.7,9.3-7,13.2c-0.8,0.5-1.6,0.5-2.5,0
			c-0.8-0.9-0.2-1.7,0.3-2.5c1.3-2.1,2.3-4.3,3-7c-3,4.1-5.6,8.4-10.9,9.4c-1,0.2-1.9,0.5-3,0.5c-1-0.1-1.6-0.4-1.7-1.4
			c-0.1-1,0.4-1.6,1.3-1.9c5-1.7,8.4-5.4,11.3-8.7c-5,7.3-12.9,8.5-21.6,7.6c-3.8-0.4-7.5-1.4-11.2-3.4c1.4,2.8-1.4,4.9-0.8,7.4
			c-0.3,0.3-0.6,0.5-1,0.5c-1.2-0.1-2.4,0.2-3.5-0.2c-0.2-0.3-0.5-0.6-0.4-0.9c0.8-2.3,0.3-4.3-1.1-6.1c-0.3-0.4-0.2-0.8-0.2-1.2
			c0-0.3,0.1-0.5,0.1-0.7c0.7-1.4,0.2-2.4-1.1-3c-0.9-0.5-1.9-0.7-1.9-2c0.3-1.4,0.7-2.7,1.2-4.1c1.3-3.4,3-3.9,5.8-1.7
			c0.3,0.6,0.8,0.9,1.4,0.9c0.8,0.1,1.3,0.5,2,0.8c0.3,0.2,0.7,0.4,1,0.6c1.8,2.1,4.4,2.8,7,3.3c5.1,1.1,10.1,0.9,14.9-1.1
			C417.7,233.1,418.3,232.9,418.9,233.2z"/>
		<path class="st1" d="M309,228.5c1.1-0.7,2.1-1.5,3.5-1.5c1.8-0.9,3.5-0.5,5.2,0.5l-0.1-0.1c0.6,0.6,0.7,1.3,0.4,2.1
			c-1.9,4-1.1,8.1-0.1,12.2c0.5,1.7,1.4,3.3,1.5,5.1c-0.1,1-0.6,1.6-1.6,1.6c-5.6-0.1-11.3,0.4-16.9-0.3c-0.6-0.3-0.9-0.8-1.4-1.2
			c-1.6-2.8-2.7-5.8-2.5-9.2c0.1-3.1,1.4-5.3,4.1-6.8c0.5-0.2,1.1,0,1.6,0c0.8,0.2,1.5-0.3,2.1-0.6c1.3,0.3,2.5,0.4,3.1-1.2
			C308.1,229,308.7,228.9,309,228.5z"/>
		<path class="st0" d="M235.3,231.1c0.9-0.8,0.5-1.8,0.4-2.6c-1.4-11.7,2.8-21.3,11.3-29.2c1.1-1.1,1.8-1.1,2.9,0.1
			c3.6,3.8,5.5,8.5,8.2,12.9c1.7,2.8,3.3,5.7,5,8.6c0.3,0.5,0.5,1.1,1.3,0.9c0.4-0.2,0.7,0,1,0.3c0.7,2.3-1.4,3.2-2.5,5
			c1.6,0.3,3.1,0.1,4.5,0.1c5,0.1,8.5,2.3,10.7,6.9c0.8,1.6,1.3,3.3,2.4,4.8c0.7,0.6,1.6,0.7,2.4,1.1c0.9,0.6,1.9,1.1,2.9,1.5
			c3.1,1.3,3.6,3.9,1.3,6.5c-1.2,1-2.6,0.7-3.9,0.7c-0.4,0-0.8-0.1-1-0.5c-0.1-0.1-0.1-0.2-0.1-0.3c0.6-3.4,0.5-3.4-2.7-5.4
			c-1.4-0.9-3-1.6-4.5-2.4c-0.8-0.5-1.7-0.8-1.8-1.9c-0.1-0.8,0.6-1.3,0.9-1.9c0.3-0.9,0.3-1.7-0.6-2.3c-3.4-1.8-6.8-3.4-10.9-2.4
			c-1.1,0.3-1.9,0.7-2.3,1.7c-1.7,2-2.6,4.4-2.5,7.1c-0.1,0.7,0.3,1.3,0.4,2c0,0.3,0,0.5-0.1,0.7c-0.2,0.5-0.5,0.8-0.9,1.2
			c-0.4,0.2-0.7,0.3-1.1,0.4c-0.3,0.1-0.5,0.1-0.8,0.1c-0.9-0.3-1.5-1-2-1.8c-0.2-0.5,0-1,0.1-1.5c0.7-6.1,2.5-11.8,6.3-16.7
			c0.8-1,0.9-2,0.3-3.1c-1.9-3.6-4-7.1-5.7-10.9c-0.2-0.3-0.4-0.6-0.6-0.8c-2.3-2.9-3.3-2.8-5.2,0.4c-5,8.5-4.8,17.5-2,26.7
			c0.4,1.3,1.9,2,2,3.5c-1.8,1.7-2.6,1.5-4.9-1.1c-0.4-0.5-1-0.9-1.3-1.4c-0.4-0.8-1.3-1.3-1.3-2.3c0-0.4,0.2-0.7,0.3-1.1
			c0.7-1.4-0.1-2.9-0.2-4.2c-1-9.5,0.6-18.2,6.9-25.6c0.2-0.3,0.4-0.6,0.2-1c-0.9-0.4-1.4,0.4-1.8,0.9c-4.9,5.6-7.7,12-7.5,19.6
			c0,0.9,0.1,1.9,0,2.8c-0.3,2.7,0.4,5,2.1,7.1c-1.2,2.1-3.1,2.1-5.2,1.9c-1-1.1-1.3-2.4-1.3-3.8
			C234.3,231.7,234.9,231.4,235.3,231.1z"/>
		<path class="st1" d="M347.4,227c1.1,0.1,2.1,0.4,3.1,1c0.3,0.3,0.6,0.3,0.9,0.5c1.7,2.8,4.4,0.9,6.6,1.2c0.9,0.3,2,0.2,2.8,0.8
			c0.8,0.6,1.7,1.1,1,2.4c-0.4,0.5-0.8,0.9-1.4,1c-1.7,0.2-2.1,1-1,2.4c0.5,0.7,0.7,1.3,0.2,2.1c-1.7,2.5-1,4.9,0.1,7.4
			c1,2.1,0.8,2.5-1.7,2.9c-3.6,0-7.3,0-10.9,0c-1,0-2.1,0.3-2.7-0.8c-0.4-1,0.3-1.6,0.7-2.3c1.6-2.7,2.8-5.5,2.9-8.6
			c0.1-2.3-0.7-4.5-1.4-6.7C346.2,228.8,345.9,227.7,347.4,227z"/>
		<path class="st2" d="M387.4,239.7c-0.1,0.3-0.1,0.6-0.1,0.8c-1.6,1.5-2.7-0.2-3.9-0.7c-0.7-0.6-1.3-1.3-2.3-1.5
			c-0.8-0.3-1.5-0.1-2.1,0.5c-1.4,1.4-3.2,2.7-1.7,5.1c0.2,1.7-1.3,2.9-1.4,4.5c-0.2,0.2-0.4,0.3-0.7,0.3c-1.1-0.2-2.5,0.5-3.3-0.8
			c-0.5-0.8-0.4-1.6-0.1-2.4c1.9-5.6-0.2-7.9-4.9-8.3c-0.4,0-0.7-0.2-0.9-0.4c-0.4-0.4-0.6-0.8-0.8-1.3c-0.2-1.7-1.8-2-2.7-3
			c-0.7-1.1,0.1-1.2,0.8-1.4c1.4,0.6,1.8-1.3,3-1.2c0.7-0.5,1.3-0.2,2,0c0.5,0.3,1.1,0.5,1.5,0.9c1.5,1.5,3,3.2,5.5,2.7
			c0.4,0.2,0.6,0.4,0.9,0.7c0.5,0.8,0.9,1.5,2,1c0.4-0.2,0.8-0.5,1.2-0.7c0.6-0.5,0.9-1.2,1.2-1.8c1-1.9,1.5-1.9,3.3-0.5
			c0.1,0.8,1.1,1.5,0.3,2.3c-0.9,1.2,0.1,1.4,0.9,1.9C386.1,237.1,387.7,237.7,387.4,239.7z"/>
		<path class="st3" d="M281.9,240.8c-0.7-0.4-1.4-0.7-2-1c-0.2-2.7,0.5-5.3,1.6-7.7c0.5-1,0.3-2,0.1-3c-1-3.8-2.2-7.5-1.5-11.5
			c0.4-2.5-1-3.3-3.5-2.5c-1,0.3-1.8,0.3-2.5-0.6c-0.5-0.7-0.1-1.3,0.3-1.9c0.6-1.1-0.1-1.7-0.9-2.2c-0.2-0.4-0.5-0.9-0.1-1.3
			c0-0.4-0.1-0.9,0.1-1.3c0.4-0.7,0.4-1.9,1.4-1.8c1,0.1,1.8,1,1.7,1.9c-0.1,1.7,1,2.4,2.2,3.1c3.5,2.3,4.4,4.3,3.6,8.4
			c-0.7,3.6,1.3,6.8,2,10.1c0.2,0.9,0.8,0.6,1.3,0.1c5.6-4.7,11.7-3.7,16.9,1.1c0.4,0.1,0.6,0.3,0.5,0.7c-0.5,0.1-1,0.2-1.4,0.2
			c-0.7,0.3-1.1-0.3-1.7-0.4c-0.5-0.3-1.1-0.5-1.6-0.8c-6.8-3.3-13.7,0.3-14.9,7.8C283,239.2,283.1,240.3,281.9,240.8z"/>
		<path class="st4" d="M282.5,248c0.2,0.2,0.3,0.4,0.5,0.5c0,0.1,0,0.3-0.1,0.4c-14,0-27.9,0-41.9,0c-7.7,0-15.5,0.1-23.2,0
			c-1,0-2,0.3-3-0.4c0.7-1,1.7-0.8,2.7-0.8c1.6-0.1,3.3,0.1,4.9-0.6c3.3-0.6,6.6,0,9.9,0.1c3.5-0.1,7,1.1,10.5,0.1
			c4.2-0.8,8.4,0.6,12.5-0.2c1.3,0.2,2.5-0.6,3.8-0.2c6.9-0.4,13.9-0.2,20.8-0.1C280.9,246.8,282,246.9,282.5,248z"/>
		<path class="st5" d="M372.5,247.5c0.6,1.6,1.9,0.8,2.9,0.9c0.9-0.7,1.9-1,3-1.3c2.6-0.5,5.2-0.3,7.8-0.2c0.9,0.1,1.7,0.2,2.1,1.1
			c1.1,1,2.4,0.4,3.6,0.6c0.2,0.1,0.3,0.2,0.2,0.3c-0.1,0.1-0.1,0.2-0.2,0.2c-24.1,0-48.1,0-72.2,0c-0.2-0.3-0.2-0.5-0.1-0.8
			c0.3-0.5,0.8-0.8,1.3-1.1c0.4-0.2,0.9-0.2,1.3-0.2c1.8,0,3.6-0.1,5.3,0.4c2.7,0.7,5.4,0.7,8.1,0c1.6-0.4,3.2-0.4,4.8-0.4
			c0.3,0,0.5,0,0.8,0.1c1.1,0.3,2.3,0.2,3.5,0.1c0.5,1.2,1.6,1,2.6,1c3.7,0,7.5,0,11.2,0c1.9-0.3,3.9-0.2,5.9-0.7
			C367.2,246.8,369.9,246.2,372.5,247.5z"/>
		<path class="st6" d="M320.8,247.9c-0.2,0.5-0.7,0.6-1.1,0.7c-1.5-0.2-0.3-1.6-1-2.1c-2.2-4.2-2.8-8.8-2.7-13.5
			c0.1-2,1.5-3.5,1.6-5.5c2.2-0.8,3.7-2.8,6.1-3.4c1.1-0.3,2.1-0.6,3.2-0.5c2,0.3,4,1.1,4.6-2.1c0.2-1.2,1.9-1.3,3.1-1.1
			c1.3,0.3,1.1,1.3,1.1,2.3c-0.1,1-0.1,1.9,1,2.4c0,0.1,0.1,0.3,0.1,0.4c-0.3,0.8-1,1.4-1.5,1c-2.6-2-5.2,0.1-7.9-0.4
			c-4.4-0.8-8.3,3.1-8.8,7.7c-0.4,3.9,0.2,7.6,1.9,11.2C320.8,245.8,321.6,246.8,320.8,247.9z"/>
		<path class="st7" d="M394.4,213.2c0.3,1.8-0.7,3.1-2.1,4c-0.4,0.7,0.3,1.3,0.2,2c-0.5,1.5-1.5,1.4-2.7,1c-0.9-1.6-3.6-1.6-3.6-4
			c1-2.1,0.9-4-1.3-5.4c-0.2-0.2-0.4-0.3-0.6-0.5c-0.1-2.2-0.8-4.4-0.5-6.6c0.2-0.3,0.4-0.4,0.6-0.5c1-0.4,1.9-0.1,2.7,0.5
			c1,0.8,0.5,2.1,1,3.4c0.8-1.7,1.4-3.5,3.6-3.1c0.3,0.1,0.4,0.2,0.6,0.4c0.1,0.2,0.1,0.4,0.2,0.5c0.6,0.9,0.5,1.7,0.1,2.6
			c-0.4,0.9-0.3,1.6,0.3,2.4C392.5,211.5,393.5,212.4,394.4,213.2z"/>
		<path class="st8" d="M392,218.9c0-0.6-0.1-1.1,0.4-1.6c1.2,1.4,3.8,1.4,4,4c0.1,0.8,0.4,1.6,0.7,2.5c0.3,0.6,0.6,1.5,1,1.6
			c0.8,0.2,1.2-0.8,1.6-1.4c1.3-1.8,2.1-3.8,3-5.9c1-2.1,1.9-4.2,4.4-5.4c1.6-0.8,3.9,0.5,5.2-1.8c0.2-0.4,0.9,0.7,0.5,1.2
			c-0.7,1.1-0.2,1.7,0.7,2.3c0.1,0.4-0.1,0.7-0.3,1c-1.3,1.3-2.6,1.9-4.2,0.5c-1.1-1-2-0.5-2.9,0.4c-0.4,0.4-0.8,0.9-1,1.5
			c-1.6,5.3-5.3,9.3-8.9,13.2c-0.6,0.6-1.1,1.4-2.1,1c-0.2-0.2-0.4-0.5-0.6-0.7c-1.1-1.1-0.3-2,0.3-2.9c0.7-1.2,1.6-2.4,1-4
			c-0.5-1.3-1.2-2.4-1.6-3.7C392.9,219.8,392.5,219.3,392,218.9z"/>
		<path class="st9" d="M223,248.5c-2.8,0-5.5,0-8.2,0.1c-2.1-1.7-2.8-3.8-2-6.5c0.2-0.5,0.6-0.9,0.2-1.4c-1.6-2.8-0.8-5.3,0.7-7.8
			c-0.3-0.7,0-1,0.6-1.3c0.8,0.1,1.2-0.1,1.6-0.9c1.9-4.5,8.6-4,10.3,0.2c0.8,2,1.3-0.1,1.9,0.1c0.9,1.1,0.8,2-0.5,2.8
			c-0.8,0.2-1.5,0.1-2.1-0.4c-0.2-0.2-0.4-0.4-0.6-0.6c-0.7-2-2.1-3-4.2-2.8c-2,0.2-2.7,1.7-3.1,3.4c-0.1,0.3-0.2,0.5-0.3,0.7
			c-3.1,1.9-3.3,2.4-2,5.9c0.4,1.2-0.2,2.1-0.3,3.2c-0.4,2.9,0.3,3.8,3.3,4c1.3,0.1,2.5-0.5,3.8-0.4C223,247,223.6,247.4,223,248.5z
			"/>
		<path class="st6" d="M344.8,246.9c-0.7,1.1-1.4,2.4-3,1.1c0-0.7,0.1-1.3,0.7-1.9c4.2-4.7,5.1-10.1,2.9-16
			c-0.9-2.5-2.9-3.7-5.4-3.9c-1.2-0.1-2.6,0.2-3.4-1.3l0.1,0.1c3.3-2,6.1-1.6,8.7,1.2c0.6,0.6,1.2,0.9,2,0.8
			c-0.5,0.8-0.6,1.5-0.2,2.4C350.1,235.7,348.5,241.5,344.8,246.9z"/>
		<path class="st10" d="M318.7,246.5c0.8,0.5,0.5,1.5,1,2.1c0,0.1,0,0.2,0,0.3c-12.3,0-24.6,0-36.9,0c0-0.1,0.1-0.3,0.1-0.4
			c1.3-0.1,2.6,0,3.6-1.1c4.8-1.3,9.5-0.9,14.3-0.2c2.3,1.1,4.7,0.6,7,0.7c3,0.1,5.9,0,8.9,0C317.7,247.9,318.7,247.9,318.7,246.5z"
			/>
		<path class="st11" d="M391.9,248.9c0-0.1,0-0.3,0-0.4c0.2-0.2,0.3-0.3,0.4-0.4c0.3-0.9,1-1.2,1.7-1.2c6.8-0.3,13.5-0.4,20.3,0
			c0.1,1.5,0.9,1.8,2.1,1.4c0.7-0.2,1.3-0.5,2-0.8c1.2,0.5,2.2-0.4,3.3-0.5c1.6-0.2,3.2-0.6,4.3,1c0.8,0.7,1.5,0.6,2.1-0.1
			c0.2-0.2,0.3-0.1,0.4,0.1c0.5,0.7,1.3,0.4,1.9,0.5c-0.4,0.6-1,0.6-1.6,0.6C416.8,249,404.3,249,391.9,248.9z"/>
		<path class="st12" d="M367.4,231.6c-0.4-0.5-0.8-1-1.2-1.5c1-2.9,2.1-5.8,3.1-8.7c0.3,0.1,0.5,0.2,0.7,0.4
			c0.7,0.7,0.2,1.8,0.7,2.6c0.5,1.5,1.5,2.6,2.7,3.5c0.3,0.2,0.5,0.5,0.8,0.7c2.7,1.3,2.7,1.3,5.7-1.5c0.2-0.1,0.4-0.2,0.7-0.3
			c1.5,0,3.1,0.2,4.6-0.6c0.8-0.4,1.6-0.4,2.1,0.5c0.1,0.3,0.3,0.8,0,1c-1.5,0.9-2,2.8-3.6,3.6c-2.7-0.9-4.2,0.9-6.1,2.3
			c-0.4,0.3-0.9,0.5-1.4,0.4c-1.9-1-3.5-2.3-5.1-3.6C369,228.5,368.5,230.8,367.4,231.6z"/>
		<path class="st13" d="M386.8,204.5c-0.9-0.2-1.7-0.3-2.6-0.5c-1.1-0.6-1-1.5-0.8-2.6c0-1.4,1-2.3,1.8-3.3c0.4-1.4,1.1-2.7,1.9-3.9
			c0.9-0.1,1.6,0.4,1.4,1.3c-0.4,1.5,0.4,2.8,0.7,4.1c-0.1,1.2,0.3,2.2,1.4,2.8C390.4,204.6,389.2,205.3,386.8,204.5z"/>
		<path class="st14" d="M370.9,211.7c0.5-0.4,1.1-0.7,1.6-1.1c0.8-0.4,1.6-0.5,2.2-1.2c1.6-0.6,1.4-2.8,3-3.4c2.1,0.2,2,1.5,1.2,2.9
			c-1.1,1.9-1.8,3.8-1.2,6c-0.1,0.3-0.2,0.5-0.3,0.7c-0.7,1-1.5,1.7-2.9,1.1c-0.3-0.2-0.5-0.4-0.7-0.5c-0.9-0.1-1.3-0.6-1.1-1.5
			C371.5,214.1,369.8,213.8,370.9,211.7z"/>
		<path class="st15" d="M444.7,245.6c-0.1,1.1-1.1,2.4-3.1,2.4c-1.6,0-3.1-0.7-3.1-2.6c-0.1-2.6,1.1-4,3.2-3.9
			C443.6,241.5,444.7,242.7,444.7,245.6z"/>
		<path class="st16" d="M227.1,233.2c1-0.5,1-1.4,1.1-2.3c2.5-1.6,4.8-1.2,7.2,0.2c-0.2,0.4-0.4,0.7-0.6,1c-0.4,0.3-0.9,0.3-1.4,0.2
			c-0.7,0-1.6-0.4-2,0.4c-0.4,0.7,0.3,1.2,0.6,1.7c0.4,0.7,1.1,1.2,1.4,2c0.4,1.1-0.4,1.9-0.7,2.8c-0.5,1.2,0.5,3.1-1.5,3.8
			c-1-0.1-2,0.5-3.1,0.1c-0.6-0.5-0.7-1.1-0.5-1.8c0.1-0.3,0.1-0.5,0.2-0.7c0.2-0.9,1-1.6,1-2.6c0.3-1.8-1-2.9-1.9-4.1
			C226.9,233.7,226.9,233.4,227.1,233.2z"/>
		<path class="st13" d="M392.5,210c-1,0.2-1.6,0-1.4-1.3c0.3-1.4,0.8-2.6,1.5-3.8c0.5-0.2,1-0.4,1.6-0.6c0.6-0.4,1.2-0.2,1.7-0.2
			s1.2-0.1,1.5,0.7c0.3,0.8-0.2,1.3-0.8,1.7c-0.5,0.8-1,1.6-1.5,2.5c-0.2,0.9-1,0.9-1.5,1.1C393.1,210.2,392.8,210.1,392.5,210z"/>
		<path class="st17" d="M412.9,214.6c0.2-0.2,0.4-0.3,0.5-0.5c3.2,1.5,3.4,4.7,3.2,7.4c-0.3,3.1,0.4,5.8,1.5,8.6
			c0.4,0.9,0.5,1.9,0.7,3c-0.3,0.5-0.7,1-1,1.4c-1.2-0.9-1.3-2.4-1.6-3.7c-0.5-1.9-1.1-3.7-2.1-5.3c-0.2-1.8-0.1-3.6,0.2-5.3
			c0.2-1.5-0.1-2.7-0.9-3.8C413,216,412.8,215.3,412.9,214.6z"/>
		<path class="st18" d="M357.6,230.1c-0.6,0.2-1.1,0-1.6,0.5c-2.1,2.2-3.8,1.8-4.7-1c-0.1-0.3-0.3-0.6-0.4-0.9
			c0.7-0.6,1.3-1.3,1.9-2c0.6-0.6,1.3-0.9,2.1-0.5c0.8,0.4,0.6,1.1,0.4,1.8c-0.2,0.5-0.1,0.8,0.4,1.1c0.3,0.1,0.7,0.1,1,0.1
			C356.9,229.5,358,229.1,357.6,230.1z"/>
		<path class="st3" d="M374.9,210.1c-0.7,0.9-1.6,0.6-2.5,0.5c1.4-1,0.5-1.8-0.2-2.7c-1.4-1.9-0.9-3.2,1.3-3.6
			c1.9-0.4,2-1.1,1.2-2.7c-0.4-0.7-1.2-1.7-0.3-2.7c0.6-0.4,1-0.2,1.5,0.2c1.3,1.9,2.4,3.9,2.1,6.4c-0.1,0.3-0.3,0.4-0.5,0.6
			C374.6,206.1,375.4,208.5,374.9,210.1z"/>
		<path class="st19" d="M392.5,210c0.2-0.2,0.3-0.3,0.5-0.4c0.8-0.1,1.5,0,2.3,0.2c0.6,0.1,1.4,0,1.7,0.8c0.4,1-0.5,1.3-0.9,1.8
			c-0.5,0.3-1,0.6-1.5,0.9c-0.9,0.2-1.8,0.4-2.8,0.4c-0.8,0.1-1.6-0.1-1.7-1.1c-0.2-1,0.4-1.3,1.2-1.6
			C391.6,210.7,392.4,210.8,392.5,210z"/>
		<path class="st20" d="M273.2,209.1c0.2,0.4,0.3,0.7,0.4,1c1.2,1.3,0.4,1.9-0.7,2.6c-1.9,1.2-3.1,2.9-3.6,5.1
			c-0.4,1.4-0.9,2.8-1.8,3.9c-0.6,0.8-1.3,1.4-2.4,0.9c-0.2-0.3-0.4-0.5-0.6-0.7c1.5-2,2.6-4.1,3-6.6c0.4-1.9,2.1-2.8,3.6-3.8
			C272,210.8,272.8,210.2,273.2,209.1z"/>
		<path class="st21" d="M380.7,199.9c-0.1-1.1-0.1-2.2-0.1-3.3c0-0.5-0.2-1.2,0.5-1.3c0.7-0.2,0.9,0.6,1.2,1.1
			c2.6,2.1,2.7,2.6,1.6,5.1C381.8,202.6,381.3,202.4,380.7,199.9z"/>
		<path class="st22" d="M302.8,231.4c-0.2-0.2-0.3-0.4-0.5-0.7c1.1-0.1,1.6-0.6,1.7-1.7c0.1-1.3,0.6-2.5,2.1-2.7
			c1.5-0.3,1.4,1.1,1.9,1.8c0.2,0.2,0.6,0.3,0.9,0.4c-0.2,0.3-0.4,0.6-0.6,0.9c-1.2,0.6-2,1.8-3.5,1.7
			C304.2,231.3,303.5,231.4,302.8,231.4z"/>
		<path class="st0" d="M380.7,199.9c0.8,1,1.6,2.2,3.1,1c0.1-0.3,0.3-0.2,0.4,0c0,1,0.5,2,0,3.1l0.1-0.1c-0.9,1-1.8,1.4-3.1,0.7
			c-1.2-1-1.8-2.2-1.6-3.8c0.2-0.3,0.4-0.6,0.6-0.7C380.5,200.2,380.6,200.1,380.7,199.9z"/>
		<path class="st23" d="M390.4,202.4c-2.6,0.4-1.3-1.5-1.4-2.5c0.5-0.2,0.7,0.1,0.8,0.5c0.4,1.3,1.5,0.7,2.3,0.9
			c0.9,0.3,1.8-0.1,3.2,0.9c-1,0.8-1.9,1.6-2.9,2.4c-0.2,0-0.4,0-0.5,0.1C390.2,204.6,391.5,202.7,390.4,202.4z"/>
		<path class="st24" d="M355.7,229c-1.4,0.7-0.9-0.5-0.9-1c-0.1-0.5,0.4-1-0.3-1.3c-0.7-0.3-1.1,0.2-1.5,0.6c-0.5,0.7-1,1.4-2,1.4
			c-0.2-0.2-0.3-0.4-0.5-0.7c0.6,0,0.9-0.4,1.2-0.8c0.9-1.2,1.9-2.3,3.6-1.5C357,226.5,355.6,227.9,355.7,229z"/>
		<path class="st25" d="M396,212.3c0.2-0.9,1.4-2.4-1.1-1.8c-0.6,0.2-1.6-0.1-2-0.9c0.6-0.7,1.4-0.5,2.1-0.6c1.3,0.8,3,0.9,3.8,2.5
			C398,212.4,396.9,212,396,212.3z"/>
		<path class="st22" d="M389.8,200.4c-0.3-0.2-0.6-0.3-0.8-0.5c-1.4-1.6,0-4.1-1.8-5.7c0.3-0.7,0.3-1.5,1.5-1.8
			C388.9,195.1,389,197.8,389.8,200.4z"/>
		<path class="st3" d="M214.3,231.6c-0.2,0.4-0.4,0.8-0.6,1.3c-0.8-1.2-2.1-1.5-3.4-1.8c-0.7-0.2-1.4-0.7-1-1.4
			c0.5-1.1,1.1-0.2,1.5,0.2C211.9,230.5,213.4,230.5,214.3,231.6z"/>
		<path class="st26" d="M357.6,230.1c-0.3-0.3-0.7-0.7-1-1c2.5-0.2,4.5,1.3,6.6,2.1c-0.2,0.3-0.7,0.5-0.4,1c0.1,0.8-0.3,1.1-1,1.2
			c-0.4-0.1-0.6-0.4-0.7-0.8C361.3,229.8,358.9,230.7,357.6,230.1z"/>
		<path class="st27" d="M373.8,216.2c0.3,0,0.5,0.1,0.7,0.1c0.9,0.8,1.1,1.7,0.4,2.7c-1.3,0.6-2.8,1.1-3.7,2.5
			c-0.4,0.6-1,0.9-1.8,0.6c-0.1-0.2-0.1-0.5-0.1-0.7c0.5-1.9,2-3,3.5-3.9C373.4,217.1,374.1,217.1,373.8,216.2z"/>
		<path class="st20" d="M396.5,206.5c1.4-3.2-1.5-1.5-2.4-2.1c0.7-0.8,1.5-0.5,2.4-0.5c0.9,0.1,2.3-0.5,2.4,0.5
			C398.9,205.6,397.9,206.5,396.5,206.5z"/>
		<path class="st28" d="M384.2,200.9c-0.1,0-0.3,0-0.4,0c0.7-1.9-0.3-3.3-1.5-4.6c1.5-0.2,1.6,1.9,3,1.8
			C385.6,199.4,384.9,200.1,384.2,200.9z"/>
		<path class="st29" d="M380.2,200.1c0,0.3,0,0.5-0.1,0.8c-2.1,1.3-3.1-0.7-4.6-1.5c-0.4-0.2-0.7-0.4-1.1-0.6
			C376.8,197.6,378.6,198.5,380.2,200.1z"/>
		<path class="st26" d="M317.8,227.5c-1.7-0.1-3.4-1-5.2-0.5C314.1,225.6,315.9,225.8,317.8,227.5z"/>
		<path class="st13" d="M370.9,211.7c-0.3,1.6,1.1,2.1,1.9,3.1c-1.4,0.5-2.5-0.5-3.2-1.4C369,212.6,370.2,212.1,370.9,211.7z"/>
		<path class="st30" d="M412.9,214.6c0.4,0.4,0.7,0.8,1,1.1c1.2,3.8-0.1,7.6,0.1,11.4c0.3-1.2,0.3-1.2,1.4-1.7c1,3,3.2,5.7,2.6,9.2
			c-7.5,2.5-14.9,2.4-22.2-1.1c-0.8-0.4-1.9-0.5-1.7-1.8c1.5-2.3,3.2-4.4,5.2-6.2c2.2-2,3.1-5,4.3-7.7c0.5-1.1,1-2.1,1.8-3.1
			c2.2-2.4,4.2-2.1,5.3,0.9C411.5,215.4,411.8,214.1,412.9,214.6z"/>
		<path class="st13" d="M414.4,246.9c-0.7,1.3-2,1.1-3.1,1.1c-6.3,0.1-12.6,0.1-18.9,0.1c-2.1-1.2-0.3-3.4-1.2-4.8
			c0.8-0.8,1.2,0.8,1.8,0.2c0.7-0.7-0.2-1.2-0.5-1.7c-0.8-1.2-0.6-2.9-2-3.8c18.8,8.3,27.5,7.3,38.2-4.4
			C425.3,239.5,421.6,245,414.4,246.9z"/>
		<path class="st1" d="M427.5,231.7c-3.6,6.1-8.9,9.3-15.5,10c-6.7,0.7-13.2-0.4-19-4.4c-1.5-1-2.5-2.5-3.5-3.9
			c-0.4-0.5-0.9-1-0.4-1.5c0.6-0.7,1.1,0.1,1.5,0.4c3,2.1,6.1,3.7,9.6,4.6c9,2.3,17.4,0.8,25.1-4.3
			C425.8,232.2,426.3,231.6,427.5,231.7z"/>
		<path class="st1" d="M388.3,247.9c-3.4,0.1-6.9,0.1-10.3,0.1c-0.8-0.3-1.7,0.1-2.5-0.1c-1.2-1.7,0.5-2.7,0.9-4
			c-0.4-0.9-0.1-1.6,0.8-1.9c0.7-0.3,1.1-0.9,1.7-1.4c0.9-0.5,1.8-0.7,2.5-1.5c0.6-1.1,1.4-1,2.3-0.6c1.4,0.2,2,1.9,3.5,1.8
			C390.3,243.9,390.6,245.5,388.3,247.9z"/>
		<path class="st13" d="M426.2,248c-2.6-0.2-5.2,0.6-7.6-0.5c4.4-1.5,6.8-5.2,9.2-8.8c0.9-1.3,1.7-2.7,2.6-4.1
			C431.5,238.3,430,243.1,426.2,248z"/>
		<path class="st13" d="M428.8,248c-0.1-0.1-0.3-0.1-0.4-0.1c1.7-3.1,3.1-6.3,4-9.8c0.6-2,2.4-3.8,3.7-5.8
			C437.1,237.1,433.6,244.2,428.8,248z"/>
		<path class="st31" d="M383.2,230.6c0.9-1.6,3.2-2,3.6-4c-0.4-1.3-2.7-1.8-1.7-3.8c0.7-0.9,1.6-0.9,2.6-0.5
			c0.7,0.4,1.5,0.7,1.8,1.5c0.6,1.2,1.1,2.4,1.1,3.8c-0.3,0.8,1,2.1-0.7,2.6c-0.7-0.7-0.8-2-2.2-1.6c-1.2,0.3-1.6,1.2-2,2.3
			c-0.5,1.3-0.2,3-1.6,4c-0.4,0-0.5-0.2-0.5-0.5c0.4-0.7-0.2-1.2-0.4-1.8C383.4,231.8,382.5,231.3,383.2,230.6z"/>
		<path class="st32" d="M395.6,223.8c1.2,1.3,1.2,2.6,0,3.9c-0.9,1-1.7,2-2,3.3c-0.7,0.3-1.2,0.1-1.6-0.5c-1-1.2-1.8-2.6-0.5-4
			C392.5,225.4,393,223,395.6,223.8z"/>
		<path class="st33" d="M383.6,234.2c0.2,0.2,0.3,0.3,0.5,0.5c0.3,0.7,0.9,0.7,1.5,0.6c2.7-0.3,3.1,2,3.5,3.6
			c0.4,1.4-1.2,0.4-1.8,0.7c-1.5-0.7-2.4-2.4-4.3-2.6c-0.9-0.1-0.9-0.9-0.8-1.6C382.3,234.6,382.6,234.1,383.6,234.2z"/>
		<path class="st34" d="M395.6,223.8c-3.2,1.7-4.1,3.4-3.7,6.8c-0.7,0-1.6,0.6-1.9-0.6c0.6-0.9-0.2-1.7,0-2.6c1.1-2,2.1-4.1,1.4-6.6
			c0.6-0.9,1.4-1.4,2.5-1.1C394.4,221.1,395,222.5,395.6,223.8z"/>
		<path class="st13" d="M434,227.3c0.6,2.4-0.5,3.9-1,5.5c-0.2,0.4-0.3,0.9-0.9,0.7c-0.5-0.2-0.5-0.7-0.5-1.1
			C431.7,230.5,433,229.3,434,227.3z"/>
		<path class="st1" d="M431.9,226.6c-0.6,2.1-1.1,4.3-4.3,4.5C429.2,229.4,430.6,228,431.9,226.6z"/>
		<path class="st1" d="M300.8,247.3c-0.6,0.6-1.3,0.8-2,0.7c-4-0.3-8.2,0.7-12.2-0.5c1.5-2.4,1-3.9-1.5-5c-1.1-0.4-2-1.1-3.1-1.7
			c-0.5-4.5,1.2-8,4.7-10.6c4.8-3.6,8.9-3.4,13.7,0.5c0.4,0.4,0.3,0.8,0,1.1c-4.1,5.6-4.1,9.2,0,14.7
			C300.5,246.7,300.6,247,300.8,247.3z"/>
		<path class="st35" d="M304.9,231.2c0.1-0.1,0.3-0.3,0.3-0.4c0.4-1.1-0.5-2.8,0.8-3.3c1.3-0.6,1.2,1.8,2.5,1.9
			c0.2,0.9,2.2-0.2,1.6,1.2c-0.7,1.5-2.3,1.7-3.8,1.7C305.5,232.3,305.2,231.7,304.9,231.2z"/>
		<path class="st36" d="M300.3,246.5c-4-3-4.9-9.4-1.9-13.4c0.6-0.8,1.9-1.2,1.9-2.5c0.4,0.4,0.7,0.7,1.1,1.1c-4.2,3.5-5,8-2,12.8
			C299.7,245.1,300.5,245.6,300.3,246.5z"/>
		<path class="st1" d="M248.1,240.4c-1.5-0.1-2.4-0.7-2.8-2.4c-2.1-7.6-3.2-15.3-0.5-23c1.1-3.2,2.9-6.1,5-8.8
			c1.1-1.3,1.8-1.6,2.9,0.3c3,5.3,6.1,10.6,9.2,15.9c0.4,0.7,1,1.3,0,2.2c-4.7,4.2-6.3,9.8-7.1,15.9c-0.1,0.5-0.3,1-0.5,1.4
			C251.6,243,250.2,242.7,248.1,240.4z"/>
		<path class="st1" d="M265,222.6c1.6-1.2,2.7-3,3-4.8c0.4-2.7,1.9-4.3,4.1-5.6c2-0.7,1.6,1.1,2.1,2c2.7,0.8,2.4-1,2.1-2.7
			c3.2,1.1,5.1,3.1,4.8,5.6c-0.7,4.2,0.6,8.1,1.7,12c0.5,1.5,0.6,2.8-0.4,4.3c-1,1.4-1.7,3.2-1.5,5c0.1,0.7,0,1.4-1,1.4
			c-1.4-1.1-1.7-2.9-2.5-4.3c-3.2-6-8.9-8.5-15.4-6.7c-0.7,0.2-1.3,0.4-2.5,0.8C260.7,226.3,263.6,225,265,222.6z"/>
		<path class="st1" d="M282.5,248c-7,0-14.1,0-21.1,0c-1.1,0-2.2,0.4-3.1-0.6c-0.9-1.4-1.3-3-0.9-4.6v-0.1c0.8-3.5,3.9-5.9,8-6.3
			c1.5,0.1,3,0,4.5,0c1.6,0,2.9,0.4,3.8,1.8c3.9,1.6,7.2,4.3,11.2,5.8c1.2,0.5,1.4,1.5,0.2,2.3C284.1,247,283.3,247.5,282.5,248z"/>
		<path class="st13" d="M240.3,234.2c-1.7,0.1-2.4-0.8-2.6-2.4c-1.8-11.1,0.5-20.9,8.3-29.2c0.4-0.4,0.7-0.7,1.1-1
			c0.9-0.6,1.7-1.2,2.6,0c0.9,1,0.9,1.8-0.1,2.8c-6.5,7-8.9,15.3-7.5,24.7c0.2,1.5,0.3,3,0.5,4.6c0.1,0.7,0.1,1.2-0.7,1.3
			C241.3,235,240.7,234.8,240.3,234.2z"/>
		<path class="st13" d="M228.7,240.8c0,0.2,0,0.4,0,0.5c-0.4,0.5-1.9,0.5-0.5,1.5c1-0.5,2-0.5,3.1-0.5c0.5,1-0.2,1.5-0.9,2.1
			c-0.4,0.3-0.7,0.6-0.4,1.1c0.4,0.6,1,0.6,1.6,0.4c0.5-0.2,0.7-0.5,0.6-1c-0.2-0.7-0.7-1.4-0.2-2.2c1.3-1.4,2.8,0.1,4.1-0.3
			c1.3-0.2,2,0.7,2.7,1.6c1.9,2.4,5,2.8,7.4,0.9c0.9-0.8,2.8-0.8,2.4-2.7c0.4-0.7,1.1-1,1.7-0.6c1.1,0.8,2.5,0.5,3.5,1.2
			c0.7,0.4,1.4,0.7,2,1.1c-0.4,0.4-0.6,0.8-0.8,1.3c0.3-0.4,0.4-0.9,0.8-1.3c0.4,0.1,0.7,0.2,1,0.3c1.2,0.4,1.6,1.2,1.2,2.3
			c-0.4,1-0.7,2.1-2.3,1.5c-4.3,0.7-8.6-0.3-12.8,0.1c-3.5,0.4-7.1,0.4-10.6,0c-3.1-0.1-6.2-0.2-9.3,0.5c-0.1-1-0.8-1-1.5-1
			c-0.3-0.2-0.4-0.4-0.5-0.6c-0.2-1.3-0.9-2.3-1.6-3.3c-1.7-2.5-1.1-4,1.9-5c0.6,0,1.2,0.4,1.8,0.5c0.7,0.3,1,1.1,1.9,0.9
			C226.3,239.8,227.7,239.1,228.7,240.8z"/>
		<path class="st37" d="M258.9,232.6c1.7-3,4.6-2.1,7.2-2.4c1.3-0.2,2.6,1.1,3.8-0.1c1.2,1.5,3.8,0.9,4.6,2.9
			c0.4,0.9,0.6,1.7,1.2,2.5c0.8,1.1,0.2,1.7-0.8,2.1c-0.3-0.3-0.6-0.5-0.9-0.7c-1.1-1.1-2.5-1.5-4.1-1.5c-1.7,0.1-3.4-0.2-5,0.1
			C262.1,235.8,260.4,234.5,258.9,232.6z"/>
		<path class="st13" d="M235.9,243.3c-1.3,0.6-2.4-0.6-3.6-0.5c-0.1-1.4,0.8-3.1-1-4.1c0.5-0.7,1-1.4,1.5-2c0.5-1.1,1.5-1.1,2.5-1.4
			c0.3,0.1,0.5,0.2,0.7,0.3c1.1-1.7,3.1-0.7,4.5-1.5c0.8-0.1,1.3,0.2,1.7,0.8c-0.2,0.3-0.5,0.5-0.7,0.7c-0.3,1.3,0.2,1.9,1.6,1.5
			c0.6,0.1,0.7,0.6,1,1c0.2,1.7,1.9,2.4,2.7,3.7c-0.4,0.6-1,0.8-1.7,0.7c-1-0.1-1.8-0.5-2.8-0.6c-1.2-0.4-2.5-1.1-3.8-0.2
			C237.4,242.1,236.5,242.5,235.9,243.3z"/>
		<path class="st38" d="M258.9,232.6c1.3-0.2,2.6-0.3,3.2,1.3c0.4,1,1.4,0.7,2.3,0.7c2.5,0.1,4.9-0.3,7.4,0.3
			c1.2,0.3,2.6,0.4,3.2,1.7c-0.8,0.9-1.7,0.8-2.8,0.5c-3-0.8-6-1-9.1-0.1c-1.6,0.6-3.1,1.6-4.4,2.8c-0.6,0.6-1,1.4-2,1.3
			C256.1,237.9,257.1,235.2,258.9,232.6z"/>
		<path class="st3" d="M262.4,236.7c2.8-1.5,5.7-1.1,8.6-0.6c1.3,0.2,2.6,0.9,3.9,0.5c0.2,0.4,0.2,0.8-0.1,1.1
			c-0.4,0.2-0.8,0.4-1.1,0.6c-2.8-1.2-5.8-1.1-8.8-1.1C264.2,236.7,263.1,237.7,262.4,236.7z"/>
		<path class="st39" d="M246.7,241.8c-1.8-0.5-2.7-1.7-2.7-3.5c1.1,1.2,1.7,3.3,4.1,2.1c2.1,0.3,3.9,1.8,6.2,1.5
			c-0.2,0.3-0.3,0.6-0.5,0.9c-1.6,1.1-3-1.2-4.7-0.4C248.1,243.3,247.2,243,246.7,241.8z"/>
		<path class="st23" d="M262.4,236.7c0.9,0.2,1.7,0.3,2.6,0.5c-3.4,0.8-5.8,2.8-7.7,5.6c-0.2-0.6-0.3-1.1-0.5-1.7
			C258.6,239.5,260,237.5,262.4,236.7z"/>
		<path class="st40" d="M235.8,235.7c-0.2,0-0.4,0.1-0.6,0.1c-1.5,0.7-2.5,0-2.9-1.4c-0.4-1.3-0.3-2.5,1.4-2.9
			c0.3,0.2,0.6,0.5,0.9,0.7C235.5,233.2,235.6,234.5,235.8,235.7z"/>
		<path class="st41" d="M243,237.3c0,0.6,0.7,1.5-0.3,1.7c-1.2,0.4-1.5-0.9-2-1.5c-0.6-0.8-0.8-1.5,0.6-1.7
			C241.9,236.2,242.4,236.7,243,237.3z"/>
		<path class="st29" d="M255.8,248c2.1-0.8,2.3-2.1,1-3.8c0-0.5,0.1-1,0.5-1.3c0.1,1.6,2.6,2.7,0.9,4.6
			C257.6,248.3,256.8,248.9,255.8,248z"/>
		<path class="st42" d="M361.2,232.6c0.2,0.2,0.4,0.5,0.7,0.7c0.5,0.9,1.3,1.3,2.3,1.2c0.8-0.1,1.3,0.2,1.7,0.8
			c0.2,0.3,0.4,0.6,0.5,0.9c-0.1,1.2-1.1,1.3-1.9,1.7c-1.4,0.8-3,1.2-3.9,2.7c-1.1,1.2,0.5,2.2,0.3,3.3c0,0.7,0.4,1.2,0.9,1.5
			c0.8,0.8,2.6,0.6,2.6,2.3c0,0.1-0.1,0.2-0.1,0.4c-1.9,0.9-3.8,0.9-5.7,0c1.2-0.8,0.5-1.6,0.2-2.4c-1.1-2.5-1.7-5-0.1-7.5
			c1-1.5-0.7-2-1.2-3c-0.3-0.6-1.2-0.9-0.9-1.7c0.3-0.7,1.2-0.5,1.8-0.5C359.4,232.9,360.3,233.2,361.2,232.6z"/>
		<path class="st1" d="M359.5,240.3c1.2-3.2,4.1-3.5,6.8-4.2c5.4-0.1,8.2,2.4,7.5,6.6c-0.3,1.6-0.9,3.2-1.3,4.9
			c-2.7,0.9-5.5,0.3-8.2,0.5l0.1-0.1c-1.5-1.8-1-4.9-3.9-5.8C359.8,241.9,359.8,240.9,359.5,240.3z"/>
		<path class="st21" d="M371.5,229.6c1.9,0.7,3.7,1.6,4.7,3.6c0,0.7-0.6,0.8-1.1,1c-2.6,2-2.8,2-4.6-0.9c-0.4-0.6-0.8-1.1-1.2-1.6
			C369.2,230.1,370.1,229.6,371.5,229.6z"/>
		<path class="st43" d="M383.2,230.6c0,0.6,0.7,1.2,0.1,1.8c-1.1-1.2-1.3-0.6-1.7,0.6c-0.4,1,0.3,2.9-1.9,2.7
			c-1.8-0.3-2.1-1.7-2.5-3.1c0.8-1.5,2.4-2.1,3.7-3C382.2,228.5,382.5,230.1,383.2,230.6z"/>
		<path class="st44" d="M365.8,235.2c-1.2,0.6-2.7,0-3.8,1c-0.7,0.6-1.6,0.7-2.1-0.3c-0.6-1-0.2-1.7,1.1-1.8
			c0.3-0.1,0.5-0.6,0.8-0.9c0.4-0.4,0.7-0.7,1.1-1c1.6-0.4,2.9,1.5,4.6,0.8c0.4-0.2,0.5,0.8,0,1.1
			C367,234.6,366.4,234.8,365.8,235.2z"/>
		<path class="st45" d="M379.8,241.4c-0.1,2.1-1.7,2.4-3.3,2.7c-1.8-2.7-1.2-4.4,2.1-6.3C380.7,238.7,380.9,239.3,379.8,241.4z"/>
		<path class="st32" d="M371.5,229.6c-0.4,1-1.3,1.5-2.1,2.1c-0.6-0.1-1.3-0.1-1.9-0.1c0-0.2-0.1-0.4-0.1-0.5
			c0.1-1.3-0.4-3.1,1.2-3.5C369.8,227.2,370.7,228.5,371.5,229.6z"/>
		<path class="st37" d="M378.5,236.1c-0.4,0.2-0.8,0.4-1.2,0.5c-0.9,0.2-1.4,2-2.4,1.1c-0.9-0.8,0.2-2,0.7-2.9
			c0.2-0.8,0.5-1.6,1.4-1.2C378,234,379.1,234.6,378.5,236.1z"/>
		<path class="st46" d="M379.8,241.4c0.3-1.4-0.5-2.6-1.2-3.6c0.8-0.6,1.6-0.6,2.5-0.4c1.7,0.5-0.2,2.2,1,2.9
			C381.5,240.9,380.6,241.1,379.8,241.4z"/>
		<path class="st29" d="M382.1,240.1c-1.2,0.4-1.5-0.3-1.2-1.3c0.2-0.5,0.7-1,0.2-1.5c1,0.2,2,0.3,2.7,1.3
			C382.9,238.7,381.9,238.8,382.1,240.1z"/>
		<path class="st47" d="M378.5,236.1c-0.6-1.2-0.8-3.2-2.9-1.4c-0.2-0.2-0.4-0.4-0.6-0.5c0.4-0.4,0.7-0.7,1.1-1
			c0.4-0.2,0.7-0.4,1-0.6c0.8,1,1.7,2,2.5,3.1C379.3,235.8,378.9,235.9,378.5,236.1z"/>
		<path class="st48" d="M375.6,248c0.8-0.4,0.3-1.6,1.2-1.9c1.1,0.3,0.6,1.5,1.3,2c-0.8,0.6-1.7,0.5-2.6,0.3
			C375.5,248.3,375.5,248.1,375.6,248z"/>
		<path class="st49" d="M274.3,214.2c-1.5,0.2-1.1-1.7-2.1-2c0.7-0.6,1.8-0.7,1.4-2c0.2-0.6-0.1-1.4,1.1-1.9
			C275.1,210.3,276,212.3,274.3,214.2z"/>
		<path class="st29" d="M232.3,248c3.5,0,7.1,0,10.6,0C239.4,248.7,235.8,248.7,232.3,248z"/>
		<path class="st30" d="M336.7,224.9c7.5-0.3,9.9,1.7,10.7,9.3c0.6,5.5-1.6,10-5.6,13.8c-0.2,0-0.4,0-0.6,0
			c-6.4,0.4-12.9,0.4-19.3,0c-0.4,0-0.7-0.1-1-0.1c-3.5-5.5-5.3-11.3-2.8-17.6c1.7-4.5,6.6-6.7,11.3-5.6c1.2,0.3,2.5,1,2.6-1.3
			c0.1-0.7,0.5-2,1.7-1.8c1.4,0.2,0.4,1.4,0.8,2C334.9,224.6,334.9,226.5,336.7,224.9z"/>
		<path class="st50" d="M321.9,248c6.4,0,12.9,0,19.3,0c-0.9,0.7-1.9,0.5-2.9,0.5c-4.5,0-9,0-13.5,0
			C323.8,248.5,322.8,248.7,321.9,248z"/>
		<path class="st32" d="M387.4,223.1c-0.8,0.6-1.4-0.3-2.1-0.2c-0.1,0-0.3,0-0.4,0c-1.6-0.9-3.1-1.9-4-3.5c-0.6-1-0.4-1.9,0.4-2.7
			c0.8-0.7,1.7-1.2,2.8-1.5c1.1-0.1,2.3-0.3,2.9,1c0.6,0.9,1.4,1.3,2.5,1.5c0.9,0.2,1.4,0.6,0.6,1.5
			C389.2,220.7,389,222.4,387.4,223.1z"/>
		<path class="st13" d="M381.2,204c1,0,2,0,3.1-0.1c1.1,1.9,1.6,4,0.7,6.2c-0.2,1.5-1.8,1.1-2.5,1.9c-1.7,0.1-3-0.9-4.2-2
			c0.2-1.5,1.7-2.7,1.1-4.4C379.5,204.6,380,203.9,381.2,204z"/>
		<path class="st51" d="M386.9,216.3c-1,0-2-0.1-3.1-0.1c-1.8,0.5-2.1-0.8-2.5-2.1c-0.1-0.5,0.1-1,0.4-1.4c1.2-0.9,2.4-1.8,3.7-2.5
			c1.8,0.2,2.6,1.5,2.8,3C388.4,214.4,388.5,215.8,386.9,216.3z"/>
		<path class="st13" d="M390.4,202.4c0.9-0.4,1.9-0.8,1.3,0.9c-0.2,0.5-0.5,0.9,0.1,1.2c-1.9,0.8-2,2.4-2,4.1c0,0.7,0.2,1.5-0.7,1.7
			c-0.8,0.3-1.1-0.6-1.6-1c-1.7-1.4-1.1-3.2-0.8-4.9C387.9,203.7,389.4,203.5,390.4,202.4z"/>
		<path class="st52" d="M387.4,223.1c0.7-1.4,0.9-3,2.5-3.7c0.9,0.7,1.7,1,2.1-0.5c0.8-0.1,1.5,0.1,1.9,0.9
			c-0.5,0.7-1.3,0.7-1.9,1.1c-1.3,1-2,2.7-3.5,3.5C388,223.9,387.7,223.5,387.4,223.1z"/>
		<path class="st53" d="M391.1,214.4c0.6,0.3,1.8-0.1,1.7,0.9c-0.1,1.2-1.2,1.5-2.3,1.4c-0.8-0.1-1.7-0.1-1.6-1.1
			C389.1,214.4,390.1,214.5,391.1,214.4z"/>
		<path class="st25" d="M385.4,210.2c-0.6,0.9-1.3,1.6-1.9,2.6c-0.7,1-0.8,0-1.2-0.2c-0.3-0.3-0.3-0.6-0.1-0.9
			c0.2-1.9,1.9-0.8,2.7-1.5C385.1,210.1,385.3,210.1,385.4,210.2z"/>
		<path class="st54" d="M221.5,247c0,0.2,0,0.4,0,0.6c-1.3,0.6-2.7,0.3-4,0.3c-2.9-0.1-4.7-2.5-3.6-5.2c0.5-1.2,0.5-2-0.1-3.2
			c-1.4-3-0.4-4.7,3.1-5.7c3-1.2,5.2,0.8,5.2,4.7c-0.9,1.3-1.8,0.8-2.7-0.1c-0.7-0.6-1.3-1.3-2.6-1c1.2,2.1,1.5,3.9,0.1,6
			c-0.7,1,0.4,1.9,1.7,2.3C219.6,245.6,221,245.5,221.5,247z"/>
		<path class="st54" d="M217,233c-0.3-2.3,0.5-3.9,3-4.4c2.8-0.5,4.6,0.6,5.5,3.4c-2.5,2.9-3,3-6.5,1.7
			C218.3,233.5,217.4,233.7,217,233z"/>
		<path class="st18" d="M228.7,240.8c-1.5-0.2-2.8,0.3-4.1,1c-1.2-1.3-1.7-2.9-2.3-4.5c-0.7-1.9,1.4-2.9,1.9-4.4
			c0.4-0.3,0.8-0.6,1.3-0.4c0.5,0.2,1,0.4,1.5,0.6c0,0.2,0.1,0.3,0.1,0.5c1,1.4,1.4,3.2,2.5,4.5
			C229.7,239.2,229.4,240.1,228.7,240.8z"/>
		<path class="st55" d="M225.6,232.6c-0.4,0.2-0.7,0.4-1,0.5c-0.7,1.3-2.8,2-1.9,4.1c0.3,0.7,0.6,1.3,1.1,1.8c0.9,1,0,1-0.7,0.7
			c-0.6,0-1.2-0.1-1.6-0.6c-0.1-0.1-0.2-0.3-0.2-0.4c0.1-0.2,0.1-0.2,0.1-0.2c-0.3-3.6-0.9-4.3-4.5-5.1c0.1-0.2,0.1-0.4,0.1-0.6
			c3.1,1.5,5.7-0.1,8.5-1C225.5,232.2,225.5,232.4,225.6,232.6z"/>
		<path class="st56" d="M385.2,222.9c0.3,1,1.1,1.5,1.8,2.1c0.7,0.7,0.5,1.1-0.2,1.6c-0.7,0.3-1.5,0.5-2,0.9c-1.4,1.3-2.7,1-4.1,0
			c-0.3-0.2,0.1,0-0.2-0.1c-1.5-0.5-2.8-1.3-2.9-2.8c-0.1-1.6,1.4-2.4,2.6-3.1c1.4-0.9,2.7-0.7,3.9,0.6
			C384.5,222.4,384.9,222.7,385.2,222.9L385.2,222.9z"/>
		<path class="st21" d="M372.9,228.4c-1.5-0.8-3.6-1.1-3.3-3.5c0.7-1.8,1.2-3.8,3.5-4.3c2.7-0.3,3,1.8,3.9,3.5
			C376.5,226.2,375.5,228.1,372.9,228.4z"/>
		<path class="st21" d="M380.1,227.5c-1.8,4.1-3.5,4.5-6.7,1.5c0.4-1.8,1.8-3,3-4.2c0.2-0.1,0.4-0.2,0.7-0.3
			C378.4,225.3,379.3,226.3,380.1,227.5z"/>
		<path class="st57" d="M373,221.2c-0.9,1.4-2,2.7-3.4,3.6c-0.1-1-0.1-1.9-0.2-2.9c1.3-1.3,1.8-3.9,4.6-3.2c0.4,0.5,0.6,1,0.4,1.6
			C374.2,220.9,373.6,221,373,221.2z"/>
		<path class="st58" d="M380.1,227.5c-1-0.9-2-1.7-3-2.6c-0.2-0.6-0.5-1.2-0.3-1.9c1.1-1.2,2.4-2.2,3.5-3.4c0.4-0.3,0.9-0.5,1.3-0.2
			c1.4,0.9,2.8,1.9,3.6,3.5c-1.8-0.8-3.3-1.9-5.4,0c-1.5,1.4-1.8,2.1-0.2,3.4c0.4,0.3,0.7,0.8,1,1.1
			C380.5,227.5,380.3,227.5,380.1,227.5z"/>
		<path class="st58" d="M376.6,225.2c-1.1,1.3-2.1,2.6-3.2,3.9c-0.2-0.2-0.3-0.4-0.5-0.6c0.8-1.6,2.3-2.8,3.5-4.1
			C376.8,224.5,376.8,224.8,376.6,225.2z"/>
		<path class="st13" d="M382.3,211.7c0.3,0.3,0.2,0.6,0.1,0.9c-0.1,0.6-0.1,1.1-0.1,1.6c-1.2,2.7-2.3,3-4.9,1.7
			c-0.2-0.3-0.2-0.5-0.2-0.8c0-0.1,0-0.2,0-0.3c0.4-1.6-1-3.7,1.4-4.7C380.4,209.2,381.2,210.5,382.3,211.7z"/>
		<path class="st13" d="M374.9,210.1c-0.4-0.6-1-1.1-1.2-1.8c-0.3-0.8-1.8-1.3-0.8-2.6c0.8-1.1,1.9-0.7,3-0.7c0.4,0,0.8,0.3,1.2,0.4
			c0.3,0.3,0.8,0.4,0.6,0.9C377.8,208.4,377.1,209.9,374.9,210.1z"/>
		<path class="st59" d="M381.6,219.4c-0.2,0.3-0.3,0.6-0.5,0.9c-1.7,0.1-3.4-0.5-4.9,0.7c-0.8-0.2-1.6-0.2-2.3-0.8
			c-0.3-0.5-0.2-1,0.1-1.5c0.6-0.8,0.5-1.6,0.5-2.5c0.9-0.4,1.7-0.8,2.6-1.3c0.1,0.1,0.1,0.2,0,0.3c0.7,0.9,1.7,1,2.8,0.9
			s1.7-0.1,1.8,1.1C381.4,218,381.4,218.7,381.6,219.4z"/>
		<path class="st60" d="M377.7,206.4c-0.2-0.3-0.4-0.6-0.6-0.9c0.2,0,0.4-0.1,0.6-0.1c1.1-0.9,1.8-0.4,2.5,0.6
			c-0.2,1,0.4,1.9,0.8,2.8c-0.8,0.6-2.1-0.1-2.5,1.3c-1.3,1.3-0.7,3.2-1.4,4.7c-0.5-1.9-1.5-3.7,0.5-5.6
			C378,208.7,379.7,207.4,377.7,206.4z"/>
		<path class="st61" d="M443.3,246.2c-1.5-0.9,0-2.1-0.8-3.5C444.4,244.4,444.4,244.4,443.3,246.2z"/>
		<path class="st13" d="M231.2,238.8c0.9-0.4,1.8-0.6,2.5,0.4c0.7,1,0,1.7-0.6,2.5c-0.3,0.4-0.6,0.8-0.9,1.2
			c0.2,0.3,0.4,0.6,0.6,0.8c0.6,0.7,2.1,1.1,1.4,2.4c-0.9,1.5-2.6,1.5-4.1,1.4c-1.2-0.2-2.5-0.5-2.7-1.9c-0.2-1.2,0.6-1.9,1.7-2.2
			c0.7-0.2,1.5-0.2,2-0.9C231,241.2,230.4,240,231.2,238.8z"/>
		<path class="st13" d="M233.8,231.5c-0.8,1.8-0.7,3.5,1.5,4.3c-0.7,0.9-1.6,1-2.6,1c-2-0.5-2.7-2.5-3.7-3.8c-0.7-1,0.3-1.6,1.2-2
			C231.5,230.3,232.7,230.7,233.8,231.5z"/>
		<path class="st62" d="M229.6,238.2c-1.6-0.2-2.7-2.1-2.5-4.5C229.1,234.5,229.7,236.2,229.6,238.2z"/>
		<path class="st63" d="M228.1,242.9c-1,0.6-2,0.8-3.4,0.3c1.4-0.8,2.3-2.1,3.9-1.8C228.5,241.9,228.3,242.4,228.1,242.9z"/>
		<path class="st64" d="M415.4,225.5c-0.7,1.4-0.3,3-0.5,4.5c-0.1,0.4,0,0.9-0.5,1c-0.7,0.1-0.8-0.5-0.9-1c-0.4-2.1-0.8-4.4-0.6-6.6
			c0.3-2.6,0.7-5.1,1-7.7C416.4,218.7,415.3,222.2,415.4,225.5z"/>
		<path class="st13" d="M380.2,206c-0.9,0.1-1.7-0.2-2.5-0.6c-1.6-1.7-1.3-4-2.1-6c1.9-0.8,3.1,1,4.6,1.5c0.8,0.9,1.1,1.9,1,3.1
			C380.8,204.6,380.5,205.3,380.2,206z"/>
		<path class="st65" d="M388.3,224.4c0.5-3.2,1.2-3.9,3.5-3.5c2.3,3,1.9,3.9-1.9,6.6C389.4,226.4,388.9,225.4,388.3,224.4z"/>
		<path class="st66" d="M252,210.7c1.3,0.1,2.1,0.8,2.4,2.2c0.1,0.8-0.1,1.4-1.1,1.2c-1.4-0.2-2.5-0.8-2.6-2.3
			C250.6,210.8,251.3,210.8,252,210.7z"/>
		<path class="st67" d="M251.5,215.3c1,0.2,1.9,0.6,1.9,1.7c0,0.9-0.8,1.2-1.6,1.2c-1.2,0.1-1.8-0.6-1.9-1.6
			C249.7,215.7,250.8,215.7,251.5,215.3z"/>
		<path class="st20" d="M250.7,228c-1,0.1-1.6-0.3-1.6-1.4c0.1-0.9,0.5-1.4,1.4-1.4c0.9,0,1.7,0.3,1.7,1.4
			C252.3,227.6,251.7,228.1,250.7,228z"/>
		<path class="st68" d="M250.9,223.1c-1,0-1.3-0.6-1.2-1.6c0.1-1,0.5-1.6,1.5-1.5c1.2,0.1,1.4,1,1.4,2
			C252.5,223,251.8,223.1,250.9,223.1z"/>
		<path class="st13" d="M246.7,241.8c0.8,0.2,1.6,0.4,2.5,0.6c0.4,0.3,0.7,0.5,1,0.8c0.9,0.7,1.1,1.5,0.5,2.4
			c-0.6,0.9-1.4,0.9-2.2,0.3c-0.4-0.3-1-0.9-1.2-0.1c-0.5,2.4-2.3,1.6-3.6,1.5c-1.7-0.2-3.4-0.3-5.1,0c-0.8,0.2-1.8,0.3-2.1-0.9
			c-0.3-1.3,1.1-0.9,1.6-1.5c-0.6-0.8-1.3-1.3-2.3-1.6c-0.7-2,0.6-2.6,2.1-2.9c1.5,0.4,3.1,0.9,4.6,1.1c0.7-0.2,1.2,0.9,1.9,0.3
			C245.3,241.8,246,241.8,246.7,241.8z"/>
		<path class="st13" d="M221.4,238.7c0,0.2,0.1,0.4,0.1,0.6c-2,1-2.1,2.4-0.6,4c1,1,1.6,2.3,0.7,3.7c-1.1-0.1-2.3-0.3-3.3-0.1
			c-2.1,0.4-2.7-1.5-3.5-2.5c-0.8-0.9,0.1-2.3,1.4-3c1-0.7,1.5-1.8-0.5-2c-0.9-0.1-1.5-0.7-1.6-1.7c-0.1-1,1.1-0.9,1.2-1
			c0.5-1.1,0.7-2.7,2.2-1.8c1,0.6,2.3,1.1,2.9,2.3C220.5,237.7,221,238.2,221.4,238.7z"/>
		<path class="st13" d="M223,239.9c-0.3-1-0.5-2-0.8-3c-0.8-2.3-0.3-3.1,2.4-3.7c1,0.9,2,1.6-0.2,2.2c-1.5,0.4-1.7,1.8-0.9,2.5
			c1.4,1.2,0.8,2.7,1.1,3.9C223.3,241.7,222.7,241.2,223,239.9z"/>
		<path class="st54" d="M255.8,243.9c0.3,0.9,1.6,1.5,0.7,2.7c-1.2,1.5-2.9,0.9-4.9,0.8C253.2,246,253.3,243.5,255.8,243.9
			C255.8,243.9,255.8,243.9,255.8,243.9z"/>
		<path class="st69" d="M242.6,241.7c-1.8,0.6-3.2-0.5-4.6-1.3c1.6-0.3,3.1,0.2,4.5,0.9C242.7,241.4,242.7,241.5,242.6,241.7z"/>
		<path class="st47" d="M242.6,241.7c0-0.2-0.1-0.3-0.1-0.4c0.9-0.5,1.4,0.1,2.1,0.5c-0.1,0.9,0.2,1.9-1.1,2.5
			C243.2,243.4,243.7,242.3,242.6,241.7z"/>
		<path class="st70" d="M359.5,240.3c4.8,2.3,5.1,2.7,4.8,7.6c-0.8-1.3-2.8-0.5-3.5-1.9c0.3-0.9-0.4-1.3-1-1.7
			C359.6,242.9,358.6,241.7,359.5,240.3z"/>
		<path class="st71" d="M359.8,244.2c0.9-0.2,1.9-0.6,2.4,0.6c0.4,1.2-0.6,1-1.3,1.2C360.2,245.5,359.9,244.9,359.8,244.2z"/>
		<path class="st1" d="M342.3,244.5c0.8-3.9-0.7-7-2.6-9.8c-1.1-1.6-1.4-3.1-0.1-4.7c1.6-1.9,3.8-1.7,5.3,0.4
			C347.8,234.4,346,241.9,342.3,244.5z"/>
		<path class="st13" d="M381.7,217.3c-0.4-0.3-1.1-0.8-1.2-0.7c-1.9,1.6-2.5-0.2-3.3-1.3c1.9,0.6,3.8,0.8,5.1-1.2
			c0.4,0.8,0.4,1.9,1.6,2.1C383.3,217,382.3,216.7,381.7,217.3z"/>
		<path class="st72" d="M374,220.3c0.7-0.5,1.4-0.7,1.9,0.2c1.5,0.5,2.1,1.4,1.2,2.9c0.2,0.5,0.3,1.1-0.1,1.6
			c-0.2,0.1-0.3,0.2-0.5,0.3c-0.1-0.3-0.1-0.6-0.2-0.9c-0.9-1.2-1.2-3.2-3.4-3C373.4,220.9,373.7,220.6,374,220.3z"/>
		<path class="st73" d="M377.1,223.3c-0.4-1-0.8-1.9-1.2-2.9c2.4-3.2,2.8-3.3,5.3-0.1C380.4,222.1,378.9,222.9,377.1,223.3z"/>
	</g>
	<g>
		<path class="st0" d="M212.7,304.2c0.8,14.6-8.6,23.2-21.8,24.8c-5.7,0.7-10.9-1.1-16.2-2.5c-6.6-1.7-13.1-3.7-20.1-1.4
			c0.3-1.3,0.3-3.1,0.8-3.2c2.4-0.5,4.8-0.3,7.3-0.1c6,0.6,11.5,3.4,17.4,4.2c10.3,1.4,19.6-0.8,26.3-9.5c3.1-4,4.2-8.8,3.9-14
			c-0.2-2.8,0.2-5.6-1-8.3c2.2,2.1,2.7,5,3.6,7.6c0.2,0.6-0.5,0.7-0.8,1.1C211.4,303.7,212,304,212.7,304.2L212.7,304.2z"/>
		<path class="st0" d="M355.1,302.3c4.1,1,8.1,2,12.4,1.8c4.6-0.3,12.3-2,14.7-7.8c0.6-1.3,1-2.7,1-4.1c0.6-1.1,0.3-2.4,0.3-3.5
			c0-9,0-17.9,0-26.8c0-3,3.8-5.4,6.2-4c1,0.6,1.6,1.1,0.2,1.8c-3.4,1.6-3.9,4.4-3.8,7.9c0.3,7.9,0.1,15.8,0.1,23.7
			c0,9.3-3.9,14.1-13.3,15C366.7,306.9,360.4,306.7,355.1,302.3z"/>
		<path class="st74" d="M335.1,299.2c1.2-0.2,1.8-0.9,2.1-2c3.8-3.5,4.8-8.2,5.5-13.1c0.9-5.6-0.2-11.1-2.1-16.6
			c2.2,2.3,3.7,5.7,4.4,11.5c0.8,6.2,0.2,12.4-3.2,18c-2.9,4.9-7.2,7.9-12.7,9c-7.2,1.5-13.8,0.3-20.2-4.2c1.7-0.1,2.7,1,3.9,1.2
			c6.8,1.3,13.6,1.7,19.9-1.9C333.7,300.6,334.7,300.2,335.1,299.2z"/>
		<path class="st74" d="M444.2,301.2c3.9,0.5,7.8,1.5,11.6,2.5c7.7,2,17.1-1.1,21.3-7.1c2.4-3.4,2.6-7.3,2.2-11.2
			c-0.2-0.6-0.4-1.1,0.6-1.1c4.9,6.5,1.8,16.5-5.9,20c-7,3.2-14,2.4-21,0.4c-4.5-1.3-9.1-2.1-13.7-0.6c-0.2-0.9,0.6-1.3,0.9-1.8
			C440.9,299.8,442.8,301.2,444.2,301.2z"/>
		<path class="st0" d="M422.1,299.7c-2-0.7-2.9-2-2.8-4.2c0.1-10.9,0.1-21.8,0-32.8c0-2,0.6-2.7,2.6-2.6c2.4,0.2,4.9-0.4,7.4,2.1
			c-2,0-3.4,0.1-4.8-0.1c-1.8-0.2-2.3,0.6-2.3,2.4C422.2,276.4,422.2,288,422.1,299.7L422.1,299.7z"/>
		<path class="st7" d="M229.1,298.7c-1.1-0.4-1.1-1.3-1.1-2.3c0-4.5,0.1-8.9,0-13.3c0-1.4,0.5-2,1.9-1.9c3.6,0.3,7.3,0.3,10.9,0.3
			c5.6,0.1,11-1.6,14-7c1.6-2.8,1.9-6,1.5-9.2c1.3-0.2,1.7,0.8,1.9,1.7c0.6,3,0.6,6-0.1,9.1c-0.5,2.1-2.3,3-3.8,4.1
			c-4.1,2.9-8.8,3.7-13.8,3.4c-2.9-0.2-5.8,0.1-8.7-0.1c-1.9-0.1-2.7,0.5-2.6,2.6C229.3,290.3,229.2,294.5,229.1,298.7z"/>
		<path class="st2" d="M359.7,297.2c-2.1-1.3-2.6-3.5-2.6-5.7c-0.1-10,0-20-0.1-30c0-2.6,2.4-3.2,3.6-4.8c0.4,2.1,2.2,0.4,3.1,1.3
			c-0.1,1-1,1.6-1.6,2c-2.6,1.4-2.7,3.5-2.6,6C359.6,276.4,359.6,286.8,359.7,297.2z"/>
		<path class="st75" d="M190.3,259.2c-12-2.9-20.8,2.9-19.8,12.6c-3.7-3.7-2.9-6.9,0.8-11.6C175,255.6,185.6,255.1,190.3,259.2z"/>
		<path class="st76" d="M285,260.8c-4-1-7.9-0.6-11.8,0.5c-1.3,0.4-2.3,0.9-2.2,2.6c0.1,4.4,0.1,8.8,0.2,13.2
			c0.4,0.2,0.3,0.4-0.1,0.5c-1.3,0.5-1.9,0.5-1.9-1.3c0.1-4.9,0.1-9.7,0-14.5c0-1.4,0.5-2.3,1.9-2.6s2.8-0.6,4.1-0.9
			c0.5-0.6,1-0.4,1.5-0.2C279.7,258.4,282.9,257.8,285,260.8z"/>
		<path class="st75" d="M298.9,271c-1,1.4,0.2,3.1-0.7,4.6c-0.2,0.4-0.1,0.8-0.4,1.1c-0.7-0.1-1.1,0.3-1.5,0.7
			c-2.4,2.6-5.3,4.2-8.4,5.5c-1,0.4-1.7,0.9-2.3-0.6c-0.5-1.4,0-1.8,1.3-2.3c2.9-1,5.4-2.9,7.5-5.1c2.7-2.8,3.8-6.2,2.8-10.4
			C299.4,266.6,299.8,268.6,298.9,271z"/>
		<path class="st75" d="M210.6,255.1c-3.1,6.2-6.3,12.5-9.6,19c-2.3-4.5,0.5-7.6,2.1-11.1C204.8,259.5,206.3,256,210.6,255.1z"/>
		<path class="st42" d="M272.7,300.7c-2.4-1.1-3.7-2.7-3.5-5.5c0.2-3.1,0.1-6.1,0.1-9.2c0-1.1,0.1-2.2,1.2-2.6c2.5-0.8,5-1,7.5-0.6
			c1.1,0.2,1.4,1.3,1.3,2.5c-2.1,0-4.2-0.3-6.3,0.3c-1.3,0.4-1.9,1-1.9,2.5c0.1,3.1,0.2,6.2,0,9.4
			C270.9,299,272.1,299.6,272.7,300.7z"/>
		<path class="st76" d="M212.7,304.2c0.7-0.2,1.3-0.6,2.1-0.5c5.4,0.1,10.7,0.2,16.1,0.1c2.2-0.1,3.8,0.3,5,2.5
			c-6.8,0-13.5,0-20.3,0c-0.3-0.8,0.8-0.8,0.8-1.6C215.4,304,214,304.4,212.7,304.2C212.7,304.2,212.7,304.2,212.7,304.2z"/>
		<path class="st0" d="M451.3,270c-3.4-2.5-3.6-5-0.7-7.9c3.6-3.6,11.5-3.4,14.9,0.2c-2.8-0.8-5.5-1-8.3-0.2
			C452.8,263.5,451.3,265.5,451.3,270z"/>
		<path class="st77" d="M435,264.4c1-1.9,2-3.9,3.1-5.8c0.8-1.4,4-1.3,5,0.1c0.2,0.3,0.3,0.4,0.1,0.7c-1.1,1.6-1.6,3.8-2.8,5
			c-1.6,1.5-2.3,3.4-3.7,5.5C436.5,267.7,434.1,266.6,435,264.4L435,264.4z"/>
		<path class="st78" d="M423.7,303.7c0.8-0.1,1.7-0.1,2.5-0.2c0.5,0.8,0.5,1.9,1.6,2.5c-6.5,0-13,0-19.8,0c0.6-0.7,1.1-1.2,1.7-1.7
			c-0.1-0.5,0.2-0.8,0.7-0.8C414.9,303.6,419.3,303.3,423.7,303.7z"/>
		<path class="st74" d="M397.1,264.9c0.3-0.2,0.8-0.2,0.9-0.4c2.1-5.5,6.8-4.2,11-4.2c1.5,0,0.9,1.2,1,2.1c-0.2,0.3-0.5,0.3-0.7,0.1
			c-6-0.2-6.7,0.4-9.9,8.1C399,268.3,396.5,267.3,397.1,264.9z"/>
		<path class="st75" d="M288,309.8c0.6-1.3,1.9-1.5,3.1-1.9c3.2-1.2,6.2-2.8,9.7-3.1c0.3,0.9,1.3,1.2,1.9,2.1c-4.4,1.7-8.9,3-13,5.4
			C289.3,311.4,290,309.6,288,309.8z"/>
		<path class="st23" d="M471.8,268c1-2.9,2.6-5.4,4.6-7.7c1.6,1.2,2.6-0.6,4.2-0.8c-2.5,4.1-4.8,8.2-7.2,12.2
			C472.4,270.5,473.8,268.5,471.8,268z"/>
		<path class="st79" d="M272.7,303.7c0.6,0.1,1.3-0.2,1.6,0.5c0,0.8,0.9,0.8,1.3,1.6c-6.1,0-12.2,0-18.3,0c-0.3-0.9,1.1-0.8,1-1.5
			c-0.1-0.5,0.2-0.8,0.7-0.8C263.6,303.6,268.2,303.2,272.7,303.7z"/>
		<path class="st2" d="M167.1,288c4.4,0.2,23,7,25.9,9.5C184.8,293.8,175.5,293,167.1,288z"/>
		<path class="st42" d="M455.4,281.7c3.3,0.9,6.7,1.6,9.7,3.1c0.8,0.4,1.6,0.8,2.1,1.6c-5.6-2-11.6-2.8-17.7-5.4
			C452.1,280.3,453.7,281.4,455.4,281.7z"/>
		<path class="st76" d="M211.7,283.4c1.4-2.1,3.9-2.2,5.9-2.5c1.4-0.2,0.7,1.8,0.8,2.8c-0.2,0.2-0.3,0.2-0.5,0
			c-2.1-0.5-3.5,1.5-5.4,1.6c-0.4-1,0.9-1.4,0.6-2.5C212.6,283.2,212.2,283.3,211.7,283.4z"/>
		<path class="st80" d="M423.7,303.7c-3.6,0.1-7.3,0.1-11,0.2c-1,0-2-0.2-3,0.5c-2.7,0-5.4,0-8.2,0c0.2-1.2,0.9-1.5,1.7-1.6
			c0.1,1.6,1.3,0.9,2,0.9C411.5,303.4,417.6,303.2,423.7,303.7z"/>
		<path class="st66" d="M345.9,259.2c1.5,0.3,1,1.6,1,2.5c0.1,8.5,0.1,17.1,0.1,25.7c-1.1-0.6-0.6-1.7-0.6-2.5
			c-0.1-7.5-0.1-15,0-22.5C346.4,261.3,346.5,260.2,345.9,259.2z"/>
		<path class="st38" d="M272.7,303.7c-3.8,0.1-7.6,0.1-11.4,0.2c-1,0-2-0.2-3,0.5c-2.4,0-4.7,0-7.2,0c0.2-1.2,1-1.3,1.6-1.6
			c0.3,1.6,1.5,0.9,2.5,0.9C261.1,303.4,266.9,303.2,272.7,303.7z"/>
		<path class="st81" d="M166.7,311.1c-2.5-2.8-1.9-6.1-3.3-8.7C166.1,304.6,165.5,307.8,166.7,311.1z"/>
		<path class="st76" d="M259.5,284.8c-0.3,0.7,0.2,1.6-0.7,2.2c-0.8-0.3-2.6,0.7-1.9-1.6c0.3-0.8-1-0.2-1.4-1
			C256.9,284.3,258.2,283.9,259.5,284.8z"/>
		<path class="st82" d="M444.2,301.2c-1.4,0.3-3-0.4-4,1.1c-1.6-1.3-3.2,0-4.8,0.3C438,300.4,441.1,300.5,444.2,301.2z"/>
		<path class="st83" d="M295.7,261.6c-1.2-1.2-2.5-2.4-3.7-3.5C293.9,258.5,295,259.8,295.7,261.6z"/>
		<path class="st50" d="M450.3,296.2c1.6,0.7,3.2,1.4,4.8,2.1C453.2,298.3,451.6,297.7,450.3,296.2z"/>
		<path class="st84" d="M259.3,279.3c0-5.5,0-11,0-16.4c-0.2-0.3-0.2-0.5,0.1-0.6c0.2,0.3,0.5,0.5,0.5,0.8
			c0.1,5.1,0.1,10.3,0.1,15.4C259.9,278.9,259.7,279.2,259.3,279.3z"/>
		<path class="st74" d="M326.9,262.3c-6-0.3-11.1,1.4-14,7.2c-1.6,3.2-2,6.8-2.3,10.3c-0.3,4.5,0.3,8.8,1,13.2
			c-2.2-2.6-2.6-5.9-2.8-9c-0.5-5.6-0.3-11.2,1.9-16.5c2.5-6,9.7-8.9,15.5-6.1C326.5,261.6,326.7,262,326.9,262.3z"/>
		<path class="st20" d="M332,284.4c0-3.6,0.1-7.2,0.1-10.7C332.9,277.2,332.9,280.8,332,284.4z"/>
		<path class="st75" d="M228.1,261.3c0.2-0.6,0.5-1.1,1.2-1.1c3.6,0,7.2-0.3,10.6,0.7c1.2,0.3,2.2,0.9,2.8,2.3
			c-3.9-1.4-7.8-0.7-11.7-0.9c-1.1-0.1-1.5,0.4-1.5,1.5c0.1,3.4,0.1,6.8,0,10.2c0,1.3,0.5,1.6,1.6,1.6c2.5-0.1,4.9,0,7.4,0.5
			c-3.2,0-6.4,0-9.7,0c-0.7,0-0.8-0.5-0.9-1C227.7,270.5,227.8,265.9,228.1,261.3z"/>
		<path class="st85" d="M244.3,272.1c0.6-2.3,0.2-4.4-0.1-6.6C245.4,267.7,245.3,269.9,244.3,272.1z"/>
	</g>
	<path d="M207,253.7c-2.8,5.7-5.7,11.5-9,17.8c-0.4-1.9-0.5-3.4-0.9-4.7c-3.2-10.7-17.6-14.8-26-7.4c-4.8,4.2-4.5,11.7,0.6,15.5
		c4.9,3.5,10.7,4.6,16.2,6.4c4.3,1.5,8.6,3.1,12.7,5.1c6,3.1,9,8.3,9.1,15.1c0.2,14.7-8.5,22.7-22.5,24.2c-6,0.6-11.3-1.6-16.9-3
		c-3-0.7-5.9-1.4-9-1.7c-2.9-0.3-5.8-0.1-8.8-0.1c3.1-6,6.3-12.3,9.8-19c0.7,5.2,2.2,9.6,5.9,12.8c6.8,5.8,14.5,8,23.2,5.4
		c9.5-2.8,11.5-12.6,5.6-20.2c-2.8-3.6-6.8-5.6-11.1-7c-5.1-1.7-10.2-3-15.3-4.9c-11.4-4.2-14.7-10.2-11.7-23.3
		c1.8-8.1,9.1-13.5,17.6-14.3c6.2-0.6,11.9,0.7,17.7,2.9c2.3,0.9,4.7,1.5,7.1,1.6C203.3,255.1,205.1,254.2,207,253.7z"/>
	<path d="M260.4,283.8c-2.1,0-3.8,0-5.8,0c0.5-1.3,0.8-2.3,1.2-3.5c1.6-0.1,3.1-0.2,5-0.3c0-5.7,0.1-11.4-0.1-16.9
		c-0.1-0.9-1.7-1.7-2.8-2.7c2.7-1.9,6.1-3.3,9.8-4c6.6-1.4,13.2-1.3,19.6,0.8c4.5,1.4,8.4,3.7,9.1,9.2c0.5,3.8-1,6.9-3.8,9.1
		c-2.6,2-5.5,3.5-8.6,5.5c3.7,8.4,8.4,16.4,15.8,22.8c-4.2,1.6-8.2,3.2-12.1,4.7c-1.7-6.2-3.4-12.5-5.2-18.8
		c-0.2-0.7-0.4-1.3-0.7-1.9c-1-1.8-1.7-4.9-3-5.2c-2.8-0.6-6,0.1-9,0.5c-0.5,0.1-1.1,1.2-1.2,1.8c-0.1,4.2-0.2,8.3,0,12.5
		c0.1,0.9,0.8,1.8,1.4,2.5c0.8,0.9,1.8,1.7,3.2,2.9c-6.4,0-12.1,0-18.2,0c0.4-0.4,0.5-0.7,0.8-0.8c4.2-1.9,5.2-5.2,4.7-9.6
		C260.2,289.8,260.4,287,260.4,283.8z M268.5,279.1c5.3-0.3,10.1-1.3,14.4-4c3.8-2.5,5.8-5.9,5-10.6c-0.6-3.5-2.9-5.5-6.2-6.3
		c-4.1-1-8.1-0.5-12,1c-0.6,0.2-1.3,1.1-1.3,1.6C268.5,266.8,268.5,272.9,268.5,279.1z"/>
	<path d="M321,303.4c-12.8,0-21-8.2-21.8-21.2c-0.3-4.8-0.3-9.3,1.5-13.7c3.4-8.2,10.2-11.6,18.5-12.2c12.8-0.9,22.4,8,22.6,20.9
		c0.1,4,0,8.2-1,12C338.4,298.4,331,303.4,321,303.4z M307.3,278.7c0.6,4.2,0.8,7.8,1.6,11.2c1.1,4.6,3.6,8.4,8.4,9.7
		c6.3,1.8,11.8-1.2,14.1-8c2.7-7.6,2.7-15.4,0.6-23c-1.5-5.4-5.1-8.6-9.4-8.8c-6.3-0.3-11.1,2.4-13.1,8.1
		C308.5,271.5,308,275.4,307.3,278.7z"/>
	<path d="M227.1,280.8c0,5.8-0.1,11.5,0.1,17c0,0.6,0.8,1.4,1.5,1.8c1.6,1.1,3.2,2.1,5.4,3.5c-7,0-13.4,0-20.2,0
		c1.3-1.1,2.2-2.1,3.4-2.8c1.9-1.1,2.4-2.6,2.3-4.7c-0.2-5.1-0.1-10.2-0.1-15.9c-3,0.8-5.6,1.5-8.1,2.2c0.2-1.5,0.9-2.2,3.4-3.2
		c1.5-0.7,3.7-0.9,4.5-2.1s0.2-3.3,0.2-5c0-2.5,0-5,0-7.4c0-3.2-0.9-6-3.9-8.5c1.9,0.2,3.2,0.4,4.6,0.4c7.2,0.2,14.5,0.3,21.7,0.4
		c5.7,0.1,12,4.5,13.3,9.2c1.9,7.3-3.4,13.3-9.3,14.5c-2.8,0.6-5.7,0.5-8.6,0.6C234,280.8,230.8,280.8,227.1,280.8z M227.6,277
		c0.4,0.1,0.6,0.3,0.8,0.3c3.2,0,6.4,0.1,9.7,0c4.5-0.2,7.2-2.5,7.7-6.3c0.7-5.1-1.7-9.8-5.8-10.5c-4-0.7-8.2-0.6-12.4-0.8
		C227.6,265.8,227.6,271.3,227.6,277z"/>
	<path d="M476.6,257.6c-2.3,4-4.4,7.5-6.7,11.4c-0.5-5-3-7.8-7.2-9.2c-4.3-1.5-8.5-1.3-12.3,1.4c-4,2.9-3.8,8,0.7,10.1
		c3.7,1.7,7.7,2.6,11.5,3.9c3.4,1.2,6.8,2.1,10,3.6c9,4.2,6.5,16.8,0.7,20.8c-5.5,3.8-11.7,4.5-18,3.3c-4.4-0.8-8.6-1.9-12.9-2.6
		c-1.8-0.3-3.8,0.2-6,0.3c2.5-4.2,4.9-8.2,7.5-12.6c0.4,3.7,1.7,6.7,4.4,8.4c2.6,1.6,5.5,3,8.5,3.7c3.5,0.9,7.1,0.7,10.4-1
		c5.8-2.8,5.8-8.7,1.9-12.1c-2.5-2.2-5.9-3.5-9.1-4.8c-3.4-1.3-7-2-10.5-3c-6.3-1.9-8.9-4.9-8.9-9.9c0-6.3,3.2-10.9,9-12.7
		c5.5-1.7,11.1-1.5,16.5,0.4C469.5,258.2,472.8,259.1,476.6,257.6z"/>
	<path d="M360.3,255.8c-0.4,0.5-0.5,0.8-0.7,0.9c-3.6,2-3.5,5.3-3.4,8.8c0.2,8.5,0.1,17,0.1,25.6c0,5.7,2.7,8.5,8.4,8.6
		c0.8,0,1.5,0,2.3,0c7.4,0,10.5-2.9,10.7-10.2c0.2-9.4,0.1-18.7,0-28.1c0-0.9-0.6-1.9-1.3-2.5c-1.1-1.1-2.5-1.9-4.2-3.2
		c5.5,0,10.4,0,15.6,0c-0.3,0.4-0.3,0.7-0.5,0.8c-4.4,1.9-4.7,5.5-4.6,9.6c0.3,7.6,0.1,15.2,0.1,22.8c0,9-4.9,14.1-13.9,14.3
		c-2.9,0.1-5.8,0-8.6-0.5c-8.2-1.3-11.9-5.8-12.1-14.1c-0.3-8.3-0.2-16.7,0-25c0.1-2.9-0.9-4.9-3.1-6.4c-0.4-0.3-0.9-0.5-1.3-0.8
		c0.1-0.2,0.3-0.4,0.4-0.6C349.3,255.8,354.7,255.8,360.3,255.8z"/>
	<path d="M438.4,255.9c-1.8,3.6-3.5,7-5.5,10.9c-2.3-7.8-8.1-7.5-14.3-6.9c-0.1,0.8-0.2,1.6-0.2,2.4c0,10.9,0.1,21.7-0.1,32.5
		c-0.1,2.5,0.4,4.5,2.7,5.8c0.9,0.5,1.5,1.3,2.7,2.3c-6.4,0-12.3,0-18.9,0c1.7-1.3,3.1-2.3,4.4-3.5c0.8-0.8,1.6-1.9,1.6-2.9
		c0.1-11.8,0.1-23.5,0.1-35.3c0-0.4-0.1-0.8-0.2-1.2c-10.3-0.6-10.9-1.6-15,7.1c-1.6-3.7-3.2-7.4-4.9-11.2
		C406.7,255.9,422.3,255.9,438.4,255.9z"/>
</g>
</svg>
