<?xml version="1.0" encoding="utf-8"?>
<!-- Generator: Adobe Illustrator 20.1.0, SVG Export Plug-In . SVG Version: 6.00 Build 0)  -->
<svg version="1.1" id="Layer_1" xmlns="http://www.w3.org/2000/svg" xmlns:xlink="http://www.w3.org/1999/xlink" x="0px" y="0px"
	 viewBox="0 0 385 385" style="enable-background:new 0 0 385 385;" xml:space="preserve">
<g>
	<path d="M85.4,208c-0.5-0.7-0.9-1.2-1.3-1.7c-5.2-7.2-9.3-14.9-11.6-23.5c-1.9-7.3-2.2-14.6,0.1-21.9c1.4-4.6,3.7-8.7,6.9-12.3
		c3.4-4,7.8-6.4,12.8-7.7c8.2-2.2,16.5-1.9,24.6,0.5c0.9,0.3,1.8,0.7,2.6,1.1c0.3,0.1,0.5,0.4,0.9,0.6c-0.2,0.4-0.4,0.8-0.6,1.2
		c-11.2,20.8-22.3,41.5-33.5,62.3c-4.8,8.9-9.5,17.9-14.2,26.9c-1.9,3.7-4.8,6.2-9,6.9c-6.8,1.2-12.3-1.5-15.3-7.2
		c-15.6-29.8-31.2-59.5-46.7-89.3c-0.4-0.7-0.7-1.4-1.2-2.3c0.5-0.1,0.8-0.2,1.2-0.2c7.4,0,14.8-0.1,22.2,0
		c9.1,0.1,16.8,3.6,23,10.3c3.4,3.6,5.9,7.8,8.2,12.3c4.5,9,9.1,18,13.8,26.9c2,3.8,4.3,7.5,7,10.8c1.5,1.8,3,3.4,4.9,4.8
		c1.2,0.8,2.4,1.5,3.9,1.8C84.5,208.1,84.8,208,85.4,208z"/>
	<path d="M308.5,184.4c-2.3,0-4.4,0-6.6,0c0-0.6-0.1-1.2-0.1-1.7c0-6.4,0-12.7,0-19.1c0-1.5-0.1-3-0.2-4.8c1.4-0.5,2.8-1,4.3-1.4
		c2.7-0.7,5.4-1.3,8.2-1.3c3,0,5.8,0.3,8.2,2.5c2-1,3.9-1.9,6.1-2.2c2-0.3,4.1-0.4,6.1,0.1c3.4,0.8,5.4,3,6.2,6.3
		c0.2,0.9,0.3,1.8,0.3,2.7c0,6,0,12,0,17.9c0,0.3,0,0.6,0,1c-2.2,0-4.3,0-6.6,0c0-0.5-0.1-1-0.1-1.5c0-5,0-10,0-15.1
		c0-0.7,0-1.4-0.1-2.1c-0.3-1.9-1.4-3.1-3.3-3.5c-1.8-0.4-3.9,0-6.1,1.3c0,6.9,0,13.9,0,20.9c-2.2,0-4.3,0-6.6,0c0-0.5,0-1,0-1.5
		c0-5.1,0-10.2,0-15.4c0-4.2-2.3-6-6.4-5.3c-0.7,0.1-1.4,0.3-2.1,0.5c-0.4,0.1-0.7,0.3-1.1,0.5C308.5,170.2,308.5,177.2,308.5,184.4
		z"/>
	<path d="M228.7,146.5c2.4,0,4.6,0,6.8,0c0.1,0,0.3,0.1,0.6,0.2c-5.1,12.7-10.2,25.4-15.2,38.1c-3.5,0.4-6.9-1.7-8.3-5.2
		c-1.8-4.4-3.6-8.8-5.4-13.3c-2.5-6.1-5-12.1-7.4-18.2c-0.2-0.5-0.4-1-0.7-1.7c1.4,0,2.6,0,3.9,0c1.2,0,2.5,0,3.9,0
		c3.9,9.3,7.5,18.7,11.5,28.3C221.8,165.2,225.2,155.9,228.7,146.5z"/>
	<path d="M276.6,163.5c-0.7-1.6-1.5-3.2-2.2-4.9c0.3-0.2,0.6-0.4,0.9-0.5c3.9-1.6,7.9-2.3,12.1-1.9c1.2,0.1,2.4,0.4,3.4,0.9
		c3.3,1.4,4.8,4.1,4.9,7.6c0.1,4.5,0,9,0,13.5c0,1.5,0.2,3,0.2,4.7c-1.1,0.3-2.2,0.6-3.4,0.9c-3.6,0.9-7.2,1.5-10.9,1
		c-2.2-0.3-4.3-0.9-6.2-2c-5-2.8-4.7-10.4,0.2-13.1c2.1-1.1,4.3-1.7,6.6-2.2c1.3-0.3,2.5-0.5,3.8-0.9c0.6-0.2,1.3-0.4,1.8-0.7
		c1.5-0.9,1.5-2.7-0.1-3.5c-0.8-0.4-1.7-0.6-2.6-0.6c-2.4-0.2-4.7,0.3-6.9,1.1C277.7,163.2,277.2,163.3,276.6,163.5z M288.9,171.3
		c-1.6,0.4-3,0.8-4.4,1.2c-1.2,0.3-2.4,0.7-3.5,1.1c-1.2,0.5-1.8,1.4-1.7,2.7c0.1,1.4,0.8,2.2,2.1,2.6c2.6,0.8,5.2,0.4,7.6-0.3
		C288.9,176.2,288.9,173.7,288.9,171.3z"/>
	<path d="M360.5,158.9c5.4-2,10.8-3.5,16.7-2.4c0.7,0.1,1.5,0.3,2.2,0.6c3.4,1.2,5.1,3.7,5.6,7.2c0.1,0.7,0.1,1.3,0.1,2
		c0,5.5,0,11.1,0,16.6c0,0.5,0,0.9-0.1,1.5c-2.2,0-4.3,0-6.5,0c0-0.5-0.1-1-0.1-1.5c0-5,0-10,0-15.1c0-4.2-2.3-6.2-6.5-5.7
		c-0.9,0.1-1.9,0.3-2.8,0.6c-0.5,0.1-1.1,0.4-1.6,0.6c0,7,0,14,0,21c-1.1,0.4-2.2,0.2-3.3,0.2c-1,0-2.1,0-3.3,0
		c0-0.6-0.1-1.2-0.1-1.7c0-5.9,0-11.8,0-17.6C360.7,163.1,360.6,161.1,360.5,158.9z"/>
	<path d="M253,162.6c-1.1-0.1-2.1-0.2-3-0.3c0-0.3-0.1-0.6-0.1-0.9c0-1.4,0-2.8,0-4.3c1.1-0.1,2-0.2,3.2-0.3c0-2.5,0-5,0-7.5
		c2.3,0,4.4,0,6.7,0c0,2.5,0,4.9,0,7.5c2.6,0,5.1,0,7.7,0c0,2,0,3.8,0,5.8c-2.5,0-5,0-7.6,0c0,0.5-0.1,0.9-0.1,1.3
		c0,4.4,0,8.7,0,13.1c0,0.2,0,0.4,0,0.6c0.1,1.4,0.7,2.1,2.1,2.1c1.2,0,2.4-0.3,3.5-0.5c0.6-0.1,1.1-0.3,1.8-0.5
		c0.6,1.8,1.2,3.5,1.8,5.4c-3.4,1.2-6.6,2-10.1,1.4c-3.5-0.7-5.5-2.9-5.9-6.4c-0.1-0.6-0.1-1.2-0.1-1.9c0-4.2,0-8.4,0-12.6
		C253,163.8,253,163.3,253,162.6z"/>
	<path d="M218.5,232.7c0,4.4,0,8.7,0,12.9c-1.2,0-2.2,0-3.3,0c0-0.6-0.1-1.2-0.1-1.8c0-10.7,0-21.3,0-32c0-1.6-0.1-3.2-0.2-4.9
		c4.2-1.6,8.5-2.6,13-1.5c4.2,1.1,7,3.8,8.4,7.9c1.5,4.2,1.4,8.4-0.2,12.5c-2.6,6.6-9.1,9.6-16,7.5
		C219.7,233.1,219.3,233,218.5,232.7z M218.5,209c0,6.4,0,12.5,0,18.7c0,0.3,0,0.7,0,1c-0.1,0.6,0.2,1,0.8,1.2
		c0.9,0.3,1.8,0.7,2.7,0.8c4.5,0.7,8.5-0.8,10.3-5.2c1.6-4,1.6-8,0.1-12c-0.9-2.2-2.4-3.9-4.7-4.8
		C224.7,207.5,221.6,207.9,218.5,209z"/>
	<path d="M242,206.9c3.6-1.5,7.3-2.3,11.1-1.9c5.1,0.6,8.6,3.4,10.3,8.3c1.4,3.9,1.4,7.8,0.1,11.7c-2.5,7.4-9.3,10.3-16.3,8.2
		c-0.5-0.1-0.9-0.3-1.6-0.5c0,2.2,0,4.4,0,6.5c0,2.1,0,4.2,0,6.4c-1.1,0-2.2,0-3.4,0c0-0.5-0.1-1.1-0.1-1.6c0-10.9,0-21.8,0-32.7
		C242.2,209.9,242.1,208.5,242,206.9z M245.7,229.7c1,0.3,2,0.7,3,1c5.3,1.3,9.8-1.4,11.3-6.6c0.9-3.1,0.9-6.2,0-9.3
		c-0.7-2.5-2.1-4.6-4.6-5.8c-3.2-1.5-6.5-1.1-9.7,0.1C245.7,215.8,245.7,222.6,245.7,229.7z"/>
	<path d="M161.4,233.2c-1.2,0-2.2,0-3.2,0c-0.3-1.1-0.3-39,0-40.5c0.3,0,0.6-0.1,0.9-0.1c0.7,0,1.4,0,2.3,0c0,4.7,0,9.4,0,14.2
		c0.6-0.2,1.1-0.4,1.5-0.5c2.6-1,5.2-1.5,8-1.4c4.8,0.2,7.8,2.9,8.4,7.7c0.1,0.5,0.1,1,0.1,1.6c0,5.9,0,11.8,0,17.6
		c0,0.4,0,0.7-0.1,1.2c-1.1,0-2.1,0-3.3,0c0-0.5-0.1-1-0.1-1.5c0-5.5,0-11,0-16.5c0-1.1-0.2-2.3-0.5-3.4c-0.6-2-2-3.2-4-3.6
		c-3.4-0.7-6.4,0.2-9.4,1.8c-0.3,0.1-0.4,0.6-0.5,0.9c-0.1,0.3,0,0.7,0,1c0,6.6,0,13.1,0,19.7C161.4,232.1,161.4,232.6,161.4,233.2z
		"/>
	<path d="M171.7,184.4c-1.1,0-2.1,0-3.3,0c0-0.6,0-1.1,0-1.6c0-5.3,0-10.5,0-15.8c0-1.2-0.1-2.5-0.4-3.7c-0.5-2.2-2-3.5-4.2-4
		c-3.5-0.7-6.7,0.4-9.8,2.1c0,7.6,0,15.2,0,22.9c-1.2,0-2.2,0-3.2,0c-0.3-1-0.4-38.4-0.1-40.5c0.5,0,1,0,1.5,0c0.5,0,1,0,1.7,0
		c0,4.8,0,9.4,0,14.3c0.7-0.3,1.2-0.5,1.7-0.6c3.2-1.2,6.6-1.8,10-1c3.6,0.8,5.8,3.3,6.2,7c0.1,0.8,0.1,1.5,0.1,2.3
		c0,5.7,0,11.5,0,17.2C171.8,183.4,171.7,183.9,171.7,184.4z"/>
	<path d="M151,196.4c-0.4,1.1-0.7,2-1.1,2.9c-1.6-0.4-3-0.8-4.5-1c-1.9-0.3-3.8-0.4-5.7,0.2c-3,0.8-4.6,3.1-4.5,6.2
		c0,1.6,0.7,2.9,1.9,3.9c1.1,0.9,2.2,1.6,3.4,2.3c1.6,0.9,3.3,1.7,4.9,2.6c1.6,1,3.1,2,4.5,3.2c4.3,3.9,3.9,12.5-2.5,15.7
		c-2.2,1.1-4.6,1.6-7.1,1.6c-2.9,0-5.8-0.4-8.6-1.4c-0.2-0.1-0.4-0.2-0.7-0.4c0.3-1,0.5-1.9,0.9-3c0.6,0.1,1.1,0.3,1.5,0.4
		c2.5,0.7,5,1.2,7.6,1.1c1.5-0.1,2.9-0.4,4.3-1.1c3.9-2.1,4.7-7.2,1.5-10.3c-1.1-1-2.4-1.9-3.7-2.6c-1.7-1-3.6-1.8-5.3-2.8
		c-1.5-0.9-3-2-4.2-3.2c-3.7-3.6-3.4-11.3,2.3-14.2c1.8-0.9,3.8-1.4,5.8-1.5C144.9,194.6,147.9,195.2,151,196.4z"/>
	<path d="M199.4,171.7c-6.2,0-12.5,0-18.7,0c-0.6,4.6,2.7,9,7.2,10.1c2.4,0.6,4.8,0.3,7.2-0.4c0.4-0.1,0.8-0.3,1.4-0.4
		c0.3,0.8,0.6,1.6,1,2.4c-1.3,0.8-2.7,1.1-4.1,1.4c-2.5,0.5-5.1,0.5-7.5-0.2c-4.5-1.4-7.1-4.5-8.4-8.9c-1.2-4.1-1-8.2,0.5-12.2
		c1.5-3.8,4-6.4,8.2-7.1c7-1.1,11.2,2.7,12.8,7.8C199.8,166.7,200,169.6,199.4,171.7z M196,168.6c-0.1-2.4-0.5-4.5-1.7-6.3
		c-2.3-3.5-7.4-4.3-10.5-1.5c-2.3,2-3,4.7-3.1,7.8C185.7,168.6,190.8,168.6,196,168.6z"/>
	<path d="M184,219.4c0.2-4.1,1.3-7.8,4.2-10.9c4.9-5.1,15.4-5.1,19.7,2.4c3.1,5.4,3.1,11.1,0.2,16.6c-2.4,4.6-7.2,6.9-12.5,6.3
		c-5.2-0.6-9.2-3.9-10.7-9.2C184.4,222.9,184.3,221.2,184,219.4z M206.3,219.6c0-2.3-0.3-4.5-1.3-6.5c-1.5-3.3-4.1-5.1-7.8-5.1
		c-3.6,0-6.4,1.6-7.9,4.9c-2,4.3-1.9,8.7,0,13.1c1.5,3.3,4.2,5,7.9,4.9c3.6,0,6.2-1.8,7.7-5C206,223.9,206.3,221.7,206.3,219.6z"/>
	<path d="M272.8,220.5c-0.2,6,3.9,10.3,9.7,10.4c2.1,0,4.1-0.4,6.2-1.1c0.3,0.8,0.6,1.5,1,2.4c-1.2,0.8-2.6,1.1-3.9,1.4
		c-2.5,0.5-4.9,0.6-7.4-0.1c-4-1.1-6.7-3.7-8.2-7.6c-1.8-4.7-1.7-9.5,0.3-14.1c1.5-3.6,4.8-7.2,11.2-6.7c4.4,0.3,8,3.2,9.5,7.8
		c0.8,2.5,1.1,5,0.6,7.8C285.3,220.5,279.1,220.5,272.8,220.5z M288,217.4c0.1-2.1-0.4-4.3-1.4-6c-2.5-4.1-8.1-4.7-11.4-1.2
		c-1.8,2-2.4,4.5-2.5,7.2C277.9,217.4,282.9,217.4,288,217.4z"/>
	<path d="M347.4,156.8c2.2,0,4.3,0,6.4,0c0.3,1.1,0.4,26,0.1,27.6c-2.1,0-4.2,0-6.5,0C347.4,175.2,347.4,166.1,347.4,156.8z"/>
	<path d="M245.1,184.4c-2.2,0-4.3,0-6.3,0c-0.3-1.1-0.4-24.4-0.1-27.4c1-0.3,2.1-0.1,3.2-0.2c1,0,2.1,0,3.1,0
		C245.3,157.9,245.4,181.3,245.1,184.4z"/>
	<path d="M136.2,159.7c0,0.6-0.1,1.1-0.1,1.5c0,5.6,0,11.2,0,16.8c0,0.4,0,0.9,0.1,1.3c0.3,1.7,1.4,2.8,3.1,2.7
		c1.5,0,2.9-0.4,4.4-0.7c0.4-0.1,0.7-0.2,1.2-0.3c0.3,0.9,0.5,1.8,0.8,2.7c-3,1.1-6,1.8-9.2,0.9c-2.1-0.6-3.3-2.1-3.7-4.2
		c-0.2-1-0.2-2-0.2-3c0-5.4,0-10.7,0-16.1c0-0.5,0-1,0-1.6c-1.1-0.1-2-0.1-3-0.2c0-0.9,0-1.7,0-2.6c0.9-0.1,1.9-0.1,3-0.2
		c0.1-2.5,0-4.9,0.1-7.5c1.1,0,2.2,0,3.3,0c0.4,1.2,0.1,2.4,0.2,3.6c0,1.2,0,2.5,0,3.9c2.8,0,5.5,0,8.2,0c0,1,0,1.9,0,2.9
		C141.7,159.7,139,159.7,136.2,159.7z"/>
	<path d="M241.7,152.7c-2.3,0-4-1.7-4-4c0-2.2,1.9-4,4.1-3.9c2.3,0,4.2,2,4.1,4.1C245.8,151.1,244,152.7,241.7,152.7z"/>
	<path d="M354.8,148.8c0,2.2-1.9,3.9-4.2,3.8c-2.3,0-4-1.7-4-4c0-2.2,1.8-4,4-4C352.9,144.8,354.8,146.7,354.8,148.8z"/>
	<path d="M82.9,230.4c0,0.9,0,1.8,0,2.8c-0.6-0.8-0.7-1.8-0.4-4.1c1.5-0.2,1.2,1.5,2,2c0.8-0.5,0.5-2.1,2.1-2c0,1.4,0.2,2.7-0.1,4.1
		c-0.6-0.5-0.4-1.1-0.4-1.5c0-0.5,0-0.9-0.3-1.4c-0.4,0.6-0.8,1.3-1.3,2.1c-0.5-0.8-0.8-1.4-1.2-2.1C83.1,230.4,83,230.4,82.9,230.4
		z"/>
	<path d="M79.9,229.8c-0.4-0.1-0.7-0.3-1.1-0.4c0-0.1,0-0.2,0-0.2c0.9,0,1.9,0,2.8,0c0,0.1,0,0.1,0.1,0.2c-0.3,0.2-0.7,0.3-1.2,0.5
		c0,1,0,2.1,0,3.2c-0.1,0-0.2,0-0.4,0C79.8,232.1,80.2,230.9,79.9,229.8z"/>
</g>
</svg>
