<?xml version="1.0" encoding="utf-8"?>
<!-- Generator: Adobe Illustrator 18.1.1, SVG Export Plug-In . SVG Version: 6.00 Build 0)  -->
<svg version="1.1" id="Layer_1" xmlns="http://www.w3.org/2000/svg" xmlns:xlink="http://www.w3.org/1999/xlink" x="0px" y="0px"
	 viewBox="0 0 72.7 57.6" enable-background="new 0 0 72.7 57.6" xml:space="preserve">
<path fill="#FFFFFF" stroke="#FFFFFF" stroke-miterlimit="10" d="M70.9,7.6c-2.5,1.1-5.2,1.9-8.1,2.2C65.7,8,68,5.3,69,2
	c-2.7,1.6-5.7,2.8-8.9,3.4C57.5,2.7,53.9,1,49.8,1c-7.8,0-14,6.3-14,14.1c0,1.1,0.1,2.2,0.4,3.2c-11.7-0.6-22.1-6.2-29-14.7
	C6,5.6,5.3,8,5.3,10.6c0,4.9,2.5,9.2,6.3,11.7c-2.3-0.1-4.5-0.7-6.4-1.8c0,0.1,0,0.1,0,0.2c0,6.8,4.8,12.5,11.3,13.8
	C15.3,34.8,14,35,12.8,35c-0.9,0-1.8-0.1-2.6-0.3c1.8,5.6,7,9.6,13.1,9.8c-4.8,3.8-10.9,6-17.5,6c-1.1,0-2.2-0.1-3.4-0.2
	c6.2,4,13.6,6.4,21.5,6.4c25.9,0,40-21.4,40-40c0-0.6,0-1.2,0-1.8C66.6,12.9,69,10.4,70.9,7.6z M62.5,13l-1,0.7l0.1,1.2
	c0,0.6,0,1.1,0,1.7c0,4.4-0.9,9-2.5,13.3c-1.7,4.5-4.1,8.6-7.3,12.2c-3.3,3.8-7.3,6.7-11.8,8.8c-4.9,2.3-10.3,3.4-16.2,3.4
	c-4.2,0-8.3-0.7-12.3-2.1c1.4-0.3,2.8-0.7,4.2-1.1c3.1-1.1,6.1-2.7,8.7-4.8l5.1-4l-6.5-0.1c-3.8-0.1-7.2-1.9-9.3-4.9
	C15,37.2,16,37,17,36.8l8.8-2.9l-9-1.6c-4.3-0.9-7.7-4-8.9-8.1c1.1,0.3,2.2,0.4,3.5,0.5c0,0,4.6,0.2,8.1,0c-1.9-0.9-6.7-4.2-6.7-4.2
	c-3.3-2.2-5.2-5.8-5.2-9.8c0-0.9,0.1-1.9,0.3-2.8c3.2,3.3,6.8,6,10.9,8.1c5.4,2.8,11.2,4.3,17.2,4.6l3.1,0.2l-0.7-3
	c-0.2-0.9-0.3-1.8-0.3-2.7c0-6.4,5.3-11.7,11.7-11.7c3.2,0,6.4,1.3,8.6,3.7l0.9,0.9l1.3-0.2c0.7-0.1,1.3-0.3,1.9-0.4
	c-0.1,0.2-0.8,0.9-1.6,1.6c-0.7,0.6-2.6,2.4-2.6,2.4s1.9,0.6,3.1,0.7c1.2,0.1,2.5-0.1,2.7-0.1C63.7,12.2,63,12.7,62.5,13z"/>
</svg>
