<?xml version="1.0" encoding="utf-8"?>
<!-- Generator: Adobe Illustrator 18.1.1, SVG Export Plug-In . SVG Version: 6.00 Build 0)  -->
<svg version="1.1" id="Layer_1" xmlns="http://www.w3.org/2000/svg" xmlns:xlink="http://www.w3.org/1999/xlink" x="0px" y="0px"
	 viewBox="0 0 200 200" enable-background="new 0 0 200 200" xml:space="preserve">
<path fill="#5D0E8B" stroke="#5D0E8B" stroke-miterlimit="10" d="M195,41.7c-6.9,3-14.3,5.2-22.3,6.1c8-5,14.3-12.4,17.1-21.5
	c-7.4,4.4-15.7,7.7-24.5,9.4c-7.2-7.4-17.1-12.1-28.3-12.1c-21.5,0-38.5,17.3-38.5,38.8c0,3,0.3,6.1,1.1,8.8
	c-32.2-1.7-60.8-17.1-79.8-40.4c-3.3,5.5-5.2,12.1-5.2,19.3c0,13.5,6.9,25.3,17.3,32.2c-6.3-0.3-12.4-1.9-17.6-5c0,0.3,0,0.3,0,0.6
	c0,18.7,13.2,34.4,31.1,38c-3.3,0.8-6.9,1.4-10.2,1.4c-2.5,0-5-0.3-7.2-0.8c5,15.4,19.3,26.4,36,27c-13.2,10.5-30,16.5-48.1,16.5
	c-3,0-6.1-0.3-9.4-0.6c17.1,11,37.4,17.6,59.1,17.6c71.3,0,110-58.9,110-110c0-1.7,0-3.3,0-5C183.2,56.3,189.8,49.4,195,41.7z
	 M171.9,56.5l-2.8,1.9l0.3,3.3c0,1.7,0,3,0,4.7c0,12.1-2.5,24.8-6.9,36.6c-4.7,12.4-11.3,23.7-20.1,33.6
	c-9.1,10.5-20.1,18.4-32.5,24.2c-13.5,6.3-28.3,9.4-44.6,9.4c-11.6,0-22.8-1.9-33.8-5.8c3.9-0.8,7.7-1.9,11.6-3
	c8.5-3,16.8-7.4,23.9-13.2l14-11l-17.9-0.3c-10.5-0.3-19.8-5.2-25.6-13.5c3.6-0.3,6.3-0.8,9.1-1.4l24.2-8l-24.8-4.4
	c-11.8-2.5-21.2-11-24.5-22.3c3,0.8,6.1,1.1,9.6,1.4c0,0,12.7,0.6,22.3,0c-5.2-2.5-18.4-11.6-18.4-11.6c-9.1-6.1-14.3-16-14.3-27
	c0-2.5,0.3-5.2,0.8-7.7c8.8,9.1,18.7,16.5,30,22.3C66.6,72.5,82.5,76.6,99,77.4l8.5,0.6l-1.9-8.3c-0.6-2.5-0.8-5-0.8-7.4
	c0-17.6,14.6-32.2,32.2-32.2c8.8,0,17.6,3.6,23.7,10.2l2.5,2.5l3.6-0.6c1.9-0.3,3.6-0.8,5.2-1.1c-0.3,0.6-2.2,2.5-4.4,4.4
	c-1.9,1.7-7.2,6.6-7.2,6.6s5.2,1.7,8.5,1.9c3.3,0.3,6.9-0.3,7.4-0.3C175.2,54.3,173.3,55.7,171.9,56.5z"/>
</svg>
