<svg version="1.1" id="twitter" xmlns="http://www.w3.org/2000/svg" xmlns:xlink="http://www.w3.org/1999/xlink" x="0px" y="0px" viewBox="156 -224 512 512" enable-background="new 156 -224 512 512" xml:space="preserve" width="12px" height="12px">
            <path fill="#FFFFFF" stroke="#000000" stroke-width="17" stroke-linecap="round" stroke-linejoin="round" stroke-miterlimit="10" d="
              M648-114.5c-17.4,7.7-36,12.9-55.6,15.3c20-12,35.4-31,42.6-53.6c-18.7,11.1-39.4,19.2-61.5,23.5c-17.7-18.9-43-30.7-70.7-30.7
              c-53.5,0-96.8,43.4-96.8,96.9c0,7.6,0.8,15,2.5,22.1c-80.5-4-152-42.6-199.7-101.3c-8.3,14.3-13.1,31-13.1,48.7
              c0,33.6,17.1,63.3,43.1,80.7C223-13.3,208-17.7,195-25c0,0.4,0,0.8,0,1.2c0,47,33.4,86.1,77.7,95c-8.1,2.2-16.7,3.4-25.5,3.4
              c-6.2,0-12.3-0.6-18.2-1.8c12.3,38.5,48.1,66.5,90.5,67.3c-33.1,26-74.9,41.5-120.3,41.5c-7.8,0-15.5-0.5-23.1-1.4
              C218.8,208,269.7,224,324.3,224C502.5,224,600,76.3,600-51.8c0-4.2-0.1-8.4-0.3-12.5C618.5-78,635-95,648-114.5z"/>
            <path d="M648-114.5c-17.4,7.7-36,12.9-55.6,15.3c20-12,35.4-31,42.6-53.6c-18.7,11.1-39.4,19.2-61.5,23.5
              c-17.7-18.9-43-30.7-70.7-30.7c-53.5,0-96.8,43.4-96.8,96.9c0,7.6,0.8,15,2.5,22.1c-80.5-4-152-42.6-199.7-101.3
              c-8.3,14.3-13.1,31-13.1,48.7c0,33.6,17.1,63.3,43.1,80.7C223-13.3,208-17.7,195-25c0,0.4,0,0.8,0,1.2c0,47,33.4,86.1,77.7,95
              c-8.1,2.2-16.7,3.4-25.5,3.4c-6.2,0-12.3-0.6-18.2-1.8c12.3,38.5,48.1,66.5,90.5,67.3c-33.1,26-74.9,41.5-120.3,41.5
              c-7.8,0-15.5-0.5-23.1-1.4C218.8,208,269.7,224,324.3,224C502.5,224,600,76.3,600-51.8c0-4.2-0.1-8.4-0.3-12.5
              C618.5-78,635-95,648-114.5z M590.2-77.3l-7,5.1l0.4,8.6c0.2,3.8,0.3,7.8,0.3,11.8c0,30.2-5.9,61.8-17,91.5
              c-11.7,31.2-28.5,59.4-50,83.8c-23,26.1-50.2,46.5-81.1,60.8c-33.8,15.7-71.3,23.6-111.5,23.6c-28.9,0-57.4-4.8-84.5-14.2
              c9.9-1.9,19.6-4.6,29.1-7.9c21.7-7.6,41.9-18.7,60.1-33l35.3-27.7l-44.9-0.8c-26.1-0.5-49.7-13.4-64.3-33.9
              c7.3-0.5,14.5-1.8,21.5-3.7l60.7-20.2l-61.7-10.9c-29.6-5.9-52.8-27.9-61.3-55.8c7.8,2,15.4,2.8,23.9,3.3c0,0,31.8,1.4,55.8-0.1
              c-13-6.2-46.4-29.2-46.4-29.2c-22.5-15.1-36-40.2-36-67.4c0-6.4,0.8-12.8,2.2-19c21.9,22.4,47,41.1,75.1,55.5
              c37,19.1,76.9,29.8,118.6,31.9l21.2,1.1l-4.8-20.7c-1.4-5.9-2.1-12.1-2.1-18.5c0-44.4,36.3-80.7,80.9-80.7c22.3,0,43.8,9.3,59,25.6
              l6.1,6.5l8.7-1.7c4.5-0.9,8.9-1.9,13.3-3.1c-1,1.4-5.7,6.1-11,10.8c-4.5,4-17.8,16.5-17.8,16.5s13,4.1,21.1,5
              c8.1,0.9,17.4-0.6,18.9-0.8C598.2-82.9,593.2-79.4,590.2-77.3z"/>
          </svg>
