<?xml version="1.0" encoding="utf-8"?>
<!-- Generator: Adobe Illustrator 19.1.0, SVG Export Plug-In . SVG Version: 6.00 Build 0)  -->
<svg version="1.1" id="Layer_1" xmlns="http://www.w3.org/2000/svg" xmlns:xlink="http://www.w3.org/1999/xlink" x="0px" y="0px"
	 viewBox="1255.8 87.8 385 385" style="enable-background:new 1255.8 87.8 385 385;" xml:space="preserve">
<g>
	<path d="M1543.2,353.2c0-48.6,0-97.1,0-145.6c-10.9,0-21.8,0-32.7,0c0,27.9,0,55.6,0,83.4c-0.1,0-0.1,0-0.2,0
		c-6-27.8-11.9-55.6-17.8-83.5c-13.9,0-27.7,0-41.6,0c0,48.5,0,97,0,145.5c10.8,0,21.7,0,32.5,0c0-28.7,0-57.3,0-86
		c0.2,0.2,0.3,0.4,0.4,0.6c2.6,11.4,5.2,22.8,7.8,34.2c3.8,16.7,7.6,33.4,11.4,50.1c0.2,0.9,0.5,1.1,1.5,1.1c12.5,0,25,0,37.5,0
		C1542.4,353.2,1542.8,353.2,1543.2,353.2z M1552.2,298.3c0,0.2-0.1,0.3-0.1,0.4c0.2,8.6,0.3,17.3,0.6,25.9
		c0.2,5.6,2.1,10.8,5.1,15.5c4.1,6.3,10,10.1,17,12.5c5.4,1.8,10.9,2.6,16.5,2.9c7.8,0.4,15.6,0,23.1-2.3
		c7.3-2.2,13.6-6.1,18.1-12.4c4.8-6.7,6.9-14.4,7.3-22.6c0.2-5,0.1-10.1-0.2-15.2c-0.2-4.1-1.2-8.1-2.9-11.9
		c-3-6.6-7.8-11.5-13.6-15.5c-5.6-3.9-11.7-6.8-17.8-9.7c-4.1-2-8.2-3.9-12.2-6.1c-3.1-1.7-5.7-4.1-7.1-7.5
		c-3.2-7.5,1.2-16.2,10.1-15.6c5,0.3,8.2,3.3,8.4,8.3c0.2,4.3,0.1,8.5,0.1,12.8c0,0.4,0,0.8,0.1,1.3c11.2,0,22.3,0,33.6,0
		c0-2.7,0-5.4,0-8.1c0.1-6.3,0.1-12.6-1.3-18.9c-2.9-12.6-10.5-21-22.9-24.8c-4.6-1.4-9.3-2.1-14-2.3c-8.9-0.4-17.7,0.2-26.1,3.3
		c-11,4-18.1,11.6-21,22.9c-2.5,10-2.3,20.1-0.3,30.1c1.8,9.5,7,16.8,15,22c5.9,3.9,12.4,6.8,18.9,9.5c3.7,1.6,7.4,3,10.8,5.3
		c7.7,5.2,9.4,12.2,6.3,21.2c-0.8,2.4-2.7,3.9-5.2,4.3c-1.6,0.2-3.2,0.3-4.8,0.1c-4.9-0.9-8.2-5-8.2-10c0-4.8,0-9.5,0-14.3
		c0-0.4,0-0.7,0-1.1C1574.4,298.3,1563.3,298.3,1552.2,298.3z M1305.1,305.6c-0.1,0-0.1,0-0.2,0c0-0.1-0.1-0.1-0.1-0.2
		c-1.1-7.5-2.1-15.1-3.2-22.6c-1.7-12.3-3.5-24.7-5.2-37c-1.7-12.4-3.5-24.7-5.2-37.1c-0.1-0.9-0.4-1.1-1.3-1.1
		c-10.8,0-21.6,0-32.4,0c-0.4,0-0.7,0-1.1,0c0,0.3,0,0.5,0,0.6c1.3,6.4,2.5,12.7,3.8,19.1c3.9,19.6,7.8,39.2,11.7,58.7
		c4.4,22.1,8.8,44.2,13.2,66.3c0.2,0.8,0.5,1,1.2,1c12.3,0,24.7,0,37,0c0.8,0,1.1-0.3,1.2-1c0.7-3.8,1.5-7.6,2.3-11.4
		c2.8-13.9,5.5-27.9,8.3-41.8c2.9-14.5,5.8-29.1,8.6-43.6c2.8-14,5.6-28,8.3-41.9c0.4-1.9,0.7-3.8,1.1-5.8c-11.6,0-23.1,0-34.7,0
		C1314.2,240.3,1309.7,272.9,1305.1,305.6z"/>
	<path d="M1543.2,353.2c-0.4,0-0.8,0-1.2,0c-12.5,0-25,0-37.5,0c-0.9,0-1.3-0.3-1.5-1.1c-3.8-16.7-7.6-33.4-11.4-50.1
		c-2.6-11.4-5.2-22.8-7.8-34.2c0-0.2-0.1-0.4-0.4-0.6c0,28.6,0,57.2,0,86c-10.9,0-21.7,0-32.5,0c0-48.5,0-97,0-145.5
		c13.9,0,27.7,0,41.6,0c6,27.8,11.9,55.7,17.8,83.5c0.1,0,0.1,0,0.2,0c0-27.8,0-55.6,0-83.4c10.9,0,21.8,0,32.7,0
		C1543.2,256.1,1543.2,304.6,1543.2,353.2z"/>
	<path d="M1442.5,280.2c0,13.8,0.1,27.6,0,41.3c0,9.4-3.2,17.7-10.1,24.2c-4.9,4.6-10.7,7.2-17.2,8.5c-7.4,1.6-15,1.4-22.5,1.1
		c-5.1-0.2-10.1-1-14.8-2.9c-11.7-4.5-18.7-13-20.9-25.4c-0.3-1.9-0.4-3.8-0.4-5.7c0-27.5-0.1-55,0-82.6c0-10.2,3.6-19,11.6-25.6
		c5.2-4.3,11.3-6.6,18-7.6c8-1.2,16.1-1.1,24.2-0.4c7.4,0.7,14.2,3,20.1,7.6c6.7,5.3,10.5,12.3,11.6,20.8c0.3,2.2,0.4,4.4,0.4,6.7
		C1442.5,253.7,1442.5,266.9,1442.5,280.2z M1408.2,280.1c0-7,0-14,0-21.1c0-4.5,0-9,0-13.6c0-3.7-2.2-6.8-5.6-8.1
		c-3.2-1.3-6.9-0.5-9.4,2.1c-1.8,1.9-2.4,4.2-2.4,6.8c0,22.6,0,45.3,0,67.9c0,0.2,0,0.5,0,0.7c0.2,6,5.4,9.9,11,8.4
		c3.8-1,6.3-4.5,6.3-8.7C1408.2,303,1408.2,291.6,1408.2,280.1z"/>
	<path d="M1552.2,298.3c11.1,0,22.2,0,33.5,0c0,0.4,0,0.8,0,1.1c0,4.8,0,9.5,0,14.3c0,5,3.4,9.1,8.2,10c1.5,0.3,3.2,0.2,4.8-0.1
		c2.5-0.4,4.4-1.9,5.2-4.3c3.1-8.9,1.5-15.9-6.3-21.2c-3.4-2.3-7.1-3.7-10.8-5.3c-6.5-2.7-12.9-5.6-18.9-9.5
		c-8.1-5.3-13.2-12.5-15-22c-1.9-10-2.2-20.1,0.3-30.1c2.9-11.3,10-18.9,21-22.9c8.5-3.1,17.3-3.7,26.1-3.3c4.8,0.2,9.5,0.9,14,2.3
		c12.4,3.9,20,12.2,22.9,24.8c1.4,6.2,1.4,12.5,1.3,18.9c0,2.7,0,5.3,0,8.1c-11.3,0-22.4,0-33.6,0c0-0.4-0.1-0.8-0.1-1.3
		c0-4.3,0-8.5-0.1-12.8c-0.2-5-3.4-7.9-8.4-8.3c-8.9-0.6-13.2,8.2-10.1,15.6c1.4,3.4,4,5.8,7.1,7.5c4,2.2,8.1,4.2,12.2,6.1
		c6.1,2.9,12.2,5.9,17.8,9.7c5.8,4,10.6,8.9,13.6,15.5c1.7,3.8,2.7,7.7,2.9,11.9c0.2,5.1,0.4,10.1,0.2,15.2
		c-0.4,8.1-2.4,15.8-7.3,22.6c-4.5,6.3-10.8,10.2-18.1,12.4c-7.5,2.3-15.3,2.7-23.1,2.3c-5.6-0.3-11.2-1.1-16.5-2.9
		c-7-2.4-13-6.2-17-12.5c-3-4.7-4.9-9.9-5.1-15.5c-0.3-8.6-0.4-17.3-0.6-25.9C1552.1,298.6,1552.1,298.5,1552.2,298.3z"/>
	<path d="M1305.1,305.6c4.5-32.6,9.1-65.3,13.6-98c11.6,0,23.1,0,34.7,0c-0.4,2-0.8,3.9-1.1,5.8c-2.8,14-5.6,28-8.3,41.9
		c-2.9,14.5-5.8,29.1-8.6,43.6c-2.8,13.9-5.5,27.9-8.3,41.8c-0.8,3.8-1.5,7.6-2.3,11.4c-0.1,0.7-0.4,1-1.2,1c-12.3,0-24.7,0-37,0
		c-0.8,0-1.1-0.2-1.2-1c-4.4-22.1-8.8-44.2-13.2-66.3c-3.9-19.6-7.8-39.2-11.7-58.7c-1.3-6.4-2.5-12.7-3.8-19.1c0-0.2,0-0.3,0-0.6
		c0.4,0,0.7,0,1.1,0c10.8,0,21.6,0,32.4,0c0.8,0,1.2,0.2,1.3,1.1c1.7,12.4,3.4,24.7,5.2,37.1c1.7,12.3,3.5,24.7,5.2,37
		c1.1,7.5,2.1,15.1,3.2,22.6c0,0.1,0.1,0.1,0.1,0.2C1305,305.6,1305,305.6,1305.1,305.6z"/>
</g>
</svg>
