<?xml version="1.0" encoding="utf-8"?>
<!-- Generator: Adobe Illustrator 19.1.0, SVG Export Plug-In . SVG Version: 6.00 Build 0)  -->
<svg version="1.1" id="Layer_1" xmlns="http://www.w3.org/2000/svg" xmlns:xlink="http://www.w3.org/1999/xlink" x="0px" y="0px"
	 viewBox="-187 88.6 385 385" style="enable-background:new -187 88.6 385 385;" xml:space="preserve">
<g>
	<path d="M-12.9,159.2c1.7,0,2.9-1.7,3.9-4.4c1.4-3.3,8-9.5,17.1-9.5c6.9,0,13.6,4.3,19.1,8.7c5.2,4.3,9.4,4.4,9.4,6.4
		c0,0.6-1.1,1.1-2.4,1.1c-5.2,0-14.2-7.8-24-7.8c-11,0-19.8,9.5-19.8,14.8c0,1.6,0.6,2.9,2.7,2.9c2.4,0,5-5.7,11.1-5.7
		c5.6,0,10.3,5.4,18.2,4.3c1-0.2,1.3,1.3,0.6,1.6c-15.6,8.9-32.2,17.2-32.2,45.2c0,21.5,12.1,42.2,38.7,42.2c27.7,0,41-18,41-42.2
		c0-20.9-12.6-40.2-29.7-40.2c-0.6,0-1.3,0-1.9,0.2c-1.1,0.3-2.1,1.3-2.1,2.7c0,1.7,0.5,2.2,1.6,3c11,7.8,14.7,15.3,14.7,36.4
		c0,14.8-6.1,31.4-21.4,31.4c-16.6,0-23.7-17.8-23.7-33.7c0-18.5,4.7-27.2,16.3-36c12.5-9.5,27.4-14,27.4-22.6
		c0-4.3-4.5-5.1-7.5-5.2c-2.7-0.2-6.4-1.1-8.3-3.8c-7.7-8.1-16.6-16.4-27.2-16.4c-15.2,0-24.1,16.1-24.1,22.1
		C-15.6,157-15.1,159.2-12.9,159.2z"/>
	<path d="M138.5,183h2.4c0.7,0,1.7,0.7,1.9,1.8c0.4,1,0.5,1.6,0.5,4.8v54.1c0,3.3-0.1,3.9-0.5,4.8c-0.2,0.9-1.1,1.6-1.9,1.6h-2.4
		c-1.7,0-3,1.4-3,3.3c0,2.7,1.3,3.5,5.4,3.5h47l2.3-0.2c1.9-0.1,2.5-0.6,3.3-2.7l3.5-8.1c0.7-1.7,1-2.8,1-3.4c0-1.7-1.2-2.9-3.1-2.9
		c-1.6,0-2.1,0.5-3.6,2.6c-2.4,3.5-4.7,5.3-7.5,5.8c-2.1,0.4-5.2,0.5-11.1,0.5c-6.4,0-8.7-0.2-10.3-0.9c-1.9-0.7-2.3-2.1-2.3-8.5
		V220c0-2.7,0.4-3.9,1.1-4.4c0.6-0.4,1.4-0.5,4.9-0.5h9.4c3.1,0,4.7-1.4,4.7-4.3c0-2.9-1.2-4-4.7-4h-15.3v-15.6
		c0-6.4,0.7-7.2,7.3-7.2h8c7.5,0,9.8,0.9,12.2,4.4c0.9,1.1,1.3,1.8,1.4,2.1c0.5,0.5,1.1,1,1.7,1.2c0.3,0.2,0.9,0.4,1.3,0.4
		c1.8,0,3.3-1.3,3.3-2.8c0-0.4-0.2-1.1-0.6-2.1l-3.5-9c-0.7-1.8-1.7-2.5-4.2-2.5h-46.1c-4,0-5.5,0.9-5.5,3.5
		C135.4,181.4,136.9,183,138.5,183z"/>
	<path d="M74.4,183h2.3c0.8,0,1.8,0.6,2.1,1.6c0.3,1,0.5,1.4,0.5,4.7V244c0,3-0.2,3.7-0.5,4.4c-0.2,0.9-1.2,1.6-2.1,1.6h-2.3
		c-1.7,0-3,1.4-3,3.3c0,2.7,1.3,3.5,5.2,3.5h46.1c3.7,0,4.7-0.6,5.9-3.7l3.7-9.2l0.5-1.3c0.2-0.5,0.4-1,0.4-1.4
		c0-1.4-1.4-2.7-3.3-2.7c-1.4,0-2.1,0.5-3.6,2.5c-2.9,4.1-4.4,5.7-6.4,6.5c-2.1,0.9-3.3,0.9-10.6,0.9c-8.3,0-10.6-0.2-11.7-1
		c-1.4-0.9-1.7-2.1-1.7-7.4v-50.9c0-3.2,0-3.9,0.3-4.7c0.3-1,1.4-1.6,2.5-1.6h2.6c1.7,0,3.1-1.4,3.1-3.4c0-2.7-1.4-3.5-5.7-3.5H76.7
		c-4,0-5.5,0.9-5.5,3.5C71.2,181.6,72.7,183,74.4,183z"/>
	<path d="M55,334.8c-0.2,2.8-0.4,3-4,3.7c-2.1,0.2-3.3,1.4-3.3,3.3c0,1,0.6,2.1,1.4,2.7c4.2,3.3,18.4,6,30.9,6
		c13.3,0,22.5-2.7,29.6-8.3c8.9-7.1,13.7-19.3,13.7-33.9c0-13.1-3.8-24.1-10.9-31.3c-7.3-7.5-17.1-10.8-31.5-10.8
		c-13.6,0-27.5,2.5-31.8,5.8c-1,0.7-1.6,1.8-1.6,2.9c0,1.8,1.3,3,3.6,3.2c3.3,0.2,3.6,0.7,3.7,3.9l0.2,2.7v47.6L55,334.8z
		 M71.9,286.1c0-6.9,0.2-8.3,1.8-9.6c1.8-1.4,5.2-2.5,9-2.5c14.3,0,22.8,12.6,22.8,33.9c0,21.4-8.5,33.7-23.3,33.7
		c-4.5,0-8.2-1.2-9.4-3c-0.7-1.2-0.9-2.2-0.9-7.1V286.1L71.9,286.1z"/>
	<path d="M133.1,298.3c3.7,4.4,4.8,5.1,16.2,13.1c6.8,4.8,10.1,7.5,12.7,10.4c2.5,2.9,3.8,5.8,3.8,9c0,6.4-5.2,10.8-13,10.8
		c-6.8,0-13.6-3.7-17.7-9.6l-1.7-2.5c-0.7-1-1.8-1.6-3-1.6c-2.1,0-3.8,1.6-3.8,3.7c0,0.6,0.1,1.7,0.3,2.4l3,12.1
		c0.7,2.9,1.7,4,3.7,4c1.1,0,1.7-0.2,2.8-1.1c1.1-1,1.6-1.2,2.5-1.2c0.7,0,1,0.2,2.6,0.6c3.5,1.1,8.2,1.7,12.6,1.7
		c15.8,0,26.1-9.2,26.1-23.3c0-6.2-2.4-12.2-6.4-16.5c-3.8-4-6.9-6.4-16.4-13.1c-2.5-1.8-4.4-3.2-5.9-4.2c-2.4-1.8-4.3-3.7-5.5-5.6
		c-1-1.3-1.3-3.2-1.3-5c0-5,3.6-8.1,9.1-8.1c4,0,8,1.3,11.3,3.9c2.5,1.9,3,2.5,5.7,6.5c1.1,1.6,1.8,2.1,3.1,2.1
		c2.1,0,3.5-1.3,3.5-2.9c0-0.3,0-1.1-0.2-1.7l-2.9-13.1c-0.5-2.2-1.6-3.4-3.3-3.4c-1,0-1.3,0.1-2.5,1c-1,0.7-1.9,1.1-2.8,1.1
		c-0.5,0-1.1-0.1-1.7-0.2c-1.7-0.4-2.6-0.6-3-0.7c-3.5-0.7-7-1.1-10.3-1.1c-13.2,0-22.1,7.8-22.1,19.5
		C128.5,290.5,130,294.8,133.1,298.3z"/>
	<path d="M-132.5,276c12.5,0,13.9,0.5,17.2,5.6c1.2,1.8,2.1,2.5,3.3,2.5c1.8,0,3.1-1.3,3.1-2.9c0-0.5-0.1-1-0.5-1.9l-3-8.2
		c-0.6-1.4-1.2-2.4-1.9-2.8c-0.6-0.4-1-0.5-2.9-0.5h-44c-4,0-5.2,0.9-5.2,3.5c0,1.8,1.2,3.4,2.9,3.4h2.4c0.9,0,1.7,0.6,2.1,1.6
		c0.2,0.9,0.4,1.6,0.4,4.8v54.4c0,3.3-0.2,3.9-0.4,4.8c-0.4,1-1.2,1.6-2.1,1.6h-2.4c-1.7,0-3.1,1.6-3.1,3.4c0,2.7,1.4,3.5,5.5,3.5
		h22.1c4.4,0,5.9-0.9,5.9-3.5c0-1.8-1.3-3.4-3.1-3.4h-2.8c-1,0-2.1-0.6-2.5-1.6c-0.4-0.9-0.4-1.4-0.4-4.8v-24.2c0-2.5,0.2-3.3,1-3.7
		c0.5-0.2,1.1-0.4,1.7-0.4h12.2c3.3,0,5.2-1.4,5.2-4.1c0-2.8-1.7-4.1-5.2-4.1H-142V281C-142,276.3-141.3,276-132.5,276z"/>
	<path d="M174.3,358.3h-333.8c-10.2,0-18.5,8.3-18.5,18.7c0,10.3,8.3,18.7,18.5,18.7h333.8c10.2,0,18.5-8.4,18.5-18.7
		S184.6,358.3,174.3,358.3z M-114,383.8c0,0.3,0.5,0.6,0.8,0.6h0.8c0.6,0,1.2,0.6,1.2,1.3c0,1-0.5,1.3-2,1.3h-8.7
		c-1.5,0-2.1-0.4-2.1-1.3c0-0.7,0.6-1.3,1.3-1.3h0.8c0.4,0,0.7-0.2,0.9-0.6c0.2-0.4,0.2-0.6,0.2-1.8v-9.7l-7.7,7.6
		c-0.5,0.5-1,0.8-1.6,0.8s-0.8-0.2-1.4-0.8l-7.3-7.9v9.9c0,1.2,0,1.5,0.2,1.8c0.2,0.4,0.5,0.6,0.8,0.6h1c0.7,0,1.3,0.6,1.3,1.3
		c0,1-0.5,1.3-2.2,1.3h-6.2c-1.5,0-2.1-0.4-2.1-1.3c0-0.7,0.6-1.3,1.3-1.3h0.8c0.4,0,0.6-0.2,0.8-0.6c0.2-0.3,0.2-0.7,0.2-1.8v-10.9
		c0-1.3,0-1.6-0.2-1.9c-0.2-0.4-0.5-0.6-0.8-0.6h-0.8c-0.6,0-1.3-0.6-1.3-1.3c0-1,0.6-1.3,2.1-1.3h7c0.7,0,1.2,0.2,2.1,1.3l6.6,7.3
		l7.7-7.6c0.8-0.8,1.3-1,2-1h5.4c1.4,0,2,0.4,2,1.3c0,0.7-0.6,1.3-1.2,1.3h-1c-0.4,0-0.6,0.2-0.7,0.6c-0.2,0.3-0.2,0.7-0.2,2V382
		C-114.3,383.2-114.3,383.5-114,383.8z M-56.6,387.1h-9.7c-1,0-1.4-0.6-1.4-1.3c0-1,0.6-1.2,1.7-1.3c1-0.2,1.1-0.7,0.7-1.7l-0.2-0.3
		c-0.2-0.6-0.6-0.7-1.7-0.7h-7.1c-0.7,0-1.1,0.1-1.3,0.2c-0.2,0.1-0.4,0.2-0.5,0.4l-0.1,0.2c-0.3,0.7,0,1.8,1.3,1.9
		c1.2,0.2,1.7,0.5,1.7,1.3s-0.6,1.3-1.6,1.3h-7.6c-1.1,0-1.7-0.4-1.7-1.2s0.4-1.1,1.3-1.3c0.6-0.2,0.9-0.3,1.1-0.6
		c0.2-0.2,0.6-1.1,1.1-1.9l7.1-14.4c0.8-1.7,2.4-2,3.8-2c1.3,0,2.9,0.5,3.7,2l6.9,13.8c1,2.1,1.4,2.6,2.1,2.9l0.6,0.2
		c0.5,0.2,0.8,0.6,0.8,1.2C-55,386.5-55.5,387.1-56.6,387.1z M-0.1,387.1h-5.7c-1.3,0-1.9-0.4-2.8-1.3l-6.4-7.3
		c-0.6-0.7-0.9-1.1-0.9-1.4c0-0.6,0.6-0.9,1.8-1c3.3-0.3,4.8-1.4,4.8-4c0-2.8-2.2-4-5-4c-1.1,0-2.1,0.2-2.7,0.6
		c-0.5,0.4-0.6,1-0.8,2.3l-0.1,1.5v9.5c0,1.2,0,1.6,0.2,1.8c0.2,0.4,0.6,0.6,0.9,0.6h1c0.6,0,1.2,0.6,1.2,1.3c0,1-0.6,1.3-2.1,1.3
		h-8.6c-1.5,0-2.1-0.4-2.1-1.3c0-0.7,0.6-1.3,1.3-1.3h0.8c0.5,0,0.7-0.2,0.9-0.6c0.1-0.3,0.1-0.6,0.1-1.8v-10.6
		c0-1.3-0.2-1.5-1.4-1.6c-1-0.1-1.4-0.5-1.4-1.3c0-0.4,0.2-0.9,0.5-1.1c1.5-1.2,7.3-1.8,11.9-1.8c7.9,0,12.2,2.1,12.2,6
		c0,2.7-1.2,4.9-5.5,5.6l4.1,4.5c1.5,1.7,2.6,2.3,3.9,2.5c1,0.2,1,0.3,1.3,0.4c0.2,0.2,0.6,0.6,0.6,1C1.9,386.5,1.2,387.1-0.1,387.1
		z M41.1,387.1h-8.6c-1.5,0-2.1-0.4-2.1-1.3c0-0.7,0.6-1.3,1.3-1.3h0.8c0.5,0,0.7-0.2,0.9-0.6c0.2-0.3,0.2-0.6,0.2-1.8v-10.8
		c0-1.2,0-1.7-0.2-1.8c-0.2-0.3-0.4-0.6-0.9-0.6h-0.8c-0.7,0-1.3-0.6-1.3-1.3c0-1,0.6-1.3,2.1-1.3h8.6c1.6,0,2.1,0.4,2.1,1.3
		c0,0.8-0.6,1.3-1.2,1.3h-1c-0.4,0-0.6,0.2-0.8,0.6s-0.2,0.6-0.2,1.8v10.8c0,0.8,0,1.6,0.2,1.9c0.2,0.3,0.5,0.6,0.7,0.6h1
		c0.6,0,1.2,0.6,1.2,1.3C43.2,386.7,42.6,387.1,41.1,387.1z M59.3,387.1h-5.8c-1.3,0-1.7-0.4-2.5-1.3l-8.4-8.4
		c-0.4-0.4-0.6-0.6-0.6-0.9c0-0.2,0.2-0.6,0.6-0.8l6.1-5.2c0.9-0.8,0.4-1.7-0.2-1.7s-0.9-0.5-0.9-1.4c0-0.9,0.4-1.3,1.4-1.3h9.8
		c1,0,1.6,0.4,1.6,1.3c0,0.8-0.4,1.2-1.6,1.3c-1,0.2-1.5,0.2-2.2,0.3s-1.6,0.7-2.1,1.2l-5.6,4.8l6.9,6.8c1.8,1.8,2.9,2.4,3.7,2.6
		c1,0.2,1.5,0.5,1.5,1.3C61.1,386.5,60.5,387.1,59.3,387.1z M113.9,382.3l-1.6,4c-0.2,0.6-0.4,0.6-1.2,0.6l-1,0.1H91.3
		c-1.6,0-2.1-0.4-2.1-1.3c0-0.7,0.6-1.3,1.2-1.3h1c0.2,0,0.6-0.3,0.7-0.6c0.2-0.3,0.2-0.6,0.2-1.8v-10.8c0-1.2,0-1.5-0.2-1.8
		c-0.1-0.4-0.4-0.7-0.7-0.7h-1c-0.6,0-1.3-0.6-1.3-1.3c0-1,0.6-1.3,2.2-1.3h18.6c1,0,1.3,0.2,1.5,0.6l1.4,3.7
		c0.1,0.2,0.2,0.4,0.2,0.6c-0.1,0.4-0.9,0.7-1.5,0.7c-0.2,0-0.4,0-0.6-0.1c-0.2-0.1-0.4-0.2-0.6-0.2c-0.1-0.2-0.2-0.3-0.5-0.6
		c-0.8-0.9-2.1-1.8-5.1-1.8h-3.1c-2.6,0-2.9,0.2-2.9,1.9v3.5h6c1.4,0,1.8,0.8,1.8,1.6c0,0.9-0.6,1.7-1.8,1.7h-3.7
		c-1,0-1.7-0.1-1.9,0.1c-0.2,0.2-0.4,0.6-0.4,1.3v3.3c0,1.7,0.2,2,1,2.2c0.5,0.2,1.6,0.2,4,0.2c2.3,0,3.6-0.1,4.3-0.2
		c1-0.2,2.5-1.9,3.3-2.9c0.5-0.6,0.6-0.7,1.3-0.7c0.8,0,1.2,0.3,1.3,0.7C114,381.6,114,381.8,113.9,382.3z M166.2,371.8
		c-0.5,0-0.9-0.2-1.3-0.7c-0.2-0.2-0.2-0.3-0.4-0.4c-0.5-0.6-1.2-1.7-1.7-1.8c-0.5-0.2-1.2-0.2-2.9-0.2c-2.2,0-2.5,0.2-2.5,1.5v11.7
		c0,1.2,0,1.5,0.2,1.8c0.2,0.4,0.6,0.6,1,0.6h1.3c0.7,0,1.3,0.6,1.3,1.3c0,1-0.6,1.3-2.2,1.3h-9.3c-1.7,0-2.2-0.4-2.2-1.3
		c0-0.7,0.6-1.3,1.2-1.3h1.3c0.3,0,0.6-0.2,0.8-0.6c0.2-0.3,0.2-0.6,0.2-1.8v-11.7c0-1.3-0.2-1.5-2.9-1.5c-2.4,0-3.5,1-4.4,2.1
		l-0.2,0.3c-0.4,0.6-0.8,0.7-1.4,0.7s-1.6-0.3-1.7-0.7c0-0.1,0.1-0.5,0.2-0.7l1.4-3.7c0.2-0.8,0.5-0.8,1.6-0.8h21.4
		c0.7,0,0.7,0,1,0.2c0.2,0.1,0.2,0.3,0.4,0.6l1.5,3.9c0.1,0.2,0.2,0.4,0.2,0.5C167.8,371.5,166.9,371.8,166.2,371.8z"/>
	<path d="M-69.8,372.6c-0.4-0.8-0.6-1.4-0.6-2h-0.2c-0.2,0.5-0.4,1.2-0.8,2l-2.3,5.2l-0.5,0.7l0.8-0.1h5.6l0.6,0.1l-0.4-0.7
		L-69.8,372.6z"/>
	<path d="M-154,252.7c1.7,4.6,3.3,6,6.8,6c1.6,0,3.1-0.6,4-1.3c1-1,1.3-1.8,2.4-4.7l11.7-33.2l11,33.2c1.4,4.4,3.3,6,6.8,6
		c3.6,0,5.2-1.7,7-7.6l19.1-62.2c1.3-4.3,2.1-5.4,4.7-6h0.6c0.9,0,1.7,0.6,2.1,1.6c0.3,0.9,0.3,1.4,0.3,4.8v54.4
		c0,3.3,0,3.9-0.3,4.8c-0.2,0.9-1.2,1.4-2.1,1.4h-2.4c-1.7,0-3.1,1.6-3.1,3.4c0,2.7,1.4,3.5,5.5,3.5h21.8c3.8,0,5.2-0.9,5.2-3.4
		c0-1.9-1.2-3.5-2.9-3.5h-2.3c-1,0-1.9-0.6-2.3-1.4c-0.2-1-0.4-1.7-0.4-4.8v-22.1c0-5.6,0.5-6,4.9-6h16.4c2.4,0,3.6,0.4,4.2,1.1
		c0.6,0.7,0.6,1.2,0.6,5.7v21.4c0,3.2,0,3.9-0.4,4.8c-0.4,0.9-1.3,1.4-2.1,1.4h-2.3c-1.7,0-3.1,1.6-3.1,3.4c0,2.7,1.3,3.5,5.4,3.5
		h21.8c4.2,0,5.5-0.9,5.5-3.5c0-1.8-1.3-3.4-3.1-3.4h-2.4c-0.9,0-1.8-0.6-2.1-1.4c-0.3-1-0.5-1.7-0.5-4.8v-54.4c0-3,0.1-3.9,0.5-4.8
		c0.2-0.9,1.2-1.6,2.1-1.6h2.4c1.7,0,3.1-1.4,3.1-3.4c0-2.7-1.4-3.5-5.5-3.5H-37c-4,0-5.5,0.9-5.5,3.5c0,1.9,1.4,3.4,3.3,3.4h2.3
		c0.8,0,1.8,0.6,2.1,1.6c0.4,0.9,0.4,1.6,0.4,4.8v17.9h-26v-17.9c0-3,0.1-3.9,0.4-4.8c0.3-0.9,1.3-1.6,2.3-1.6h2.3
		c1.7,0,3-1.4,3-3.4c0-2.7-1.3-3.5-5.2-3.5h-39.6c-3.3,0-4.5,1-4.5,3.4c0,1.9,1.2,3.2,3.8,3.4c2.9,0.3,4.2,1.3,4.2,3.2
		c0,0.7-0.2,1.7-0.5,2.9l-14.4,46.2l-14.3-44.4c-1-2.9-1.2-4-1.2-5.1c0-2.1,0.9-2.9,4-3.3c2.6-0.4,3.8-1.3,3.8-3.3
		c0-2.1-1.3-3.3-4-3.3h-23.5c-2.8,0-4.2,1.3-4.2,3.7c0,1.8,1,2.7,3.5,3.3c2.8,0.7,3.7,1.3,4.4,3.2c0.2,0.5,0.5,1.4,1,2.8l5.5,16.3
		l-11.1,31.4l-16.1-45.6l-1-2.8c-0.4-1-0.5-1.8-0.5-2.7c0-1.9,1.1-2.8,3.7-3c3.1-0.2,4.3-1.1,4.3-3.2c0-2.1-1.2-3.3-4-3.3H-183
		c-2.8,0-4,1.1-4,3.2c0,1.9,0.9,2.8,3.3,3.3c3.8,0.9,4.4,1.4,6.2,6.4L-154,252.7z"/>
	<path d="M-71.8,350.4c20.2,0,34.4-11.5,38.5-30.4c4,18.7,18.1,30.4,37.9,30.4c24.3,0,39.8-16.6,39.8-42.5
		c0-25.5-15.5-41.8-39.5-41.8c-20,0-34,11.4-38.1,30.2c-4-18.7-18.1-30.2-38.3-30.2c-24.1,0-39.5,16.5-39.5,42.4
		C-111,333.8-95.6,350.4-71.8,350.4z M4.7,274.7c13.3,0,21.7,12.9,21.7,33.8c0,20.3-8.3,33.2-21.4,33.2c-13.6,0-21.6-12.4-21.6-33.1
		C-16.6,287.5-8.6,274.7,4.7,274.7z M-71.7,274.7c13.3,0,21.7,12.9,21.7,33.8c0,20.3-8.3,33.2-21.4,33.2
		c-13.6,0-21.6-12.4-21.6-33.1C-93,287.5-85,274.7-71.7,274.7z"/>
</g>
</svg>
