<?xml version="1.0" encoding="utf-8"?>
<!-- Generator: Adobe Illustrator 18.1.1, SVG Export Plug-In . SVG Version: 6.00 Build 0)  -->
<svg version="1.1" id="Layer_1" xmlns="http://www.w3.org/2000/svg" xmlns:xlink="http://www.w3.org/1999/xlink" x="0px" y="0px"
	 viewBox="-1.1 -0.9 202.3 202.1" enable-background="new -1.1 -0.9 202.3 202.1" xml:space="preserve">
<path d="M196.4,196.7L196.4,196.7c-4.4,4.4-13.2,4.5-19.1,0.1L3.1,22.4C-1.3,18-1.3,9.2,3.1,3.3l0,0c4.4-4.4,13.2-4.5,19.1-0.1
	l174.2,172.9C200.8,182,200.8,190.8,196.4,196.7z"/>
<path d="M197.1,4.4L197.1,4.4c4.4,4.4,4.4,13.2,0,19.1l-175,173.5c-4.4,4.4-13.2,4.4-19.1,0l0,0c-4.4-4.4-4.4-13.2,0-19.1l175-173.5
	C182.4-1.5,191.2-1.5,197.1,4.4z"/>
</svg>
